G04 #@! TF.GenerationSoftware,KiCad,Pcbnew,(5.99.0-221-ga18d3cc)*
G04 #@! TF.CreationDate,2019-11-20T11:00:33-07:00*
G04 #@! TF.ProjectId,gva-pha202amp,6776612d-7068-4613-9230-32616d702e6b,rev?*
G04 #@! TF.SameCoordinates,Original*
G04 #@! TF.FileFunction,Copper,L1,Top*
G04 #@! TF.FilePolarity,Positive*
%FSLAX46Y46*%
G04 Gerber Fmt 4.6, Leading zero omitted, Abs format (unit mm)*
G04 Created by KiCad (PCBNEW (5.99.0-221-ga18d3cc)) date 2019-11-20 11:00:33*
%MOMM*%
%LPD*%
G04 APERTURE LIST*
%ADD10C,0.150000*%
%ADD11C,0.001000*%
%ADD12C,0.700000*%
%ADD13C,4.400000*%
%ADD14C,0.100000*%
%ADD15C,0.950000*%
%ADD16R,1.020000X0.510000*%
%ADD17C,1.970000*%
%ADD18C,0.875000*%
%ADD19O,1.700000X1.700000*%
%ADD20R,1.700000X1.700000*%
%ADD21R,0.660000X12.744600*%
%ADD22C,0.660000*%
%ADD23R,1.000000X0.660000*%
%ADD24R,0.200000X0.200000*%
%ADD25C,1.425000*%
%ADD26C,1.150000*%
%ADD27C,0.975000*%
%ADD28R,1.500000X5.080000*%
%ADD29C,1.000000*%
%ADD30R,1.840000X2.200000*%
%ADD31R,1.500000X1.000000*%
%ADD32R,1.800000X1.000000*%
%ADD33C,0.850000*%
%ADD34C,0.800000*%
%ADD35C,0.380600*%
%ADD36C,0.254000*%
G04 APERTURE END LIST*
D10*
X134404761Y-98132619D02*
X134452380Y-98085000D01*
X134547619Y-98037380D01*
X134785714Y-98037380D01*
X134880952Y-98085000D01*
X134928571Y-98132619D01*
X134976190Y-98227857D01*
X134976190Y-98323095D01*
X134928571Y-98465952D01*
X134357142Y-99037380D01*
X134976190Y-99037380D01*
X135309523Y-98037380D02*
X135928571Y-98037380D01*
X135595238Y-98418333D01*
X135738095Y-98418333D01*
X135833333Y-98465952D01*
X135880952Y-98513571D01*
X135928571Y-98608809D01*
X135928571Y-98846904D01*
X135880952Y-98942142D01*
X135833333Y-98989761D01*
X135738095Y-99037380D01*
X135452380Y-99037380D01*
X135357142Y-98989761D01*
X135309523Y-98942142D01*
X136785714Y-98989761D02*
X136690476Y-99037380D01*
X136500000Y-99037380D01*
X136404761Y-98989761D01*
X136357142Y-98942142D01*
X136309523Y-98846904D01*
X136309523Y-98561190D01*
X136357142Y-98465952D01*
X136404761Y-98418333D01*
X136500000Y-98370714D01*
X136690476Y-98370714D01*
X136785714Y-98418333D01*
X137214285Y-99037380D02*
X137214285Y-98370714D01*
X137214285Y-98465952D02*
X137261904Y-98418333D01*
X137357142Y-98370714D01*
X137500000Y-98370714D01*
X137595238Y-98418333D01*
X137642857Y-98513571D01*
X137642857Y-99037380D01*
X137642857Y-98513571D02*
X137690476Y-98418333D01*
X137785714Y-98370714D01*
X137928571Y-98370714D01*
X138023809Y-98418333D01*
X138071428Y-98513571D01*
X138071428Y-99037380D01*
X139309523Y-99037380D02*
X139309523Y-98037380D01*
X139547619Y-98037380D01*
X139690476Y-98085000D01*
X139785714Y-98180238D01*
X139833333Y-98275476D01*
X139880952Y-98465952D01*
X139880952Y-98608809D01*
X139833333Y-98799285D01*
X139785714Y-98894523D01*
X139690476Y-98989761D01*
X139547619Y-99037380D01*
X139309523Y-99037380D01*
X140166666Y-98037380D02*
X140500000Y-99037380D01*
X140833333Y-98037380D01*
X141500000Y-98513571D02*
X141642857Y-98561190D01*
X141690476Y-98608809D01*
X141738095Y-98704047D01*
X141738095Y-98846904D01*
X141690476Y-98942142D01*
X141642857Y-98989761D01*
X141547619Y-99037380D01*
X141166666Y-99037380D01*
X141166666Y-98037380D01*
X141500000Y-98037380D01*
X141595238Y-98085000D01*
X141642857Y-98132619D01*
X141690476Y-98227857D01*
X141690476Y-98323095D01*
X141642857Y-98418333D01*
X141595238Y-98465952D01*
X141500000Y-98513571D01*
X141166666Y-98513571D01*
X142880952Y-98751666D02*
X143357142Y-98751666D01*
X142785714Y-99037380D02*
X143119047Y-98037380D01*
X143452380Y-99037380D01*
X143785714Y-99037380D02*
X143785714Y-98370714D01*
X143785714Y-98465952D02*
X143833333Y-98418333D01*
X143928571Y-98370714D01*
X144071428Y-98370714D01*
X144166666Y-98418333D01*
X144214285Y-98513571D01*
X144214285Y-99037380D01*
X144214285Y-98513571D02*
X144261904Y-98418333D01*
X144357142Y-98370714D01*
X144500000Y-98370714D01*
X144595238Y-98418333D01*
X144642857Y-98513571D01*
X144642857Y-99037380D01*
X145119047Y-98370714D02*
X145119047Y-99370714D01*
X145119047Y-98418333D02*
X145214285Y-98370714D01*
X145404761Y-98370714D01*
X145500000Y-98418333D01*
X145547619Y-98465952D01*
X145595238Y-98561190D01*
X145595238Y-98846904D01*
X145547619Y-98942142D01*
X145500000Y-98989761D01*
X145404761Y-99037380D01*
X145214285Y-99037380D01*
X145119047Y-98989761D01*
X146166666Y-99037380D02*
X146071428Y-98989761D01*
X146023809Y-98894523D01*
X146023809Y-98037380D01*
X146547619Y-99037380D02*
X146547619Y-98370714D01*
X146547619Y-98037380D02*
X146500000Y-98085000D01*
X146547619Y-98132619D01*
X146595238Y-98085000D01*
X146547619Y-98037380D01*
X146547619Y-98132619D01*
X146880952Y-98370714D02*
X147261904Y-98370714D01*
X147023809Y-99037380D02*
X147023809Y-98180238D01*
X147071428Y-98085000D01*
X147166666Y-98037380D01*
X147261904Y-98037380D01*
X147595238Y-99037380D02*
X147595238Y-98370714D01*
X147595238Y-98037380D02*
X147547619Y-98085000D01*
X147595238Y-98132619D01*
X147642857Y-98085000D01*
X147595238Y-98037380D01*
X147595238Y-98132619D01*
X148452380Y-98989761D02*
X148357142Y-99037380D01*
X148166666Y-99037380D01*
X148071428Y-98989761D01*
X148023809Y-98894523D01*
X148023809Y-98513571D01*
X148071428Y-98418333D01*
X148166666Y-98370714D01*
X148357142Y-98370714D01*
X148452380Y-98418333D01*
X148500000Y-98513571D01*
X148500000Y-98608809D01*
X148023809Y-98704047D01*
X148928571Y-99037380D02*
X148928571Y-98370714D01*
X148928571Y-98561190D02*
X148976190Y-98465952D01*
X149023809Y-98418333D01*
X149119047Y-98370714D01*
X149214285Y-98370714D01*
X150214285Y-98370714D02*
X150452380Y-99037380D01*
X150690476Y-98370714D01*
X151595238Y-99037380D02*
X151023809Y-99037380D01*
X151309523Y-99037380D02*
X151309523Y-98037380D01*
X151214285Y-98180238D01*
X151119047Y-98275476D01*
X151023809Y-98323095D01*
X135476190Y-99695000D02*
X135380952Y-99647380D01*
X135238095Y-99647380D01*
X135095238Y-99695000D01*
X135000000Y-99790238D01*
X134952380Y-99885476D01*
X134904761Y-100075952D01*
X134904761Y-100218809D01*
X134952380Y-100409285D01*
X135000000Y-100504523D01*
X135095238Y-100599761D01*
X135238095Y-100647380D01*
X135333333Y-100647380D01*
X135476190Y-100599761D01*
X135523809Y-100552142D01*
X135523809Y-100218809D01*
X135333333Y-100218809D01*
X135809523Y-99647380D02*
X136142857Y-100647380D01*
X136476190Y-99647380D01*
X136761904Y-100361666D02*
X137238095Y-100361666D01*
X136666666Y-100647380D02*
X137000000Y-99647380D01*
X137333333Y-100647380D01*
X137666666Y-100266428D02*
X138428571Y-100266428D01*
X139047619Y-100075952D02*
X138952380Y-100028333D01*
X138904761Y-99980714D01*
X138857142Y-99885476D01*
X138857142Y-99837857D01*
X138904761Y-99742619D01*
X138952380Y-99695000D01*
X139047619Y-99647380D01*
X139238095Y-99647380D01*
X139333333Y-99695000D01*
X139380952Y-99742619D01*
X139428571Y-99837857D01*
X139428571Y-99885476D01*
X139380952Y-99980714D01*
X139333333Y-100028333D01*
X139238095Y-100075952D01*
X139047619Y-100075952D01*
X138952380Y-100123571D01*
X138904761Y-100171190D01*
X138857142Y-100266428D01*
X138857142Y-100456904D01*
X138904761Y-100552142D01*
X138952380Y-100599761D01*
X139047619Y-100647380D01*
X139238095Y-100647380D01*
X139333333Y-100599761D01*
X139380952Y-100552142D01*
X139428571Y-100456904D01*
X139428571Y-100266428D01*
X139380952Y-100171190D01*
X139333333Y-100123571D01*
X139238095Y-100075952D01*
X140285714Y-99980714D02*
X140285714Y-100647380D01*
X140047619Y-99599761D02*
X139809523Y-100314047D01*
X140428571Y-100314047D01*
X140809523Y-100266428D02*
X141571428Y-100266428D01*
X141190476Y-100647380D02*
X141190476Y-99885476D01*
X142095238Y-100599761D02*
X142095238Y-100647380D01*
X142047619Y-100742619D01*
X142000000Y-100790238D01*
X143285714Y-100647380D02*
X143285714Y-99647380D01*
X143666666Y-99647380D01*
X143761904Y-99695000D01*
X143809523Y-99742619D01*
X143857142Y-99837857D01*
X143857142Y-99980714D01*
X143809523Y-100075952D01*
X143761904Y-100123571D01*
X143666666Y-100171190D01*
X143285714Y-100171190D01*
X144285714Y-100647380D02*
X144285714Y-99647380D01*
X144285714Y-100123571D02*
X144857142Y-100123571D01*
X144857142Y-100647380D02*
X144857142Y-99647380D01*
X145285714Y-100361666D02*
X145761904Y-100361666D01*
X145190476Y-100647380D02*
X145523809Y-99647380D01*
X145857142Y-100647380D01*
X146190476Y-100266428D02*
X146952380Y-100266428D01*
X147380952Y-99742619D02*
X147428571Y-99695000D01*
X147523809Y-99647380D01*
X147761904Y-99647380D01*
X147857142Y-99695000D01*
X147904761Y-99742619D01*
X147952380Y-99837857D01*
X147952380Y-99933095D01*
X147904761Y-100075952D01*
X147333333Y-100647380D01*
X147952380Y-100647380D01*
X148571428Y-99647380D02*
X148666666Y-99647380D01*
X148761904Y-99695000D01*
X148809523Y-99742619D01*
X148857142Y-99837857D01*
X148904761Y-100028333D01*
X148904761Y-100266428D01*
X148857142Y-100456904D01*
X148809523Y-100552142D01*
X148761904Y-100599761D01*
X148666666Y-100647380D01*
X148571428Y-100647380D01*
X148476190Y-100599761D01*
X148428571Y-100552142D01*
X148380952Y-100456904D01*
X148333333Y-100266428D01*
X148333333Y-100028333D01*
X148380952Y-99837857D01*
X148428571Y-99742619D01*
X148476190Y-99695000D01*
X148571428Y-99647380D01*
X149285714Y-99742619D02*
X149333333Y-99695000D01*
X149428571Y-99647380D01*
X149666666Y-99647380D01*
X149761904Y-99695000D01*
X149809523Y-99742619D01*
X149857142Y-99837857D01*
X149857142Y-99933095D01*
X149809523Y-100075952D01*
X149238095Y-100647380D01*
X149857142Y-100647380D01*
X150285714Y-100266428D02*
X151047619Y-100266428D01*
X150666666Y-100647380D02*
X150666666Y-99885476D01*
X135238095Y-102257380D02*
X135238095Y-101257380D01*
X135619047Y-101257380D01*
X135714285Y-101305000D01*
X135761904Y-101352619D01*
X135809523Y-101447857D01*
X135809523Y-101590714D01*
X135761904Y-101685952D01*
X135714285Y-101733571D01*
X135619047Y-101781190D01*
X135238095Y-101781190D01*
X136666666Y-102257380D02*
X136666666Y-101733571D01*
X136619047Y-101638333D01*
X136523809Y-101590714D01*
X136333333Y-101590714D01*
X136238095Y-101638333D01*
X136666666Y-102209761D02*
X136571428Y-102257380D01*
X136333333Y-102257380D01*
X136238095Y-102209761D01*
X136190476Y-102114523D01*
X136190476Y-102019285D01*
X136238095Y-101924047D01*
X136333333Y-101876428D01*
X136571428Y-101876428D01*
X136666666Y-101828809D01*
X137571428Y-101590714D02*
X137571428Y-102257380D01*
X137142857Y-101590714D02*
X137142857Y-102114523D01*
X137190476Y-102209761D01*
X137285714Y-102257380D01*
X137428571Y-102257380D01*
X137523809Y-102209761D01*
X137571428Y-102162142D01*
X138190476Y-102257380D02*
X138095238Y-102209761D01*
X138047619Y-102114523D01*
X138047619Y-101257380D01*
X139333333Y-102257380D02*
X139333333Y-101257380D01*
X139333333Y-101733571D02*
X139904761Y-101733571D01*
X139904761Y-102257380D02*
X139904761Y-101257380D01*
X140809523Y-102257380D02*
X140809523Y-101733571D01*
X140761904Y-101638333D01*
X140666666Y-101590714D01*
X140476190Y-101590714D01*
X140380952Y-101638333D01*
X140809523Y-102209761D02*
X140714285Y-102257380D01*
X140476190Y-102257380D01*
X140380952Y-102209761D01*
X140333333Y-102114523D01*
X140333333Y-102019285D01*
X140380952Y-101924047D01*
X140476190Y-101876428D01*
X140714285Y-101876428D01*
X140809523Y-101828809D01*
X141285714Y-101590714D02*
X141285714Y-102257380D01*
X141285714Y-101685952D02*
X141333333Y-101638333D01*
X141428571Y-101590714D01*
X141571428Y-101590714D01*
X141666666Y-101638333D01*
X141714285Y-101733571D01*
X141714285Y-102257380D01*
X142142857Y-102209761D02*
X142238095Y-102257380D01*
X142428571Y-102257380D01*
X142523809Y-102209761D01*
X142571428Y-102114523D01*
X142571428Y-102066904D01*
X142523809Y-101971666D01*
X142428571Y-101924047D01*
X142285714Y-101924047D01*
X142190476Y-101876428D01*
X142142857Y-101781190D01*
X142142857Y-101733571D01*
X142190476Y-101638333D01*
X142285714Y-101590714D01*
X142428571Y-101590714D01*
X142523809Y-101638333D01*
X143380952Y-102209761D02*
X143285714Y-102257380D01*
X143095238Y-102257380D01*
X143000000Y-102209761D01*
X142952380Y-102114523D01*
X142952380Y-101733571D01*
X143000000Y-101638333D01*
X143095238Y-101590714D01*
X143285714Y-101590714D01*
X143380952Y-101638333D01*
X143428571Y-101733571D01*
X143428571Y-101828809D01*
X142952380Y-101924047D01*
X144000000Y-102257380D02*
X143904761Y-102209761D01*
X143857142Y-102114523D01*
X143857142Y-101257380D01*
X145142857Y-102257380D02*
X145142857Y-101257380D01*
X145714285Y-102257380D02*
X145285714Y-101685952D01*
X145714285Y-101257380D02*
X145142857Y-101828809D01*
X146714285Y-102162142D02*
X146666666Y-102209761D01*
X146523809Y-102257380D01*
X146428571Y-102257380D01*
X146285714Y-102209761D01*
X146190476Y-102114523D01*
X146142857Y-102019285D01*
X146095238Y-101828809D01*
X146095238Y-101685952D01*
X146142857Y-101495476D01*
X146190476Y-101400238D01*
X146285714Y-101305000D01*
X146428571Y-101257380D01*
X146523809Y-101257380D01*
X146666666Y-101305000D01*
X146714285Y-101352619D01*
X147666666Y-102257380D02*
X147095238Y-102257380D01*
X147380952Y-102257380D02*
X147380952Y-101257380D01*
X147285714Y-101400238D01*
X147190476Y-101495476D01*
X147095238Y-101543095D01*
X148619047Y-101305000D02*
X148523809Y-101257380D01*
X148380952Y-101257380D01*
X148238095Y-101305000D01*
X148142857Y-101400238D01*
X148095238Y-101495476D01*
X148047619Y-101685952D01*
X148047619Y-101828809D01*
X148095238Y-102019285D01*
X148142857Y-102114523D01*
X148238095Y-102209761D01*
X148380952Y-102257380D01*
X148476190Y-102257380D01*
X148619047Y-102209761D01*
X148666666Y-102162142D01*
X148666666Y-101828809D01*
X148476190Y-101828809D01*
X149095238Y-102257380D02*
X149095238Y-101257380D01*
X149476190Y-101257380D01*
X149571428Y-101305000D01*
X149619047Y-101352619D01*
X149666666Y-101447857D01*
X149666666Y-101590714D01*
X149619047Y-101685952D01*
X149571428Y-101733571D01*
X149476190Y-101781190D01*
X149095238Y-101781190D01*
X150000000Y-101257380D02*
X150238095Y-102257380D01*
X150428571Y-101543095D01*
X150619047Y-102257380D01*
X150857142Y-101257380D01*
X136142857Y-103772142D02*
X136095238Y-103819761D01*
X135952380Y-103867380D01*
X135857142Y-103867380D01*
X135714285Y-103819761D01*
X135619047Y-103724523D01*
X135571428Y-103629285D01*
X135523809Y-103438809D01*
X135523809Y-103295952D01*
X135571428Y-103105476D01*
X135619047Y-103010238D01*
X135714285Y-102915000D01*
X135857142Y-102867380D01*
X135952380Y-102867380D01*
X136095238Y-102915000D01*
X136142857Y-102962619D01*
X136571428Y-102867380D02*
X136571428Y-103676904D01*
X136619047Y-103772142D01*
X136666666Y-103819761D01*
X136761904Y-103867380D01*
X136952380Y-103867380D01*
X137047619Y-103819761D01*
X137095238Y-103772142D01*
X137142857Y-103676904D01*
X137142857Y-102867380D01*
X137571428Y-103819761D02*
X137714285Y-103867380D01*
X137952380Y-103867380D01*
X138047619Y-103819761D01*
X138095238Y-103772142D01*
X138142857Y-103676904D01*
X138142857Y-103581666D01*
X138095238Y-103486428D01*
X138047619Y-103438809D01*
X137952380Y-103391190D01*
X137761904Y-103343571D01*
X137666666Y-103295952D01*
X137619047Y-103248333D01*
X137571428Y-103153095D01*
X137571428Y-103057857D01*
X137619047Y-102962619D01*
X137666666Y-102915000D01*
X137761904Y-102867380D01*
X138000000Y-102867380D01*
X138142857Y-102915000D01*
X139142857Y-103867380D02*
X138809523Y-103391190D01*
X138571428Y-103867380D02*
X138571428Y-102867380D01*
X138952380Y-102867380D01*
X139047619Y-102915000D01*
X139095238Y-102962619D01*
X139142857Y-103057857D01*
X139142857Y-103200714D01*
X139095238Y-103295952D01*
X139047619Y-103343571D01*
X138952380Y-103391190D01*
X138571428Y-103391190D01*
X140047619Y-103867380D02*
X139571428Y-103867380D01*
X139571428Y-102867380D01*
X141095238Y-102819761D02*
X140238095Y-104105476D01*
X142000000Y-103772142D02*
X141952380Y-103819761D01*
X141809523Y-103867380D01*
X141714285Y-103867380D01*
X141571428Y-103819761D01*
X141476190Y-103724523D01*
X141428571Y-103629285D01*
X141380952Y-103438809D01*
X141380952Y-103295952D01*
X141428571Y-103105476D01*
X141476190Y-103010238D01*
X141571428Y-102915000D01*
X141714285Y-102867380D01*
X141809523Y-102867380D01*
X141952380Y-102915000D01*
X142000000Y-102962619D01*
X142619047Y-102867380D02*
X142809523Y-102867380D01*
X142904761Y-102915000D01*
X143000000Y-103010238D01*
X143047619Y-103200714D01*
X143047619Y-103534047D01*
X143000000Y-103724523D01*
X142904761Y-103819761D01*
X142809523Y-103867380D01*
X142619047Y-103867380D01*
X142523809Y-103819761D01*
X142428571Y-103724523D01*
X142380952Y-103534047D01*
X142380952Y-103200714D01*
X142428571Y-103010238D01*
X142523809Y-102915000D01*
X142619047Y-102867380D01*
X143809523Y-103343571D02*
X143952380Y-103391190D01*
X144000000Y-103438809D01*
X144047619Y-103534047D01*
X144047619Y-103676904D01*
X144000000Y-103772142D01*
X143952380Y-103819761D01*
X143857142Y-103867380D01*
X143476190Y-103867380D01*
X143476190Y-102867380D01*
X143809523Y-102867380D01*
X143904761Y-102915000D01*
X143952380Y-102962619D01*
X144000000Y-103057857D01*
X144000000Y-103153095D01*
X143952380Y-103248333D01*
X143904761Y-103295952D01*
X143809523Y-103343571D01*
X143476190Y-103343571D01*
X145047619Y-103867380D02*
X144714285Y-103391190D01*
X144476190Y-103867380D02*
X144476190Y-102867380D01*
X144857142Y-102867380D01*
X144952380Y-102915000D01*
X145000000Y-102962619D01*
X145047619Y-103057857D01*
X145047619Y-103200714D01*
X145000000Y-103295952D01*
X144952380Y-103343571D01*
X144857142Y-103391190D01*
X144476190Y-103391190D01*
X145428571Y-103581666D02*
X145904761Y-103581666D01*
X145333333Y-103867380D02*
X145666666Y-102867380D01*
X146000000Y-103867380D01*
X147047619Y-102962619D02*
X147095238Y-102915000D01*
X147190476Y-102867380D01*
X147428571Y-102867380D01*
X147523809Y-102915000D01*
X147571428Y-102962619D01*
X147619047Y-103057857D01*
X147619047Y-103153095D01*
X147571428Y-103295952D01*
X147000000Y-103867380D01*
X147619047Y-103867380D01*
X148238095Y-102867380D02*
X148333333Y-102867380D01*
X148428571Y-102915000D01*
X148476190Y-102962619D01*
X148523809Y-103057857D01*
X148571428Y-103248333D01*
X148571428Y-103486428D01*
X148523809Y-103676904D01*
X148476190Y-103772142D01*
X148428571Y-103819761D01*
X148333333Y-103867380D01*
X148238095Y-103867380D01*
X148142857Y-103819761D01*
X148095238Y-103772142D01*
X148047619Y-103676904D01*
X148000000Y-103486428D01*
X148000000Y-103248333D01*
X148047619Y-103057857D01*
X148095238Y-102962619D01*
X148142857Y-102915000D01*
X148238095Y-102867380D01*
X149523809Y-103867380D02*
X148952380Y-103867380D01*
X149238095Y-103867380D02*
X149238095Y-102867380D01*
X149142857Y-103010238D01*
X149047619Y-103105476D01*
X148952380Y-103153095D01*
X150000000Y-103867380D02*
X150190476Y-103867380D01*
X150285714Y-103819761D01*
X150333333Y-103772142D01*
X150428571Y-103629285D01*
X150476190Y-103438809D01*
X150476190Y-103057857D01*
X150428571Y-102962619D01*
X150380952Y-102915000D01*
X150285714Y-102867380D01*
X150095238Y-102867380D01*
X150000000Y-102915000D01*
X149952380Y-102962619D01*
X149904761Y-103057857D01*
X149904761Y-103295952D01*
X149952380Y-103391190D01*
X150000000Y-103438809D01*
X150095238Y-103486428D01*
X150285714Y-103486428D01*
X150380952Y-103438809D01*
X150428571Y-103391190D01*
X150476190Y-103295952D01*
D11*
G36*
X205733000Y-145424000D02*
G01*
X205500000Y-145658000D01*
X205500000Y-145328000D01*
X205733000Y-145424000D01*
G37*
X205733000Y-145424000D02*
X205500000Y-145658000D01*
X205500000Y-145328000D01*
X205733000Y-145424000D01*
G36*
X203501000Y-145658000D02*
G01*
X203267000Y-145424000D01*
X203500000Y-145328000D01*
X203501000Y-145658000D01*
G37*
X203501000Y-145658000D02*
X203267000Y-145424000D01*
X203500000Y-145328000D01*
X203501000Y-145658000D01*
G36*
X207830000Y-147658000D02*
G01*
X207497000Y-147659000D01*
X207733000Y-147424000D01*
X207830000Y-147658000D01*
G37*
X207830000Y-147658000D02*
X207497000Y-147659000D01*
X207733000Y-147424000D01*
X207830000Y-147658000D01*
G36*
X201503000Y-147659000D02*
G01*
X201170000Y-147658000D01*
X201267000Y-147424000D01*
X201503000Y-147659000D01*
G37*
X201503000Y-147659000D02*
X201170000Y-147658000D01*
X201267000Y-147424000D01*
X201503000Y-147659000D01*
G36*
X207840000Y-207342000D02*
G01*
X207743000Y-207576000D01*
X207507000Y-207341000D01*
X207840000Y-207342000D01*
G37*
X207840000Y-207342000D02*
X207743000Y-207576000D01*
X207507000Y-207341000D01*
X207840000Y-207342000D01*
G36*
X203510000Y-209672000D02*
G01*
X203277000Y-209576000D01*
X203510000Y-209342000D01*
X203510000Y-209672000D01*
G37*
X203510000Y-209672000D02*
X203277000Y-209576000D01*
X203510000Y-209342000D01*
X203510000Y-209672000D01*
G36*
X205743000Y-209576000D02*
G01*
X205510000Y-209672000D01*
X205509000Y-209342000D01*
X205743000Y-209576000D01*
G37*
X205743000Y-209576000D02*
X205510000Y-209672000D01*
X205509000Y-209342000D01*
X205743000Y-209576000D01*
G36*
X201277000Y-207576000D02*
G01*
X201180000Y-207342000D01*
X201513000Y-207341000D01*
X201277000Y-207576000D01*
G37*
X201277000Y-207576000D02*
X201180000Y-207342000D01*
X201513000Y-207341000D01*
X201277000Y-207576000D01*
G36*
X201690000Y-194601000D02*
G01*
X201310000Y-194601000D01*
X201310000Y-160399000D01*
X201690000Y-160399000D01*
X201690000Y-194601000D01*
G37*
X201690000Y-194601000D02*
X201310000Y-194601000D01*
X201310000Y-160399000D01*
X201690000Y-160399000D01*
X201690000Y-194601000D01*
G36*
X207690000Y-194601000D02*
G01*
X207310000Y-194601000D01*
X207310000Y-160399000D01*
X207690000Y-160399000D01*
X207690000Y-194601000D01*
G37*
X207690000Y-194601000D02*
X207310000Y-194601000D01*
X207310000Y-160399000D01*
X207690000Y-160399000D01*
X207690000Y-194601000D01*
G36*
X190233000Y-162424000D02*
G01*
X190000000Y-162658000D01*
X190000000Y-162328000D01*
X190233000Y-162424000D01*
G37*
X190233000Y-162424000D02*
X190000000Y-162658000D01*
X190000000Y-162328000D01*
X190233000Y-162424000D01*
G36*
X188001000Y-162658000D02*
G01*
X187767000Y-162424000D01*
X188000000Y-162328000D01*
X188001000Y-162658000D01*
G37*
X188001000Y-162658000D02*
X187767000Y-162424000D01*
X188000000Y-162328000D01*
X188001000Y-162658000D01*
G36*
X192330000Y-164658000D02*
G01*
X191997000Y-164659000D01*
X192233000Y-164424000D01*
X192330000Y-164658000D01*
G37*
X192330000Y-164658000D02*
X191997000Y-164659000D01*
X192233000Y-164424000D01*
X192330000Y-164658000D01*
G36*
X186003000Y-164659000D02*
G01*
X185670000Y-164658000D01*
X185767000Y-164424000D01*
X186003000Y-164659000D01*
G37*
X186003000Y-164659000D02*
X185670000Y-164658000D01*
X185767000Y-164424000D01*
X186003000Y-164659000D01*
G36*
X192340000Y-224342000D02*
G01*
X192243000Y-224576000D01*
X192007000Y-224341000D01*
X192340000Y-224342000D01*
G37*
X192340000Y-224342000D02*
X192243000Y-224576000D01*
X192007000Y-224341000D01*
X192340000Y-224342000D01*
G36*
X188010000Y-226672000D02*
G01*
X187777000Y-226576000D01*
X188010000Y-226342000D01*
X188010000Y-226672000D01*
G37*
X188010000Y-226672000D02*
X187777000Y-226576000D01*
X188010000Y-226342000D01*
X188010000Y-226672000D01*
G36*
X190243000Y-226576000D02*
G01*
X190010000Y-226672000D01*
X190009000Y-226342000D01*
X190243000Y-226576000D01*
G37*
X190243000Y-226576000D02*
X190010000Y-226672000D01*
X190009000Y-226342000D01*
X190243000Y-226576000D01*
G36*
X185777000Y-224576000D02*
G01*
X185680000Y-224342000D01*
X186013000Y-224341000D01*
X185777000Y-224576000D01*
G37*
X185777000Y-224576000D02*
X185680000Y-224342000D01*
X186013000Y-224341000D01*
X185777000Y-224576000D01*
G36*
X186190000Y-211601000D02*
G01*
X185810000Y-211601000D01*
X185810000Y-177399000D01*
X186190000Y-177399000D01*
X186190000Y-211601000D01*
G37*
X186190000Y-211601000D02*
X185810000Y-211601000D01*
X185810000Y-177399000D01*
X186190000Y-177399000D01*
X186190000Y-211601000D01*
G36*
X192190000Y-211601000D02*
G01*
X191810000Y-211601000D01*
X191810000Y-177399000D01*
X192190000Y-177399000D01*
X192190000Y-211601000D01*
G37*
X192190000Y-211601000D02*
X191810000Y-211601000D01*
X191810000Y-177399000D01*
X192190000Y-177399000D01*
X192190000Y-211601000D01*
G36*
X190233000Y-93424000D02*
G01*
X190000000Y-93658000D01*
X190000000Y-93328000D01*
X190233000Y-93424000D01*
G37*
X190233000Y-93424000D02*
X190000000Y-93658000D01*
X190000000Y-93328000D01*
X190233000Y-93424000D01*
G36*
X188001000Y-93658000D02*
G01*
X187767000Y-93424000D01*
X188000000Y-93328000D01*
X188001000Y-93658000D01*
G37*
X188001000Y-93658000D02*
X187767000Y-93424000D01*
X188000000Y-93328000D01*
X188001000Y-93658000D01*
G36*
X192330000Y-95658000D02*
G01*
X191997000Y-95659000D01*
X192233000Y-95424000D01*
X192330000Y-95658000D01*
G37*
X192330000Y-95658000D02*
X191997000Y-95659000D01*
X192233000Y-95424000D01*
X192330000Y-95658000D01*
G36*
X186003000Y-95659000D02*
G01*
X185670000Y-95658000D01*
X185767000Y-95424000D01*
X186003000Y-95659000D01*
G37*
X186003000Y-95659000D02*
X185670000Y-95658000D01*
X185767000Y-95424000D01*
X186003000Y-95659000D01*
G36*
X192340000Y-155342000D02*
G01*
X192243000Y-155576000D01*
X192007000Y-155341000D01*
X192340000Y-155342000D01*
G37*
X192340000Y-155342000D02*
X192243000Y-155576000D01*
X192007000Y-155341000D01*
X192340000Y-155342000D01*
G36*
X188010000Y-157672000D02*
G01*
X187777000Y-157576000D01*
X188010000Y-157342000D01*
X188010000Y-157672000D01*
G37*
X188010000Y-157672000D02*
X187777000Y-157576000D01*
X188010000Y-157342000D01*
X188010000Y-157672000D01*
G36*
X190243000Y-157576000D02*
G01*
X190010000Y-157672000D01*
X190009000Y-157342000D01*
X190243000Y-157576000D01*
G37*
X190243000Y-157576000D02*
X190010000Y-157672000D01*
X190009000Y-157342000D01*
X190243000Y-157576000D01*
G36*
X185777000Y-155576000D02*
G01*
X185680000Y-155342000D01*
X186013000Y-155341000D01*
X185777000Y-155576000D01*
G37*
X185777000Y-155576000D02*
X185680000Y-155342000D01*
X186013000Y-155341000D01*
X185777000Y-155576000D01*
G36*
X186190000Y-142601000D02*
G01*
X185810000Y-142601000D01*
X185810000Y-108399000D01*
X186190000Y-108399000D01*
X186190000Y-142601000D01*
G37*
X186190000Y-142601000D02*
X185810000Y-142601000D01*
X185810000Y-108399000D01*
X186190000Y-108399000D01*
X186190000Y-142601000D01*
G36*
X192190000Y-142601000D02*
G01*
X191810000Y-142601000D01*
X191810000Y-108399000D01*
X192190000Y-108399000D01*
X192190000Y-142601000D01*
G37*
X192190000Y-142601000D02*
X191810000Y-142601000D01*
X191810000Y-108399000D01*
X192190000Y-108399000D01*
X192190000Y-142601000D01*
G36*
X161733000Y-93424000D02*
G01*
X161500000Y-93658000D01*
X161500000Y-93328000D01*
X161733000Y-93424000D01*
G37*
X161733000Y-93424000D02*
X161500000Y-93658000D01*
X161500000Y-93328000D01*
X161733000Y-93424000D01*
G36*
X159501000Y-93658000D02*
G01*
X159267000Y-93424000D01*
X159500000Y-93328000D01*
X159501000Y-93658000D01*
G37*
X159501000Y-93658000D02*
X159267000Y-93424000D01*
X159500000Y-93328000D01*
X159501000Y-93658000D01*
G36*
X163830000Y-95658000D02*
G01*
X163497000Y-95659000D01*
X163733000Y-95424000D01*
X163830000Y-95658000D01*
G37*
X163830000Y-95658000D02*
X163497000Y-95659000D01*
X163733000Y-95424000D01*
X163830000Y-95658000D01*
G36*
X157503000Y-95659000D02*
G01*
X157170000Y-95658000D01*
X157267000Y-95424000D01*
X157503000Y-95659000D01*
G37*
X157503000Y-95659000D02*
X157170000Y-95658000D01*
X157267000Y-95424000D01*
X157503000Y-95659000D01*
G36*
X163840000Y-155342000D02*
G01*
X163743000Y-155576000D01*
X163507000Y-155341000D01*
X163840000Y-155342000D01*
G37*
X163840000Y-155342000D02*
X163743000Y-155576000D01*
X163507000Y-155341000D01*
X163840000Y-155342000D01*
G36*
X159510000Y-157672000D02*
G01*
X159277000Y-157576000D01*
X159510000Y-157342000D01*
X159510000Y-157672000D01*
G37*
X159510000Y-157672000D02*
X159277000Y-157576000D01*
X159510000Y-157342000D01*
X159510000Y-157672000D01*
G36*
X161743000Y-157576000D02*
G01*
X161510000Y-157672000D01*
X161509000Y-157342000D01*
X161743000Y-157576000D01*
G37*
X161743000Y-157576000D02*
X161510000Y-157672000D01*
X161509000Y-157342000D01*
X161743000Y-157576000D01*
G36*
X157277000Y-155576000D02*
G01*
X157180000Y-155342000D01*
X157513000Y-155341000D01*
X157277000Y-155576000D01*
G37*
X157277000Y-155576000D02*
X157180000Y-155342000D01*
X157513000Y-155341000D01*
X157277000Y-155576000D01*
G36*
X157690000Y-142601000D02*
G01*
X157310000Y-142601000D01*
X157310000Y-108399000D01*
X157690000Y-108399000D01*
X157690000Y-142601000D01*
G37*
X157690000Y-142601000D02*
X157310000Y-142601000D01*
X157310000Y-108399000D01*
X157690000Y-108399000D01*
X157690000Y-142601000D01*
G36*
X163690000Y-142601000D02*
G01*
X163310000Y-142601000D01*
X163310000Y-108399000D01*
X163690000Y-108399000D01*
X163690000Y-142601000D01*
G37*
X163690000Y-142601000D02*
X163310000Y-142601000D01*
X163310000Y-108399000D01*
X163690000Y-108399000D01*
X163690000Y-142601000D01*
G36*
X161733000Y-162424000D02*
G01*
X161500000Y-162658000D01*
X161500000Y-162328000D01*
X161733000Y-162424000D01*
G37*
X161733000Y-162424000D02*
X161500000Y-162658000D01*
X161500000Y-162328000D01*
X161733000Y-162424000D01*
G36*
X159501000Y-162658000D02*
G01*
X159267000Y-162424000D01*
X159500000Y-162328000D01*
X159501000Y-162658000D01*
G37*
X159501000Y-162658000D02*
X159267000Y-162424000D01*
X159500000Y-162328000D01*
X159501000Y-162658000D01*
G36*
X163830000Y-164658000D02*
G01*
X163497000Y-164659000D01*
X163733000Y-164424000D01*
X163830000Y-164658000D01*
G37*
X163830000Y-164658000D02*
X163497000Y-164659000D01*
X163733000Y-164424000D01*
X163830000Y-164658000D01*
G36*
X157503000Y-164659000D02*
G01*
X157170000Y-164658000D01*
X157267000Y-164424000D01*
X157503000Y-164659000D01*
G37*
X157503000Y-164659000D02*
X157170000Y-164658000D01*
X157267000Y-164424000D01*
X157503000Y-164659000D01*
G36*
X163840000Y-224342000D02*
G01*
X163743000Y-224576000D01*
X163507000Y-224341000D01*
X163840000Y-224342000D01*
G37*
X163840000Y-224342000D02*
X163743000Y-224576000D01*
X163507000Y-224341000D01*
X163840000Y-224342000D01*
G36*
X159510000Y-226672000D02*
G01*
X159277000Y-226576000D01*
X159510000Y-226342000D01*
X159510000Y-226672000D01*
G37*
X159510000Y-226672000D02*
X159277000Y-226576000D01*
X159510000Y-226342000D01*
X159510000Y-226672000D01*
G36*
X161743000Y-226576000D02*
G01*
X161510000Y-226672000D01*
X161509000Y-226342000D01*
X161743000Y-226576000D01*
G37*
X161743000Y-226576000D02*
X161510000Y-226672000D01*
X161509000Y-226342000D01*
X161743000Y-226576000D01*
G36*
X157277000Y-224576000D02*
G01*
X157180000Y-224342000D01*
X157513000Y-224341000D01*
X157277000Y-224576000D01*
G37*
X157277000Y-224576000D02*
X157180000Y-224342000D01*
X157513000Y-224341000D01*
X157277000Y-224576000D01*
G36*
X157690000Y-211601000D02*
G01*
X157310000Y-211601000D01*
X157310000Y-177399000D01*
X157690000Y-177399000D01*
X157690000Y-211601000D01*
G37*
X157690000Y-211601000D02*
X157310000Y-211601000D01*
X157310000Y-177399000D01*
X157690000Y-177399000D01*
X157690000Y-211601000D01*
G36*
X163690000Y-211601000D02*
G01*
X163310000Y-211601000D01*
X163310000Y-177399000D01*
X163690000Y-177399000D01*
X163690000Y-211601000D01*
G37*
X163690000Y-211601000D02*
X163310000Y-211601000D01*
X163310000Y-177399000D01*
X163690000Y-177399000D01*
X163690000Y-211601000D01*
G36*
X140983000Y-111199000D02*
G01*
X140750000Y-111433000D01*
X140750000Y-111103000D01*
X140983000Y-111199000D01*
G37*
X140983000Y-111199000D02*
X140750000Y-111433000D01*
X140750000Y-111103000D01*
X140983000Y-111199000D01*
G36*
X138751000Y-111433000D02*
G01*
X138517000Y-111199000D01*
X138750000Y-111103000D01*
X138751000Y-111433000D01*
G37*
X138751000Y-111433000D02*
X138517000Y-111199000D01*
X138750000Y-111103000D01*
X138751000Y-111433000D01*
G36*
X143080000Y-113433000D02*
G01*
X142747000Y-113434000D01*
X142983000Y-113199000D01*
X143080000Y-113433000D01*
G37*
X143080000Y-113433000D02*
X142747000Y-113434000D01*
X142983000Y-113199000D01*
X143080000Y-113433000D01*
G36*
X136753000Y-113434000D02*
G01*
X136420000Y-113433000D01*
X136517000Y-113199000D01*
X136753000Y-113434000D01*
G37*
X136753000Y-113434000D02*
X136420000Y-113433000D01*
X136517000Y-113199000D01*
X136753000Y-113434000D01*
G36*
X143090000Y-173117000D02*
G01*
X142993000Y-173351000D01*
X142757000Y-173116000D01*
X143090000Y-173117000D01*
G37*
X143090000Y-173117000D02*
X142993000Y-173351000D01*
X142757000Y-173116000D01*
X143090000Y-173117000D01*
G36*
X138760000Y-175447000D02*
G01*
X138527000Y-175351000D01*
X138760000Y-175117000D01*
X138760000Y-175447000D01*
G37*
X138760000Y-175447000D02*
X138527000Y-175351000D01*
X138760000Y-175117000D01*
X138760000Y-175447000D01*
G36*
X140993000Y-175351000D02*
G01*
X140760000Y-175447000D01*
X140759000Y-175117000D01*
X140993000Y-175351000D01*
G37*
X140993000Y-175351000D02*
X140760000Y-175447000D01*
X140759000Y-175117000D01*
X140993000Y-175351000D01*
G36*
X136527000Y-173351000D02*
G01*
X136430000Y-173117000D01*
X136763000Y-173116000D01*
X136527000Y-173351000D01*
G37*
X136527000Y-173351000D02*
X136430000Y-173117000D01*
X136763000Y-173116000D01*
X136527000Y-173351000D01*
G36*
X136940000Y-160376000D02*
G01*
X136560000Y-160376000D01*
X136560000Y-126174000D01*
X136940000Y-126174000D01*
X136940000Y-160376000D01*
G37*
X136940000Y-160376000D02*
X136560000Y-160376000D01*
X136560000Y-126174000D01*
X136940000Y-126174000D01*
X136940000Y-160376000D01*
G36*
X142940000Y-160376000D02*
G01*
X142560000Y-160376000D01*
X142560000Y-126174000D01*
X142940000Y-126174000D01*
X142940000Y-160376000D01*
G37*
X142940000Y-160376000D02*
X142560000Y-160376000D01*
X142560000Y-126174000D01*
X142940000Y-126174000D01*
X142940000Y-160376000D01*
D12*
X181516726Y-158833274D03*
X180350000Y-158350000D03*
X179183274Y-158833274D03*
X178700000Y-160000000D03*
X179183274Y-161166726D03*
X180350000Y-161650000D03*
X181516726Y-161166726D03*
X182000000Y-160000000D03*
D13*
X180350000Y-160000000D03*
D12*
X148166726Y-227833274D03*
X147000000Y-227350000D03*
X145833274Y-227833274D03*
X145350000Y-229000000D03*
X145833274Y-230166726D03*
X147000000Y-230650000D03*
X148166726Y-230166726D03*
X148650000Y-229000000D03*
D13*
X147000000Y-229000000D03*
D12*
X199166726Y-90833274D03*
X198000000Y-90350000D03*
X196833274Y-90833274D03*
X196350000Y-92000000D03*
X196833274Y-93166726D03*
X198000000Y-93650000D03*
X199166726Y-93166726D03*
X199650000Y-92000000D03*
D13*
X198000000Y-92000000D03*
D12*
X218166726Y-168833274D03*
X217000000Y-168350000D03*
X215833274Y-168833274D03*
X215350000Y-170000000D03*
X215833274Y-171166726D03*
X217000000Y-171650000D03*
X218166726Y-171166726D03*
X218650000Y-170000000D03*
D13*
X217000000Y-170000000D03*
D12*
X218166726Y-216833274D03*
X217000000Y-216350000D03*
X215833274Y-216833274D03*
X215350000Y-218000000D03*
X215833274Y-219166726D03*
X217000000Y-219650000D03*
X218166726Y-219166726D03*
X218650000Y-218000000D03*
D13*
X217000000Y-218000000D03*
D12*
X127666726Y-141333274D03*
X126500000Y-140850000D03*
X125333274Y-141333274D03*
X124850000Y-142500000D03*
X125333274Y-143666726D03*
X126500000Y-144150000D03*
X127666726Y-143666726D03*
X128150000Y-142500000D03*
D13*
X126500000Y-142500000D03*
D12*
X127166726Y-91833274D03*
X126000000Y-91350000D03*
X124833274Y-91833274D03*
X124350000Y-93000000D03*
X124833274Y-94166726D03*
X126000000Y-94650000D03*
X127166726Y-94166726D03*
X127650000Y-93000000D03*
D13*
X126000000Y-93000000D03*
D14*
G36*
X152828387Y-170618079D02*
G01*
X152905438Y-170669562D01*
X152956921Y-170746613D01*
X152975000Y-170837500D01*
X152975000Y-171412500D01*
X152956921Y-171503387D01*
X152905438Y-171580438D01*
X152828387Y-171631921D01*
X152737500Y-171650000D01*
X152262500Y-171650000D01*
X152171613Y-171631921D01*
X152094562Y-171580438D01*
X152043079Y-171503387D01*
X152025000Y-171412500D01*
X152025000Y-170837500D01*
X152043079Y-170746613D01*
X152094562Y-170669562D01*
X152171613Y-170618079D01*
X152262500Y-170600000D01*
X152737500Y-170600000D01*
X152828387Y-170618079D01*
G37*
D15*
X152500000Y-171125000D03*
D14*
G36*
X152828387Y-172368079D02*
G01*
X152905438Y-172419562D01*
X152956921Y-172496613D01*
X152975000Y-172587500D01*
X152975000Y-173162500D01*
X152956921Y-173253387D01*
X152905438Y-173330438D01*
X152828387Y-173381921D01*
X152737500Y-173400000D01*
X152262500Y-173400000D01*
X152171613Y-173381921D01*
X152094562Y-173330438D01*
X152043079Y-173253387D01*
X152025000Y-173162500D01*
X152025000Y-172587500D01*
X152043079Y-172496613D01*
X152094562Y-172419562D01*
X152171613Y-172368079D01*
X152262500Y-172350000D01*
X152737500Y-172350000D01*
X152828387Y-172368079D01*
G37*
D15*
X152500000Y-172875000D03*
D16*
X176260000Y-211865000D03*
X176260000Y-213135000D03*
X176260000Y-210595000D03*
X176260000Y-214405000D03*
X170740000Y-214405000D03*
X170740000Y-213135000D03*
X170740000Y-211865000D03*
X170740000Y-210595000D03*
D17*
X173500000Y-212500000D03*
D14*
G36*
X175115400Y-210445000D02*
G01*
X175230538Y-210464213D01*
X175333200Y-210519771D01*
X175412259Y-210605652D01*
X175459149Y-210712551D01*
X175470000Y-210799600D01*
X175470000Y-214200400D01*
X175450787Y-214315538D01*
X175395229Y-214418200D01*
X175309348Y-214497259D01*
X175202449Y-214544149D01*
X175115400Y-214555000D01*
X171884600Y-214555000D01*
X171769462Y-214535787D01*
X171666800Y-214480229D01*
X171587741Y-214394348D01*
X171540851Y-214287449D01*
X171530000Y-214200400D01*
X171530000Y-211233000D01*
X172318000Y-210445000D01*
X175115400Y-210445000D01*
G37*
G36*
X212139962Y-223041651D02*
G01*
X212210930Y-223089070D01*
X212258349Y-223160038D01*
X212275000Y-223243750D01*
X212275000Y-223756250D01*
X212258349Y-223839962D01*
X212210930Y-223910930D01*
X212139962Y-223958349D01*
X212056250Y-223975000D01*
X211618750Y-223975000D01*
X211535038Y-223958349D01*
X211464070Y-223910930D01*
X211416651Y-223839962D01*
X211400000Y-223756250D01*
X211400000Y-223243750D01*
X211416651Y-223160038D01*
X211464070Y-223089070D01*
X211535038Y-223041651D01*
X211618750Y-223025000D01*
X212056250Y-223025000D01*
X212139962Y-223041651D01*
G37*
D18*
X211837500Y-223500000D03*
D14*
G36*
X210564962Y-223041651D02*
G01*
X210635930Y-223089070D01*
X210683349Y-223160038D01*
X210700000Y-223243750D01*
X210700000Y-223756250D01*
X210683349Y-223839962D01*
X210635930Y-223910930D01*
X210564962Y-223958349D01*
X210481250Y-223975000D01*
X210043750Y-223975000D01*
X209960038Y-223958349D01*
X209889070Y-223910930D01*
X209841651Y-223839962D01*
X209825000Y-223756250D01*
X209825000Y-223243750D01*
X209841651Y-223160038D01*
X209889070Y-223089070D01*
X209960038Y-223041651D01*
X210043750Y-223025000D01*
X210481250Y-223025000D01*
X210564962Y-223041651D01*
G37*
D18*
X210262500Y-223500000D03*
D19*
X198300000Y-227540000D03*
X200840000Y-227540000D03*
X203380000Y-227540000D03*
X205920000Y-227540000D03*
X208460000Y-227540000D03*
X211000000Y-227540000D03*
D20*
X213540000Y-227540000D03*
D14*
G36*
X207054962Y-223081651D02*
G01*
X207125930Y-223129070D01*
X207173349Y-223200038D01*
X207190000Y-223283750D01*
X207190000Y-223796250D01*
X207173349Y-223879962D01*
X207125930Y-223950930D01*
X207054962Y-223998349D01*
X206971250Y-224015000D01*
X206533750Y-224015000D01*
X206450038Y-223998349D01*
X206379070Y-223950930D01*
X206331651Y-223879962D01*
X206315000Y-223796250D01*
X206315000Y-223283750D01*
X206331651Y-223200038D01*
X206379070Y-223129070D01*
X206450038Y-223081651D01*
X206533750Y-223065000D01*
X206971250Y-223065000D01*
X207054962Y-223081651D01*
G37*
D18*
X206752500Y-223540000D03*
D14*
G36*
X208629962Y-223081651D02*
G01*
X208700930Y-223129070D01*
X208748349Y-223200038D01*
X208765000Y-223283750D01*
X208765000Y-223796250D01*
X208748349Y-223879962D01*
X208700930Y-223950930D01*
X208629962Y-223998349D01*
X208546250Y-224015000D01*
X208108750Y-224015000D01*
X208025038Y-223998349D01*
X207954070Y-223950930D01*
X207906651Y-223879962D01*
X207890000Y-223796250D01*
X207890000Y-223283750D01*
X207906651Y-223200038D01*
X207954070Y-223129070D01*
X208025038Y-223081651D01*
X208108750Y-223065000D01*
X208546250Y-223065000D01*
X208629962Y-223081651D01*
G37*
D18*
X208327500Y-223540000D03*
D21*
X207510000Y-200970000D03*
X201510000Y-200970000D03*
D22*
X206510000Y-208343000D03*
D14*
G36*
X205276664Y-209109645D02*
G01*
X207276645Y-207109664D01*
X207743336Y-207576355D01*
X205743355Y-209576336D01*
X205276664Y-209109645D01*
G37*
D23*
X205010000Y-209342000D03*
D22*
X202510000Y-208343000D03*
D14*
G36*
X203276645Y-209576336D02*
G01*
X201276664Y-207576355D01*
X201743355Y-207109664D01*
X203743336Y-209109645D01*
X203276645Y-209576336D01*
G37*
D23*
X204010000Y-209342000D03*
D22*
X206500000Y-146657000D03*
D14*
G36*
X205733355Y-145423664D02*
G01*
X207733336Y-147423645D01*
X207266645Y-147890336D01*
X205266664Y-145890355D01*
X205733355Y-145423664D01*
G37*
D23*
X205000000Y-145658000D03*
X204000000Y-145658000D03*
D22*
X202500000Y-146657000D03*
D14*
G36*
X203733336Y-145890355D02*
G01*
X201733355Y-147890336D01*
X201266664Y-147423645D01*
X203266645Y-145423664D01*
X203733336Y-145890355D01*
G37*
D21*
X207500000Y-154030000D03*
X201500000Y-154030000D03*
D24*
X207500000Y-160398500D03*
X207500000Y-194601500D03*
X201500000Y-194601500D03*
X201500000Y-160398500D03*
D21*
X192010000Y-217970000D03*
X186010000Y-217970000D03*
D22*
X191010000Y-225343000D03*
D14*
G36*
X189776664Y-226109645D02*
G01*
X191776645Y-224109664D01*
X192243336Y-224576355D01*
X190243355Y-226576336D01*
X189776664Y-226109645D01*
G37*
D23*
X189510000Y-226342000D03*
D22*
X187010000Y-225343000D03*
D14*
G36*
X187776645Y-226576336D02*
G01*
X185776664Y-224576355D01*
X186243355Y-224109664D01*
X188243336Y-226109645D01*
X187776645Y-226576336D01*
G37*
D23*
X188510000Y-226342000D03*
D22*
X191000000Y-163657000D03*
D14*
G36*
X190233355Y-162423664D02*
G01*
X192233336Y-164423645D01*
X191766645Y-164890336D01*
X189766664Y-162890355D01*
X190233355Y-162423664D01*
G37*
D23*
X189500000Y-162658000D03*
X188500000Y-162658000D03*
D22*
X187000000Y-163657000D03*
D14*
G36*
X188233336Y-162890355D02*
G01*
X186233355Y-164890336D01*
X185766664Y-164423645D01*
X187766645Y-162423664D01*
X188233336Y-162890355D01*
G37*
D21*
X192000000Y-171030000D03*
X186000000Y-171030000D03*
D24*
X192000000Y-177398500D03*
X192000000Y-211601500D03*
X186000000Y-211601500D03*
X186000000Y-177398500D03*
D21*
X192010000Y-148970000D03*
X186010000Y-148970000D03*
D22*
X191010000Y-156343000D03*
D14*
G36*
X189776664Y-157109645D02*
G01*
X191776645Y-155109664D01*
X192243336Y-155576355D01*
X190243355Y-157576336D01*
X189776664Y-157109645D01*
G37*
D23*
X189510000Y-157342000D03*
D22*
X187010000Y-156343000D03*
D14*
G36*
X187776645Y-157576336D02*
G01*
X185776664Y-155576355D01*
X186243355Y-155109664D01*
X188243336Y-157109645D01*
X187776645Y-157576336D01*
G37*
D23*
X188510000Y-157342000D03*
D22*
X191000000Y-94657000D03*
D14*
G36*
X190233355Y-93423664D02*
G01*
X192233336Y-95423645D01*
X191766645Y-95890336D01*
X189766664Y-93890355D01*
X190233355Y-93423664D01*
G37*
D23*
X189500000Y-93658000D03*
X188500000Y-93658000D03*
D22*
X187000000Y-94657000D03*
D14*
G36*
X188233336Y-93890355D02*
G01*
X186233355Y-95890336D01*
X185766664Y-95423645D01*
X187766645Y-93423664D01*
X188233336Y-93890355D01*
G37*
D21*
X192000000Y-102030000D03*
X186000000Y-102030000D03*
D24*
X192000000Y-108398500D03*
X192000000Y-142601500D03*
X186000000Y-142601500D03*
X186000000Y-108398500D03*
D21*
X163510000Y-148970000D03*
X157510000Y-148970000D03*
D22*
X162510000Y-156343000D03*
D14*
G36*
X161276664Y-157109645D02*
G01*
X163276645Y-155109664D01*
X163743336Y-155576355D01*
X161743355Y-157576336D01*
X161276664Y-157109645D01*
G37*
D23*
X161010000Y-157342000D03*
D22*
X158510000Y-156343000D03*
D14*
G36*
X159276645Y-157576336D02*
G01*
X157276664Y-155576355D01*
X157743355Y-155109664D01*
X159743336Y-157109645D01*
X159276645Y-157576336D01*
G37*
D23*
X160010000Y-157342000D03*
D22*
X162500000Y-94657000D03*
D14*
G36*
X161733355Y-93423664D02*
G01*
X163733336Y-95423645D01*
X163266645Y-95890336D01*
X161266664Y-93890355D01*
X161733355Y-93423664D01*
G37*
D23*
X161000000Y-93658000D03*
X160000000Y-93658000D03*
D22*
X158500000Y-94657000D03*
D14*
G36*
X159733336Y-93890355D02*
G01*
X157733355Y-95890336D01*
X157266664Y-95423645D01*
X159266645Y-93423664D01*
X159733336Y-93890355D01*
G37*
D21*
X163500000Y-102030000D03*
X157500000Y-102030000D03*
D24*
X163500000Y-108398500D03*
X163500000Y-142601500D03*
X157500000Y-142601500D03*
X157500000Y-108398500D03*
D21*
X163510000Y-217970000D03*
X157510000Y-217970000D03*
D22*
X162510000Y-225343000D03*
D14*
G36*
X161276664Y-226109645D02*
G01*
X163276645Y-224109664D01*
X163743336Y-224576355D01*
X161743355Y-226576336D01*
X161276664Y-226109645D01*
G37*
D23*
X161010000Y-226342000D03*
D22*
X158510000Y-225343000D03*
D14*
G36*
X159276645Y-226576336D02*
G01*
X157276664Y-224576355D01*
X157743355Y-224109664D01*
X159743336Y-226109645D01*
X159276645Y-226576336D01*
G37*
D23*
X160010000Y-226342000D03*
D22*
X162500000Y-163657000D03*
D14*
G36*
X161733355Y-162423664D02*
G01*
X163733336Y-164423645D01*
X163266645Y-164890336D01*
X161266664Y-162890355D01*
X161733355Y-162423664D01*
G37*
D23*
X161000000Y-162658000D03*
X160000000Y-162658000D03*
D22*
X158500000Y-163657000D03*
D14*
G36*
X159733336Y-162890355D02*
G01*
X157733355Y-164890336D01*
X157266664Y-164423645D01*
X159266645Y-162423664D01*
X159733336Y-162890355D01*
G37*
D21*
X163500000Y-171030000D03*
X157500000Y-171030000D03*
D24*
X163500000Y-177398500D03*
X163500000Y-211601500D03*
X157500000Y-211601500D03*
X157500000Y-177398500D03*
D21*
X142760000Y-166745000D03*
X136760000Y-166745000D03*
D22*
X141760000Y-174118000D03*
D14*
G36*
X140526664Y-174884645D02*
G01*
X142526645Y-172884664D01*
X142993336Y-173351355D01*
X140993355Y-175351336D01*
X140526664Y-174884645D01*
G37*
D23*
X140260000Y-175117000D03*
D22*
X137760000Y-174118000D03*
D14*
G36*
X138526645Y-175351336D02*
G01*
X136526664Y-173351355D01*
X136993355Y-172884664D01*
X138993336Y-174884645D01*
X138526645Y-175351336D01*
G37*
D23*
X139260000Y-175117000D03*
D22*
X141750000Y-112432000D03*
D14*
G36*
X140983355Y-111198664D02*
G01*
X142983336Y-113198645D01*
X142516645Y-113665336D01*
X140516664Y-111665355D01*
X140983355Y-111198664D01*
G37*
D23*
X140250000Y-111433000D03*
X139250000Y-111433000D03*
D22*
X137750000Y-112432000D03*
D14*
G36*
X138983336Y-111665355D02*
G01*
X136983355Y-113665336D01*
X136516664Y-113198645D01*
X138516645Y-111198664D01*
X138983336Y-111665355D01*
G37*
D21*
X142750000Y-119805000D03*
X136750000Y-119805000D03*
D24*
X142750000Y-126173500D03*
X142750000Y-160376500D03*
X136750000Y-160376500D03*
X136750000Y-126173500D03*
D16*
X176260000Y-177365000D03*
X176260000Y-178635000D03*
X176260000Y-176095000D03*
X176260000Y-179905000D03*
X170740000Y-179905000D03*
X170740000Y-178635000D03*
X170740000Y-177365000D03*
X170740000Y-176095000D03*
D17*
X173500000Y-178000000D03*
D14*
G36*
X175115400Y-175945000D02*
G01*
X175230538Y-175964213D01*
X175333200Y-176019771D01*
X175412259Y-176105652D01*
X175459149Y-176212551D01*
X175470000Y-176299600D01*
X175470000Y-179700400D01*
X175450787Y-179815538D01*
X175395229Y-179918200D01*
X175309348Y-179997259D01*
X175202449Y-180044149D01*
X175115400Y-180055000D01*
X171884600Y-180055000D01*
X171769462Y-180035787D01*
X171666800Y-179980229D01*
X171587741Y-179894348D01*
X171540851Y-179787449D01*
X171530000Y-179700400D01*
X171530000Y-176733000D01*
X172318000Y-175945000D01*
X175115400Y-175945000D01*
G37*
D16*
X176260000Y-142865000D03*
X176260000Y-144135000D03*
X176260000Y-141595000D03*
X176260000Y-145405000D03*
X170740000Y-145405000D03*
X170740000Y-144135000D03*
X170740000Y-142865000D03*
X170740000Y-141595000D03*
D17*
X173500000Y-143500000D03*
D14*
G36*
X175115400Y-141445000D02*
G01*
X175230538Y-141464213D01*
X175333200Y-141519771D01*
X175412259Y-141605652D01*
X175459149Y-141712551D01*
X175470000Y-141799600D01*
X175470000Y-145200400D01*
X175450787Y-145315538D01*
X175395229Y-145418200D01*
X175309348Y-145497259D01*
X175202449Y-145544149D01*
X175115400Y-145555000D01*
X171884600Y-145555000D01*
X171769462Y-145535787D01*
X171666800Y-145480229D01*
X171587741Y-145394348D01*
X171540851Y-145287449D01*
X171530000Y-145200400D01*
X171530000Y-142233000D01*
X172318000Y-141445000D01*
X175115400Y-141445000D01*
G37*
D16*
X176260000Y-108365000D03*
X176260000Y-109635000D03*
X176260000Y-107095000D03*
X176260000Y-110905000D03*
X170740000Y-110905000D03*
X170740000Y-109635000D03*
X170740000Y-108365000D03*
X170740000Y-107095000D03*
D17*
X173500000Y-109000000D03*
D14*
G36*
X175115400Y-106945000D02*
G01*
X175230538Y-106964213D01*
X175333200Y-107019771D01*
X175412259Y-107105652D01*
X175459149Y-107212551D01*
X175470000Y-107299600D01*
X175470000Y-110700400D01*
X175450787Y-110815538D01*
X175395229Y-110918200D01*
X175309348Y-110997259D01*
X175202449Y-111044149D01*
X175115400Y-111055000D01*
X171884600Y-111055000D01*
X171769462Y-111035787D01*
X171666800Y-110980229D01*
X171587741Y-110894348D01*
X171540851Y-110787449D01*
X171530000Y-110700400D01*
X171530000Y-107733000D01*
X172318000Y-106945000D01*
X175115400Y-106945000D01*
G37*
G36*
X211058171Y-193644030D02*
G01*
X211139277Y-193698223D01*
X211193470Y-193779329D01*
X211212500Y-193875000D01*
X211212500Y-195125000D01*
X211193470Y-195220671D01*
X211139277Y-195301777D01*
X211058171Y-195355970D01*
X210962500Y-195375000D01*
X210037500Y-195375000D01*
X209941829Y-195355970D01*
X209860723Y-195301777D01*
X209806530Y-195220671D01*
X209787500Y-195125000D01*
X209787500Y-193875000D01*
X209806530Y-193779329D01*
X209860723Y-193698223D01*
X209941829Y-193644030D01*
X210037500Y-193625000D01*
X210962500Y-193625000D01*
X211058171Y-193644030D01*
G37*
D25*
X210500000Y-194500000D03*
D14*
G36*
X208083171Y-193644030D02*
G01*
X208164277Y-193698223D01*
X208218470Y-193779329D01*
X208237500Y-193875000D01*
X208237500Y-195125000D01*
X208218470Y-195220671D01*
X208164277Y-195301777D01*
X208083171Y-195355970D01*
X207987500Y-195375000D01*
X207062500Y-195375000D01*
X206966829Y-195355970D01*
X206885723Y-195301777D01*
X206831530Y-195220671D01*
X206812500Y-195125000D01*
X206812500Y-193875000D01*
X206831530Y-193779329D01*
X206885723Y-193698223D01*
X206966829Y-193644030D01*
X207062500Y-193625000D01*
X207987500Y-193625000D01*
X208083171Y-193644030D01*
G37*
D25*
X207525000Y-194500000D03*
D14*
G36*
X195545671Y-176644030D02*
G01*
X195626777Y-176698223D01*
X195680970Y-176779329D01*
X195700000Y-176875000D01*
X195700000Y-178125000D01*
X195680970Y-178220671D01*
X195626777Y-178301777D01*
X195545671Y-178355970D01*
X195450000Y-178375000D01*
X194525000Y-178375000D01*
X194429329Y-178355970D01*
X194348223Y-178301777D01*
X194294030Y-178220671D01*
X194275000Y-178125000D01*
X194275000Y-176875000D01*
X194294030Y-176779329D01*
X194348223Y-176698223D01*
X194429329Y-176644030D01*
X194525000Y-176625000D01*
X195450000Y-176625000D01*
X195545671Y-176644030D01*
G37*
D25*
X194987500Y-177500000D03*
D14*
G36*
X192570671Y-176644030D02*
G01*
X192651777Y-176698223D01*
X192705970Y-176779329D01*
X192725000Y-176875000D01*
X192725000Y-178125000D01*
X192705970Y-178220671D01*
X192651777Y-178301777D01*
X192570671Y-178355970D01*
X192475000Y-178375000D01*
X191550000Y-178375000D01*
X191454329Y-178355970D01*
X191373223Y-178301777D01*
X191319030Y-178220671D01*
X191300000Y-178125000D01*
X191300000Y-176875000D01*
X191319030Y-176779329D01*
X191373223Y-176698223D01*
X191454329Y-176644030D01*
X191550000Y-176625000D01*
X192475000Y-176625000D01*
X192570671Y-176644030D01*
G37*
D25*
X192012500Y-177500000D03*
D14*
G36*
X195545671Y-107644030D02*
G01*
X195626777Y-107698223D01*
X195680970Y-107779329D01*
X195700000Y-107875000D01*
X195700000Y-109125000D01*
X195680970Y-109220671D01*
X195626777Y-109301777D01*
X195545671Y-109355970D01*
X195450000Y-109375000D01*
X194525000Y-109375000D01*
X194429329Y-109355970D01*
X194348223Y-109301777D01*
X194294030Y-109220671D01*
X194275000Y-109125000D01*
X194275000Y-107875000D01*
X194294030Y-107779329D01*
X194348223Y-107698223D01*
X194429329Y-107644030D01*
X194525000Y-107625000D01*
X195450000Y-107625000D01*
X195545671Y-107644030D01*
G37*
D25*
X194987500Y-108500000D03*
D14*
G36*
X192570671Y-107644030D02*
G01*
X192651777Y-107698223D01*
X192705970Y-107779329D01*
X192725000Y-107875000D01*
X192725000Y-109125000D01*
X192705970Y-109220671D01*
X192651777Y-109301777D01*
X192570671Y-109355970D01*
X192475000Y-109375000D01*
X191550000Y-109375000D01*
X191454329Y-109355970D01*
X191373223Y-109301777D01*
X191319030Y-109220671D01*
X191300000Y-109125000D01*
X191300000Y-107875000D01*
X191319030Y-107779329D01*
X191373223Y-107698223D01*
X191454329Y-107644030D01*
X191550000Y-107625000D01*
X192475000Y-107625000D01*
X192570671Y-107644030D01*
G37*
D25*
X192012500Y-108500000D03*
D14*
G36*
X156003387Y-142043079D02*
G01*
X156080438Y-142094562D01*
X156131921Y-142171613D01*
X156150000Y-142262500D01*
X156150000Y-142737500D01*
X156131921Y-142828387D01*
X156080438Y-142905438D01*
X156003387Y-142956921D01*
X155912500Y-142975000D01*
X155337500Y-142975000D01*
X155246613Y-142956921D01*
X155169562Y-142905438D01*
X155118079Y-142828387D01*
X155100000Y-142737500D01*
X155100000Y-142262500D01*
X155118079Y-142171613D01*
X155169562Y-142094562D01*
X155246613Y-142043079D01*
X155337500Y-142025000D01*
X155912500Y-142025000D01*
X156003387Y-142043079D01*
G37*
D15*
X155625000Y-142500000D03*
D14*
G36*
X157753387Y-142043079D02*
G01*
X157830438Y-142094562D01*
X157881921Y-142171613D01*
X157900000Y-142262500D01*
X157900000Y-142737500D01*
X157881921Y-142828387D01*
X157830438Y-142905438D01*
X157753387Y-142956921D01*
X157662500Y-142975000D01*
X157087500Y-142975000D01*
X156996613Y-142956921D01*
X156919562Y-142905438D01*
X156868079Y-142828387D01*
X156850000Y-142737500D01*
X156850000Y-142262500D01*
X156868079Y-142171613D01*
X156919562Y-142094562D01*
X156996613Y-142043079D01*
X157087500Y-142025000D01*
X157662500Y-142025000D01*
X157753387Y-142043079D01*
G37*
D15*
X157375000Y-142500000D03*
D14*
G36*
X156003387Y-211043079D02*
G01*
X156080438Y-211094562D01*
X156131921Y-211171613D01*
X156150000Y-211262500D01*
X156150000Y-211737500D01*
X156131921Y-211828387D01*
X156080438Y-211905438D01*
X156003387Y-211956921D01*
X155912500Y-211975000D01*
X155337500Y-211975000D01*
X155246613Y-211956921D01*
X155169562Y-211905438D01*
X155118079Y-211828387D01*
X155100000Y-211737500D01*
X155100000Y-211262500D01*
X155118079Y-211171613D01*
X155169562Y-211094562D01*
X155246613Y-211043079D01*
X155337500Y-211025000D01*
X155912500Y-211025000D01*
X156003387Y-211043079D01*
G37*
D15*
X155625000Y-211500000D03*
D14*
G36*
X157753387Y-211043079D02*
G01*
X157830438Y-211094562D01*
X157881921Y-211171613D01*
X157900000Y-211262500D01*
X157900000Y-211737500D01*
X157881921Y-211828387D01*
X157830438Y-211905438D01*
X157753387Y-211956921D01*
X157662500Y-211975000D01*
X157087500Y-211975000D01*
X156996613Y-211956921D01*
X156919562Y-211905438D01*
X156868079Y-211828387D01*
X156850000Y-211737500D01*
X156850000Y-211262500D01*
X156868079Y-211171613D01*
X156919562Y-211094562D01*
X156996613Y-211043079D01*
X157087500Y-211025000D01*
X157662500Y-211025000D01*
X157753387Y-211043079D01*
G37*
D15*
X157375000Y-211500000D03*
D14*
G36*
X135378387Y-125668079D02*
G01*
X135455438Y-125719562D01*
X135506921Y-125796613D01*
X135525000Y-125887500D01*
X135525000Y-126362500D01*
X135506921Y-126453387D01*
X135455438Y-126530438D01*
X135378387Y-126581921D01*
X135287500Y-126600000D01*
X134712500Y-126600000D01*
X134621613Y-126581921D01*
X134544562Y-126530438D01*
X134493079Y-126453387D01*
X134475000Y-126362500D01*
X134475000Y-125887500D01*
X134493079Y-125796613D01*
X134544562Y-125719562D01*
X134621613Y-125668079D01*
X134712500Y-125650000D01*
X135287500Y-125650000D01*
X135378387Y-125668079D01*
G37*
D15*
X135000000Y-126125000D03*
D14*
G36*
X137128387Y-125668079D02*
G01*
X137205438Y-125719562D01*
X137256921Y-125796613D01*
X137275000Y-125887500D01*
X137275000Y-126362500D01*
X137256921Y-126453387D01*
X137205438Y-126530438D01*
X137128387Y-126581921D01*
X137037500Y-126600000D01*
X136462500Y-126600000D01*
X136371613Y-126581921D01*
X136294562Y-126530438D01*
X136243079Y-126453387D01*
X136225000Y-126362500D01*
X136225000Y-125887500D01*
X136243079Y-125796613D01*
X136294562Y-125719562D01*
X136371613Y-125668079D01*
X136462500Y-125650000D01*
X137037500Y-125650000D01*
X137128387Y-125668079D01*
G37*
D15*
X136750000Y-126125000D03*
D14*
G36*
X179545671Y-211244030D02*
G01*
X179626777Y-211298223D01*
X179680970Y-211379329D01*
X179700000Y-211474999D01*
X179700000Y-212125001D01*
X179680970Y-212220671D01*
X179626777Y-212301777D01*
X179545671Y-212355970D01*
X179450001Y-212375000D01*
X178549999Y-212375000D01*
X178454329Y-212355970D01*
X178373223Y-212301777D01*
X178319030Y-212220671D01*
X178300000Y-212125001D01*
X178300000Y-211474999D01*
X178319030Y-211379329D01*
X178373223Y-211298223D01*
X178454329Y-211244030D01*
X178549999Y-211225000D01*
X179450001Y-211225000D01*
X179545671Y-211244030D01*
G37*
D26*
X179000000Y-211800000D03*
D14*
G36*
X179545671Y-209194030D02*
G01*
X179626777Y-209248223D01*
X179680970Y-209329329D01*
X179700000Y-209424999D01*
X179700000Y-210075001D01*
X179680970Y-210170671D01*
X179626777Y-210251777D01*
X179545671Y-210305970D01*
X179450001Y-210325000D01*
X178549999Y-210325000D01*
X178454329Y-210305970D01*
X178373223Y-210251777D01*
X178319030Y-210170671D01*
X178300000Y-210075001D01*
X178300000Y-209424999D01*
X178319030Y-209329329D01*
X178373223Y-209248223D01*
X178454329Y-209194030D01*
X178549999Y-209175000D01*
X179450001Y-209175000D01*
X179545671Y-209194030D01*
G37*
D26*
X179000000Y-209750000D03*
D14*
G36*
X179045671Y-174894030D02*
G01*
X179126777Y-174948223D01*
X179180970Y-175029329D01*
X179200000Y-175124999D01*
X179200000Y-175775001D01*
X179180970Y-175870671D01*
X179126777Y-175951777D01*
X179045671Y-176005970D01*
X178950001Y-176025000D01*
X178049999Y-176025000D01*
X177954329Y-176005970D01*
X177873223Y-175951777D01*
X177819030Y-175870671D01*
X177800000Y-175775001D01*
X177800000Y-175124999D01*
X177819030Y-175029329D01*
X177873223Y-174948223D01*
X177954329Y-174894030D01*
X178049999Y-174875000D01*
X178950001Y-174875000D01*
X179045671Y-174894030D01*
G37*
D26*
X178500000Y-175450000D03*
D14*
G36*
X179045671Y-176944030D02*
G01*
X179126777Y-176998223D01*
X179180970Y-177079329D01*
X179200000Y-177174999D01*
X179200000Y-177825001D01*
X179180970Y-177920671D01*
X179126777Y-178001777D01*
X179045671Y-178055970D01*
X178950001Y-178075000D01*
X178049999Y-178075000D01*
X177954329Y-178055970D01*
X177873223Y-178001777D01*
X177819030Y-177920671D01*
X177800000Y-177825001D01*
X177800000Y-177174999D01*
X177819030Y-177079329D01*
X177873223Y-176998223D01*
X177954329Y-176944030D01*
X178049999Y-176925000D01*
X178950001Y-176925000D01*
X179045671Y-176944030D01*
G37*
D26*
X178500000Y-177500000D03*
D14*
G36*
X179545671Y-142044030D02*
G01*
X179626777Y-142098223D01*
X179680970Y-142179329D01*
X179700000Y-142274999D01*
X179700000Y-142925001D01*
X179680970Y-143020671D01*
X179626777Y-143101777D01*
X179545671Y-143155970D01*
X179450001Y-143175000D01*
X178549999Y-143175000D01*
X178454329Y-143155970D01*
X178373223Y-143101777D01*
X178319030Y-143020671D01*
X178300000Y-142925001D01*
X178300000Y-142274999D01*
X178319030Y-142179329D01*
X178373223Y-142098223D01*
X178454329Y-142044030D01*
X178549999Y-142025000D01*
X179450001Y-142025000D01*
X179545671Y-142044030D01*
G37*
D26*
X179000000Y-142600000D03*
D14*
G36*
X179545671Y-139994030D02*
G01*
X179626777Y-140048223D01*
X179680970Y-140129329D01*
X179700000Y-140224999D01*
X179700000Y-140875001D01*
X179680970Y-140970671D01*
X179626777Y-141051777D01*
X179545671Y-141105970D01*
X179450001Y-141125000D01*
X178549999Y-141125000D01*
X178454329Y-141105970D01*
X178373223Y-141051777D01*
X178319030Y-140970671D01*
X178300000Y-140875001D01*
X178300000Y-140224999D01*
X178319030Y-140129329D01*
X178373223Y-140048223D01*
X178454329Y-139994030D01*
X178549999Y-139975000D01*
X179450001Y-139975000D01*
X179545671Y-139994030D01*
G37*
D26*
X179000000Y-140550000D03*
D14*
G36*
X179045671Y-105944030D02*
G01*
X179126777Y-105998223D01*
X179180970Y-106079329D01*
X179200000Y-106174999D01*
X179200000Y-106825001D01*
X179180970Y-106920671D01*
X179126777Y-107001777D01*
X179045671Y-107055970D01*
X178950001Y-107075000D01*
X178049999Y-107075000D01*
X177954329Y-107055970D01*
X177873223Y-107001777D01*
X177819030Y-106920671D01*
X177800000Y-106825001D01*
X177800000Y-106174999D01*
X177819030Y-106079329D01*
X177873223Y-105998223D01*
X177954329Y-105944030D01*
X178049999Y-105925000D01*
X178950001Y-105925000D01*
X179045671Y-105944030D01*
G37*
D26*
X178500000Y-106500000D03*
D14*
G36*
X179045671Y-107994030D02*
G01*
X179126777Y-108048223D01*
X179180970Y-108129329D01*
X179200000Y-108224999D01*
X179200000Y-108875001D01*
X179180970Y-108970671D01*
X179126777Y-109051777D01*
X179045671Y-109105970D01*
X178950001Y-109125000D01*
X178049999Y-109125000D01*
X177954329Y-109105970D01*
X177873223Y-109051777D01*
X177819030Y-108970671D01*
X177800000Y-108875001D01*
X177800000Y-108224999D01*
X177819030Y-108129329D01*
X177873223Y-108048223D01*
X177954329Y-107994030D01*
X178049999Y-107975000D01*
X178950001Y-107975000D01*
X179045671Y-107994030D01*
G37*
D26*
X178500000Y-108550000D03*
D14*
G36*
X149378387Y-170543079D02*
G01*
X149455438Y-170594562D01*
X149506921Y-170671613D01*
X149525000Y-170762500D01*
X149525000Y-171237500D01*
X149506921Y-171328387D01*
X149455438Y-171405438D01*
X149378387Y-171456921D01*
X149287500Y-171475000D01*
X148712500Y-171475000D01*
X148621613Y-171456921D01*
X148544562Y-171405438D01*
X148493079Y-171328387D01*
X148475000Y-171237500D01*
X148475000Y-170762500D01*
X148493079Y-170671613D01*
X148544562Y-170594562D01*
X148621613Y-170543079D01*
X148712500Y-170525000D01*
X149287500Y-170525000D01*
X149378387Y-170543079D01*
G37*
D15*
X149000000Y-171000000D03*
D14*
G36*
X151128387Y-170543079D02*
G01*
X151205438Y-170594562D01*
X151256921Y-170671613D01*
X151275000Y-170762500D01*
X151275000Y-171237500D01*
X151256921Y-171328387D01*
X151205438Y-171405438D01*
X151128387Y-171456921D01*
X151037500Y-171475000D01*
X150462500Y-171475000D01*
X150371613Y-171456921D01*
X150294562Y-171405438D01*
X150243079Y-171328387D01*
X150225000Y-171237500D01*
X150225000Y-170762500D01*
X150243079Y-170671613D01*
X150294562Y-170594562D01*
X150371613Y-170543079D01*
X150462500Y-170525000D01*
X151037500Y-170525000D01*
X151128387Y-170543079D01*
G37*
D15*
X150750000Y-171000000D03*
D14*
G36*
X149628387Y-114043079D02*
G01*
X149705438Y-114094562D01*
X149756921Y-114171613D01*
X149775000Y-114262500D01*
X149775000Y-114737500D01*
X149756921Y-114828387D01*
X149705438Y-114905438D01*
X149628387Y-114956921D01*
X149537500Y-114975000D01*
X148962500Y-114975000D01*
X148871613Y-114956921D01*
X148794562Y-114905438D01*
X148743079Y-114828387D01*
X148725000Y-114737500D01*
X148725000Y-114262500D01*
X148743079Y-114171613D01*
X148794562Y-114094562D01*
X148871613Y-114043079D01*
X148962500Y-114025000D01*
X149537500Y-114025000D01*
X149628387Y-114043079D01*
G37*
D15*
X149250000Y-114500000D03*
D14*
G36*
X151378387Y-114043079D02*
G01*
X151455438Y-114094562D01*
X151506921Y-114171613D01*
X151525000Y-114262500D01*
X151525000Y-114737500D01*
X151506921Y-114828387D01*
X151455438Y-114905438D01*
X151378387Y-114956921D01*
X151287500Y-114975000D01*
X150712500Y-114975000D01*
X150621613Y-114956921D01*
X150544562Y-114905438D01*
X150493079Y-114828387D01*
X150475000Y-114737500D01*
X150475000Y-114262500D01*
X150493079Y-114171613D01*
X150544562Y-114094562D01*
X150621613Y-114043079D01*
X150712500Y-114025000D01*
X151287500Y-114025000D01*
X151378387Y-114043079D01*
G37*
D15*
X151000000Y-114500000D03*
D14*
G36*
X213549529Y-142468554D02*
G01*
X213628607Y-142521393D01*
X213681446Y-142600471D01*
X213700000Y-142693750D01*
X213700000Y-143181250D01*
X213681446Y-143274529D01*
X213628607Y-143353607D01*
X213549529Y-143406446D01*
X213456250Y-143425000D01*
X212543750Y-143425000D01*
X212450471Y-143406446D01*
X212371393Y-143353607D01*
X212318554Y-143274529D01*
X212300000Y-143181250D01*
X212300000Y-142693750D01*
X212318554Y-142600471D01*
X212371393Y-142521393D01*
X212450471Y-142468554D01*
X212543750Y-142450000D01*
X213456250Y-142450000D01*
X213549529Y-142468554D01*
G37*
D27*
X213000000Y-142937500D03*
D14*
G36*
X213549529Y-140593554D02*
G01*
X213628607Y-140646393D01*
X213681446Y-140725471D01*
X213700000Y-140818750D01*
X213700000Y-141306250D01*
X213681446Y-141399529D01*
X213628607Y-141478607D01*
X213549529Y-141531446D01*
X213456250Y-141550000D01*
X212543750Y-141550000D01*
X212450471Y-141531446D01*
X212371393Y-141478607D01*
X212318554Y-141399529D01*
X212300000Y-141306250D01*
X212300000Y-140818750D01*
X212318554Y-140725471D01*
X212371393Y-140646393D01*
X212450471Y-140593554D01*
X212543750Y-140575000D01*
X213456250Y-140575000D01*
X213549529Y-140593554D01*
G37*
D27*
X213000000Y-141062500D03*
D14*
G36*
X179378387Y-207843079D02*
G01*
X179455438Y-207894562D01*
X179506921Y-207971613D01*
X179525000Y-208062500D01*
X179525000Y-208537500D01*
X179506921Y-208628387D01*
X179455438Y-208705438D01*
X179378387Y-208756921D01*
X179287500Y-208775000D01*
X178712500Y-208775000D01*
X178621613Y-208756921D01*
X178544562Y-208705438D01*
X178493079Y-208628387D01*
X178475000Y-208537500D01*
X178475000Y-208062500D01*
X178493079Y-207971613D01*
X178544562Y-207894562D01*
X178621613Y-207843079D01*
X178712500Y-207825000D01*
X179287500Y-207825000D01*
X179378387Y-207843079D01*
G37*
D15*
X179000000Y-208300000D03*
D14*
G36*
X177628387Y-207843079D02*
G01*
X177705438Y-207894562D01*
X177756921Y-207971613D01*
X177775000Y-208062500D01*
X177775000Y-208537500D01*
X177756921Y-208628387D01*
X177705438Y-208705438D01*
X177628387Y-208756921D01*
X177537500Y-208775000D01*
X176962500Y-208775000D01*
X176871613Y-208756921D01*
X176794562Y-208705438D01*
X176743079Y-208628387D01*
X176725000Y-208537500D01*
X176725000Y-208062500D01*
X176743079Y-207971613D01*
X176794562Y-207894562D01*
X176871613Y-207843079D01*
X176962500Y-207825000D01*
X177537500Y-207825000D01*
X177628387Y-207843079D01*
G37*
D15*
X177250000Y-208300000D03*
D14*
G36*
X179378387Y-138643079D02*
G01*
X179455438Y-138694562D01*
X179506921Y-138771613D01*
X179525000Y-138862500D01*
X179525000Y-139337500D01*
X179506921Y-139428387D01*
X179455438Y-139505438D01*
X179378387Y-139556921D01*
X179287500Y-139575000D01*
X178712500Y-139575000D01*
X178621613Y-139556921D01*
X178544562Y-139505438D01*
X178493079Y-139428387D01*
X178475000Y-139337500D01*
X178475000Y-138862500D01*
X178493079Y-138771613D01*
X178544562Y-138694562D01*
X178621613Y-138643079D01*
X178712500Y-138625000D01*
X179287500Y-138625000D01*
X179378387Y-138643079D01*
G37*
D15*
X179000000Y-139100000D03*
D14*
G36*
X177628387Y-138643079D02*
G01*
X177705438Y-138694562D01*
X177756921Y-138771613D01*
X177775000Y-138862500D01*
X177775000Y-139337500D01*
X177756921Y-139428387D01*
X177705438Y-139505438D01*
X177628387Y-139556921D01*
X177537500Y-139575000D01*
X176962500Y-139575000D01*
X176871613Y-139556921D01*
X176794562Y-139505438D01*
X176743079Y-139428387D01*
X176725000Y-139337500D01*
X176725000Y-138862500D01*
X176743079Y-138771613D01*
X176794562Y-138694562D01*
X176871613Y-138643079D01*
X176962500Y-138625000D01*
X177537500Y-138625000D01*
X177628387Y-138643079D01*
G37*
D15*
X177250000Y-139100000D03*
D14*
G36*
X178878387Y-173543079D02*
G01*
X178955438Y-173594562D01*
X179006921Y-173671613D01*
X179025000Y-173762500D01*
X179025000Y-174237500D01*
X179006921Y-174328387D01*
X178955438Y-174405438D01*
X178878387Y-174456921D01*
X178787500Y-174475000D01*
X178212500Y-174475000D01*
X178121613Y-174456921D01*
X178044562Y-174405438D01*
X177993079Y-174328387D01*
X177975000Y-174237500D01*
X177975000Y-173762500D01*
X177993079Y-173671613D01*
X178044562Y-173594562D01*
X178121613Y-173543079D01*
X178212500Y-173525000D01*
X178787500Y-173525000D01*
X178878387Y-173543079D01*
G37*
D15*
X178500000Y-174000000D03*
D14*
G36*
X177128387Y-173543079D02*
G01*
X177205438Y-173594562D01*
X177256921Y-173671613D01*
X177275000Y-173762500D01*
X177275000Y-174237500D01*
X177256921Y-174328387D01*
X177205438Y-174405438D01*
X177128387Y-174456921D01*
X177037500Y-174475000D01*
X176462500Y-174475000D01*
X176371613Y-174456921D01*
X176294562Y-174405438D01*
X176243079Y-174328387D01*
X176225000Y-174237500D01*
X176225000Y-173762500D01*
X176243079Y-173671613D01*
X176294562Y-173594562D01*
X176371613Y-173543079D01*
X176462500Y-173525000D01*
X177037500Y-173525000D01*
X177128387Y-173543079D01*
G37*
D15*
X176750000Y-174000000D03*
D14*
G36*
X178878387Y-104543079D02*
G01*
X178955438Y-104594562D01*
X179006921Y-104671613D01*
X179025000Y-104762500D01*
X179025000Y-105237500D01*
X179006921Y-105328387D01*
X178955438Y-105405438D01*
X178878387Y-105456921D01*
X178787500Y-105475000D01*
X178212500Y-105475000D01*
X178121613Y-105456921D01*
X178044562Y-105405438D01*
X177993079Y-105328387D01*
X177975000Y-105237500D01*
X177975000Y-104762500D01*
X177993079Y-104671613D01*
X178044562Y-104594562D01*
X178121613Y-104543079D01*
X178212500Y-104525000D01*
X178787500Y-104525000D01*
X178878387Y-104543079D01*
G37*
D15*
X178500000Y-105000000D03*
D14*
G36*
X177128387Y-104543079D02*
G01*
X177205438Y-104594562D01*
X177256921Y-104671613D01*
X177275000Y-104762500D01*
X177275000Y-105237500D01*
X177256921Y-105328387D01*
X177205438Y-105405438D01*
X177128387Y-105456921D01*
X177037500Y-105475000D01*
X176462500Y-105475000D01*
X176371613Y-105456921D01*
X176294562Y-105405438D01*
X176243079Y-105328387D01*
X176225000Y-105237500D01*
X176225000Y-104762500D01*
X176243079Y-104671613D01*
X176294562Y-104594562D01*
X176371613Y-104543079D01*
X176462500Y-104525000D01*
X177037500Y-104525000D01*
X177128387Y-104543079D01*
G37*
D15*
X176750000Y-105000000D03*
D14*
G36*
X182003387Y-211343079D02*
G01*
X182080438Y-211394562D01*
X182131921Y-211471613D01*
X182150000Y-211562500D01*
X182150000Y-212037500D01*
X182131921Y-212128387D01*
X182080438Y-212205438D01*
X182003387Y-212256921D01*
X181912500Y-212275000D01*
X181337500Y-212275000D01*
X181246613Y-212256921D01*
X181169562Y-212205438D01*
X181118079Y-212128387D01*
X181100000Y-212037500D01*
X181100000Y-211562500D01*
X181118079Y-211471613D01*
X181169562Y-211394562D01*
X181246613Y-211343079D01*
X181337500Y-211325000D01*
X181912500Y-211325000D01*
X182003387Y-211343079D01*
G37*
D15*
X181625000Y-211800000D03*
D14*
G36*
X183753387Y-211343079D02*
G01*
X183830438Y-211394562D01*
X183881921Y-211471613D01*
X183900000Y-211562500D01*
X183900000Y-212037500D01*
X183881921Y-212128387D01*
X183830438Y-212205438D01*
X183753387Y-212256921D01*
X183662500Y-212275000D01*
X183087500Y-212275000D01*
X182996613Y-212256921D01*
X182919562Y-212205438D01*
X182868079Y-212128387D01*
X182850000Y-212037500D01*
X182850000Y-211562500D01*
X182868079Y-211471613D01*
X182919562Y-211394562D01*
X182996613Y-211343079D01*
X183087500Y-211325000D01*
X183662500Y-211325000D01*
X183753387Y-211343079D01*
G37*
D15*
X183375000Y-211800000D03*
D14*
G36*
X181803387Y-176993079D02*
G01*
X181880438Y-177044562D01*
X181931921Y-177121613D01*
X181950000Y-177212500D01*
X181950000Y-177687500D01*
X181931921Y-177778387D01*
X181880438Y-177855438D01*
X181803387Y-177906921D01*
X181712500Y-177925000D01*
X181137500Y-177925000D01*
X181046613Y-177906921D01*
X180969562Y-177855438D01*
X180918079Y-177778387D01*
X180900000Y-177687500D01*
X180900000Y-177212500D01*
X180918079Y-177121613D01*
X180969562Y-177044562D01*
X181046613Y-176993079D01*
X181137500Y-176975000D01*
X181712500Y-176975000D01*
X181803387Y-176993079D01*
G37*
D15*
X181425000Y-177450000D03*
D14*
G36*
X183553387Y-176993079D02*
G01*
X183630438Y-177044562D01*
X183681921Y-177121613D01*
X183700000Y-177212500D01*
X183700000Y-177687500D01*
X183681921Y-177778387D01*
X183630438Y-177855438D01*
X183553387Y-177906921D01*
X183462500Y-177925000D01*
X182887500Y-177925000D01*
X182796613Y-177906921D01*
X182719562Y-177855438D01*
X182668079Y-177778387D01*
X182650000Y-177687500D01*
X182650000Y-177212500D01*
X182668079Y-177121613D01*
X182719562Y-177044562D01*
X182796613Y-176993079D01*
X182887500Y-176975000D01*
X183462500Y-176975000D01*
X183553387Y-176993079D01*
G37*
D15*
X183175000Y-177450000D03*
D14*
G36*
X182103387Y-142168079D02*
G01*
X182180438Y-142219562D01*
X182231921Y-142296613D01*
X182250000Y-142387500D01*
X182250000Y-142862500D01*
X182231921Y-142953387D01*
X182180438Y-143030438D01*
X182103387Y-143081921D01*
X182012500Y-143100000D01*
X181437500Y-143100000D01*
X181346613Y-143081921D01*
X181269562Y-143030438D01*
X181218079Y-142953387D01*
X181200000Y-142862500D01*
X181200000Y-142387500D01*
X181218079Y-142296613D01*
X181269562Y-142219562D01*
X181346613Y-142168079D01*
X181437500Y-142150000D01*
X182012500Y-142150000D01*
X182103387Y-142168079D01*
G37*
D15*
X181725000Y-142625000D03*
D14*
G36*
X183853387Y-142168079D02*
G01*
X183930438Y-142219562D01*
X183981921Y-142296613D01*
X184000000Y-142387500D01*
X184000000Y-142862500D01*
X183981921Y-142953387D01*
X183930438Y-143030438D01*
X183853387Y-143081921D01*
X183762500Y-143100000D01*
X183187500Y-143100000D01*
X183096613Y-143081921D01*
X183019562Y-143030438D01*
X182968079Y-142953387D01*
X182950000Y-142862500D01*
X182950000Y-142387500D01*
X182968079Y-142296613D01*
X183019562Y-142219562D01*
X183096613Y-142168079D01*
X183187500Y-142150000D01*
X183762500Y-142150000D01*
X183853387Y-142168079D01*
G37*
D15*
X183475000Y-142625000D03*
D14*
G36*
X181878387Y-108043079D02*
G01*
X181955438Y-108094562D01*
X182006921Y-108171613D01*
X182025000Y-108262500D01*
X182025000Y-108737500D01*
X182006921Y-108828387D01*
X181955438Y-108905438D01*
X181878387Y-108956921D01*
X181787500Y-108975000D01*
X181212500Y-108975000D01*
X181121613Y-108956921D01*
X181044562Y-108905438D01*
X180993079Y-108828387D01*
X180975000Y-108737500D01*
X180975000Y-108262500D01*
X180993079Y-108171613D01*
X181044562Y-108094562D01*
X181121613Y-108043079D01*
X181212500Y-108025000D01*
X181787500Y-108025000D01*
X181878387Y-108043079D01*
G37*
D15*
X181500000Y-108500000D03*
D14*
G36*
X183628387Y-108043079D02*
G01*
X183705438Y-108094562D01*
X183756921Y-108171613D01*
X183775000Y-108262500D01*
X183775000Y-108737500D01*
X183756921Y-108828387D01*
X183705438Y-108905438D01*
X183628387Y-108956921D01*
X183537500Y-108975000D01*
X182962500Y-108975000D01*
X182871613Y-108956921D01*
X182794562Y-108905438D01*
X182743079Y-108828387D01*
X182725000Y-108737500D01*
X182725000Y-108262500D01*
X182743079Y-108171613D01*
X182794562Y-108094562D01*
X182871613Y-108043079D01*
X182962500Y-108025000D01*
X183537500Y-108025000D01*
X183628387Y-108043079D01*
G37*
D15*
X183250000Y-108500000D03*
D14*
G36*
X167003387Y-211343079D02*
G01*
X167080438Y-211394562D01*
X167131921Y-211471613D01*
X167150000Y-211562500D01*
X167150000Y-212037500D01*
X167131921Y-212128387D01*
X167080438Y-212205438D01*
X167003387Y-212256921D01*
X166912500Y-212275000D01*
X166337500Y-212275000D01*
X166246613Y-212256921D01*
X166169562Y-212205438D01*
X166118079Y-212128387D01*
X166100000Y-212037500D01*
X166100000Y-211562500D01*
X166118079Y-211471613D01*
X166169562Y-211394562D01*
X166246613Y-211343079D01*
X166337500Y-211325000D01*
X166912500Y-211325000D01*
X167003387Y-211343079D01*
G37*
D15*
X166625000Y-211800000D03*
D14*
G36*
X168753387Y-211343079D02*
G01*
X168830438Y-211394562D01*
X168881921Y-211471613D01*
X168900000Y-211562500D01*
X168900000Y-212037500D01*
X168881921Y-212128387D01*
X168830438Y-212205438D01*
X168753387Y-212256921D01*
X168662500Y-212275000D01*
X168087500Y-212275000D01*
X167996613Y-212256921D01*
X167919562Y-212205438D01*
X167868079Y-212128387D01*
X167850000Y-212037500D01*
X167850000Y-211562500D01*
X167868079Y-211471613D01*
X167919562Y-211394562D01*
X167996613Y-211343079D01*
X168087500Y-211325000D01*
X168662500Y-211325000D01*
X168753387Y-211343079D01*
G37*
D15*
X168375000Y-211800000D03*
D14*
G36*
X166003387Y-177043079D02*
G01*
X166080438Y-177094562D01*
X166131921Y-177171613D01*
X166150000Y-177262500D01*
X166150000Y-177737500D01*
X166131921Y-177828387D01*
X166080438Y-177905438D01*
X166003387Y-177956921D01*
X165912500Y-177975000D01*
X165337500Y-177975000D01*
X165246613Y-177956921D01*
X165169562Y-177905438D01*
X165118079Y-177828387D01*
X165100000Y-177737500D01*
X165100000Y-177262500D01*
X165118079Y-177171613D01*
X165169562Y-177094562D01*
X165246613Y-177043079D01*
X165337500Y-177025000D01*
X165912500Y-177025000D01*
X166003387Y-177043079D01*
G37*
D15*
X165625000Y-177500000D03*
D14*
G36*
X167753387Y-177043079D02*
G01*
X167830438Y-177094562D01*
X167881921Y-177171613D01*
X167900000Y-177262500D01*
X167900000Y-177737500D01*
X167881921Y-177828387D01*
X167830438Y-177905438D01*
X167753387Y-177956921D01*
X167662500Y-177975000D01*
X167087500Y-177975000D01*
X166996613Y-177956921D01*
X166919562Y-177905438D01*
X166868079Y-177828387D01*
X166850000Y-177737500D01*
X166850000Y-177262500D01*
X166868079Y-177171613D01*
X166919562Y-177094562D01*
X166996613Y-177043079D01*
X167087500Y-177025000D01*
X167662500Y-177025000D01*
X167753387Y-177043079D01*
G37*
D15*
X167375000Y-177500000D03*
D14*
G36*
X167003387Y-142043079D02*
G01*
X167080438Y-142094562D01*
X167131921Y-142171613D01*
X167150000Y-142262500D01*
X167150000Y-142737500D01*
X167131921Y-142828387D01*
X167080438Y-142905438D01*
X167003387Y-142956921D01*
X166912500Y-142975000D01*
X166337500Y-142975000D01*
X166246613Y-142956921D01*
X166169562Y-142905438D01*
X166118079Y-142828387D01*
X166100000Y-142737500D01*
X166100000Y-142262500D01*
X166118079Y-142171613D01*
X166169562Y-142094562D01*
X166246613Y-142043079D01*
X166337500Y-142025000D01*
X166912500Y-142025000D01*
X167003387Y-142043079D01*
G37*
D15*
X166625000Y-142500000D03*
D14*
G36*
X168753387Y-142043079D02*
G01*
X168830438Y-142094562D01*
X168881921Y-142171613D01*
X168900000Y-142262500D01*
X168900000Y-142737500D01*
X168881921Y-142828387D01*
X168830438Y-142905438D01*
X168753387Y-142956921D01*
X168662500Y-142975000D01*
X168087500Y-142975000D01*
X167996613Y-142956921D01*
X167919562Y-142905438D01*
X167868079Y-142828387D01*
X167850000Y-142737500D01*
X167850000Y-142262500D01*
X167868079Y-142171613D01*
X167919562Y-142094562D01*
X167996613Y-142043079D01*
X168087500Y-142025000D01*
X168662500Y-142025000D01*
X168753387Y-142043079D01*
G37*
D15*
X168375000Y-142500000D03*
D14*
G36*
X166503387Y-108043079D02*
G01*
X166580438Y-108094562D01*
X166631921Y-108171613D01*
X166650000Y-108262500D01*
X166650000Y-108737500D01*
X166631921Y-108828387D01*
X166580438Y-108905438D01*
X166503387Y-108956921D01*
X166412500Y-108975000D01*
X165837500Y-108975000D01*
X165746613Y-108956921D01*
X165669562Y-108905438D01*
X165618079Y-108828387D01*
X165600000Y-108737500D01*
X165600000Y-108262500D01*
X165618079Y-108171613D01*
X165669562Y-108094562D01*
X165746613Y-108043079D01*
X165837500Y-108025000D01*
X166412500Y-108025000D01*
X166503387Y-108043079D01*
G37*
D15*
X166125000Y-108500000D03*
D14*
G36*
X168253387Y-108043079D02*
G01*
X168330438Y-108094562D01*
X168381921Y-108171613D01*
X168400000Y-108262500D01*
X168400000Y-108737500D01*
X168381921Y-108828387D01*
X168330438Y-108905438D01*
X168253387Y-108956921D01*
X168162500Y-108975000D01*
X167587500Y-108975000D01*
X167496613Y-108956921D01*
X167419562Y-108905438D01*
X167368079Y-108828387D01*
X167350000Y-108737500D01*
X167350000Y-108262500D01*
X167368079Y-108171613D01*
X167419562Y-108094562D01*
X167496613Y-108043079D01*
X167587500Y-108025000D01*
X168162500Y-108025000D01*
X168253387Y-108043079D01*
G37*
D15*
X167875000Y-108500000D03*
D14*
G36*
X149328387Y-171743079D02*
G01*
X149405438Y-171794562D01*
X149456921Y-171871613D01*
X149475000Y-171962500D01*
X149475000Y-172537500D01*
X149456921Y-172628387D01*
X149405438Y-172705438D01*
X149328387Y-172756921D01*
X149237500Y-172775000D01*
X148762500Y-172775000D01*
X148671613Y-172756921D01*
X148594562Y-172705438D01*
X148543079Y-172628387D01*
X148525000Y-172537500D01*
X148525000Y-171962500D01*
X148543079Y-171871613D01*
X148594562Y-171794562D01*
X148671613Y-171743079D01*
X148762500Y-171725000D01*
X149237500Y-171725000D01*
X149328387Y-171743079D01*
G37*
D15*
X149000000Y-172250000D03*
D14*
G36*
X149328387Y-173493079D02*
G01*
X149405438Y-173544562D01*
X149456921Y-173621613D01*
X149475000Y-173712500D01*
X149475000Y-174287500D01*
X149456921Y-174378387D01*
X149405438Y-174455438D01*
X149328387Y-174506921D01*
X149237500Y-174525000D01*
X148762500Y-174525000D01*
X148671613Y-174506921D01*
X148594562Y-174455438D01*
X148543079Y-174378387D01*
X148525000Y-174287500D01*
X148525000Y-173712500D01*
X148543079Y-173621613D01*
X148594562Y-173544562D01*
X148671613Y-173493079D01*
X148762500Y-173475000D01*
X149237500Y-173475000D01*
X149328387Y-173493079D01*
G37*
D15*
X149000000Y-174000000D03*
D14*
G36*
X151328387Y-112368079D02*
G01*
X151405438Y-112419562D01*
X151456921Y-112496613D01*
X151475000Y-112587500D01*
X151475000Y-113162500D01*
X151456921Y-113253387D01*
X151405438Y-113330438D01*
X151328387Y-113381921D01*
X151237500Y-113400000D01*
X150762500Y-113400000D01*
X150671613Y-113381921D01*
X150594562Y-113330438D01*
X150543079Y-113253387D01*
X150525000Y-113162500D01*
X150525000Y-112587500D01*
X150543079Y-112496613D01*
X150594562Y-112419562D01*
X150671613Y-112368079D01*
X150762500Y-112350000D01*
X151237500Y-112350000D01*
X151328387Y-112368079D01*
G37*
D15*
X151000000Y-112875000D03*
D14*
G36*
X151328387Y-110618079D02*
G01*
X151405438Y-110669562D01*
X151456921Y-110746613D01*
X151475000Y-110837500D01*
X151475000Y-111412500D01*
X151456921Y-111503387D01*
X151405438Y-111580438D01*
X151328387Y-111631921D01*
X151237500Y-111650000D01*
X150762500Y-111650000D01*
X150671613Y-111631921D01*
X150594562Y-111580438D01*
X150543079Y-111503387D01*
X150525000Y-111412500D01*
X150525000Y-110837500D01*
X150543079Y-110746613D01*
X150594562Y-110669562D01*
X150671613Y-110618079D01*
X150762500Y-110600000D01*
X151237500Y-110600000D01*
X151328387Y-110618079D01*
G37*
D15*
X151000000Y-111125000D03*
D14*
G36*
X147828387Y-113868079D02*
G01*
X147905438Y-113919562D01*
X147956921Y-113996613D01*
X147975000Y-114087500D01*
X147975000Y-114662500D01*
X147956921Y-114753387D01*
X147905438Y-114830438D01*
X147828387Y-114881921D01*
X147737500Y-114900000D01*
X147262500Y-114900000D01*
X147171613Y-114881921D01*
X147094562Y-114830438D01*
X147043079Y-114753387D01*
X147025000Y-114662500D01*
X147025000Y-114087500D01*
X147043079Y-113996613D01*
X147094562Y-113919562D01*
X147171613Y-113868079D01*
X147262500Y-113850000D01*
X147737500Y-113850000D01*
X147828387Y-113868079D01*
G37*
D15*
X147500000Y-114375000D03*
D14*
G36*
X147828387Y-112118079D02*
G01*
X147905438Y-112169562D01*
X147956921Y-112246613D01*
X147975000Y-112337500D01*
X147975000Y-112912500D01*
X147956921Y-113003387D01*
X147905438Y-113080438D01*
X147828387Y-113131921D01*
X147737500Y-113150000D01*
X147262500Y-113150000D01*
X147171613Y-113131921D01*
X147094562Y-113080438D01*
X147043079Y-113003387D01*
X147025000Y-112912500D01*
X147025000Y-112337500D01*
X147043079Y-112246613D01*
X147094562Y-112169562D01*
X147171613Y-112118079D01*
X147262500Y-112100000D01*
X147737500Y-112100000D01*
X147828387Y-112118079D01*
G37*
D15*
X147500000Y-112625000D03*
D14*
G36*
X149328387Y-162118079D02*
G01*
X149405438Y-162169562D01*
X149456921Y-162246613D01*
X149475000Y-162337500D01*
X149475000Y-162912500D01*
X149456921Y-163003387D01*
X149405438Y-163080438D01*
X149328387Y-163131921D01*
X149237500Y-163150000D01*
X148762500Y-163150000D01*
X148671613Y-163131921D01*
X148594562Y-163080438D01*
X148543079Y-163003387D01*
X148525000Y-162912500D01*
X148525000Y-162337500D01*
X148543079Y-162246613D01*
X148594562Y-162169562D01*
X148671613Y-162118079D01*
X148762500Y-162100000D01*
X149237500Y-162100000D01*
X149328387Y-162118079D01*
G37*
D15*
X149000000Y-162625000D03*
D14*
G36*
X149328387Y-163868079D02*
G01*
X149405438Y-163919562D01*
X149456921Y-163996613D01*
X149475000Y-164087500D01*
X149475000Y-164662500D01*
X149456921Y-164753387D01*
X149405438Y-164830438D01*
X149328387Y-164881921D01*
X149237500Y-164900000D01*
X148762500Y-164900000D01*
X148671613Y-164881921D01*
X148594562Y-164830438D01*
X148543079Y-164753387D01*
X148525000Y-164662500D01*
X148525000Y-164087500D01*
X148543079Y-163996613D01*
X148594562Y-163919562D01*
X148671613Y-163868079D01*
X148762500Y-163850000D01*
X149237500Y-163850000D01*
X149328387Y-163868079D01*
G37*
D15*
X149000000Y-164375000D03*
D14*
G36*
X151328387Y-122243079D02*
G01*
X151405438Y-122294562D01*
X151456921Y-122371613D01*
X151475000Y-122462500D01*
X151475000Y-123037500D01*
X151456921Y-123128387D01*
X151405438Y-123205438D01*
X151328387Y-123256921D01*
X151237500Y-123275000D01*
X150762500Y-123275000D01*
X150671613Y-123256921D01*
X150594562Y-123205438D01*
X150543079Y-123128387D01*
X150525000Y-123037500D01*
X150525000Y-122462500D01*
X150543079Y-122371613D01*
X150594562Y-122294562D01*
X150671613Y-122243079D01*
X150762500Y-122225000D01*
X151237500Y-122225000D01*
X151328387Y-122243079D01*
G37*
D15*
X151000000Y-122750000D03*
D14*
G36*
X151328387Y-120493079D02*
G01*
X151405438Y-120544562D01*
X151456921Y-120621613D01*
X151475000Y-120712500D01*
X151475000Y-121287500D01*
X151456921Y-121378387D01*
X151405438Y-121455438D01*
X151328387Y-121506921D01*
X151237500Y-121525000D01*
X150762500Y-121525000D01*
X150671613Y-121506921D01*
X150594562Y-121455438D01*
X150543079Y-121378387D01*
X150525000Y-121287500D01*
X150525000Y-120712500D01*
X150543079Y-120621613D01*
X150594562Y-120544562D01*
X150671613Y-120493079D01*
X150762500Y-120475000D01*
X151237500Y-120475000D01*
X151328387Y-120493079D01*
G37*
D15*
X151000000Y-121000000D03*
D28*
X213000000Y-134000000D03*
X208750000Y-134000000D03*
X217250000Y-134000000D03*
X131000000Y-187000000D03*
X135250000Y-187000000D03*
X126750000Y-187000000D03*
D14*
G36*
X131549529Y-178406054D02*
G01*
X131628607Y-178458893D01*
X131681446Y-178537971D01*
X131700000Y-178631250D01*
X131700000Y-179118750D01*
X131681446Y-179212029D01*
X131628607Y-179291107D01*
X131549529Y-179343946D01*
X131456250Y-179362500D01*
X130543750Y-179362500D01*
X130450471Y-179343946D01*
X130371393Y-179291107D01*
X130318554Y-179212029D01*
X130300000Y-179118750D01*
X130300000Y-178631250D01*
X130318554Y-178537971D01*
X130371393Y-178458893D01*
X130450471Y-178406054D01*
X130543750Y-178387500D01*
X131456250Y-178387500D01*
X131549529Y-178406054D01*
G37*
D27*
X131000000Y-178875000D03*
D14*
G36*
X131549529Y-176531054D02*
G01*
X131628607Y-176583893D01*
X131681446Y-176662971D01*
X131700000Y-176756250D01*
X131700000Y-177243750D01*
X131681446Y-177337029D01*
X131628607Y-177416107D01*
X131549529Y-177468946D01*
X131456250Y-177487500D01*
X130543750Y-177487500D01*
X130450471Y-177468946D01*
X130371393Y-177416107D01*
X130318554Y-177337029D01*
X130300000Y-177243750D01*
X130300000Y-176756250D01*
X130318554Y-176662971D01*
X130371393Y-176583893D01*
X130450471Y-176531054D01*
X130543750Y-176512500D01*
X131456250Y-176512500D01*
X131549529Y-176531054D01*
G37*
D27*
X131000000Y-177000000D03*
D29*
X150423800Y-167500000D03*
D14*
G36*
X150923800Y-168600000D02*
G01*
X149923800Y-167900000D01*
X149923800Y-167100000D01*
X150923800Y-166400000D01*
X150923800Y-168600000D01*
G37*
D30*
X151833500Y-167500000D03*
D31*
X149020000Y-169000000D03*
D32*
X149166500Y-167500000D03*
D31*
X149020000Y-166000000D03*
D33*
X153167000Y-167500000D03*
D14*
G36*
X152742000Y-166400000D02*
G01*
X153592000Y-167000000D01*
X153592000Y-168000000D01*
X152742000Y-168600000D01*
X152742000Y-166400000D01*
G37*
D29*
X149576200Y-118000000D03*
D14*
G36*
X149076200Y-116900000D02*
G01*
X150076200Y-117600000D01*
X150076200Y-118400000D01*
X149076200Y-119100000D01*
X149076200Y-116900000D01*
G37*
D30*
X148166500Y-118000000D03*
D31*
X150980000Y-116500000D03*
D32*
X150833500Y-118000000D03*
D31*
X150980000Y-119500000D03*
D33*
X146833000Y-118000000D03*
D14*
G36*
X147258000Y-119100000D02*
G01*
X146408000Y-118500000D01*
X146408000Y-117500000D01*
X147258000Y-116900000D01*
X147258000Y-119100000D01*
G37*
D34*
X180500000Y-206500000D03*
X180500000Y-175500000D03*
X180500000Y-174500000D03*
X180500000Y-173500000D03*
X180500000Y-172500000D03*
X179500000Y-172500000D03*
X178500000Y-172500000D03*
X180500000Y-106500000D03*
X180500000Y-105500000D03*
X180500000Y-104500000D03*
X180500000Y-103500000D03*
X179500000Y-103500000D03*
X178500000Y-103500000D03*
X180500000Y-140500000D03*
X180500000Y-139500000D03*
X180500000Y-138500000D03*
X180500000Y-137500000D03*
X179500000Y-137500000D03*
X178500000Y-137500000D03*
X180500000Y-209500000D03*
X180500000Y-208500000D03*
X180500000Y-207500000D03*
X179500000Y-206500000D03*
X178500000Y-206500000D03*
X148720000Y-113000000D03*
X151290000Y-172520000D03*
X150500000Y-172000000D03*
X150500000Y-173000000D03*
X149500000Y-113500000D03*
X149500000Y-112500000D03*
X175800000Y-105000000D03*
X215000000Y-215000000D03*
X214000000Y-216000000D03*
X213000000Y-217000000D03*
X212000000Y-218000000D03*
X212000000Y-220000000D03*
X213000000Y-221000000D03*
X214000000Y-222000000D03*
X150000000Y-184000000D03*
X217000000Y-163000000D03*
X216000000Y-164000000D03*
X198000000Y-131000000D03*
X198000000Y-133000000D03*
X198000000Y-135000000D03*
X198000000Y-137000000D03*
X199000000Y-138000000D03*
X218000000Y-140000000D03*
X218000000Y-142000000D03*
X218000000Y-144000000D03*
X218000000Y-146000000D03*
X218000000Y-148000000D03*
X218000000Y-150000000D03*
X218000000Y-152000000D03*
X218000000Y-154000000D03*
X218000000Y-156000000D03*
X218000000Y-158000000D03*
X218000000Y-160000000D03*
X218000000Y-162000000D03*
X215000000Y-165000000D03*
X215000000Y-167000000D03*
X215000000Y-173000000D03*
X215000000Y-175000000D03*
X215000000Y-177000000D03*
X215000000Y-179000000D03*
X215000000Y-181000000D03*
X215000000Y-183000000D03*
X215000000Y-185000000D03*
X215000000Y-187000000D03*
X215000000Y-189000000D03*
X215000000Y-191000000D03*
X215000000Y-193000000D03*
X215000000Y-195000000D03*
X215000000Y-197000000D03*
X215000000Y-199000000D03*
X215000000Y-201000000D03*
X215000000Y-203000000D03*
X215000000Y-205000000D03*
X215000000Y-207000000D03*
X215000000Y-209000000D03*
X215000000Y-211000000D03*
X215000000Y-213000000D03*
X215000000Y-223000000D03*
X216000000Y-224000000D03*
X216000000Y-226000000D03*
X216000000Y-228000000D03*
X216000000Y-230000000D03*
X214000000Y-230000000D03*
X212000000Y-230000000D03*
X210000000Y-230000000D03*
X208000000Y-230000000D03*
X206000000Y-230000000D03*
X204000000Y-230000000D03*
X202000000Y-230000000D03*
X200000000Y-230000000D03*
X198000000Y-230000000D03*
X196000000Y-230000000D03*
X194000000Y-230000000D03*
X192000000Y-230000000D03*
X190000000Y-230000000D03*
X188000000Y-230000000D03*
X186000000Y-230000000D03*
X184000000Y-230000000D03*
X182000000Y-230000000D03*
X180000000Y-230000000D03*
X178000000Y-230000000D03*
X176000000Y-230000000D03*
X174000000Y-230000000D03*
X172000000Y-230000000D03*
X170000000Y-230000000D03*
X168000000Y-230000000D03*
X166000000Y-230000000D03*
X164000000Y-230000000D03*
X162000000Y-230000000D03*
X160000000Y-230000000D03*
X158000000Y-230000000D03*
X156000000Y-230000000D03*
X155000000Y-229000000D03*
X154000000Y-228000000D03*
X153000000Y-227000000D03*
X152000000Y-226000000D03*
X151000000Y-225000000D03*
X150000000Y-224000000D03*
X150000000Y-222000000D03*
X150000000Y-220000000D03*
X150000000Y-218000000D03*
X150000000Y-216000000D03*
X150000000Y-214000000D03*
X150000000Y-212000000D03*
X150000000Y-210000000D03*
X150000000Y-208000000D03*
X150000000Y-206000000D03*
X150000000Y-204000000D03*
X150000000Y-202000000D03*
X150000000Y-200000000D03*
X150000000Y-198000000D03*
X150000000Y-196000000D03*
X150000000Y-194000000D03*
X150000000Y-192000000D03*
X150000000Y-190000000D03*
X150000000Y-188000000D03*
X150000000Y-186000000D03*
X148000000Y-184000000D03*
X146000000Y-184000000D03*
X144000000Y-184000000D03*
X142000000Y-184000000D03*
X140000000Y-184000000D03*
X138000000Y-184000000D03*
X137000000Y-185000000D03*
X137000000Y-187000000D03*
X137000000Y-189000000D03*
X125000000Y-189000000D03*
X125000000Y-187000000D03*
X125000000Y-185000000D03*
X125000000Y-183000000D03*
X125000000Y-181000000D03*
X125000000Y-179000000D03*
X125000000Y-177000000D03*
X125000000Y-175000000D03*
X125000000Y-173000000D03*
X125000000Y-171000000D03*
X125000000Y-169000000D03*
X125000000Y-167000000D03*
X125000000Y-165000000D03*
X125000000Y-165000000D03*
X125000000Y-163000000D03*
X125000000Y-161000000D03*
X125000000Y-159000000D03*
X125000000Y-157000000D03*
X125000000Y-155000000D03*
X125000000Y-153000000D03*
X125000000Y-151000000D03*
X125000000Y-149000000D03*
X126000000Y-148000000D03*
X127000000Y-147000000D03*
X128000000Y-146000000D03*
X129000000Y-145000000D03*
X129000000Y-140000000D03*
X129000000Y-138000000D03*
X129000000Y-136000000D03*
X129000000Y-134000000D03*
X129000000Y-132000000D03*
X129000000Y-130000000D03*
X129000000Y-128000000D03*
X129000000Y-126000000D03*
X129000000Y-124000000D03*
X129000000Y-122000000D03*
X129000000Y-120000000D03*
X129000000Y-118000000D03*
X129000000Y-116000000D03*
X129000000Y-114000000D03*
X129000000Y-112000000D03*
X129000000Y-110000000D03*
X129000000Y-108000000D03*
X129000000Y-106000000D03*
X129000000Y-104000000D03*
X129000000Y-102000000D03*
X129000000Y-100000000D03*
X129000000Y-98000000D03*
X129000000Y-96000000D03*
X130000000Y-95000000D03*
X131000000Y-94000000D03*
X132000000Y-93000000D03*
X133000000Y-92000000D03*
X134000000Y-91000000D03*
X135000000Y-90000000D03*
X137000000Y-90000000D03*
X139000000Y-90000000D03*
X141000000Y-90000000D03*
X143000000Y-90000000D03*
X145000000Y-90000000D03*
X147000000Y-90000000D03*
X149000000Y-90000000D03*
X151000000Y-90000000D03*
X153000000Y-90000000D03*
X155000000Y-90000000D03*
X157000000Y-90000000D03*
X159000000Y-90000000D03*
X161000000Y-90000000D03*
X163000000Y-90000000D03*
X165000000Y-90000000D03*
X167000000Y-90000000D03*
X169000000Y-90000000D03*
X171000000Y-90000000D03*
X173000000Y-90000000D03*
X175000000Y-90000000D03*
X177000000Y-90000000D03*
X179000000Y-90000000D03*
X181000000Y-90000000D03*
X183000000Y-90000000D03*
X185000000Y-90000000D03*
X187000000Y-90000000D03*
X189000000Y-90000000D03*
X191000000Y-90000000D03*
X193000000Y-90000000D03*
X195000000Y-91000000D03*
X198000000Y-95000000D03*
X198000000Y-97000000D03*
X198000000Y-99000000D03*
X198000000Y-101000000D03*
X198000000Y-103000000D03*
X198000000Y-105000000D03*
X198000000Y-107000000D03*
X198000000Y-109000000D03*
X198000000Y-111000000D03*
X198000000Y-113000000D03*
X198000000Y-115000000D03*
X198000000Y-117000000D03*
X198000000Y-119000000D03*
X198000000Y-121000000D03*
X198000000Y-123000000D03*
X198000000Y-125000000D03*
X198000000Y-127000000D03*
X198000000Y-129000000D03*
X200000000Y-139000000D03*
X202000000Y-139000000D03*
X204000000Y-139000000D03*
X206000000Y-139000000D03*
X146500000Y-113000000D03*
X152500000Y-174000000D03*
X210000000Y-132500000D03*
X210000000Y-133500000D03*
X210000000Y-134500000D03*
X210000000Y-135500000D03*
X210000000Y-136500000D03*
X216000000Y-132500000D03*
X216000000Y-133500000D03*
X216000000Y-134500000D03*
X216000000Y-135500000D03*
X216000000Y-136500000D03*
X218000000Y-137500000D03*
X217000000Y-137500000D03*
X216000000Y-137500000D03*
X216000000Y-138500000D03*
X217000000Y-138500000D03*
X218000000Y-138500000D03*
X219000000Y-138500000D03*
X219000000Y-137500000D03*
X219000000Y-136500000D03*
X219000000Y-135500000D03*
X219000000Y-134500000D03*
X219000000Y-133500000D03*
X219000000Y-132500000D03*
X210000000Y-138500000D03*
X209000000Y-138500000D03*
X208000000Y-138500000D03*
X207000000Y-138500000D03*
X210000000Y-137500000D03*
X209000000Y-137500000D03*
X208000000Y-137500000D03*
X207000000Y-137500000D03*
X207000000Y-136500000D03*
X207000000Y-135500000D03*
X207000000Y-134500000D03*
X207000000Y-133500000D03*
X207000000Y-132500000D03*
X210500000Y-196500000D03*
X133000000Y-126500000D03*
X155500000Y-144000000D03*
X154500000Y-144000000D03*
X153500000Y-144000000D03*
X153500000Y-143000000D03*
X153500000Y-142000000D03*
X153500000Y-141000000D03*
X154500000Y-141000000D03*
X155500000Y-141000000D03*
X155500000Y-213000000D03*
X154500000Y-213000000D03*
X153500000Y-213000000D03*
X153500000Y-212000000D03*
X153500000Y-211000000D03*
X153500000Y-210000000D03*
X154500000Y-210000000D03*
X155500000Y-210000000D03*
X195000000Y-179000000D03*
X196000000Y-179000000D03*
X197000000Y-179000000D03*
X197000000Y-178000000D03*
X197000000Y-177000000D03*
X197000000Y-176000000D03*
X196000000Y-176000000D03*
X195000000Y-176000000D03*
X195000000Y-110000000D03*
X196000000Y-110000000D03*
X197000000Y-110000000D03*
X197000000Y-109000000D03*
X197000000Y-108000000D03*
X197000000Y-107000000D03*
X196000000Y-107000000D03*
X195000000Y-107000000D03*
X210500000Y-192500000D03*
X211500000Y-192500000D03*
X212500000Y-192500000D03*
X212500000Y-193500000D03*
X212500000Y-194500000D03*
X212500000Y-195500000D03*
X212500000Y-196500000D03*
X211500000Y-196500000D03*
X135000000Y-127500000D03*
X134000000Y-127500000D03*
X133000000Y-127500000D03*
X133000000Y-125500000D03*
X133000000Y-124500000D03*
X134000000Y-124500000D03*
X135000000Y-124500000D03*
X176000000Y-208000000D03*
X175400000Y-139100000D03*
X175500000Y-174000000D03*
X172500000Y-150000000D03*
X173500000Y-150000000D03*
X174500000Y-150000000D03*
X174000000Y-149000000D03*
X173000000Y-149000000D03*
X174500000Y-148000000D03*
X173500000Y-148000000D03*
X172500000Y-148000000D03*
X172500000Y-138000000D03*
X173500000Y-138000000D03*
X174500000Y-138000000D03*
X174000000Y-139000000D03*
X173000000Y-139000000D03*
X172500000Y-140000000D03*
X173500000Y-140000000D03*
X174500000Y-140000000D03*
X174000000Y-141000000D03*
X173000000Y-141000000D03*
X173000000Y-147000000D03*
X174000000Y-147000000D03*
X174500000Y-146000000D03*
X172500000Y-146000000D03*
X173500000Y-146000000D03*
X174500000Y-112000000D03*
X174500000Y-114000000D03*
X173500000Y-112000000D03*
X173500000Y-114000000D03*
X174000000Y-113000000D03*
X173000000Y-113000000D03*
X154000000Y-169500000D03*
X154000000Y-165500000D03*
X154000000Y-167500000D03*
X153500000Y-168500000D03*
X153500000Y-166500000D03*
X146000000Y-118000000D03*
X149000000Y-116000000D03*
X146000000Y-116000000D03*
X146000000Y-120000000D03*
X149000000Y-120000000D03*
X151000000Y-165500000D03*
X153000000Y-169500000D03*
X151000000Y-169500000D03*
X152000000Y-169500000D03*
X153000000Y-165500000D03*
X152000000Y-165500000D03*
X152500000Y-168500000D03*
X153000000Y-167500000D03*
X151500000Y-166500000D03*
X151500000Y-168500000D03*
X151000000Y-167500000D03*
X152000000Y-167500000D03*
X152500000Y-166500000D03*
X148000000Y-120000000D03*
X147000000Y-120000000D03*
X146500000Y-119000000D03*
X146500000Y-117000000D03*
X147000000Y-116000000D03*
X148000000Y-116000000D03*
X174500000Y-106000000D03*
X173500000Y-106000000D03*
X172500000Y-106000000D03*
X173000000Y-105000000D03*
X174000000Y-105000000D03*
X174500000Y-104000000D03*
X172500000Y-104000000D03*
X173500000Y-104000000D03*
X173000000Y-103000000D03*
X174000000Y-103000000D03*
X172500000Y-102000000D03*
X174500000Y-102000000D03*
X173500000Y-102000000D03*
X172500000Y-108000000D03*
X173500000Y-108000000D03*
X147000000Y-118000000D03*
X147500000Y-119000000D03*
X149000000Y-118000000D03*
X147500000Y-117000000D03*
X148500000Y-117000000D03*
X148000000Y-118000000D03*
X148500000Y-119000000D03*
X172500000Y-112000000D03*
X172500000Y-114000000D03*
X173000000Y-107000000D03*
X174000000Y-107000000D03*
X172500000Y-110000000D03*
X174500000Y-108000000D03*
X174500000Y-110000000D03*
X173000000Y-109000000D03*
X173000000Y-111000000D03*
X174000000Y-111000000D03*
X173500000Y-110000000D03*
X174000000Y-109000000D03*
X173000000Y-145000000D03*
X174500000Y-144000000D03*
X174000000Y-145000000D03*
X173500000Y-142000000D03*
X172500000Y-142000000D03*
X174500000Y-142000000D03*
X174000000Y-143000000D03*
X172500000Y-144000000D03*
X173500000Y-144000000D03*
X173000000Y-143000000D03*
X172500000Y-180000000D03*
X172500000Y-184000000D03*
X172500000Y-182000000D03*
X172500000Y-172000000D03*
X174000000Y-173000000D03*
X173000000Y-173000000D03*
X173000000Y-175000000D03*
X173500000Y-174000000D03*
X173000000Y-177000000D03*
X174000000Y-177000000D03*
X173500000Y-178000000D03*
X173000000Y-179000000D03*
X174000000Y-179000000D03*
X174500000Y-174000000D03*
X172500000Y-178000000D03*
X173500000Y-172000000D03*
X172500000Y-176000000D03*
X174500000Y-176000000D03*
X174000000Y-175000000D03*
X174500000Y-178000000D03*
X173500000Y-176000000D03*
X174500000Y-172000000D03*
X172500000Y-174000000D03*
X174000000Y-181000000D03*
X174500000Y-180000000D03*
X174000000Y-183000000D03*
X173000000Y-183000000D03*
X173000000Y-181000000D03*
X173500000Y-180000000D03*
X174500000Y-182000000D03*
X173500000Y-184000000D03*
X173500000Y-182000000D03*
X174500000Y-184000000D03*
X174000000Y-216000000D03*
X172500000Y-207000000D03*
X172500000Y-219000000D03*
X174000000Y-218000000D03*
X174500000Y-211000000D03*
X174500000Y-219000000D03*
X174000000Y-212000000D03*
X173000000Y-210000000D03*
X173000000Y-212000000D03*
X174000000Y-210000000D03*
X174500000Y-213000000D03*
X174500000Y-209000000D03*
X174000000Y-208000000D03*
X172500000Y-215000000D03*
X173500000Y-217000000D03*
X172500000Y-211000000D03*
X173500000Y-213000000D03*
X173500000Y-219000000D03*
X173000000Y-208000000D03*
X173500000Y-209000000D03*
X173000000Y-214000000D03*
X172500000Y-213000000D03*
X173500000Y-207000000D03*
X174500000Y-207000000D03*
X172500000Y-209000000D03*
X172500000Y-217000000D03*
X173500000Y-211000000D03*
X173000000Y-218000000D03*
X174500000Y-217000000D03*
X173000000Y-216000000D03*
X173500000Y-215000000D03*
X174500000Y-215000000D03*
X174000000Y-214000000D03*
D35*
X208327500Y-223540000D02*
X210222500Y-223540000D01*
X210222500Y-223540000D02*
X210262500Y-223500000D01*
X206752500Y-223540000D02*
X206752500Y-225832500D01*
X206752500Y-225832500D02*
X208460000Y-227540000D01*
X195836374Y-202881034D02*
X195908538Y-202835691D01*
X195730766Y-203013463D02*
X195776109Y-202941299D01*
X195702617Y-203093908D02*
X195730766Y-203013463D01*
X195988983Y-202807542D02*
X196073674Y-202798000D01*
X195988983Y-203549657D02*
X195908538Y-203521508D01*
X195693074Y-203178600D02*
X195702617Y-203093908D01*
X197647383Y-203855108D02*
X197619234Y-203774663D01*
X195730766Y-203343736D02*
X195702617Y-203263291D01*
X197276326Y-202798000D02*
X197361017Y-202788457D01*
X196675000Y-200895000D02*
X196675000Y-196600000D01*
X195776109Y-203415900D02*
X195730766Y-203343736D01*
X196073674Y-203559200D02*
X195988983Y-203549657D01*
X198673500Y-194601500D02*
X201500000Y-194601500D01*
X195908538Y-203521508D02*
X195836374Y-203476165D01*
X196675000Y-204701000D02*
X196684542Y-204616308D01*
X197276326Y-203559200D02*
X196073674Y-203559200D01*
X197441462Y-203596891D02*
X197361017Y-203568742D01*
X196379092Y-201266057D02*
X196459537Y-201237908D01*
X197513626Y-203642234D02*
X197441462Y-203596891D01*
X195988983Y-201285142D02*
X196073674Y-201275600D01*
X196294400Y-201275600D02*
X196379092Y-201266057D01*
X196531701Y-201192565D02*
X196591966Y-201132300D01*
X197276326Y-204320400D02*
X197361017Y-204310857D01*
X195908538Y-202835691D02*
X195988983Y-202807542D01*
X196637309Y-201060136D02*
X196665458Y-200979691D01*
X194048500Y-211601500D02*
X196675000Y-208975000D01*
X196073674Y-202798000D02*
X197276326Y-202798000D01*
X195702617Y-201571508D02*
X195730766Y-201491063D01*
X195702617Y-203263291D02*
X195693074Y-203178600D01*
X196459537Y-201237908D02*
X196531701Y-201192565D01*
X196712691Y-204535863D02*
X196758034Y-204463699D01*
X197441462Y-204282708D02*
X197513626Y-204237365D01*
X197656926Y-203939800D02*
X197647383Y-203855108D01*
X196970908Y-204329942D02*
X197055600Y-204320400D01*
X197656926Y-202417400D02*
X197647383Y-202332708D01*
X196684542Y-204616308D02*
X196712691Y-204535863D01*
X195836374Y-203476165D02*
X195776109Y-203415900D01*
X195908538Y-201313291D02*
X195988983Y-201285142D01*
X196073674Y-201275600D02*
X196294400Y-201275600D01*
X197619234Y-204104936D02*
X197647383Y-204024491D01*
X197361017Y-203568742D02*
X197276326Y-203559200D01*
X197647383Y-204024491D02*
X197656926Y-203939800D01*
X195836374Y-201358634D02*
X195908538Y-201313291D01*
X196890463Y-204358091D02*
X196970908Y-204329942D01*
X197513626Y-202714965D02*
X197573891Y-202654700D01*
X196758034Y-204463699D02*
X196818299Y-204403434D01*
X197055600Y-204320400D02*
X197276326Y-204320400D01*
X197361017Y-202788457D02*
X197441462Y-202760308D01*
X197361017Y-204310857D02*
X197441462Y-204282708D01*
X192000000Y-211601500D02*
X194048500Y-211601500D01*
X196675000Y-208975000D02*
X196675000Y-204701000D01*
X196818299Y-204403434D02*
X196890463Y-204358091D01*
X195836374Y-201953765D02*
X195776109Y-201893500D01*
X195776109Y-202941299D02*
X195836374Y-202881034D01*
X197619234Y-202252263D02*
X197573891Y-202180099D01*
X197513626Y-204237365D02*
X197573891Y-204177100D01*
X197619234Y-203774663D02*
X197573891Y-203702499D01*
X197573891Y-202654700D02*
X197619234Y-202582536D01*
X197441462Y-202760308D02*
X197513626Y-202714965D01*
X197573891Y-204177100D02*
X197619234Y-204104936D01*
X197573891Y-202180099D02*
X197513626Y-202119834D01*
X196675000Y-196600000D02*
X198673500Y-194601500D01*
X197573891Y-203702499D02*
X197513626Y-203642234D01*
X197619234Y-202582536D02*
X197647383Y-202502091D01*
X197647383Y-202502091D02*
X197656926Y-202417400D01*
X197647383Y-202332708D02*
X197619234Y-202252263D01*
X197513626Y-202119834D02*
X197441462Y-202074491D01*
X197441462Y-202074491D02*
X197361017Y-202046342D01*
X197361017Y-202046342D02*
X197276326Y-202036800D01*
X197276326Y-202036800D02*
X196073674Y-202036800D01*
X196073674Y-202036800D02*
X195988983Y-202027257D01*
X195988983Y-202027257D02*
X195908538Y-201999108D01*
X195908538Y-201999108D02*
X195836374Y-201953765D01*
X195776109Y-201893500D02*
X195730766Y-201821336D01*
X195730766Y-201821336D02*
X195702617Y-201740891D01*
X195702617Y-201740891D02*
X195693074Y-201656200D01*
X195693074Y-201656200D02*
X195702617Y-201571508D01*
X195730766Y-201491063D02*
X195776109Y-201418899D01*
X195776109Y-201418899D02*
X195836374Y-201358634D01*
X196591966Y-201132300D02*
X196637309Y-201060136D01*
X196665458Y-200979691D02*
X196675000Y-200895000D01*
X196376621Y-149753691D02*
X196304457Y-149799034D01*
X197808242Y-149716000D02*
X196541758Y-149716000D01*
X196170700Y-148658891D02*
X196198849Y-148739336D01*
X197892934Y-149706457D02*
X197808242Y-149716000D01*
X197973379Y-149678308D02*
X197892934Y-149706457D01*
X196457066Y-150467657D02*
X196541758Y-150477200D01*
X198045543Y-149632965D02*
X197973379Y-149678308D01*
X196376621Y-150439508D02*
X196457066Y-150467657D01*
X198151151Y-149500536D02*
X198105808Y-149572700D01*
X196244192Y-150333900D02*
X196304457Y-150394165D01*
X198179300Y-149250708D02*
X198188842Y-149335400D01*
X198151151Y-149170263D02*
X198179300Y-149250708D01*
X198045543Y-149037834D02*
X198105808Y-149098099D01*
X198105808Y-149098099D02*
X198151151Y-149170263D01*
X197892934Y-148964342D02*
X197973379Y-148992491D01*
X196457066Y-149725542D02*
X196376621Y-149753691D01*
X196541758Y-148954800D02*
X197808242Y-148954800D01*
X197808242Y-148954800D02*
X197892934Y-148964342D01*
X196376621Y-148917108D02*
X196457066Y-148945257D01*
X197175000Y-144250000D02*
X197175000Y-147813000D01*
X196304457Y-148871765D02*
X196376621Y-148917108D01*
X197091965Y-150620499D02*
X197137308Y-150692663D01*
X198179300Y-149420091D02*
X198151151Y-149500536D01*
X196959536Y-148155908D02*
X196879091Y-148184057D01*
X197165457Y-147897691D02*
X197137308Y-147978136D01*
X196244192Y-149859299D02*
X196198849Y-149931463D01*
X197973379Y-148992491D02*
X198045543Y-149037834D01*
X196541758Y-148193600D02*
X196457066Y-148203142D01*
X197091965Y-148050300D02*
X197031700Y-148110565D01*
X195526500Y-142601500D02*
X197175000Y-144250000D01*
X192000000Y-142601500D02*
X195526500Y-142601500D01*
X196959536Y-150514891D02*
X197031700Y-150560234D01*
X198105808Y-149572700D02*
X198045543Y-149632965D01*
X196304457Y-150394165D02*
X196376621Y-150439508D01*
X196457066Y-148945257D02*
X196541758Y-148954800D01*
X197137308Y-147978136D02*
X197091965Y-148050300D01*
X198188842Y-149335400D02*
X198179300Y-149420091D01*
X196170700Y-150181291D02*
X196198849Y-150261736D01*
X197175000Y-158525000D02*
X199048500Y-160398500D01*
X196304457Y-149799034D02*
X196244192Y-149859299D01*
X196304457Y-148276634D02*
X196244192Y-148336899D01*
X196879091Y-148184057D02*
X196794400Y-148193600D01*
X196794400Y-148193600D02*
X196541758Y-148193600D01*
X196457066Y-148203142D02*
X196376621Y-148231291D01*
X197175000Y-147813000D02*
X197165457Y-147897691D01*
X197137308Y-150692663D02*
X197165457Y-150773108D01*
X196198849Y-148739336D02*
X196244192Y-148811500D01*
X197031700Y-148110565D02*
X196959536Y-148155908D01*
X196376621Y-148231291D02*
X196304457Y-148276634D01*
X196244192Y-148336899D02*
X196198849Y-148409063D01*
X196541758Y-149716000D02*
X196457066Y-149725542D01*
X196170700Y-148489508D02*
X196161158Y-148574200D01*
X196161158Y-148574200D02*
X196170700Y-148658891D01*
X196198849Y-148409063D02*
X196170700Y-148489508D01*
X196244192Y-148811500D02*
X196304457Y-148871765D01*
X196198849Y-149931463D02*
X196170700Y-150011908D01*
X196170700Y-150011908D02*
X196161158Y-150096600D01*
X196161158Y-150096600D02*
X196170700Y-150181291D01*
X196198849Y-150261736D02*
X196244192Y-150333900D01*
X196541758Y-150477200D02*
X196794400Y-150477200D01*
X196794400Y-150477200D02*
X196879091Y-150486742D01*
X196879091Y-150486742D02*
X196959536Y-150514891D01*
X197031700Y-150560234D02*
X197091965Y-150620499D01*
X197165457Y-150773108D02*
X197175000Y-150857800D01*
X197175000Y-150857800D02*
X197175000Y-158525000D01*
X199048500Y-160398500D02*
X201500000Y-160398500D01*
X213000000Y-141062500D02*
X213000000Y-134000000D01*
X213000000Y-158900000D02*
X211501500Y-160398500D01*
X211501500Y-160398500D02*
X207500000Y-160398500D01*
X213000000Y-142937500D02*
X213000000Y-158900000D01*
X178500000Y-175450000D02*
X178500000Y-174000000D01*
X179000000Y-209750000D02*
X179000000Y-208300000D01*
X178500000Y-106500000D02*
X178500000Y-105000000D01*
X184200000Y-211800000D02*
X184398500Y-211601500D01*
X184398500Y-211601500D02*
X186000000Y-211601500D01*
X183375000Y-211800000D02*
X184200000Y-211800000D01*
X181625000Y-211800000D02*
X176825000Y-211800000D01*
X176825000Y-211800000D02*
X176760000Y-211865000D01*
X183175000Y-177450000D02*
X185948500Y-177450000D01*
X185948500Y-177450000D02*
X186000000Y-177398500D01*
X178500000Y-177500000D02*
X181375000Y-177500000D01*
X181375000Y-177500000D02*
X181425000Y-177450000D01*
X176260000Y-177365000D02*
X178365000Y-177365000D01*
X178365000Y-177365000D02*
X178500000Y-177500000D01*
X183475000Y-142625000D02*
X185976500Y-142625000D01*
X185976500Y-142625000D02*
X186000000Y-142601500D01*
X179000000Y-142600000D02*
X181700000Y-142600000D01*
X181700000Y-142600000D02*
X181725000Y-142625000D01*
X176760000Y-142865000D02*
X178735000Y-142865000D01*
X178735000Y-142865000D02*
X179000000Y-142600000D01*
X183250000Y-108500000D02*
X185898500Y-108500000D01*
X185898500Y-108500000D02*
X186000000Y-108398500D01*
X178500000Y-108550000D02*
X181450000Y-108550000D01*
X181450000Y-108550000D02*
X181500000Y-108500000D01*
X176260000Y-108365000D02*
X178315000Y-108365000D01*
X178315000Y-108365000D02*
X178500000Y-108550000D01*
X170740000Y-211865000D02*
X168510000Y-211865000D01*
X168510000Y-211865000D02*
X168375000Y-212000000D01*
X165501500Y-211601500D02*
X165700000Y-211800000D01*
X165700000Y-211800000D02*
X166625000Y-211800000D01*
X165501500Y-211601500D02*
X163500000Y-211601500D01*
X167375000Y-177500000D02*
X170605000Y-177500000D01*
X170605000Y-177500000D02*
X170740000Y-177365000D01*
X164800000Y-177500000D02*
X164698500Y-177398500D01*
X164698500Y-177398500D02*
X163500000Y-177398500D01*
X165625000Y-177500000D02*
X164800000Y-177500000D01*
X169000000Y-142500000D02*
X169365000Y-142865000D01*
X169365000Y-142865000D02*
X170740000Y-142865000D01*
X168375000Y-142500000D02*
X169000000Y-142500000D01*
X165825000Y-142500000D02*
X165723500Y-142601500D01*
X165723500Y-142601500D02*
X163500000Y-142601500D01*
X166625000Y-142500000D02*
X165825000Y-142500000D01*
X167875000Y-108500000D02*
X170605000Y-108500000D01*
X170605000Y-108500000D02*
X170740000Y-108365000D01*
X163500000Y-108398500D02*
X166023500Y-108398500D01*
X166023500Y-108398500D02*
X166125000Y-108500000D01*
X150448500Y-177398500D02*
X157500000Y-177398500D01*
X149000000Y-175950000D02*
X150448500Y-177398500D01*
X149000000Y-174000000D02*
X149000000Y-175950000D01*
X149000000Y-171000000D02*
X149000000Y-172250000D01*
X149020000Y-169000000D02*
X149020000Y-170980000D01*
X149020000Y-170980000D02*
X149000000Y-171000000D01*
X151000000Y-110300000D02*
X152901500Y-108398500D01*
X152901500Y-108398500D02*
X157500000Y-108398500D01*
X151000000Y-111125000D02*
X151000000Y-110300000D01*
X151000000Y-114500000D02*
X151000000Y-112875000D01*
X150980000Y-116500000D02*
X150980000Y-114520000D01*
X150980000Y-114520000D02*
X151000000Y-114500000D01*
X151500000Y-172000000D02*
X151625000Y-172000000D01*
X149250000Y-114500000D02*
X147625000Y-114500000D01*
X147625000Y-114500000D02*
X147500000Y-114375000D01*
X150750000Y-171000000D02*
X152375000Y-171000000D01*
X152375000Y-171000000D02*
X152500000Y-171125000D01*
X149000000Y-164375000D02*
X149000000Y-165980000D01*
X149000000Y-165980000D02*
X149020000Y-166000000D01*
X149000000Y-161600000D02*
X147776500Y-160376500D01*
X147776500Y-160376500D02*
X142750000Y-160376500D01*
X149000000Y-162625000D02*
X149000000Y-161600000D01*
X151000000Y-121000000D02*
X151000000Y-119520000D01*
X151000000Y-119520000D02*
X150980000Y-119500000D01*
X151000000Y-124475000D02*
X149301500Y-126173500D01*
X149301500Y-126173500D02*
X142750000Y-126173500D01*
X151000000Y-122750000D02*
X151000000Y-124475000D01*
X132250000Y-160275000D02*
X136648500Y-160275000D01*
X136648500Y-160275000D02*
X136750000Y-160376500D01*
X131000000Y-161525000D02*
X132250000Y-160275000D01*
X131000000Y-177000000D02*
X131000000Y-161525000D01*
X131000000Y-187000000D02*
X131000000Y-178875000D01*
X175800000Y-105000000D02*
X174500000Y-105000000D01*
X147500000Y-112625000D02*
X146875000Y-112625000D01*
X146875000Y-112625000D02*
X146500000Y-113000000D01*
X152500000Y-172875000D02*
X152500000Y-174000000D01*
X177250000Y-208300000D02*
X176300000Y-208300000D01*
X176300000Y-208300000D02*
X176000000Y-208000000D01*
X175400000Y-139100000D02*
X174400000Y-139100000D01*
X175500000Y-174000000D02*
X174500000Y-174000000D01*
X211837500Y-223500000D02*
X211837500Y-226702500D01*
X211837500Y-226702500D02*
X211000000Y-227540000D01*
X176750000Y-105000000D02*
X175800000Y-105000000D01*
X174500000Y-105000000D02*
X173500000Y-106000000D01*
X174000000Y-143000000D02*
X174000000Y-139000000D01*
X177250000Y-139100000D02*
X175400000Y-139100000D01*
X174400000Y-139100000D02*
X173500000Y-140000000D01*
X174500000Y-174000000D02*
X173500000Y-175000000D01*
X173500000Y-175000000D02*
X173500000Y-178000000D01*
X176750000Y-174000000D02*
X175500000Y-174000000D01*
X173500000Y-178000000D02*
X173500000Y-212500000D01*
X173500000Y-178000000D02*
X173500000Y-165000000D01*
X173500000Y-165000000D02*
X173500000Y-164500000D01*
X150833500Y-118000000D02*
X148166500Y-118000000D01*
X149166500Y-167500000D02*
X151000000Y-167500000D01*
D36*
G36*
X215858163Y-133872000D02*
G01*
X218641837Y-133872000D01*
X218641837Y-131626000D01*
X220374001Y-131626000D01*
X220374000Y-231374000D01*
X148548012Y-231374000D01*
X148708659Y-231267468D01*
X148912586Y-231093606D01*
X147000000Y-229181019D01*
X145088589Y-231092431D01*
X145217102Y-231209571D01*
X145448049Y-231374000D01*
X144626000Y-231374000D01*
X144626000Y-230548289D01*
X144741509Y-230720509D01*
X144906726Y-230912254D01*
X146818981Y-229000000D01*
X147181019Y-229000000D01*
X149092449Y-230911429D01*
X149200207Y-230794442D01*
X149399848Y-230517122D01*
X149564730Y-230217823D01*
X149692460Y-229900884D01*
X149781189Y-229570896D01*
X149829724Y-229231982D01*
X149834260Y-228832277D01*
X149793425Y-228492349D01*
X149712205Y-228160432D01*
X149591699Y-227840677D01*
X149433650Y-227537715D01*
X149240350Y-227255935D01*
X149092772Y-227088248D01*
X147181019Y-229000000D01*
X146818981Y-229000000D01*
X144907531Y-227088551D01*
X144781125Y-227228695D01*
X144626000Y-227449005D01*
X144626000Y-226907005D01*
X145088025Y-226907005D01*
X147000000Y-228818981D01*
X148911541Y-226907439D01*
X148759663Y-226771881D01*
X148479240Y-226576617D01*
X148177388Y-226416458D01*
X147858482Y-226293722D01*
X147527140Y-226210188D01*
X147188164Y-226167065D01*
X146846461Y-226164977D01*
X146506982Y-226203956D01*
X146174645Y-226283437D01*
X145854263Y-226402267D01*
X145550478Y-226558727D01*
X145267689Y-226750549D01*
X145088025Y-226907005D01*
X144626000Y-226907005D01*
X144626000Y-190008327D01*
X144626575Y-189914171D01*
X144613666Y-189869000D01*
X144607006Y-189822498D01*
X144589152Y-189783229D01*
X144577301Y-189741761D01*
X144552234Y-189702033D01*
X144532789Y-189659267D01*
X144504635Y-189626594D01*
X144481618Y-189590113D01*
X144446406Y-189559014D01*
X144415741Y-189523426D01*
X144379547Y-189499966D01*
X144347217Y-189471413D01*
X144304690Y-189451446D01*
X144265271Y-189425897D01*
X144223950Y-189413540D01*
X144184547Y-189395040D01*
X144139659Y-189388332D01*
X144093478Y-189374521D01*
X144045281Y-189374226D01*
X144043770Y-189374000D01*
X144008326Y-189374000D01*
X143914170Y-189373425D01*
X143912158Y-189374000D01*
X136641837Y-189374000D01*
X136641837Y-187128000D01*
X133858163Y-187128000D01*
X133858163Y-189374000D01*
X133126000Y-189374000D01*
X133126000Y-184448976D01*
X133858163Y-184448976D01*
X133858163Y-186872000D01*
X135122000Y-186872000D01*
X135122000Y-183818163D01*
X135378000Y-183818163D01*
X135378000Y-186872000D01*
X136641837Y-186872000D01*
X136641837Y-184443412D01*
X136561205Y-184142489D01*
X136413815Y-183966835D01*
X136220186Y-183855044D01*
X136011024Y-183818163D01*
X135378000Y-183818163D01*
X135122000Y-183818163D01*
X134483412Y-183818163D01*
X134182489Y-183898795D01*
X134006835Y-184046185D01*
X133895044Y-184239814D01*
X133858163Y-184448976D01*
X133126000Y-184448976D01*
X133126000Y-183126000D01*
X150874000Y-183126000D01*
X150874000Y-223052191D01*
X156947809Y-229126000D01*
X199049665Y-229126000D01*
X199716367Y-228503745D01*
X199887622Y-228675000D01*
X200099181Y-228823136D01*
X200333250Y-228932284D01*
X200582717Y-228999128D01*
X200775566Y-229016000D01*
X200904434Y-229016000D01*
X201097283Y-228999128D01*
X201346750Y-228932284D01*
X201580819Y-228823136D01*
X201792378Y-228675000D01*
X201975000Y-228492378D01*
X202110000Y-228299579D01*
X202245000Y-228492378D01*
X202427622Y-228675000D01*
X202639181Y-228823136D01*
X202873250Y-228932284D01*
X203122717Y-228999128D01*
X203315566Y-229016000D01*
X203444434Y-229016000D01*
X203637283Y-228999128D01*
X203886750Y-228932284D01*
X204120819Y-228823136D01*
X204332378Y-228675000D01*
X204515000Y-228492378D01*
X204650000Y-228299579D01*
X204785000Y-228492378D01*
X204967622Y-228675000D01*
X205179181Y-228823136D01*
X205413250Y-228932284D01*
X205662717Y-228999128D01*
X205855566Y-229016000D01*
X205984434Y-229016000D01*
X206177283Y-228999128D01*
X206426750Y-228932284D01*
X206660819Y-228823136D01*
X206872378Y-228675000D01*
X207055000Y-228492378D01*
X207190000Y-228299579D01*
X207325000Y-228492378D01*
X207507622Y-228675000D01*
X207719181Y-228823136D01*
X207953250Y-228932284D01*
X208202717Y-228999128D01*
X208395566Y-229016000D01*
X208524434Y-229016000D01*
X208717283Y-228999128D01*
X208966750Y-228932284D01*
X209200819Y-228823136D01*
X209412378Y-228675000D01*
X209595000Y-228492378D01*
X209727342Y-228303375D01*
X209796610Y-228417526D01*
X209961669Y-228607739D01*
X210156416Y-228767422D01*
X210375284Y-228892009D01*
X210614831Y-228978960D01*
X210872000Y-229013047D01*
X210872000Y-226066953D01*
X211128000Y-226066953D01*
X211128000Y-229039978D01*
X211494708Y-228944800D01*
X211724329Y-228841363D01*
X211933240Y-228700716D01*
X212087535Y-228553526D01*
X212128795Y-228707512D01*
X212276185Y-228883165D01*
X212469814Y-228994956D01*
X212678976Y-229031837D01*
X213412000Y-229031837D01*
X213412000Y-227668000D01*
X213668000Y-227668000D01*
X213668000Y-229031837D01*
X214406588Y-229031837D01*
X214707512Y-228951205D01*
X214883165Y-228803815D01*
X214994956Y-228610186D01*
X215031837Y-228401024D01*
X215031837Y-227668000D01*
X213668000Y-227668000D01*
X213412000Y-227668000D01*
X213412000Y-226048163D01*
X213668000Y-226048163D01*
X213668000Y-227412000D01*
X215031837Y-227412000D01*
X215031837Y-226673412D01*
X214951205Y-226372489D01*
X214803815Y-226196835D01*
X214610186Y-226085044D01*
X214401024Y-226048163D01*
X213668000Y-226048163D01*
X213412000Y-226048163D01*
X212673412Y-226048163D01*
X212372489Y-226128795D01*
X212196835Y-226276185D01*
X212085044Y-226469814D01*
X212076796Y-226516588D01*
X212038331Y-226472261D01*
X211843584Y-226312578D01*
X211624716Y-226187991D01*
X211385169Y-226101040D01*
X211128000Y-226066953D01*
X210872000Y-226066953D01*
X210872000Y-226040022D01*
X210505292Y-226135200D01*
X210275671Y-226238637D01*
X210066760Y-226379284D01*
X209884534Y-226553119D01*
X209734203Y-226755172D01*
X209724998Y-226773277D01*
X209595000Y-226587622D01*
X209412378Y-226405000D01*
X209200819Y-226256864D01*
X208966750Y-226147716D01*
X208717283Y-226080872D01*
X208524434Y-226064000D01*
X208395566Y-226064000D01*
X208202717Y-226080872D01*
X208165315Y-226090894D01*
X207568800Y-225494379D01*
X207568800Y-224441947D01*
X207649597Y-224511958D01*
X207870558Y-224612867D01*
X208101987Y-224646142D01*
X208557547Y-224646142D01*
X208894648Y-224572810D01*
X209102883Y-224438986D01*
X209174531Y-224356300D01*
X209451121Y-224356300D01*
X209584597Y-224471958D01*
X209805558Y-224572867D01*
X210036987Y-224606142D01*
X210492547Y-224606142D01*
X210829648Y-224532810D01*
X211037883Y-224398986D01*
X211048725Y-224386473D01*
X211155227Y-224478757D01*
X211378281Y-224580622D01*
X211709500Y-224628245D01*
X211709500Y-223628000D01*
X211965500Y-223628000D01*
X211965500Y-224636424D01*
X212408005Y-224540162D01*
X212618176Y-224405094D01*
X212778757Y-224219773D01*
X212880622Y-223996719D01*
X212914224Y-223763013D01*
X212914224Y-223628000D01*
X211965500Y-223628000D01*
X211709500Y-223628000D01*
X211709500Y-223372000D01*
X211965500Y-223372000D01*
X212914224Y-223372000D01*
X212914224Y-223232453D01*
X212840162Y-222891996D01*
X212705094Y-222681824D01*
X212519773Y-222521243D01*
X212296719Y-222419378D01*
X211965500Y-222371755D01*
X211965500Y-223372000D01*
X211709500Y-223372000D01*
X211709500Y-222363576D01*
X211266995Y-222459838D01*
X211056824Y-222594906D01*
X211039990Y-222614334D01*
X210940403Y-222528042D01*
X210719442Y-222427133D01*
X210488013Y-222393858D01*
X210032453Y-222393858D01*
X209695352Y-222467190D01*
X209487117Y-222601014D01*
X209380809Y-222723700D01*
X209185043Y-222723700D01*
X209005403Y-222568042D01*
X208784442Y-222467133D01*
X208553013Y-222433858D01*
X208097453Y-222433858D01*
X207760352Y-222507190D01*
X207552117Y-222641014D01*
X207536036Y-222659573D01*
X207430403Y-222568042D01*
X207209442Y-222467133D01*
X206978013Y-222433858D01*
X206522453Y-222433858D01*
X206185352Y-222507190D01*
X206043733Y-222598202D01*
X208728488Y-220092431D01*
X215088589Y-220092431D01*
X215217102Y-220209571D01*
X215495465Y-220407759D01*
X215795623Y-220571071D01*
X216113225Y-220697140D01*
X216443674Y-220784140D01*
X216782181Y-220830810D01*
X217123843Y-220836476D01*
X217463711Y-220801054D01*
X217796862Y-220725058D01*
X218118471Y-220609588D01*
X218423878Y-220456319D01*
X218708659Y-220267468D01*
X218912586Y-220093606D01*
X217000000Y-218181019D01*
X215088589Y-220092431D01*
X208728488Y-220092431D01*
X210821779Y-218138693D01*
X214164212Y-218138693D01*
X214201413Y-218478371D01*
X214279152Y-218811120D01*
X214396304Y-219132119D01*
X214551170Y-219436720D01*
X214741509Y-219720509D01*
X214906726Y-219912254D01*
X216818981Y-218000000D01*
X217181019Y-218000000D01*
X219092449Y-219911429D01*
X219200207Y-219794442D01*
X219399848Y-219517122D01*
X219564730Y-219217823D01*
X219692460Y-218900884D01*
X219781189Y-218570896D01*
X219829724Y-218231982D01*
X219834260Y-217832277D01*
X219793425Y-217492349D01*
X219712205Y-217160432D01*
X219591699Y-216840677D01*
X219433650Y-216537715D01*
X219240350Y-216255935D01*
X219092772Y-216088248D01*
X217181019Y-218000000D01*
X216818981Y-218000000D01*
X214907531Y-216088551D01*
X214781125Y-216228695D01*
X214584396Y-216508092D01*
X214422658Y-216809101D01*
X214298254Y-217127360D01*
X214212986Y-217458259D01*
X214168088Y-217797006D01*
X214164212Y-218138693D01*
X210821779Y-218138693D01*
X213212873Y-215907005D01*
X215088025Y-215907005D01*
X217000000Y-217818981D01*
X218911541Y-215907439D01*
X218759663Y-215771881D01*
X218479240Y-215576617D01*
X218177388Y-215416458D01*
X217858482Y-215293722D01*
X217527140Y-215210188D01*
X217188164Y-215167065D01*
X216846461Y-215164977D01*
X216506982Y-215203956D01*
X216174645Y-215283437D01*
X215854263Y-215402267D01*
X215550478Y-215558727D01*
X215267689Y-215750549D01*
X215088025Y-215907005D01*
X213212873Y-215907005D01*
X214126000Y-215054754D01*
X214126000Y-172092431D01*
X215088589Y-172092431D01*
X215217102Y-172209571D01*
X215495465Y-172407759D01*
X215795623Y-172571071D01*
X216113225Y-172697140D01*
X216443674Y-172784140D01*
X216782181Y-172830810D01*
X217123843Y-172836476D01*
X217463711Y-172801054D01*
X217796862Y-172725058D01*
X218118471Y-172609588D01*
X218423878Y-172456319D01*
X218708659Y-172267468D01*
X218912586Y-172093606D01*
X217000000Y-170181019D01*
X215088589Y-172092431D01*
X214126000Y-172092431D01*
X214126000Y-170138693D01*
X214164212Y-170138693D01*
X214201413Y-170478371D01*
X214279152Y-170811120D01*
X214396304Y-171132119D01*
X214551170Y-171436720D01*
X214741509Y-171720509D01*
X214906726Y-171912254D01*
X216818981Y-170000000D01*
X217181019Y-170000000D01*
X219092449Y-171911429D01*
X219200207Y-171794442D01*
X219399848Y-171517122D01*
X219564730Y-171217823D01*
X219692460Y-170900884D01*
X219781189Y-170570896D01*
X219829724Y-170231982D01*
X219834260Y-169832277D01*
X219793425Y-169492349D01*
X219712205Y-169160432D01*
X219591699Y-168840677D01*
X219433650Y-168537715D01*
X219240350Y-168255935D01*
X219092772Y-168088248D01*
X217181019Y-170000000D01*
X216818981Y-170000000D01*
X214907531Y-168088551D01*
X214781125Y-168228695D01*
X214584396Y-168508092D01*
X214422658Y-168809101D01*
X214298254Y-169127360D01*
X214212986Y-169458259D01*
X214168088Y-169797006D01*
X214164212Y-170138693D01*
X214126000Y-170138693D01*
X214126000Y-167907005D01*
X215088025Y-167907005D01*
X217000000Y-169818981D01*
X218911541Y-167907439D01*
X218759663Y-167771881D01*
X218479240Y-167576617D01*
X218177388Y-167416458D01*
X217858482Y-167293722D01*
X217527140Y-167210188D01*
X217188164Y-167167065D01*
X216846461Y-167164977D01*
X216506982Y-167203956D01*
X216174645Y-167283437D01*
X215854263Y-167402267D01*
X215550478Y-167558727D01*
X215267689Y-167750549D01*
X215088025Y-167907005D01*
X214126000Y-167907005D01*
X214126000Y-165052190D01*
X217126000Y-162052191D01*
X217126000Y-140961774D01*
X215126000Y-138934830D01*
X215126000Y-134128000D01*
X215858163Y-134128000D01*
X215858163Y-136556588D01*
X215938795Y-136857512D01*
X216086185Y-137033165D01*
X216279814Y-137144956D01*
X216488976Y-137181837D01*
X217122000Y-137181837D01*
X217122000Y-134128000D01*
X217378000Y-134128000D01*
X217378000Y-137181837D01*
X218016588Y-137181837D01*
X218317512Y-137101205D01*
X218493165Y-136953815D01*
X218604956Y-136760186D01*
X218641837Y-136551024D01*
X218641837Y-134128000D01*
X217378000Y-134128000D01*
X217122000Y-134128000D01*
X215858163Y-134128000D01*
X215126000Y-134128000D01*
X215126000Y-131626000D01*
X215858163Y-131626000D01*
X215858163Y-133872000D01*
G37*
X215858163Y-133872000D02*
X218641837Y-133872000D01*
X218641837Y-131626000D01*
X220374001Y-131626000D01*
X220374000Y-231374000D01*
X148548012Y-231374000D01*
X148708659Y-231267468D01*
X148912586Y-231093606D01*
X147000000Y-229181019D01*
X145088589Y-231092431D01*
X145217102Y-231209571D01*
X145448049Y-231374000D01*
X144626000Y-231374000D01*
X144626000Y-230548289D01*
X144741509Y-230720509D01*
X144906726Y-230912254D01*
X146818981Y-229000000D01*
X147181019Y-229000000D01*
X149092449Y-230911429D01*
X149200207Y-230794442D01*
X149399848Y-230517122D01*
X149564730Y-230217823D01*
X149692460Y-229900884D01*
X149781189Y-229570896D01*
X149829724Y-229231982D01*
X149834260Y-228832277D01*
X149793425Y-228492349D01*
X149712205Y-228160432D01*
X149591699Y-227840677D01*
X149433650Y-227537715D01*
X149240350Y-227255935D01*
X149092772Y-227088248D01*
X147181019Y-229000000D01*
X146818981Y-229000000D01*
X144907531Y-227088551D01*
X144781125Y-227228695D01*
X144626000Y-227449005D01*
X144626000Y-226907005D01*
X145088025Y-226907005D01*
X147000000Y-228818981D01*
X148911541Y-226907439D01*
X148759663Y-226771881D01*
X148479240Y-226576617D01*
X148177388Y-226416458D01*
X147858482Y-226293722D01*
X147527140Y-226210188D01*
X147188164Y-226167065D01*
X146846461Y-226164977D01*
X146506982Y-226203956D01*
X146174645Y-226283437D01*
X145854263Y-226402267D01*
X145550478Y-226558727D01*
X145267689Y-226750549D01*
X145088025Y-226907005D01*
X144626000Y-226907005D01*
X144626000Y-190008327D01*
X144626575Y-189914171D01*
X144613666Y-189869000D01*
X144607006Y-189822498D01*
X144589152Y-189783229D01*
X144577301Y-189741761D01*
X144552234Y-189702033D01*
X144532789Y-189659267D01*
X144504635Y-189626594D01*
X144481618Y-189590113D01*
X144446406Y-189559014D01*
X144415741Y-189523426D01*
X144379547Y-189499966D01*
X144347217Y-189471413D01*
X144304690Y-189451446D01*
X144265271Y-189425897D01*
X144223950Y-189413540D01*
X144184547Y-189395040D01*
X144139659Y-189388332D01*
X144093478Y-189374521D01*
X144045281Y-189374226D01*
X144043770Y-189374000D01*
X144008326Y-189374000D01*
X143914170Y-189373425D01*
X143912158Y-189374000D01*
X136641837Y-189374000D01*
X136641837Y-187128000D01*
X133858163Y-187128000D01*
X133858163Y-189374000D01*
X133126000Y-189374000D01*
X133126000Y-184448976D01*
X133858163Y-184448976D01*
X133858163Y-186872000D01*
X135122000Y-186872000D01*
X135122000Y-183818163D01*
X135378000Y-183818163D01*
X135378000Y-186872000D01*
X136641837Y-186872000D01*
X136641837Y-184443412D01*
X136561205Y-184142489D01*
X136413815Y-183966835D01*
X136220186Y-183855044D01*
X136011024Y-183818163D01*
X135378000Y-183818163D01*
X135122000Y-183818163D01*
X134483412Y-183818163D01*
X134182489Y-183898795D01*
X134006835Y-184046185D01*
X133895044Y-184239814D01*
X133858163Y-184448976D01*
X133126000Y-184448976D01*
X133126000Y-183126000D01*
X150874000Y-183126000D01*
X150874000Y-223052191D01*
X156947809Y-229126000D01*
X199049665Y-229126000D01*
X199716367Y-228503745D01*
X199887622Y-228675000D01*
X200099181Y-228823136D01*
X200333250Y-228932284D01*
X200582717Y-228999128D01*
X200775566Y-229016000D01*
X200904434Y-229016000D01*
X201097283Y-228999128D01*
X201346750Y-228932284D01*
X201580819Y-228823136D01*
X201792378Y-228675000D01*
X201975000Y-228492378D01*
X202110000Y-228299579D01*
X202245000Y-228492378D01*
X202427622Y-228675000D01*
X202639181Y-228823136D01*
X202873250Y-228932284D01*
X203122717Y-228999128D01*
X203315566Y-229016000D01*
X203444434Y-229016000D01*
X203637283Y-228999128D01*
X203886750Y-228932284D01*
X204120819Y-228823136D01*
X204332378Y-228675000D01*
X204515000Y-228492378D01*
X204650000Y-228299579D01*
X204785000Y-228492378D01*
X204967622Y-228675000D01*
X205179181Y-228823136D01*
X205413250Y-228932284D01*
X205662717Y-228999128D01*
X205855566Y-229016000D01*
X205984434Y-229016000D01*
X206177283Y-228999128D01*
X206426750Y-228932284D01*
X206660819Y-228823136D01*
X206872378Y-228675000D01*
X207055000Y-228492378D01*
X207190000Y-228299579D01*
X207325000Y-228492378D01*
X207507622Y-228675000D01*
X207719181Y-228823136D01*
X207953250Y-228932284D01*
X208202717Y-228999128D01*
X208395566Y-229016000D01*
X208524434Y-229016000D01*
X208717283Y-228999128D01*
X208966750Y-228932284D01*
X209200819Y-228823136D01*
X209412378Y-228675000D01*
X209595000Y-228492378D01*
X209727342Y-228303375D01*
X209796610Y-228417526D01*
X209961669Y-228607739D01*
X210156416Y-228767422D01*
X210375284Y-228892009D01*
X210614831Y-228978960D01*
X210872000Y-229013047D01*
X210872000Y-226066953D01*
X211128000Y-226066953D01*
X211128000Y-229039978D01*
X211494708Y-228944800D01*
X211724329Y-228841363D01*
X211933240Y-228700716D01*
X212087535Y-228553526D01*
X212128795Y-228707512D01*
X212276185Y-228883165D01*
X212469814Y-228994956D01*
X212678976Y-229031837D01*
X213412000Y-229031837D01*
X213412000Y-227668000D01*
X213668000Y-227668000D01*
X213668000Y-229031837D01*
X214406588Y-229031837D01*
X214707512Y-228951205D01*
X214883165Y-228803815D01*
X214994956Y-228610186D01*
X215031837Y-228401024D01*
X215031837Y-227668000D01*
X213668000Y-227668000D01*
X213412000Y-227668000D01*
X213412000Y-226048163D01*
X213668000Y-226048163D01*
X213668000Y-227412000D01*
X215031837Y-227412000D01*
X215031837Y-226673412D01*
X214951205Y-226372489D01*
X214803815Y-226196835D01*
X214610186Y-226085044D01*
X214401024Y-226048163D01*
X213668000Y-226048163D01*
X213412000Y-226048163D01*
X212673412Y-226048163D01*
X212372489Y-226128795D01*
X212196835Y-226276185D01*
X212085044Y-226469814D01*
X212076796Y-226516588D01*
X212038331Y-226472261D01*
X211843584Y-226312578D01*
X211624716Y-226187991D01*
X211385169Y-226101040D01*
X211128000Y-226066953D01*
X210872000Y-226066953D01*
X210872000Y-226040022D01*
X210505292Y-226135200D01*
X210275671Y-226238637D01*
X210066760Y-226379284D01*
X209884534Y-226553119D01*
X209734203Y-226755172D01*
X209724998Y-226773277D01*
X209595000Y-226587622D01*
X209412378Y-226405000D01*
X209200819Y-226256864D01*
X208966750Y-226147716D01*
X208717283Y-226080872D01*
X208524434Y-226064000D01*
X208395566Y-226064000D01*
X208202717Y-226080872D01*
X208165315Y-226090894D01*
X207568800Y-225494379D01*
X207568800Y-224441947D01*
X207649597Y-224511958D01*
X207870558Y-224612867D01*
X208101987Y-224646142D01*
X208557547Y-224646142D01*
X208894648Y-224572810D01*
X209102883Y-224438986D01*
X209174531Y-224356300D01*
X209451121Y-224356300D01*
X209584597Y-224471958D01*
X209805558Y-224572867D01*
X210036987Y-224606142D01*
X210492547Y-224606142D01*
X210829648Y-224532810D01*
X211037883Y-224398986D01*
X211048725Y-224386473D01*
X211155227Y-224478757D01*
X211378281Y-224580622D01*
X211709500Y-224628245D01*
X211709500Y-223628000D01*
X211965500Y-223628000D01*
X211965500Y-224636424D01*
X212408005Y-224540162D01*
X212618176Y-224405094D01*
X212778757Y-224219773D01*
X212880622Y-223996719D01*
X212914224Y-223763013D01*
X212914224Y-223628000D01*
X211965500Y-223628000D01*
X211709500Y-223628000D01*
X211709500Y-223372000D01*
X211965500Y-223372000D01*
X212914224Y-223372000D01*
X212914224Y-223232453D01*
X212840162Y-222891996D01*
X212705094Y-222681824D01*
X212519773Y-222521243D01*
X212296719Y-222419378D01*
X211965500Y-222371755D01*
X211965500Y-223372000D01*
X211709500Y-223372000D01*
X211709500Y-222363576D01*
X211266995Y-222459838D01*
X211056824Y-222594906D01*
X211039990Y-222614334D01*
X210940403Y-222528042D01*
X210719442Y-222427133D01*
X210488013Y-222393858D01*
X210032453Y-222393858D01*
X209695352Y-222467190D01*
X209487117Y-222601014D01*
X209380809Y-222723700D01*
X209185043Y-222723700D01*
X209005403Y-222568042D01*
X208784442Y-222467133D01*
X208553013Y-222433858D01*
X208097453Y-222433858D01*
X207760352Y-222507190D01*
X207552117Y-222641014D01*
X207536036Y-222659573D01*
X207430403Y-222568042D01*
X207209442Y-222467133D01*
X206978013Y-222433858D01*
X206522453Y-222433858D01*
X206185352Y-222507190D01*
X206043733Y-222598202D01*
X208728488Y-220092431D01*
X215088589Y-220092431D01*
X215217102Y-220209571D01*
X215495465Y-220407759D01*
X215795623Y-220571071D01*
X216113225Y-220697140D01*
X216443674Y-220784140D01*
X216782181Y-220830810D01*
X217123843Y-220836476D01*
X217463711Y-220801054D01*
X217796862Y-220725058D01*
X218118471Y-220609588D01*
X218423878Y-220456319D01*
X218708659Y-220267468D01*
X218912586Y-220093606D01*
X217000000Y-218181019D01*
X215088589Y-220092431D01*
X208728488Y-220092431D01*
X210821779Y-218138693D01*
X214164212Y-218138693D01*
X214201413Y-218478371D01*
X214279152Y-218811120D01*
X214396304Y-219132119D01*
X214551170Y-219436720D01*
X214741509Y-219720509D01*
X214906726Y-219912254D01*
X216818981Y-218000000D01*
X217181019Y-218000000D01*
X219092449Y-219911429D01*
X219200207Y-219794442D01*
X219399848Y-219517122D01*
X219564730Y-219217823D01*
X219692460Y-218900884D01*
X219781189Y-218570896D01*
X219829724Y-218231982D01*
X219834260Y-217832277D01*
X219793425Y-217492349D01*
X219712205Y-217160432D01*
X219591699Y-216840677D01*
X219433650Y-216537715D01*
X219240350Y-216255935D01*
X219092772Y-216088248D01*
X217181019Y-218000000D01*
X216818981Y-218000000D01*
X214907531Y-216088551D01*
X214781125Y-216228695D01*
X214584396Y-216508092D01*
X214422658Y-216809101D01*
X214298254Y-217127360D01*
X214212986Y-217458259D01*
X214168088Y-217797006D01*
X214164212Y-218138693D01*
X210821779Y-218138693D01*
X213212873Y-215907005D01*
X215088025Y-215907005D01*
X217000000Y-217818981D01*
X218911541Y-215907439D01*
X218759663Y-215771881D01*
X218479240Y-215576617D01*
X218177388Y-215416458D01*
X217858482Y-215293722D01*
X217527140Y-215210188D01*
X217188164Y-215167065D01*
X216846461Y-215164977D01*
X216506982Y-215203956D01*
X216174645Y-215283437D01*
X215854263Y-215402267D01*
X215550478Y-215558727D01*
X215267689Y-215750549D01*
X215088025Y-215907005D01*
X213212873Y-215907005D01*
X214126000Y-215054754D01*
X214126000Y-172092431D01*
X215088589Y-172092431D01*
X215217102Y-172209571D01*
X215495465Y-172407759D01*
X215795623Y-172571071D01*
X216113225Y-172697140D01*
X216443674Y-172784140D01*
X216782181Y-172830810D01*
X217123843Y-172836476D01*
X217463711Y-172801054D01*
X217796862Y-172725058D01*
X218118471Y-172609588D01*
X218423878Y-172456319D01*
X218708659Y-172267468D01*
X218912586Y-172093606D01*
X217000000Y-170181019D01*
X215088589Y-172092431D01*
X214126000Y-172092431D01*
X214126000Y-170138693D01*
X214164212Y-170138693D01*
X214201413Y-170478371D01*
X214279152Y-170811120D01*
X214396304Y-171132119D01*
X214551170Y-171436720D01*
X214741509Y-171720509D01*
X214906726Y-171912254D01*
X216818981Y-170000000D01*
X217181019Y-170000000D01*
X219092449Y-171911429D01*
X219200207Y-171794442D01*
X219399848Y-171517122D01*
X219564730Y-171217823D01*
X219692460Y-170900884D01*
X219781189Y-170570896D01*
X219829724Y-170231982D01*
X219834260Y-169832277D01*
X219793425Y-169492349D01*
X219712205Y-169160432D01*
X219591699Y-168840677D01*
X219433650Y-168537715D01*
X219240350Y-168255935D01*
X219092772Y-168088248D01*
X217181019Y-170000000D01*
X216818981Y-170000000D01*
X214907531Y-168088551D01*
X214781125Y-168228695D01*
X214584396Y-168508092D01*
X214422658Y-168809101D01*
X214298254Y-169127360D01*
X214212986Y-169458259D01*
X214168088Y-169797006D01*
X214164212Y-170138693D01*
X214126000Y-170138693D01*
X214126000Y-167907005D01*
X215088025Y-167907005D01*
X217000000Y-169818981D01*
X218911541Y-167907439D01*
X218759663Y-167771881D01*
X218479240Y-167576617D01*
X218177388Y-167416458D01*
X217858482Y-167293722D01*
X217527140Y-167210188D01*
X217188164Y-167167065D01*
X216846461Y-167164977D01*
X216506982Y-167203956D01*
X216174645Y-167283437D01*
X215854263Y-167402267D01*
X215550478Y-167558727D01*
X215267689Y-167750549D01*
X215088025Y-167907005D01*
X214126000Y-167907005D01*
X214126000Y-165052190D01*
X217126000Y-162052191D01*
X217126000Y-140961774D01*
X215126000Y-138934830D01*
X215126000Y-134128000D01*
X215858163Y-134128000D01*
X215858163Y-136556588D01*
X215938795Y-136857512D01*
X216086185Y-137033165D01*
X216279814Y-137144956D01*
X216488976Y-137181837D01*
X217122000Y-137181837D01*
X217122000Y-134128000D01*
X217378000Y-134128000D01*
X217378000Y-137181837D01*
X218016588Y-137181837D01*
X218317512Y-137101205D01*
X218493165Y-136953815D01*
X218604956Y-136760186D01*
X218641837Y-136551024D01*
X218641837Y-134128000D01*
X217378000Y-134128000D01*
X217122000Y-134128000D01*
X215858163Y-134128000D01*
X215126000Y-134128000D01*
X215126000Y-131626000D01*
X215858163Y-131626000D01*
X215858163Y-133872000D01*
G36*
X175374000Y-104626000D02*
G01*
X176874000Y-104626000D01*
X176874000Y-105374000D01*
X175374000Y-105374000D01*
X175374000Y-106327873D01*
X175256835Y-106426185D01*
X175145044Y-106619814D01*
X175108163Y-106828976D01*
X175108163Y-107366588D01*
X175188795Y-107667512D01*
X175238909Y-107727235D01*
X175145044Y-107889814D01*
X175108163Y-108098976D01*
X175108163Y-108636588D01*
X175188795Y-108937512D01*
X175238909Y-108997235D01*
X175145044Y-109159814D01*
X175108163Y-109368976D01*
X175108163Y-109906588D01*
X175188795Y-110207512D01*
X175238909Y-110267235D01*
X175145044Y-110429814D01*
X175108163Y-110638976D01*
X175108163Y-111176588D01*
X175188795Y-111477512D01*
X175336185Y-111653165D01*
X175374000Y-111674997D01*
X175374000Y-138626000D01*
X177374000Y-138626000D01*
X177374000Y-139874000D01*
X175374000Y-139874000D01*
X175374000Y-140827873D01*
X175256835Y-140926185D01*
X175145044Y-141119814D01*
X175108163Y-141328976D01*
X175108163Y-141866588D01*
X175188795Y-142167512D01*
X175238909Y-142227235D01*
X175145044Y-142389814D01*
X175108163Y-142598976D01*
X175108163Y-143136588D01*
X175188795Y-143437512D01*
X175238909Y-143497235D01*
X175145044Y-143659814D01*
X175108163Y-143868976D01*
X175108163Y-144406588D01*
X175188795Y-144707512D01*
X175238909Y-144767235D01*
X175145044Y-144929814D01*
X175108163Y-145138976D01*
X175108163Y-145676588D01*
X175188795Y-145977512D01*
X175336185Y-146153165D01*
X175374000Y-146174997D01*
X175374000Y-173626000D01*
X176874000Y-173626000D01*
X176874000Y-174374000D01*
X175374000Y-174374000D01*
X175374000Y-175327873D01*
X175256835Y-175426185D01*
X175145044Y-175619814D01*
X175108163Y-175828976D01*
X175108163Y-176366588D01*
X175188795Y-176667512D01*
X175238909Y-176727235D01*
X175145044Y-176889814D01*
X175108163Y-177098976D01*
X175108163Y-177636588D01*
X175188795Y-177937512D01*
X175238909Y-177997235D01*
X175145044Y-178159814D01*
X175108163Y-178368976D01*
X175108163Y-178906588D01*
X175188795Y-179207512D01*
X175238909Y-179267235D01*
X175145044Y-179429814D01*
X175108163Y-179638976D01*
X175108163Y-180176588D01*
X175188795Y-180477512D01*
X175336185Y-180653165D01*
X175374000Y-180674997D01*
X175374000Y-207626000D01*
X177374000Y-207626000D01*
X177374000Y-208874000D01*
X175374000Y-208874000D01*
X175374000Y-209827873D01*
X175256835Y-209926185D01*
X175145044Y-210119814D01*
X175108163Y-210328976D01*
X175108163Y-210866588D01*
X175188795Y-211167512D01*
X175238909Y-211227235D01*
X175145044Y-211389814D01*
X175108163Y-211598976D01*
X175108163Y-212136588D01*
X175188795Y-212437512D01*
X175238909Y-212497235D01*
X175145044Y-212659814D01*
X175108163Y-212868976D01*
X175108163Y-213406588D01*
X175188795Y-213707512D01*
X175238909Y-213767235D01*
X175145044Y-213929814D01*
X175108163Y-214138976D01*
X175108163Y-214676588D01*
X175188795Y-214977512D01*
X175336185Y-215153165D01*
X175374000Y-215174997D01*
X175374000Y-220374000D01*
X171626000Y-220374000D01*
X171626000Y-215172128D01*
X171743165Y-215073815D01*
X171854956Y-214880186D01*
X171891837Y-214671024D01*
X171891837Y-214133412D01*
X171811205Y-213832489D01*
X171761091Y-213772765D01*
X171854956Y-213610186D01*
X171891837Y-213401024D01*
X171891837Y-212863412D01*
X171811205Y-212562489D01*
X171761091Y-212502765D01*
X171854956Y-212340186D01*
X171891837Y-212131024D01*
X171891837Y-211593412D01*
X171811205Y-211292489D01*
X171761091Y-211232765D01*
X171854956Y-211070186D01*
X171891837Y-210861024D01*
X171891837Y-210323412D01*
X171811205Y-210022489D01*
X171663815Y-209846836D01*
X171626000Y-209825003D01*
X171626000Y-180672128D01*
X171743165Y-180573815D01*
X171854956Y-180380186D01*
X171891837Y-180171024D01*
X171891837Y-179633412D01*
X171811205Y-179332489D01*
X171761091Y-179272765D01*
X171854956Y-179110186D01*
X171891837Y-178901024D01*
X171891837Y-178363412D01*
X171811205Y-178062489D01*
X171761091Y-178002765D01*
X171854956Y-177840186D01*
X171891837Y-177631024D01*
X171891837Y-177093412D01*
X171811205Y-176792489D01*
X171761091Y-176732765D01*
X171854956Y-176570186D01*
X171891837Y-176361024D01*
X171891837Y-175823412D01*
X171811205Y-175522489D01*
X171663815Y-175346836D01*
X171626000Y-175325003D01*
X171626000Y-146172128D01*
X171743165Y-146073815D01*
X171854956Y-145880186D01*
X171891837Y-145671024D01*
X171891837Y-145133412D01*
X171811205Y-144832489D01*
X171761091Y-144772765D01*
X171854956Y-144610186D01*
X171891837Y-144401024D01*
X171891837Y-143863412D01*
X171811205Y-143562489D01*
X171761091Y-143502765D01*
X171854956Y-143340186D01*
X171891837Y-143131024D01*
X171891837Y-142593412D01*
X171811205Y-142292489D01*
X171761091Y-142232765D01*
X171854956Y-142070186D01*
X171891837Y-141861024D01*
X171891837Y-141323412D01*
X171811205Y-141022489D01*
X171663815Y-140846836D01*
X171626000Y-140825003D01*
X171626000Y-111672128D01*
X171743165Y-111573815D01*
X171854956Y-111380186D01*
X171891837Y-111171024D01*
X171891837Y-110633412D01*
X171811205Y-110332489D01*
X171761091Y-110272765D01*
X171854956Y-110110186D01*
X171891837Y-109901024D01*
X171891837Y-109363412D01*
X171811205Y-109062489D01*
X171761091Y-109002765D01*
X171854956Y-108840186D01*
X171891837Y-108631024D01*
X171891837Y-108093412D01*
X171811205Y-107792489D01*
X171761091Y-107732765D01*
X171854956Y-107570186D01*
X171891837Y-107361024D01*
X171891837Y-106823412D01*
X171811205Y-106522489D01*
X171663815Y-106346836D01*
X171626000Y-106325003D01*
X171626000Y-101126000D01*
X175374000Y-101126000D01*
X175374000Y-104626000D01*
G37*
X175374000Y-104626000D02*
X176874000Y-104626000D01*
X176874000Y-105374000D01*
X175374000Y-105374000D01*
X175374000Y-106327873D01*
X175256835Y-106426185D01*
X175145044Y-106619814D01*
X175108163Y-106828976D01*
X175108163Y-107366588D01*
X175188795Y-107667512D01*
X175238909Y-107727235D01*
X175145044Y-107889814D01*
X175108163Y-108098976D01*
X175108163Y-108636588D01*
X175188795Y-108937512D01*
X175238909Y-108997235D01*
X175145044Y-109159814D01*
X175108163Y-109368976D01*
X175108163Y-109906588D01*
X175188795Y-110207512D01*
X175238909Y-110267235D01*
X175145044Y-110429814D01*
X175108163Y-110638976D01*
X175108163Y-111176588D01*
X175188795Y-111477512D01*
X175336185Y-111653165D01*
X175374000Y-111674997D01*
X175374000Y-138626000D01*
X177374000Y-138626000D01*
X177374000Y-139874000D01*
X175374000Y-139874000D01*
X175374000Y-140827873D01*
X175256835Y-140926185D01*
X175145044Y-141119814D01*
X175108163Y-141328976D01*
X175108163Y-141866588D01*
X175188795Y-142167512D01*
X175238909Y-142227235D01*
X175145044Y-142389814D01*
X175108163Y-142598976D01*
X175108163Y-143136588D01*
X175188795Y-143437512D01*
X175238909Y-143497235D01*
X175145044Y-143659814D01*
X175108163Y-143868976D01*
X175108163Y-144406588D01*
X175188795Y-144707512D01*
X175238909Y-144767235D01*
X175145044Y-144929814D01*
X175108163Y-145138976D01*
X175108163Y-145676588D01*
X175188795Y-145977512D01*
X175336185Y-146153165D01*
X175374000Y-146174997D01*
X175374000Y-173626000D01*
X176874000Y-173626000D01*
X176874000Y-174374000D01*
X175374000Y-174374000D01*
X175374000Y-175327873D01*
X175256835Y-175426185D01*
X175145044Y-175619814D01*
X175108163Y-175828976D01*
X175108163Y-176366588D01*
X175188795Y-176667512D01*
X175238909Y-176727235D01*
X175145044Y-176889814D01*
X175108163Y-177098976D01*
X175108163Y-177636588D01*
X175188795Y-177937512D01*
X175238909Y-177997235D01*
X175145044Y-178159814D01*
X175108163Y-178368976D01*
X175108163Y-178906588D01*
X175188795Y-179207512D01*
X175238909Y-179267235D01*
X175145044Y-179429814D01*
X175108163Y-179638976D01*
X175108163Y-180176588D01*
X175188795Y-180477512D01*
X175336185Y-180653165D01*
X175374000Y-180674997D01*
X175374000Y-207626000D01*
X177374000Y-207626000D01*
X177374000Y-208874000D01*
X175374000Y-208874000D01*
X175374000Y-209827873D01*
X175256835Y-209926185D01*
X175145044Y-210119814D01*
X175108163Y-210328976D01*
X175108163Y-210866588D01*
X175188795Y-211167512D01*
X175238909Y-211227235D01*
X175145044Y-211389814D01*
X175108163Y-211598976D01*
X175108163Y-212136588D01*
X175188795Y-212437512D01*
X175238909Y-212497235D01*
X175145044Y-212659814D01*
X175108163Y-212868976D01*
X175108163Y-213406588D01*
X175188795Y-213707512D01*
X175238909Y-213767235D01*
X175145044Y-213929814D01*
X175108163Y-214138976D01*
X175108163Y-214676588D01*
X175188795Y-214977512D01*
X175336185Y-215153165D01*
X175374000Y-215174997D01*
X175374000Y-220374000D01*
X171626000Y-220374000D01*
X171626000Y-215172128D01*
X171743165Y-215073815D01*
X171854956Y-214880186D01*
X171891837Y-214671024D01*
X171891837Y-214133412D01*
X171811205Y-213832489D01*
X171761091Y-213772765D01*
X171854956Y-213610186D01*
X171891837Y-213401024D01*
X171891837Y-212863412D01*
X171811205Y-212562489D01*
X171761091Y-212502765D01*
X171854956Y-212340186D01*
X171891837Y-212131024D01*
X171891837Y-211593412D01*
X171811205Y-211292489D01*
X171761091Y-211232765D01*
X171854956Y-211070186D01*
X171891837Y-210861024D01*
X171891837Y-210323412D01*
X171811205Y-210022489D01*
X171663815Y-209846836D01*
X171626000Y-209825003D01*
X171626000Y-180672128D01*
X171743165Y-180573815D01*
X171854956Y-180380186D01*
X171891837Y-180171024D01*
X171891837Y-179633412D01*
X171811205Y-179332489D01*
X171761091Y-179272765D01*
X171854956Y-179110186D01*
X171891837Y-178901024D01*
X171891837Y-178363412D01*
X171811205Y-178062489D01*
X171761091Y-178002765D01*
X171854956Y-177840186D01*
X171891837Y-177631024D01*
X171891837Y-177093412D01*
X171811205Y-176792489D01*
X171761091Y-176732765D01*
X171854956Y-176570186D01*
X171891837Y-176361024D01*
X171891837Y-175823412D01*
X171811205Y-175522489D01*
X171663815Y-175346836D01*
X171626000Y-175325003D01*
X171626000Y-146172128D01*
X171743165Y-146073815D01*
X171854956Y-145880186D01*
X171891837Y-145671024D01*
X171891837Y-145133412D01*
X171811205Y-144832489D01*
X171761091Y-144772765D01*
X171854956Y-144610186D01*
X171891837Y-144401024D01*
X171891837Y-143863412D01*
X171811205Y-143562489D01*
X171761091Y-143502765D01*
X171854956Y-143340186D01*
X171891837Y-143131024D01*
X171891837Y-142593412D01*
X171811205Y-142292489D01*
X171761091Y-142232765D01*
X171854956Y-142070186D01*
X171891837Y-141861024D01*
X171891837Y-141323412D01*
X171811205Y-141022489D01*
X171663815Y-140846836D01*
X171626000Y-140825003D01*
X171626000Y-111672128D01*
X171743165Y-111573815D01*
X171854956Y-111380186D01*
X171891837Y-111171024D01*
X171891837Y-110633412D01*
X171811205Y-110332489D01*
X171761091Y-110272765D01*
X171854956Y-110110186D01*
X171891837Y-109901024D01*
X171891837Y-109363412D01*
X171811205Y-109062489D01*
X171761091Y-109002765D01*
X171854956Y-108840186D01*
X171891837Y-108631024D01*
X171891837Y-108093412D01*
X171811205Y-107792489D01*
X171761091Y-107732765D01*
X171854956Y-107570186D01*
X171891837Y-107361024D01*
X171891837Y-106823412D01*
X171811205Y-106522489D01*
X171663815Y-106346836D01*
X171626000Y-106325003D01*
X171626000Y-101126000D01*
X175374000Y-101126000D01*
X175374000Y-104626000D01*
G36*
X155874000Y-210385776D02*
G01*
X155753000Y-210385776D01*
X155753000Y-212614224D01*
X155874000Y-212614224D01*
X155874000Y-213374000D01*
X153126000Y-213374000D01*
X153126000Y-211628000D01*
X154434541Y-211628000D01*
X154536550Y-212096930D01*
X154674533Y-212311638D01*
X154863929Y-212475750D01*
X155091888Y-212579854D01*
X155330930Y-212614224D01*
X155497000Y-212614224D01*
X155497000Y-211628000D01*
X154434541Y-211628000D01*
X153126000Y-211628000D01*
X153126000Y-211372000D01*
X154444087Y-211372000D01*
X155497000Y-211372000D01*
X155497000Y-210385776D01*
X155326396Y-210385776D01*
X154978069Y-210461550D01*
X154763362Y-210599533D01*
X154599250Y-210788929D01*
X154495146Y-211016888D01*
X154444087Y-211372000D01*
X153126000Y-211372000D01*
X153126000Y-209626000D01*
X155874000Y-209626000D01*
X155874000Y-210385776D01*
G37*
X155874000Y-210385776D02*
X155753000Y-210385776D01*
X155753000Y-212614224D01*
X155874000Y-212614224D01*
X155874000Y-213374000D01*
X153126000Y-213374000D01*
X153126000Y-211628000D01*
X154434541Y-211628000D01*
X154536550Y-212096930D01*
X154674533Y-212311638D01*
X154863929Y-212475750D01*
X155091888Y-212579854D01*
X155330930Y-212614224D01*
X155497000Y-212614224D01*
X155497000Y-211628000D01*
X154434541Y-211628000D01*
X153126000Y-211628000D01*
X153126000Y-211372000D01*
X154444087Y-211372000D01*
X155497000Y-211372000D01*
X155497000Y-210385776D01*
X155326396Y-210385776D01*
X154978069Y-210461550D01*
X154763362Y-210599533D01*
X154599250Y-210788929D01*
X154495146Y-211016888D01*
X154444087Y-211372000D01*
X153126000Y-211372000D01*
X153126000Y-209626000D01*
X155874000Y-209626000D01*
X155874000Y-210385776D01*
G36*
X212874000Y-196874000D02*
G01*
X210126000Y-196874000D01*
X210126000Y-196014224D01*
X210372000Y-196014224D01*
X210372000Y-194628000D01*
X210628000Y-194628000D01*
X210628000Y-196014224D01*
X210973475Y-196014224D01*
X211327049Y-195937309D01*
X211544779Y-195797382D01*
X211711245Y-195605270D01*
X211816843Y-195374041D01*
X211851724Y-195131441D01*
X211851724Y-194628000D01*
X210628000Y-194628000D01*
X210372000Y-194628000D01*
X210372000Y-192985776D01*
X210628000Y-192985776D01*
X210628000Y-194372000D01*
X211851724Y-194372000D01*
X211851724Y-193864025D01*
X211774809Y-193510451D01*
X211634882Y-193292721D01*
X211442770Y-193126255D01*
X211211541Y-193020657D01*
X210968941Y-192985776D01*
X210628000Y-192985776D01*
X210372000Y-192985776D01*
X210126000Y-192985776D01*
X210126000Y-192126000D01*
X212874000Y-192126000D01*
X212874000Y-196874000D01*
G37*
X212874000Y-196874000D02*
X210126000Y-196874000D01*
X210126000Y-196014224D01*
X210372000Y-196014224D01*
X210372000Y-194628000D01*
X210628000Y-194628000D01*
X210628000Y-196014224D01*
X210973475Y-196014224D01*
X211327049Y-195937309D01*
X211544779Y-195797382D01*
X211711245Y-195605270D01*
X211816843Y-195374041D01*
X211851724Y-195131441D01*
X211851724Y-194628000D01*
X210628000Y-194628000D01*
X210372000Y-194628000D01*
X210372000Y-192985776D01*
X210628000Y-192985776D01*
X210628000Y-194372000D01*
X211851724Y-194372000D01*
X211851724Y-193864025D01*
X211774809Y-193510451D01*
X211634882Y-193292721D01*
X211442770Y-193126255D01*
X211211541Y-193020657D01*
X210968941Y-192985776D01*
X210628000Y-192985776D01*
X210372000Y-192985776D01*
X210126000Y-192985776D01*
X210126000Y-192126000D01*
X212874000Y-192126000D01*
X212874000Y-196874000D01*
G36*
X197345649Y-89451472D02*
G01*
X197031393Y-89553581D01*
X196732414Y-89694270D01*
X196453425Y-89871321D01*
X196233926Y-90052907D01*
X198000000Y-91818981D01*
X199766074Y-90052907D01*
X199546575Y-89871321D01*
X199267586Y-89694270D01*
X198968607Y-89553581D01*
X198654351Y-89451472D01*
X198520822Y-89426000D01*
X200574001Y-89426000D01*
X200574001Y-91465738D01*
X200502411Y-91186917D01*
X200380773Y-90879694D01*
X200221588Y-90590137D01*
X199956182Y-90224837D01*
X198181019Y-92000000D01*
X199956182Y-93775163D01*
X200221588Y-93409863D01*
X200380773Y-93120306D01*
X200502411Y-92813083D01*
X200574001Y-92534262D01*
X200574000Y-130939429D01*
X200568706Y-130957711D01*
X200574000Y-131018835D01*
X200574000Y-131039533D01*
X200577351Y-131057526D01*
X200582399Y-131115810D01*
X200591781Y-131135004D01*
X200595693Y-131156009D01*
X200626391Y-131205810D01*
X200652088Y-131258380D01*
X200667752Y-131272911D01*
X200678963Y-131291099D01*
X200725531Y-131326509D01*
X200773150Y-131370682D01*
X200790061Y-131375579D01*
X200805282Y-131387153D01*
X200957711Y-131431294D01*
X201018835Y-131426000D01*
X207572418Y-131426000D01*
X207568123Y-131447590D01*
X207568123Y-133872000D01*
X209931877Y-133872000D01*
X209931877Y-131447590D01*
X209927582Y-131426000D01*
X210874000Y-131426000D01*
X210874000Y-139874000D01*
X199052190Y-139874000D01*
X197126000Y-137947810D01*
X197126000Y-134128000D01*
X207568123Y-134128000D01*
X207568123Y-136552410D01*
X207598718Y-136706217D01*
X207692871Y-136847129D01*
X207833783Y-136941282D01*
X207987590Y-136971877D01*
X208622000Y-136971877D01*
X208622000Y-134128000D01*
X208878000Y-134128000D01*
X208878000Y-136971877D01*
X209512410Y-136971877D01*
X209666217Y-136941282D01*
X209807129Y-136847129D01*
X209901282Y-136706217D01*
X209931877Y-136552410D01*
X209931877Y-134128000D01*
X208878000Y-134128000D01*
X208622000Y-134128000D01*
X207568123Y-134128000D01*
X197126000Y-134128000D01*
X197126000Y-94947809D01*
X196125284Y-93947093D01*
X196233926Y-93947093D01*
X196453425Y-94128679D01*
X196732414Y-94305730D01*
X197031393Y-94446419D01*
X197345649Y-94548528D01*
X197670225Y-94610444D01*
X198000000Y-94631191D01*
X198329775Y-94610444D01*
X198654351Y-94548528D01*
X198968607Y-94446419D01*
X199267586Y-94305730D01*
X199546575Y-94128679D01*
X199766074Y-93947093D01*
X198000000Y-92181019D01*
X196233926Y-93947093D01*
X196125284Y-93947093D01*
X194012977Y-91834786D01*
X195374001Y-91834786D01*
X195374001Y-92165214D01*
X195415414Y-92493036D01*
X195497589Y-92813083D01*
X195619227Y-93120306D01*
X195778412Y-93409863D01*
X196043818Y-93775163D01*
X197818981Y-92000000D01*
X196043818Y-90224837D01*
X195778412Y-90590137D01*
X195619227Y-90879694D01*
X195497589Y-91186917D01*
X195415414Y-91506964D01*
X195374001Y-91834786D01*
X194012977Y-91834786D01*
X193052191Y-90874000D01*
X134947809Y-90874000D01*
X129874000Y-95947809D01*
X129874000Y-145947810D01*
X125874000Y-149947809D01*
X125874000Y-183126000D01*
X128874000Y-183126000D01*
X128874000Y-189574000D01*
X127927582Y-189574000D01*
X127931877Y-189552410D01*
X127931877Y-187128000D01*
X125568123Y-187128000D01*
X125568123Y-189552410D01*
X125572418Y-189574000D01*
X122426000Y-189574000D01*
X122426000Y-184447590D01*
X125568123Y-184447590D01*
X125568123Y-186872000D01*
X126622000Y-186872000D01*
X126622000Y-184028123D01*
X126878000Y-184028123D01*
X126878000Y-186872000D01*
X127931877Y-186872000D01*
X127931877Y-184447590D01*
X127901282Y-184293783D01*
X127807129Y-184152871D01*
X127666217Y-184058718D01*
X127512410Y-184028123D01*
X126878000Y-184028123D01*
X126622000Y-184028123D01*
X125987590Y-184028123D01*
X125833783Y-184058718D01*
X125692871Y-184152871D01*
X125598718Y-184293783D01*
X125568123Y-184447590D01*
X122426000Y-184447590D01*
X122426000Y-144447093D01*
X124733926Y-144447093D01*
X124953425Y-144628679D01*
X125232414Y-144805730D01*
X125531393Y-144946419D01*
X125845649Y-145048528D01*
X126170225Y-145110444D01*
X126500000Y-145131191D01*
X126829775Y-145110444D01*
X127154351Y-145048528D01*
X127468607Y-144946419D01*
X127767586Y-144805730D01*
X128046575Y-144628679D01*
X128266074Y-144447093D01*
X126500000Y-142681019D01*
X124733926Y-144447093D01*
X122426000Y-144447093D01*
X122426000Y-142334786D01*
X123874001Y-142334786D01*
X123874001Y-142665214D01*
X123915414Y-142993036D01*
X123997589Y-143313083D01*
X124119227Y-143620306D01*
X124278412Y-143909863D01*
X124543818Y-144275163D01*
X126318981Y-142500000D01*
X126681019Y-142500000D01*
X128456182Y-144275163D01*
X128721588Y-143909863D01*
X128880773Y-143620306D01*
X129002411Y-143313083D01*
X129084586Y-142993036D01*
X129125999Y-142665214D01*
X129125999Y-142334786D01*
X129084586Y-142006964D01*
X129002411Y-141686917D01*
X128880773Y-141379694D01*
X128721588Y-141090137D01*
X128456182Y-140724837D01*
X126681019Y-142500000D01*
X126318981Y-142500000D01*
X124543818Y-140724837D01*
X124278412Y-141090137D01*
X124119227Y-141379694D01*
X123997589Y-141686917D01*
X123915414Y-142006964D01*
X123874001Y-142334786D01*
X122426000Y-142334786D01*
X122426000Y-140552907D01*
X124733926Y-140552907D01*
X126500000Y-142318981D01*
X128266074Y-140552907D01*
X128046575Y-140371321D01*
X127767586Y-140194270D01*
X127468607Y-140053581D01*
X127154351Y-139951472D01*
X126829775Y-139889556D01*
X126500000Y-139868809D01*
X126170225Y-139889556D01*
X125845649Y-139951472D01*
X125531393Y-140053581D01*
X125232414Y-140194270D01*
X124953425Y-140371321D01*
X124733926Y-140552907D01*
X122426000Y-140552907D01*
X122426000Y-94947093D01*
X124233926Y-94947093D01*
X124453425Y-95128679D01*
X124732414Y-95305730D01*
X125031393Y-95446419D01*
X125345649Y-95548528D01*
X125670225Y-95610444D01*
X126000000Y-95631191D01*
X126329775Y-95610444D01*
X126654351Y-95548528D01*
X126968607Y-95446419D01*
X127267586Y-95305730D01*
X127546575Y-95128679D01*
X127766074Y-94947093D01*
X126000000Y-93181019D01*
X124233926Y-94947093D01*
X122426000Y-94947093D01*
X122426000Y-92834786D01*
X123374001Y-92834786D01*
X123374001Y-93165214D01*
X123415414Y-93493036D01*
X123497589Y-93813083D01*
X123619227Y-94120306D01*
X123778412Y-94409863D01*
X124043818Y-94775163D01*
X125818981Y-93000000D01*
X126181019Y-93000000D01*
X127956182Y-94775163D01*
X128221588Y-94409863D01*
X128380773Y-94120306D01*
X128502411Y-93813083D01*
X128584586Y-93493036D01*
X128625999Y-93165214D01*
X128625999Y-92834786D01*
X128584586Y-92506964D01*
X128502411Y-92186917D01*
X128380773Y-91879694D01*
X128221588Y-91590137D01*
X127956182Y-91224837D01*
X126181019Y-93000000D01*
X125818981Y-93000000D01*
X124043818Y-91224837D01*
X123778412Y-91590137D01*
X123619227Y-91879694D01*
X123497589Y-92186917D01*
X123415414Y-92506964D01*
X123374001Y-92834786D01*
X122426000Y-92834786D01*
X122426000Y-91052907D01*
X124233926Y-91052907D01*
X126000000Y-92818981D01*
X127766074Y-91052907D01*
X127546575Y-90871321D01*
X127267586Y-90694270D01*
X126968607Y-90553581D01*
X126654351Y-90451472D01*
X126329775Y-90389556D01*
X126000000Y-90368809D01*
X125670225Y-90389556D01*
X125345649Y-90451472D01*
X125031393Y-90553581D01*
X124732414Y-90694270D01*
X124453425Y-90871321D01*
X124233926Y-91052907D01*
X122426000Y-91052907D01*
X122426000Y-89426000D01*
X197479178Y-89426000D01*
X197345649Y-89451472D01*
G37*
X197345649Y-89451472D02*
X197031393Y-89553581D01*
X196732414Y-89694270D01*
X196453425Y-89871321D01*
X196233926Y-90052907D01*
X198000000Y-91818981D01*
X199766074Y-90052907D01*
X199546575Y-89871321D01*
X199267586Y-89694270D01*
X198968607Y-89553581D01*
X198654351Y-89451472D01*
X198520822Y-89426000D01*
X200574001Y-89426000D01*
X200574001Y-91465738D01*
X200502411Y-91186917D01*
X200380773Y-90879694D01*
X200221588Y-90590137D01*
X199956182Y-90224837D01*
X198181019Y-92000000D01*
X199956182Y-93775163D01*
X200221588Y-93409863D01*
X200380773Y-93120306D01*
X200502411Y-92813083D01*
X200574001Y-92534262D01*
X200574000Y-130939429D01*
X200568706Y-130957711D01*
X200574000Y-131018835D01*
X200574000Y-131039533D01*
X200577351Y-131057526D01*
X200582399Y-131115810D01*
X200591781Y-131135004D01*
X200595693Y-131156009D01*
X200626391Y-131205810D01*
X200652088Y-131258380D01*
X200667752Y-131272911D01*
X200678963Y-131291099D01*
X200725531Y-131326509D01*
X200773150Y-131370682D01*
X200790061Y-131375579D01*
X200805282Y-131387153D01*
X200957711Y-131431294D01*
X201018835Y-131426000D01*
X207572418Y-131426000D01*
X207568123Y-131447590D01*
X207568123Y-133872000D01*
X209931877Y-133872000D01*
X209931877Y-131447590D01*
X209927582Y-131426000D01*
X210874000Y-131426000D01*
X210874000Y-139874000D01*
X199052190Y-139874000D01*
X197126000Y-137947810D01*
X197126000Y-134128000D01*
X207568123Y-134128000D01*
X207568123Y-136552410D01*
X207598718Y-136706217D01*
X207692871Y-136847129D01*
X207833783Y-136941282D01*
X207987590Y-136971877D01*
X208622000Y-136971877D01*
X208622000Y-134128000D01*
X208878000Y-134128000D01*
X208878000Y-136971877D01*
X209512410Y-136971877D01*
X209666217Y-136941282D01*
X209807129Y-136847129D01*
X209901282Y-136706217D01*
X209931877Y-136552410D01*
X209931877Y-134128000D01*
X208878000Y-134128000D01*
X208622000Y-134128000D01*
X207568123Y-134128000D01*
X197126000Y-134128000D01*
X197126000Y-94947809D01*
X196125284Y-93947093D01*
X196233926Y-93947093D01*
X196453425Y-94128679D01*
X196732414Y-94305730D01*
X197031393Y-94446419D01*
X197345649Y-94548528D01*
X197670225Y-94610444D01*
X198000000Y-94631191D01*
X198329775Y-94610444D01*
X198654351Y-94548528D01*
X198968607Y-94446419D01*
X199267586Y-94305730D01*
X199546575Y-94128679D01*
X199766074Y-93947093D01*
X198000000Y-92181019D01*
X196233926Y-93947093D01*
X196125284Y-93947093D01*
X194012977Y-91834786D01*
X195374001Y-91834786D01*
X195374001Y-92165214D01*
X195415414Y-92493036D01*
X195497589Y-92813083D01*
X195619227Y-93120306D01*
X195778412Y-93409863D01*
X196043818Y-93775163D01*
X197818981Y-92000000D01*
X196043818Y-90224837D01*
X195778412Y-90590137D01*
X195619227Y-90879694D01*
X195497589Y-91186917D01*
X195415414Y-91506964D01*
X195374001Y-91834786D01*
X194012977Y-91834786D01*
X193052191Y-90874000D01*
X134947809Y-90874000D01*
X129874000Y-95947809D01*
X129874000Y-145947810D01*
X125874000Y-149947809D01*
X125874000Y-183126000D01*
X128874000Y-183126000D01*
X128874000Y-189574000D01*
X127927582Y-189574000D01*
X127931877Y-189552410D01*
X127931877Y-187128000D01*
X125568123Y-187128000D01*
X125568123Y-189552410D01*
X125572418Y-189574000D01*
X122426000Y-189574000D01*
X122426000Y-184447590D01*
X125568123Y-184447590D01*
X125568123Y-186872000D01*
X126622000Y-186872000D01*
X126622000Y-184028123D01*
X126878000Y-184028123D01*
X126878000Y-186872000D01*
X127931877Y-186872000D01*
X127931877Y-184447590D01*
X127901282Y-184293783D01*
X127807129Y-184152871D01*
X127666217Y-184058718D01*
X127512410Y-184028123D01*
X126878000Y-184028123D01*
X126622000Y-184028123D01*
X125987590Y-184028123D01*
X125833783Y-184058718D01*
X125692871Y-184152871D01*
X125598718Y-184293783D01*
X125568123Y-184447590D01*
X122426000Y-184447590D01*
X122426000Y-144447093D01*
X124733926Y-144447093D01*
X124953425Y-144628679D01*
X125232414Y-144805730D01*
X125531393Y-144946419D01*
X125845649Y-145048528D01*
X126170225Y-145110444D01*
X126500000Y-145131191D01*
X126829775Y-145110444D01*
X127154351Y-145048528D01*
X127468607Y-144946419D01*
X127767586Y-144805730D01*
X128046575Y-144628679D01*
X128266074Y-144447093D01*
X126500000Y-142681019D01*
X124733926Y-144447093D01*
X122426000Y-144447093D01*
X122426000Y-142334786D01*
X123874001Y-142334786D01*
X123874001Y-142665214D01*
X123915414Y-142993036D01*
X123997589Y-143313083D01*
X124119227Y-143620306D01*
X124278412Y-143909863D01*
X124543818Y-144275163D01*
X126318981Y-142500000D01*
X126681019Y-142500000D01*
X128456182Y-144275163D01*
X128721588Y-143909863D01*
X128880773Y-143620306D01*
X129002411Y-143313083D01*
X129084586Y-142993036D01*
X129125999Y-142665214D01*
X129125999Y-142334786D01*
X129084586Y-142006964D01*
X129002411Y-141686917D01*
X128880773Y-141379694D01*
X128721588Y-141090137D01*
X128456182Y-140724837D01*
X126681019Y-142500000D01*
X126318981Y-142500000D01*
X124543818Y-140724837D01*
X124278412Y-141090137D01*
X124119227Y-141379694D01*
X123997589Y-141686917D01*
X123915414Y-142006964D01*
X123874001Y-142334786D01*
X122426000Y-142334786D01*
X122426000Y-140552907D01*
X124733926Y-140552907D01*
X126500000Y-142318981D01*
X128266074Y-140552907D01*
X128046575Y-140371321D01*
X127767586Y-140194270D01*
X127468607Y-140053581D01*
X127154351Y-139951472D01*
X126829775Y-139889556D01*
X126500000Y-139868809D01*
X126170225Y-139889556D01*
X125845649Y-139951472D01*
X125531393Y-140053581D01*
X125232414Y-140194270D01*
X124953425Y-140371321D01*
X124733926Y-140552907D01*
X122426000Y-140552907D01*
X122426000Y-94947093D01*
X124233926Y-94947093D01*
X124453425Y-95128679D01*
X124732414Y-95305730D01*
X125031393Y-95446419D01*
X125345649Y-95548528D01*
X125670225Y-95610444D01*
X126000000Y-95631191D01*
X126329775Y-95610444D01*
X126654351Y-95548528D01*
X126968607Y-95446419D01*
X127267586Y-95305730D01*
X127546575Y-95128679D01*
X127766074Y-94947093D01*
X126000000Y-93181019D01*
X124233926Y-94947093D01*
X122426000Y-94947093D01*
X122426000Y-92834786D01*
X123374001Y-92834786D01*
X123374001Y-93165214D01*
X123415414Y-93493036D01*
X123497589Y-93813083D01*
X123619227Y-94120306D01*
X123778412Y-94409863D01*
X124043818Y-94775163D01*
X125818981Y-93000000D01*
X126181019Y-93000000D01*
X127956182Y-94775163D01*
X128221588Y-94409863D01*
X128380773Y-94120306D01*
X128502411Y-93813083D01*
X128584586Y-93493036D01*
X128625999Y-93165214D01*
X128625999Y-92834786D01*
X128584586Y-92506964D01*
X128502411Y-92186917D01*
X128380773Y-91879694D01*
X128221588Y-91590137D01*
X127956182Y-91224837D01*
X126181019Y-93000000D01*
X125818981Y-93000000D01*
X124043818Y-91224837D01*
X123778412Y-91590137D01*
X123619227Y-91879694D01*
X123497589Y-92186917D01*
X123415414Y-92506964D01*
X123374001Y-92834786D01*
X122426000Y-92834786D01*
X122426000Y-91052907D01*
X124233926Y-91052907D01*
X126000000Y-92818981D01*
X127766074Y-91052907D01*
X127546575Y-90871321D01*
X127267586Y-90694270D01*
X126968607Y-90553581D01*
X126654351Y-90451472D01*
X126329775Y-90389556D01*
X126000000Y-90368809D01*
X125670225Y-90389556D01*
X125345649Y-90451472D01*
X125031393Y-90553581D01*
X124732414Y-90694270D01*
X124453425Y-90871321D01*
X124233926Y-91052907D01*
X122426000Y-91052907D01*
X122426000Y-89426000D01*
X197479178Y-89426000D01*
X197345649Y-89451472D01*
G36*
X197374000Y-179374000D02*
G01*
X194626000Y-179374000D01*
X194626000Y-179014224D01*
X194859500Y-179014224D01*
X194859500Y-177628000D01*
X195115500Y-177628000D01*
X195115500Y-179014224D01*
X195460975Y-179014224D01*
X195814549Y-178937309D01*
X196032279Y-178797382D01*
X196198745Y-178605270D01*
X196304343Y-178374041D01*
X196339224Y-178131441D01*
X196339224Y-177628000D01*
X195115500Y-177628000D01*
X194859500Y-177628000D01*
X194859500Y-175985776D01*
X195115500Y-175985776D01*
X195115500Y-177372000D01*
X196339224Y-177372000D01*
X196339224Y-176864025D01*
X196262309Y-176510451D01*
X196122382Y-176292721D01*
X195930270Y-176126255D01*
X195699041Y-176020657D01*
X195456441Y-175985776D01*
X195115500Y-175985776D01*
X194859500Y-175985776D01*
X194626000Y-175985776D01*
X194626000Y-175626000D01*
X197374000Y-175626000D01*
X197374000Y-179374000D01*
G37*
X197374000Y-179374000D02*
X194626000Y-179374000D01*
X194626000Y-179014224D01*
X194859500Y-179014224D01*
X194859500Y-177628000D01*
X195115500Y-177628000D01*
X195115500Y-179014224D01*
X195460975Y-179014224D01*
X195814549Y-178937309D01*
X196032279Y-178797382D01*
X196198745Y-178605270D01*
X196304343Y-178374041D01*
X196339224Y-178131441D01*
X196339224Y-177628000D01*
X195115500Y-177628000D01*
X194859500Y-177628000D01*
X194859500Y-175985776D01*
X195115500Y-175985776D01*
X195115500Y-177372000D01*
X196339224Y-177372000D01*
X196339224Y-176864025D01*
X196262309Y-176510451D01*
X196122382Y-176292721D01*
X195930270Y-176126255D01*
X195699041Y-176020657D01*
X195456441Y-175985776D01*
X195115500Y-175985776D01*
X194859500Y-175985776D01*
X194626000Y-175985776D01*
X194626000Y-175626000D01*
X197374000Y-175626000D01*
X197374000Y-179374000D01*
G36*
X154374000Y-169874000D02*
G01*
X150626000Y-169874000D01*
X150626000Y-165126000D01*
X154374000Y-165126000D01*
X154374000Y-169874000D01*
G37*
X154374000Y-169874000D02*
X150626000Y-169874000D01*
X150626000Y-165126000D01*
X154374000Y-165126000D01*
X154374000Y-169874000D01*
G36*
X155834941Y-141385776D02*
G01*
X155753000Y-141385776D01*
X155753000Y-143614224D01*
X155834941Y-143614224D01*
X155834941Y-144374000D01*
X153086941Y-144374000D01*
X153086941Y-142628000D01*
X154434541Y-142628000D01*
X154536550Y-143096930D01*
X154674533Y-143311638D01*
X154863929Y-143475750D01*
X155091888Y-143579854D01*
X155330930Y-143614224D01*
X155497000Y-143614224D01*
X155497000Y-142628000D01*
X154434541Y-142628000D01*
X153086941Y-142628000D01*
X153086941Y-142372000D01*
X154444087Y-142372000D01*
X155497000Y-142372000D01*
X155497000Y-141385776D01*
X155326396Y-141385776D01*
X154978069Y-141461550D01*
X154763362Y-141599533D01*
X154599250Y-141788929D01*
X154495146Y-142016888D01*
X154444087Y-142372000D01*
X153086941Y-142372000D01*
X153086941Y-140626000D01*
X155834941Y-140626000D01*
X155834941Y-141385776D01*
G37*
X155834941Y-141385776D02*
X155753000Y-141385776D01*
X155753000Y-143614224D01*
X155834941Y-143614224D01*
X155834941Y-144374000D01*
X153086941Y-144374000D01*
X153086941Y-142628000D01*
X154434541Y-142628000D01*
X154536550Y-143096930D01*
X154674533Y-143311638D01*
X154863929Y-143475750D01*
X155091888Y-143579854D01*
X155330930Y-143614224D01*
X155497000Y-143614224D01*
X155497000Y-142628000D01*
X154434541Y-142628000D01*
X153086941Y-142628000D01*
X153086941Y-142372000D01*
X154444087Y-142372000D01*
X155497000Y-142372000D01*
X155497000Y-141385776D01*
X155326396Y-141385776D01*
X154978069Y-141461550D01*
X154763362Y-141599533D01*
X154599250Y-141788929D01*
X154495146Y-142016888D01*
X154444087Y-142372000D01*
X153086941Y-142372000D01*
X153086941Y-140626000D01*
X155834941Y-140626000D01*
X155834941Y-141385776D01*
G36*
X135374000Y-125022268D02*
G01*
X135294070Y-125010776D01*
X135128000Y-125010776D01*
X135128000Y-127239224D01*
X135298604Y-127239224D01*
X135374000Y-127222822D01*
X135374000Y-127874000D01*
X132626000Y-127874000D01*
X132626000Y-126253000D01*
X133809541Y-126253000D01*
X133911550Y-126721930D01*
X134049533Y-126936638D01*
X134238929Y-127100750D01*
X134466888Y-127204854D01*
X134705930Y-127239224D01*
X134872000Y-127239224D01*
X134872000Y-126253000D01*
X133809541Y-126253000D01*
X132626000Y-126253000D01*
X132626000Y-125997000D01*
X133819087Y-125997000D01*
X134872000Y-125997000D01*
X134872000Y-125010776D01*
X134701396Y-125010776D01*
X134353069Y-125086550D01*
X134138362Y-125224533D01*
X133974250Y-125413929D01*
X133870146Y-125641888D01*
X133819087Y-125997000D01*
X132626000Y-125997000D01*
X132626000Y-124126000D01*
X135374000Y-124126000D01*
X135374000Y-125022268D01*
G37*
X135374000Y-125022268D02*
X135294070Y-125010776D01*
X135128000Y-125010776D01*
X135128000Y-127239224D01*
X135298604Y-127239224D01*
X135374000Y-127222822D01*
X135374000Y-127874000D01*
X132626000Y-127874000D01*
X132626000Y-126253000D01*
X133809541Y-126253000D01*
X133911550Y-126721930D01*
X134049533Y-126936638D01*
X134238929Y-127100750D01*
X134466888Y-127204854D01*
X134705930Y-127239224D01*
X134872000Y-127239224D01*
X134872000Y-126253000D01*
X133809541Y-126253000D01*
X132626000Y-126253000D01*
X132626000Y-125997000D01*
X133819087Y-125997000D01*
X134872000Y-125997000D01*
X134872000Y-125010776D01*
X134701396Y-125010776D01*
X134353069Y-125086550D01*
X134138362Y-125224533D01*
X133974250Y-125413929D01*
X133870146Y-125641888D01*
X133819087Y-125997000D01*
X132626000Y-125997000D01*
X132626000Y-124126000D01*
X135374000Y-124126000D01*
X135374000Y-125022268D01*
G36*
X149625044Y-115779814D02*
G01*
X149588163Y-115988976D01*
X149588163Y-117016588D01*
X149668795Y-117317512D01*
X149816185Y-117493165D01*
X149874000Y-117526544D01*
X149874000Y-118471092D01*
X149736835Y-118586185D01*
X149625044Y-118779814D01*
X149588163Y-118988976D01*
X149588163Y-120016588D01*
X149668795Y-120317512D01*
X149716194Y-120374000D01*
X145626000Y-120374000D01*
X145626000Y-115626000D01*
X149713848Y-115626000D01*
X149625044Y-115779814D01*
G37*
X149625044Y-115779814D02*
X149588163Y-115988976D01*
X149588163Y-117016588D01*
X149668795Y-117317512D01*
X149816185Y-117493165D01*
X149874000Y-117526544D01*
X149874000Y-118471092D01*
X149736835Y-118586185D01*
X149625044Y-118779814D01*
X149588163Y-118988976D01*
X149588163Y-120016588D01*
X149668795Y-120317512D01*
X149716194Y-120374000D01*
X145626000Y-120374000D01*
X145626000Y-115626000D01*
X149713848Y-115626000D01*
X149625044Y-115779814D01*
G36*
X196874000Y-111433530D02*
G01*
X194626000Y-111433530D01*
X194626000Y-110014224D01*
X194859500Y-110014224D01*
X194859500Y-108628000D01*
X195115500Y-108628000D01*
X195115500Y-110014224D01*
X195460975Y-110014224D01*
X195814549Y-109937309D01*
X196032279Y-109797382D01*
X196198745Y-109605270D01*
X196304343Y-109374041D01*
X196339224Y-109131441D01*
X196339224Y-108628000D01*
X195115500Y-108628000D01*
X194859500Y-108628000D01*
X194859500Y-108372000D01*
X196339224Y-108372000D01*
X196339224Y-107864025D01*
X196300395Y-107685530D01*
X196874000Y-107685530D01*
X196874000Y-111433530D01*
G37*
X196874000Y-111433530D02*
X194626000Y-111433530D01*
X194626000Y-110014224D01*
X194859500Y-110014224D01*
X194859500Y-108628000D01*
X195115500Y-108628000D01*
X195115500Y-110014224D01*
X195460975Y-110014224D01*
X195814549Y-109937309D01*
X196032279Y-109797382D01*
X196198745Y-109605270D01*
X196304343Y-109374041D01*
X196339224Y-109131441D01*
X196339224Y-108628000D01*
X195115500Y-108628000D01*
X194859500Y-108628000D01*
X194859500Y-108372000D01*
X196339224Y-108372000D01*
X196339224Y-107864025D01*
X196300395Y-107685530D01*
X196874000Y-107685530D01*
X196874000Y-111433530D01*
G36*
X180874000Y-209874000D02*
G01*
X178872000Y-209874000D01*
X178872000Y-209622000D01*
X180339224Y-209622000D01*
X180339224Y-209414024D01*
X180262309Y-209060451D01*
X180122382Y-208842721D01*
X180108232Y-208830460D01*
X180129854Y-208783113D01*
X180180913Y-208428000D01*
X178872000Y-208428000D01*
X178872000Y-207185776D01*
X179128000Y-207185776D01*
X179128000Y-208172000D01*
X180190459Y-208172000D01*
X180088450Y-207703070D01*
X179950467Y-207488362D01*
X179761071Y-207324250D01*
X179533112Y-207220146D01*
X179294070Y-207185776D01*
X179128000Y-207185776D01*
X178872000Y-207185776D01*
X178701396Y-207185776D01*
X178353069Y-207261550D01*
X178138362Y-207399533D01*
X178126000Y-207413800D01*
X178126000Y-206126000D01*
X180874000Y-206126000D01*
X180874000Y-209874000D01*
G37*
X180874000Y-209874000D02*
X178872000Y-209874000D01*
X178872000Y-209622000D01*
X180339224Y-209622000D01*
X180339224Y-209414024D01*
X180262309Y-209060451D01*
X180122382Y-208842721D01*
X180108232Y-208830460D01*
X180129854Y-208783113D01*
X180180913Y-208428000D01*
X178872000Y-208428000D01*
X178872000Y-207185776D01*
X179128000Y-207185776D01*
X179128000Y-208172000D01*
X180190459Y-208172000D01*
X180088450Y-207703070D01*
X179950467Y-207488362D01*
X179761071Y-207324250D01*
X179533112Y-207220146D01*
X179294070Y-207185776D01*
X179128000Y-207185776D01*
X178872000Y-207185776D01*
X178701396Y-207185776D01*
X178353069Y-207261550D01*
X178138362Y-207399533D01*
X178126000Y-207413800D01*
X178126000Y-206126000D01*
X180874000Y-206126000D01*
X180874000Y-209874000D01*
G36*
X180874000Y-175874000D02*
G01*
X179825916Y-175874000D01*
X179839224Y-175781442D01*
X179839224Y-175578000D01*
X178372000Y-175578000D01*
X178372000Y-175322000D01*
X179839224Y-175322000D01*
X179839224Y-175114024D01*
X179762309Y-174760451D01*
X179622382Y-174542721D01*
X179608232Y-174530460D01*
X179629854Y-174483113D01*
X179680913Y-174128000D01*
X178372000Y-174128000D01*
X178372000Y-172885776D01*
X178628000Y-172885776D01*
X178628000Y-173872000D01*
X179690459Y-173872000D01*
X179588450Y-173403070D01*
X179450467Y-173188362D01*
X179261071Y-173024250D01*
X179033112Y-172920146D01*
X178794070Y-172885776D01*
X178628000Y-172885776D01*
X178372000Y-172885776D01*
X178201396Y-172885776D01*
X178126000Y-172902178D01*
X178126000Y-172126000D01*
X180874000Y-172126000D01*
X180874000Y-175874000D01*
G37*
X180874000Y-175874000D02*
X179825916Y-175874000D01*
X179839224Y-175781442D01*
X179839224Y-175578000D01*
X178372000Y-175578000D01*
X178372000Y-175322000D01*
X179839224Y-175322000D01*
X179839224Y-175114024D01*
X179762309Y-174760451D01*
X179622382Y-174542721D01*
X179608232Y-174530460D01*
X179629854Y-174483113D01*
X179680913Y-174128000D01*
X178372000Y-174128000D01*
X178372000Y-172885776D01*
X178628000Y-172885776D01*
X178628000Y-173872000D01*
X179690459Y-173872000D01*
X179588450Y-173403070D01*
X179450467Y-173188362D01*
X179261071Y-173024250D01*
X179033112Y-172920146D01*
X178794070Y-172885776D01*
X178628000Y-172885776D01*
X178372000Y-172885776D01*
X178201396Y-172885776D01*
X178126000Y-172902178D01*
X178126000Y-172126000D01*
X180874000Y-172126000D01*
X180874000Y-175874000D01*
G36*
X180874000Y-140874000D02*
G01*
X180339224Y-140874000D01*
X180339224Y-140678000D01*
X178872000Y-140678000D01*
X178872000Y-140422000D01*
X180339224Y-140422000D01*
X180339224Y-140214024D01*
X180262309Y-139860451D01*
X180122382Y-139642721D01*
X180108232Y-139630460D01*
X180129854Y-139583113D01*
X180180913Y-139228000D01*
X178872000Y-139228000D01*
X178872000Y-137985776D01*
X179128000Y-137985776D01*
X179128000Y-138972000D01*
X180190459Y-138972000D01*
X180088450Y-138503070D01*
X179950467Y-138288362D01*
X179761071Y-138124250D01*
X179533112Y-138020146D01*
X179294070Y-137985776D01*
X179128000Y-137985776D01*
X178872000Y-137985776D01*
X178701396Y-137985776D01*
X178353069Y-138061550D01*
X178138362Y-138199533D01*
X178126000Y-138213800D01*
X178126000Y-137126000D01*
X180874000Y-137126000D01*
X180874000Y-140874000D01*
G37*
X180874000Y-140874000D02*
X180339224Y-140874000D01*
X180339224Y-140678000D01*
X178872000Y-140678000D01*
X178872000Y-140422000D01*
X180339224Y-140422000D01*
X180339224Y-140214024D01*
X180262309Y-139860451D01*
X180122382Y-139642721D01*
X180108232Y-139630460D01*
X180129854Y-139583113D01*
X180180913Y-139228000D01*
X178872000Y-139228000D01*
X178872000Y-137985776D01*
X179128000Y-137985776D01*
X179128000Y-138972000D01*
X180190459Y-138972000D01*
X180088450Y-138503070D01*
X179950467Y-138288362D01*
X179761071Y-138124250D01*
X179533112Y-138020146D01*
X179294070Y-137985776D01*
X179128000Y-137985776D01*
X178872000Y-137985776D01*
X178701396Y-137985776D01*
X178353069Y-138061550D01*
X178138362Y-138199533D01*
X178126000Y-138213800D01*
X178126000Y-137126000D01*
X180874000Y-137126000D01*
X180874000Y-140874000D01*
G36*
X180874000Y-106874000D02*
G01*
X179833105Y-106874000D01*
X179839224Y-106831442D01*
X179839224Y-106628000D01*
X178372000Y-106628000D01*
X178372000Y-106372000D01*
X179839224Y-106372000D01*
X179839224Y-106164024D01*
X179762309Y-105810451D01*
X179622382Y-105592721D01*
X179591872Y-105566284D01*
X179629854Y-105483113D01*
X179680913Y-105128000D01*
X178372000Y-105128000D01*
X178372000Y-103885776D01*
X178628000Y-103885776D01*
X178628000Y-104872000D01*
X179690459Y-104872000D01*
X179588450Y-104403070D01*
X179450467Y-104188362D01*
X179261071Y-104024250D01*
X179033112Y-103920146D01*
X178794070Y-103885776D01*
X178628000Y-103885776D01*
X178372000Y-103885776D01*
X178201396Y-103885776D01*
X178126000Y-103902178D01*
X178126000Y-103126000D01*
X180874000Y-103126000D01*
X180874000Y-106874000D01*
G37*
X180874000Y-106874000D02*
X179833105Y-106874000D01*
X179839224Y-106831442D01*
X179839224Y-106628000D01*
X178372000Y-106628000D01*
X178372000Y-106372000D01*
X179839224Y-106372000D01*
X179839224Y-106164024D01*
X179762309Y-105810451D01*
X179622382Y-105592721D01*
X179591872Y-105566284D01*
X179629854Y-105483113D01*
X179680913Y-105128000D01*
X178372000Y-105128000D01*
X178372000Y-103885776D01*
X178628000Y-103885776D01*
X178628000Y-104872000D01*
X179690459Y-104872000D01*
X179588450Y-104403070D01*
X179450467Y-104188362D01*
X179261071Y-104024250D01*
X179033112Y-103920146D01*
X178794070Y-103885776D01*
X178628000Y-103885776D01*
X178372000Y-103885776D01*
X178201396Y-103885776D01*
X178126000Y-103902178D01*
X178126000Y-103126000D01*
X180874000Y-103126000D01*
X180874000Y-106874000D01*
G36*
X150878000Y-171905148D02*
G01*
X151042039Y-171905148D01*
X151201791Y-171885235D01*
X151402134Y-171797357D01*
X151565051Y-171647381D01*
X151612610Y-171559500D01*
X151614765Y-171576791D01*
X151702643Y-171777134D01*
X151852619Y-171940051D01*
X152021266Y-172031318D01*
X151959060Y-172047986D01*
X151788946Y-172190729D01*
X151680768Y-172378097D01*
X151645143Y-172580140D01*
X151645143Y-173175425D01*
X151698351Y-173374000D01*
X149943915Y-173374000D01*
X149943915Y-171646967D01*
X150052619Y-171765051D01*
X150247367Y-171870443D01*
X150455343Y-171905148D01*
X150622000Y-171905148D01*
X150622000Y-170872000D01*
X150878000Y-170872000D01*
X150878000Y-171905148D01*
G37*
X150878000Y-171905148D02*
X151042039Y-171905148D01*
X151201791Y-171885235D01*
X151402134Y-171797357D01*
X151565051Y-171647381D01*
X151612610Y-171559500D01*
X151614765Y-171576791D01*
X151702643Y-171777134D01*
X151852619Y-171940051D01*
X152021266Y-172031318D01*
X151959060Y-172047986D01*
X151788946Y-172190729D01*
X151680768Y-172378097D01*
X151645143Y-172580140D01*
X151645143Y-173175425D01*
X151698351Y-173374000D01*
X149943915Y-173374000D01*
X149943915Y-171646967D01*
X150052619Y-171765051D01*
X150247367Y-171870443D01*
X150455343Y-171905148D01*
X150622000Y-171905148D01*
X150622000Y-170872000D01*
X150878000Y-170872000D01*
X150878000Y-171905148D01*
G36*
X149874000Y-113695237D02*
G01*
X149752633Y-113629557D01*
X149544657Y-113594852D01*
X149378000Y-113594852D01*
X149378000Y-114628000D01*
X149122000Y-114628000D01*
X149122000Y-113594852D01*
X148957961Y-113594852D01*
X148798209Y-113614765D01*
X148597866Y-113702643D01*
X148434949Y-113852619D01*
X148387390Y-113940500D01*
X148385235Y-113923209D01*
X148297357Y-113722866D01*
X148147381Y-113559949D01*
X148037728Y-113500608D01*
X148102134Y-113472357D01*
X148265051Y-113322381D01*
X148370443Y-113127633D01*
X148405148Y-112919657D01*
X148405148Y-112332961D01*
X148385235Y-112173209D01*
X148364527Y-112126000D01*
X149874000Y-112126000D01*
X149874000Y-113695237D01*
G37*
X149874000Y-113695237D02*
X149752633Y-113629557D01*
X149544657Y-113594852D01*
X149378000Y-113594852D01*
X149378000Y-114628000D01*
X149122000Y-114628000D01*
X149122000Y-113594852D01*
X148957961Y-113594852D01*
X148798209Y-113614765D01*
X148597866Y-113702643D01*
X148434949Y-113852619D01*
X148387390Y-113940500D01*
X148385235Y-113923209D01*
X148297357Y-113722866D01*
X148147381Y-113559949D01*
X148037728Y-113500608D01*
X148102134Y-113472357D01*
X148265051Y-113322381D01*
X148370443Y-113127633D01*
X148405148Y-112919657D01*
X148405148Y-112332961D01*
X148385235Y-112173209D01*
X148364527Y-112126000D01*
X149874000Y-112126000D01*
X149874000Y-113695237D01*
M02*
