G04 #@! TF.GenerationSoftware,KiCad,Pcbnew,(5.99.0-221-ga18d3cc)*
G04 #@! TF.CreationDate,2019-11-20T11:00:34-07:00*
G04 #@! TF.ProjectId,gva-pha202amp,6776612d-7068-4613-9230-32616d702e6b,rev?*
G04 #@! TF.SameCoordinates,Original*
G04 #@! TF.FileFunction,Copper,L4,Bot*
G04 #@! TF.FilePolarity,Positive*
%FSLAX46Y46*%
G04 Gerber Fmt 4.6, Leading zero omitted, Abs format (unit mm)*
G04 Created by KiCad (PCBNEW (5.99.0-221-ga18d3cc)) date 2019-11-20 11:00:34*
%MOMM*%
%LPD*%
G04 APERTURE LIST*
%ADD10C,0.700000*%
%ADD11C,4.400000*%
%ADD12O,1.700000X1.700000*%
%ADD13R,1.700000X1.700000*%
%ADD14R,1.500000X5.080000*%
%ADD15C,0.800000*%
%ADD16C,0.380600*%
%ADD17C,0.254000*%
G04 APERTURE END LIST*
D10*
X181516726Y-158833274D03*
X180350000Y-158350000D03*
X179183274Y-158833274D03*
X178700000Y-160000000D03*
X179183274Y-161166726D03*
X180350000Y-161650000D03*
X181516726Y-161166726D03*
X182000000Y-160000000D03*
D11*
X180350000Y-160000000D03*
D10*
X148166726Y-227833274D03*
X147000000Y-227350000D03*
X145833274Y-227833274D03*
X145350000Y-229000000D03*
X145833274Y-230166726D03*
X147000000Y-230650000D03*
X148166726Y-230166726D03*
X148650000Y-229000000D03*
D11*
X147000000Y-229000000D03*
D10*
X199166726Y-90833274D03*
X198000000Y-90350000D03*
X196833274Y-90833274D03*
X196350000Y-92000000D03*
X196833274Y-93166726D03*
X198000000Y-93650000D03*
X199166726Y-93166726D03*
X199650000Y-92000000D03*
D11*
X198000000Y-92000000D03*
D10*
X218166726Y-168833274D03*
X217000000Y-168350000D03*
X215833274Y-168833274D03*
X215350000Y-170000000D03*
X215833274Y-171166726D03*
X217000000Y-171650000D03*
X218166726Y-171166726D03*
X218650000Y-170000000D03*
D11*
X217000000Y-170000000D03*
D10*
X218166726Y-216833274D03*
X217000000Y-216350000D03*
X215833274Y-216833274D03*
X215350000Y-218000000D03*
X215833274Y-219166726D03*
X217000000Y-219650000D03*
X218166726Y-219166726D03*
X218650000Y-218000000D03*
D11*
X217000000Y-218000000D03*
D10*
X127666726Y-141333274D03*
X126500000Y-140850000D03*
X125333274Y-141333274D03*
X124850000Y-142500000D03*
X125333274Y-143666726D03*
X126500000Y-144150000D03*
X127666726Y-143666726D03*
X128150000Y-142500000D03*
D11*
X126500000Y-142500000D03*
D10*
X127166726Y-91833274D03*
X126000000Y-91350000D03*
X124833274Y-91833274D03*
X124350000Y-93000000D03*
X124833274Y-94166726D03*
X126000000Y-94650000D03*
X127166726Y-94166726D03*
X127650000Y-93000000D03*
D11*
X126000000Y-93000000D03*
D12*
X198300000Y-227540000D03*
X200840000Y-227540000D03*
X203380000Y-227540000D03*
X205920000Y-227540000D03*
X208460000Y-227540000D03*
X211000000Y-227540000D03*
D13*
X213540000Y-227540000D03*
D14*
X208750000Y-134000000D03*
X217250000Y-134000000D03*
X135250000Y-187000000D03*
X126750000Y-187000000D03*
D15*
X180500000Y-206500000D03*
X180500000Y-175500000D03*
X180500000Y-174500000D03*
X180500000Y-173500000D03*
X180500000Y-172500000D03*
X179500000Y-172500000D03*
X178500000Y-172500000D03*
X180500000Y-106500000D03*
X180500000Y-105500000D03*
X180500000Y-104500000D03*
X180500000Y-103500000D03*
X179500000Y-103500000D03*
X178500000Y-103500000D03*
X180500000Y-140500000D03*
X180500000Y-139500000D03*
X180500000Y-138500000D03*
X180500000Y-137500000D03*
X179500000Y-137500000D03*
X178500000Y-137500000D03*
X180500000Y-209500000D03*
X180500000Y-208500000D03*
X180500000Y-207500000D03*
X179500000Y-206500000D03*
X178500000Y-206500000D03*
X148720000Y-113000000D03*
X151290000Y-172520000D03*
X150500000Y-172000000D03*
X150500000Y-173000000D03*
X149500000Y-113500000D03*
X149500000Y-112500000D03*
X175800000Y-105000000D03*
X215000000Y-215000000D03*
X214000000Y-216000000D03*
X213000000Y-217000000D03*
X212000000Y-218000000D03*
X212000000Y-220000000D03*
X213000000Y-221000000D03*
X214000000Y-222000000D03*
X150000000Y-184000000D03*
X217000000Y-163000000D03*
X216000000Y-164000000D03*
X198000000Y-131000000D03*
X198000000Y-133000000D03*
X198000000Y-135000000D03*
X198000000Y-137000000D03*
X199000000Y-138000000D03*
X218000000Y-140000000D03*
X218000000Y-142000000D03*
X218000000Y-144000000D03*
X218000000Y-146000000D03*
X218000000Y-148000000D03*
X218000000Y-150000000D03*
X218000000Y-152000000D03*
X218000000Y-154000000D03*
X218000000Y-156000000D03*
X218000000Y-158000000D03*
X218000000Y-160000000D03*
X218000000Y-162000000D03*
X215000000Y-165000000D03*
X215000000Y-167000000D03*
X215000000Y-173000000D03*
X215000000Y-175000000D03*
X215000000Y-177000000D03*
X215000000Y-179000000D03*
X215000000Y-181000000D03*
X215000000Y-183000000D03*
X215000000Y-185000000D03*
X215000000Y-187000000D03*
X215000000Y-189000000D03*
X215000000Y-191000000D03*
X215000000Y-193000000D03*
X215000000Y-195000000D03*
X215000000Y-197000000D03*
X215000000Y-199000000D03*
X215000000Y-201000000D03*
X215000000Y-203000000D03*
X215000000Y-205000000D03*
X215000000Y-207000000D03*
X215000000Y-209000000D03*
X215000000Y-211000000D03*
X215000000Y-213000000D03*
X215000000Y-223000000D03*
X216000000Y-224000000D03*
X216000000Y-226000000D03*
X216000000Y-228000000D03*
X216000000Y-230000000D03*
X214000000Y-230000000D03*
X212000000Y-230000000D03*
X210000000Y-230000000D03*
X208000000Y-230000000D03*
X206000000Y-230000000D03*
X204000000Y-230000000D03*
X202000000Y-230000000D03*
X200000000Y-230000000D03*
X198000000Y-230000000D03*
X196000000Y-230000000D03*
X194000000Y-230000000D03*
X192000000Y-230000000D03*
X190000000Y-230000000D03*
X188000000Y-230000000D03*
X186000000Y-230000000D03*
X184000000Y-230000000D03*
X182000000Y-230000000D03*
X180000000Y-230000000D03*
X178000000Y-230000000D03*
X176000000Y-230000000D03*
X174000000Y-230000000D03*
X172000000Y-230000000D03*
X170000000Y-230000000D03*
X168000000Y-230000000D03*
X166000000Y-230000000D03*
X164000000Y-230000000D03*
X162000000Y-230000000D03*
X160000000Y-230000000D03*
X158000000Y-230000000D03*
X156000000Y-230000000D03*
X155000000Y-229000000D03*
X154000000Y-228000000D03*
X153000000Y-227000000D03*
X152000000Y-226000000D03*
X151000000Y-225000000D03*
X150000000Y-224000000D03*
X150000000Y-222000000D03*
X150000000Y-220000000D03*
X150000000Y-218000000D03*
X150000000Y-216000000D03*
X150000000Y-214000000D03*
X150000000Y-212000000D03*
X150000000Y-210000000D03*
X150000000Y-208000000D03*
X150000000Y-206000000D03*
X150000000Y-204000000D03*
X150000000Y-202000000D03*
X150000000Y-200000000D03*
X150000000Y-198000000D03*
X150000000Y-196000000D03*
X150000000Y-194000000D03*
X150000000Y-192000000D03*
X150000000Y-190000000D03*
X150000000Y-188000000D03*
X150000000Y-186000000D03*
X148000000Y-184000000D03*
X146000000Y-184000000D03*
X144000000Y-184000000D03*
X142000000Y-184000000D03*
X140000000Y-184000000D03*
X138000000Y-184000000D03*
X137000000Y-185000000D03*
X137000000Y-187000000D03*
X137000000Y-189000000D03*
X125000000Y-189000000D03*
X125000000Y-187000000D03*
X125000000Y-185000000D03*
X125000000Y-183000000D03*
X125000000Y-181000000D03*
X125000000Y-179000000D03*
X125000000Y-177000000D03*
X125000000Y-175000000D03*
X125000000Y-173000000D03*
X125000000Y-171000000D03*
X125000000Y-169000000D03*
X125000000Y-167000000D03*
X125000000Y-165000000D03*
X125000000Y-165000000D03*
X125000000Y-163000000D03*
X125000000Y-161000000D03*
X125000000Y-159000000D03*
X125000000Y-157000000D03*
X125000000Y-155000000D03*
X125000000Y-153000000D03*
X125000000Y-151000000D03*
X125000000Y-149000000D03*
X126000000Y-148000000D03*
X127000000Y-147000000D03*
X128000000Y-146000000D03*
X129000000Y-145000000D03*
X129000000Y-140000000D03*
X129000000Y-138000000D03*
X129000000Y-136000000D03*
X129000000Y-134000000D03*
X129000000Y-132000000D03*
X129000000Y-130000000D03*
X129000000Y-128000000D03*
X129000000Y-126000000D03*
X129000000Y-124000000D03*
X129000000Y-122000000D03*
X129000000Y-120000000D03*
X129000000Y-118000000D03*
X129000000Y-116000000D03*
X129000000Y-114000000D03*
X129000000Y-112000000D03*
X129000000Y-110000000D03*
X129000000Y-108000000D03*
X129000000Y-106000000D03*
X129000000Y-104000000D03*
X129000000Y-102000000D03*
X129000000Y-100000000D03*
X129000000Y-98000000D03*
X129000000Y-96000000D03*
X130000000Y-95000000D03*
X131000000Y-94000000D03*
X132000000Y-93000000D03*
X133000000Y-92000000D03*
X134000000Y-91000000D03*
X135000000Y-90000000D03*
X137000000Y-90000000D03*
X139000000Y-90000000D03*
X141000000Y-90000000D03*
X143000000Y-90000000D03*
X145000000Y-90000000D03*
X147000000Y-90000000D03*
X149000000Y-90000000D03*
X151000000Y-90000000D03*
X153000000Y-90000000D03*
X155000000Y-90000000D03*
X157000000Y-90000000D03*
X159000000Y-90000000D03*
X161000000Y-90000000D03*
X163000000Y-90000000D03*
X165000000Y-90000000D03*
X167000000Y-90000000D03*
X169000000Y-90000000D03*
X171000000Y-90000000D03*
X173000000Y-90000000D03*
X175000000Y-90000000D03*
X177000000Y-90000000D03*
X179000000Y-90000000D03*
X181000000Y-90000000D03*
X183000000Y-90000000D03*
X185000000Y-90000000D03*
X187000000Y-90000000D03*
X189000000Y-90000000D03*
X191000000Y-90000000D03*
X193000000Y-90000000D03*
X195000000Y-91000000D03*
X198000000Y-95000000D03*
X198000000Y-97000000D03*
X198000000Y-99000000D03*
X198000000Y-101000000D03*
X198000000Y-103000000D03*
X198000000Y-105000000D03*
X198000000Y-107000000D03*
X198000000Y-109000000D03*
X198000000Y-111000000D03*
X198000000Y-113000000D03*
X198000000Y-115000000D03*
X198000000Y-117000000D03*
X198000000Y-119000000D03*
X198000000Y-121000000D03*
X198000000Y-123000000D03*
X198000000Y-125000000D03*
X198000000Y-127000000D03*
X198000000Y-129000000D03*
X200000000Y-139000000D03*
X202000000Y-139000000D03*
X204000000Y-139000000D03*
X206000000Y-139000000D03*
X146500000Y-113000000D03*
X152500000Y-174000000D03*
X210000000Y-132500000D03*
X210000000Y-133500000D03*
X210000000Y-134500000D03*
X210000000Y-135500000D03*
X210000000Y-136500000D03*
X216000000Y-132500000D03*
X216000000Y-133500000D03*
X216000000Y-134500000D03*
X216000000Y-135500000D03*
X216000000Y-136500000D03*
X218000000Y-137500000D03*
X217000000Y-137500000D03*
X216000000Y-137500000D03*
X216000000Y-138500000D03*
X217000000Y-138500000D03*
X218000000Y-138500000D03*
X219000000Y-138500000D03*
X219000000Y-137500000D03*
X219000000Y-136500000D03*
X219000000Y-135500000D03*
X219000000Y-134500000D03*
X219000000Y-133500000D03*
X219000000Y-132500000D03*
X210000000Y-138500000D03*
X209000000Y-138500000D03*
X208000000Y-138500000D03*
X207000000Y-138500000D03*
X210000000Y-137500000D03*
X209000000Y-137500000D03*
X208000000Y-137500000D03*
X207000000Y-137500000D03*
X207000000Y-136500000D03*
X207000000Y-135500000D03*
X207000000Y-134500000D03*
X207000000Y-133500000D03*
X207000000Y-132500000D03*
X210500000Y-196500000D03*
X133000000Y-126500000D03*
X155500000Y-144000000D03*
X154500000Y-144000000D03*
X153500000Y-144000000D03*
X153500000Y-143000000D03*
X153500000Y-142000000D03*
X153500000Y-141000000D03*
X154500000Y-141000000D03*
X155500000Y-141000000D03*
X155500000Y-213000000D03*
X154500000Y-213000000D03*
X153500000Y-213000000D03*
X153500000Y-212000000D03*
X153500000Y-211000000D03*
X153500000Y-210000000D03*
X154500000Y-210000000D03*
X155500000Y-210000000D03*
X195000000Y-179000000D03*
X196000000Y-179000000D03*
X197000000Y-179000000D03*
X197000000Y-178000000D03*
X197000000Y-177000000D03*
X197000000Y-176000000D03*
X196000000Y-176000000D03*
X195000000Y-176000000D03*
X195000000Y-110000000D03*
X196000000Y-110000000D03*
X197000000Y-110000000D03*
X197000000Y-109000000D03*
X197000000Y-108000000D03*
X197000000Y-107000000D03*
X196000000Y-107000000D03*
X195000000Y-107000000D03*
X210500000Y-192500000D03*
X211500000Y-192500000D03*
X212500000Y-192500000D03*
X212500000Y-193500000D03*
X212500000Y-194500000D03*
X212500000Y-195500000D03*
X212500000Y-196500000D03*
X211500000Y-196500000D03*
X135000000Y-127500000D03*
X134000000Y-127500000D03*
X133000000Y-127500000D03*
X133000000Y-125500000D03*
X133000000Y-124500000D03*
X134000000Y-124500000D03*
X135000000Y-124500000D03*
X176000000Y-208000000D03*
X175400000Y-139100000D03*
X175500000Y-174000000D03*
X172500000Y-150000000D03*
X173500000Y-150000000D03*
X174500000Y-150000000D03*
X174000000Y-149000000D03*
X173000000Y-149000000D03*
X174500000Y-148000000D03*
X173500000Y-148000000D03*
X172500000Y-148000000D03*
X172500000Y-138000000D03*
X173500000Y-138000000D03*
X174500000Y-138000000D03*
X174000000Y-139000000D03*
X173000000Y-139000000D03*
X172500000Y-140000000D03*
X173500000Y-140000000D03*
X174500000Y-140000000D03*
X174000000Y-141000000D03*
X173000000Y-141000000D03*
X173000000Y-147000000D03*
X174000000Y-147000000D03*
X174500000Y-146000000D03*
X172500000Y-146000000D03*
X173500000Y-146000000D03*
X174500000Y-112000000D03*
X174500000Y-114000000D03*
X173500000Y-112000000D03*
X173500000Y-114000000D03*
X174000000Y-113000000D03*
X173000000Y-113000000D03*
X154000000Y-169500000D03*
X154000000Y-165500000D03*
X154000000Y-167500000D03*
X153500000Y-168500000D03*
X153500000Y-166500000D03*
X146000000Y-118000000D03*
X149000000Y-116000000D03*
X146000000Y-116000000D03*
X146000000Y-120000000D03*
X149000000Y-120000000D03*
X151000000Y-165500000D03*
X153000000Y-169500000D03*
X151000000Y-169500000D03*
X152000000Y-169500000D03*
X153000000Y-165500000D03*
X152000000Y-165500000D03*
X152500000Y-168500000D03*
X153000000Y-167500000D03*
X151500000Y-166500000D03*
X151500000Y-168500000D03*
X151000000Y-167500000D03*
X152000000Y-167500000D03*
X152500000Y-166500000D03*
X148000000Y-120000000D03*
X147000000Y-120000000D03*
X146500000Y-119000000D03*
X146500000Y-117000000D03*
X147000000Y-116000000D03*
X148000000Y-116000000D03*
X174500000Y-106000000D03*
X173500000Y-106000000D03*
X172500000Y-106000000D03*
X173000000Y-105000000D03*
X174000000Y-105000000D03*
X174500000Y-104000000D03*
X172500000Y-104000000D03*
X173500000Y-104000000D03*
X173000000Y-103000000D03*
X174000000Y-103000000D03*
X172500000Y-102000000D03*
X174500000Y-102000000D03*
X173500000Y-102000000D03*
X172500000Y-108000000D03*
X173500000Y-108000000D03*
X147000000Y-118000000D03*
X147500000Y-119000000D03*
X149000000Y-118000000D03*
X147500000Y-117000000D03*
X148500000Y-117000000D03*
X148000000Y-118000000D03*
X148500000Y-119000000D03*
X172500000Y-112000000D03*
X172500000Y-114000000D03*
X173000000Y-107000000D03*
X174000000Y-107000000D03*
X172500000Y-110000000D03*
X174500000Y-108000000D03*
X174500000Y-110000000D03*
X173000000Y-109000000D03*
X173000000Y-111000000D03*
X174000000Y-111000000D03*
X173500000Y-110000000D03*
X174000000Y-109000000D03*
X173000000Y-145000000D03*
X174500000Y-144000000D03*
X174000000Y-145000000D03*
X173500000Y-142000000D03*
X172500000Y-142000000D03*
X174500000Y-142000000D03*
X174000000Y-143000000D03*
X172500000Y-144000000D03*
X173500000Y-144000000D03*
X173000000Y-143000000D03*
X172500000Y-180000000D03*
X172500000Y-184000000D03*
X172500000Y-182000000D03*
X172500000Y-172000000D03*
X174000000Y-173000000D03*
X173000000Y-173000000D03*
X173000000Y-175000000D03*
X173500000Y-174000000D03*
X173000000Y-177000000D03*
X174000000Y-177000000D03*
X173500000Y-178000000D03*
X173000000Y-179000000D03*
X174000000Y-179000000D03*
X174500000Y-174000000D03*
X172500000Y-178000000D03*
X173500000Y-172000000D03*
X172500000Y-176000000D03*
X174500000Y-176000000D03*
X174000000Y-175000000D03*
X174500000Y-178000000D03*
X173500000Y-176000000D03*
X174500000Y-172000000D03*
X172500000Y-174000000D03*
X174000000Y-181000000D03*
X174500000Y-180000000D03*
X174000000Y-183000000D03*
X173000000Y-183000000D03*
X173000000Y-181000000D03*
X173500000Y-180000000D03*
X174500000Y-182000000D03*
X173500000Y-184000000D03*
X173500000Y-182000000D03*
X174500000Y-184000000D03*
X174000000Y-216000000D03*
X172500000Y-207000000D03*
X172500000Y-219000000D03*
X174000000Y-218000000D03*
X174500000Y-211000000D03*
X174500000Y-219000000D03*
X174000000Y-212000000D03*
X173000000Y-210000000D03*
X173000000Y-212000000D03*
X174000000Y-210000000D03*
X174500000Y-213000000D03*
X174500000Y-209000000D03*
X174000000Y-208000000D03*
X172500000Y-215000000D03*
X173500000Y-217000000D03*
X172500000Y-211000000D03*
X173500000Y-213000000D03*
X173500000Y-219000000D03*
X173000000Y-208000000D03*
X173500000Y-209000000D03*
X173000000Y-214000000D03*
X172500000Y-213000000D03*
X173500000Y-207000000D03*
X174500000Y-207000000D03*
X172500000Y-209000000D03*
X172500000Y-217000000D03*
X173500000Y-211000000D03*
X173000000Y-218000000D03*
X174500000Y-217000000D03*
X173000000Y-216000000D03*
X173500000Y-215000000D03*
X174500000Y-215000000D03*
X174000000Y-214000000D03*
D16*
X198300000Y-227540000D02*
X200840000Y-227540000D01*
D17*
G36*
X190374000Y-220004791D02*
G01*
X190386746Y-220172166D01*
X190443482Y-220391291D01*
X190543875Y-220595957D01*
X190683412Y-220776225D01*
X190856381Y-220924712D01*
X191055699Y-221035344D01*
X191273207Y-221103587D01*
X191493610Y-221126000D01*
X200874000Y-221126000D01*
X200874000Y-227668000D01*
X200712000Y-227668000D01*
X200712000Y-226040022D01*
X200345292Y-226135200D01*
X200115671Y-226238637D01*
X199906760Y-226379284D01*
X199724534Y-226553119D01*
X199574203Y-226755172D01*
X199567564Y-226768230D01*
X199503390Y-226662474D01*
X199338331Y-226472261D01*
X199143584Y-226312578D01*
X198924716Y-226187991D01*
X198685169Y-226101040D01*
X198428000Y-226066953D01*
X198428000Y-227668000D01*
X196810513Y-227668000D01*
X196873456Y-227967983D01*
X196965961Y-228202222D01*
X197096610Y-228417526D01*
X197261669Y-228607739D01*
X197302078Y-228640873D01*
X197098099Y-228758640D01*
X197000000Y-228846969D01*
X196901901Y-228758640D01*
X196624099Y-228598251D01*
X196319021Y-228499126D01*
X196000000Y-228465595D01*
X195680979Y-228499126D01*
X195375901Y-228598251D01*
X195098099Y-228758640D01*
X195000000Y-228846969D01*
X194901901Y-228758640D01*
X194624099Y-228598251D01*
X194319021Y-228499126D01*
X194000000Y-228465595D01*
X193680979Y-228499126D01*
X193375901Y-228598251D01*
X193098099Y-228758640D01*
X193000000Y-228846969D01*
X192901901Y-228758640D01*
X192624099Y-228598251D01*
X192319021Y-228499126D01*
X192000000Y-228465595D01*
X191680979Y-228499126D01*
X191375901Y-228598251D01*
X191098099Y-228758640D01*
X191000000Y-228846969D01*
X190901901Y-228758640D01*
X190624099Y-228598251D01*
X190319021Y-228499126D01*
X190000000Y-228465595D01*
X189680979Y-228499126D01*
X189375901Y-228598251D01*
X189098099Y-228758640D01*
X189000000Y-228846969D01*
X188901901Y-228758640D01*
X188624099Y-228598251D01*
X188319021Y-228499126D01*
X188000000Y-228465595D01*
X187680979Y-228499126D01*
X187375901Y-228598251D01*
X187098099Y-228758640D01*
X187000000Y-228846969D01*
X186901901Y-228758640D01*
X186624099Y-228598251D01*
X186319021Y-228499126D01*
X186000000Y-228465595D01*
X185680979Y-228499126D01*
X185375901Y-228598251D01*
X185098099Y-228758640D01*
X185000000Y-228846969D01*
X184901901Y-228758640D01*
X184624099Y-228598251D01*
X184319021Y-228499126D01*
X184000000Y-228465595D01*
X183680979Y-228499126D01*
X183375901Y-228598251D01*
X183098099Y-228758640D01*
X183000000Y-228846969D01*
X182901901Y-228758640D01*
X182624099Y-228598251D01*
X182319021Y-228499126D01*
X182000000Y-228465595D01*
X181680979Y-228499126D01*
X181375901Y-228598251D01*
X181098099Y-228758640D01*
X181000000Y-228846969D01*
X180901901Y-228758640D01*
X180624099Y-228598251D01*
X180319021Y-228499126D01*
X180000000Y-228465595D01*
X179680979Y-228499126D01*
X179375901Y-228598251D01*
X179098099Y-228758640D01*
X179000000Y-228846969D01*
X178901901Y-228758640D01*
X178624099Y-228598251D01*
X178319021Y-228499126D01*
X178000000Y-228465595D01*
X177680979Y-228499126D01*
X177375901Y-228598251D01*
X177126000Y-228742531D01*
X177126000Y-227412000D01*
X196819957Y-227412000D01*
X198172000Y-227412000D01*
X198172000Y-226040022D01*
X197805292Y-226135200D01*
X197575671Y-226238637D01*
X197366760Y-226379284D01*
X197184534Y-226553119D01*
X197034203Y-226755172D01*
X196920064Y-226979666D01*
X196845382Y-227220181D01*
X196819957Y-227412000D01*
X177126000Y-227412000D01*
X177126000Y-209039580D01*
X177140285Y-209026718D01*
X177328833Y-208767202D01*
X177459306Y-208474158D01*
X177525999Y-208160389D01*
X177525999Y-207839611D01*
X177459306Y-207525842D01*
X177328833Y-207232798D01*
X177140285Y-206973282D01*
X177126000Y-206960420D01*
X177126000Y-160829661D01*
X177135300Y-160873414D01*
X177252692Y-161226311D01*
X177408691Y-161563922D01*
X177601350Y-161882040D01*
X177828269Y-162176700D01*
X178086619Y-162444229D01*
X178373180Y-162681293D01*
X178684381Y-162884938D01*
X179016342Y-163052623D01*
X179364926Y-163182260D01*
X179725788Y-163272233D01*
X180094430Y-163321421D01*
X180466258Y-163329210D01*
X180836637Y-163295502D01*
X181200950Y-163220720D01*
X181554658Y-163105793D01*
X181893349Y-162952156D01*
X182212805Y-162761722D01*
X182509043Y-162536866D01*
X182778368Y-162280390D01*
X183017428Y-161995491D01*
X183223239Y-161685719D01*
X183393239Y-161354937D01*
X183525306Y-161007266D01*
X183617795Y-160647041D01*
X183669678Y-160277877D01*
X183676143Y-159814923D01*
X183634589Y-159444453D01*
X183552192Y-159081786D01*
X183429884Y-158730563D01*
X183269187Y-158395163D01*
X183072105Y-158079766D01*
X182841094Y-157788304D01*
X182579034Y-157524408D01*
X182289191Y-157291367D01*
X181975177Y-157092088D01*
X181640907Y-156929054D01*
X181290547Y-156804296D01*
X180928464Y-156719370D01*
X180559170Y-156675334D01*
X180187269Y-156672738D01*
X179817397Y-156711614D01*
X179454164Y-156791476D01*
X179102096Y-156911329D01*
X178765582Y-157069680D01*
X178448817Y-157264556D01*
X178155748Y-157493527D01*
X177890029Y-157753738D01*
X177654972Y-158041947D01*
X177453505Y-158354562D01*
X177288141Y-158687686D01*
X177160940Y-159037166D01*
X177126000Y-159181590D01*
X177126000Y-105771101D01*
X177128833Y-105767202D01*
X177259306Y-105474158D01*
X177325999Y-105160389D01*
X177325999Y-104839611D01*
X177259306Y-104525842D01*
X177128833Y-104232798D01*
X177126000Y-104228899D01*
X177126000Y-98126000D01*
X190374000Y-98126000D01*
X190374000Y-220004791D01*
G37*
X190374000Y-220004791D02*
X190386746Y-220172166D01*
X190443482Y-220391291D01*
X190543875Y-220595957D01*
X190683412Y-220776225D01*
X190856381Y-220924712D01*
X191055699Y-221035344D01*
X191273207Y-221103587D01*
X191493610Y-221126000D01*
X200874000Y-221126000D01*
X200874000Y-227668000D01*
X200712000Y-227668000D01*
X200712000Y-226040022D01*
X200345292Y-226135200D01*
X200115671Y-226238637D01*
X199906760Y-226379284D01*
X199724534Y-226553119D01*
X199574203Y-226755172D01*
X199567564Y-226768230D01*
X199503390Y-226662474D01*
X199338331Y-226472261D01*
X199143584Y-226312578D01*
X198924716Y-226187991D01*
X198685169Y-226101040D01*
X198428000Y-226066953D01*
X198428000Y-227668000D01*
X196810513Y-227668000D01*
X196873456Y-227967983D01*
X196965961Y-228202222D01*
X197096610Y-228417526D01*
X197261669Y-228607739D01*
X197302078Y-228640873D01*
X197098099Y-228758640D01*
X197000000Y-228846969D01*
X196901901Y-228758640D01*
X196624099Y-228598251D01*
X196319021Y-228499126D01*
X196000000Y-228465595D01*
X195680979Y-228499126D01*
X195375901Y-228598251D01*
X195098099Y-228758640D01*
X195000000Y-228846969D01*
X194901901Y-228758640D01*
X194624099Y-228598251D01*
X194319021Y-228499126D01*
X194000000Y-228465595D01*
X193680979Y-228499126D01*
X193375901Y-228598251D01*
X193098099Y-228758640D01*
X193000000Y-228846969D01*
X192901901Y-228758640D01*
X192624099Y-228598251D01*
X192319021Y-228499126D01*
X192000000Y-228465595D01*
X191680979Y-228499126D01*
X191375901Y-228598251D01*
X191098099Y-228758640D01*
X191000000Y-228846969D01*
X190901901Y-228758640D01*
X190624099Y-228598251D01*
X190319021Y-228499126D01*
X190000000Y-228465595D01*
X189680979Y-228499126D01*
X189375901Y-228598251D01*
X189098099Y-228758640D01*
X189000000Y-228846969D01*
X188901901Y-228758640D01*
X188624099Y-228598251D01*
X188319021Y-228499126D01*
X188000000Y-228465595D01*
X187680979Y-228499126D01*
X187375901Y-228598251D01*
X187098099Y-228758640D01*
X187000000Y-228846969D01*
X186901901Y-228758640D01*
X186624099Y-228598251D01*
X186319021Y-228499126D01*
X186000000Y-228465595D01*
X185680979Y-228499126D01*
X185375901Y-228598251D01*
X185098099Y-228758640D01*
X185000000Y-228846969D01*
X184901901Y-228758640D01*
X184624099Y-228598251D01*
X184319021Y-228499126D01*
X184000000Y-228465595D01*
X183680979Y-228499126D01*
X183375901Y-228598251D01*
X183098099Y-228758640D01*
X183000000Y-228846969D01*
X182901901Y-228758640D01*
X182624099Y-228598251D01*
X182319021Y-228499126D01*
X182000000Y-228465595D01*
X181680979Y-228499126D01*
X181375901Y-228598251D01*
X181098099Y-228758640D01*
X181000000Y-228846969D01*
X180901901Y-228758640D01*
X180624099Y-228598251D01*
X180319021Y-228499126D01*
X180000000Y-228465595D01*
X179680979Y-228499126D01*
X179375901Y-228598251D01*
X179098099Y-228758640D01*
X179000000Y-228846969D01*
X178901901Y-228758640D01*
X178624099Y-228598251D01*
X178319021Y-228499126D01*
X178000000Y-228465595D01*
X177680979Y-228499126D01*
X177375901Y-228598251D01*
X177126000Y-228742531D01*
X177126000Y-227412000D01*
X196819957Y-227412000D01*
X198172000Y-227412000D01*
X198172000Y-226040022D01*
X197805292Y-226135200D01*
X197575671Y-226238637D01*
X197366760Y-226379284D01*
X197184534Y-226553119D01*
X197034203Y-226755172D01*
X196920064Y-226979666D01*
X196845382Y-227220181D01*
X196819957Y-227412000D01*
X177126000Y-227412000D01*
X177126000Y-209039580D01*
X177140285Y-209026718D01*
X177328833Y-208767202D01*
X177459306Y-208474158D01*
X177525999Y-208160389D01*
X177525999Y-207839611D01*
X177459306Y-207525842D01*
X177328833Y-207232798D01*
X177140285Y-206973282D01*
X177126000Y-206960420D01*
X177126000Y-160829661D01*
X177135300Y-160873414D01*
X177252692Y-161226311D01*
X177408691Y-161563922D01*
X177601350Y-161882040D01*
X177828269Y-162176700D01*
X178086619Y-162444229D01*
X178373180Y-162681293D01*
X178684381Y-162884938D01*
X179016342Y-163052623D01*
X179364926Y-163182260D01*
X179725788Y-163272233D01*
X180094430Y-163321421D01*
X180466258Y-163329210D01*
X180836637Y-163295502D01*
X181200950Y-163220720D01*
X181554658Y-163105793D01*
X181893349Y-162952156D01*
X182212805Y-162761722D01*
X182509043Y-162536866D01*
X182778368Y-162280390D01*
X183017428Y-161995491D01*
X183223239Y-161685719D01*
X183393239Y-161354937D01*
X183525306Y-161007266D01*
X183617795Y-160647041D01*
X183669678Y-160277877D01*
X183676143Y-159814923D01*
X183634589Y-159444453D01*
X183552192Y-159081786D01*
X183429884Y-158730563D01*
X183269187Y-158395163D01*
X183072105Y-158079766D01*
X182841094Y-157788304D01*
X182579034Y-157524408D01*
X182289191Y-157291367D01*
X181975177Y-157092088D01*
X181640907Y-156929054D01*
X181290547Y-156804296D01*
X180928464Y-156719370D01*
X180559170Y-156675334D01*
X180187269Y-156672738D01*
X179817397Y-156711614D01*
X179454164Y-156791476D01*
X179102096Y-156911329D01*
X178765582Y-157069680D01*
X178448817Y-157264556D01*
X178155748Y-157493527D01*
X177890029Y-157753738D01*
X177654972Y-158041947D01*
X177453505Y-158354562D01*
X177288141Y-158687686D01*
X177160940Y-159037166D01*
X177126000Y-159181590D01*
X177126000Y-105771101D01*
X177128833Y-105767202D01*
X177259306Y-105474158D01*
X177325999Y-105160389D01*
X177325999Y-104839611D01*
X177259306Y-104525842D01*
X177128833Y-104232798D01*
X177126000Y-104228899D01*
X177126000Y-98126000D01*
X190374000Y-98126000D01*
X190374000Y-220004791D01*
G36*
X199874000Y-130970303D02*
G01*
X199869546Y-131055289D01*
X199882534Y-131141164D01*
X199891311Y-131227581D01*
X199899606Y-131254050D01*
X199903752Y-131281468D01*
X199933749Y-131362996D01*
X199959718Y-131445864D01*
X199973162Y-131470118D01*
X199982740Y-131496151D01*
X200028514Y-131569977D01*
X200070619Y-131645938D01*
X200088671Y-131666998D01*
X200103282Y-131690565D01*
X200162962Y-131753676D01*
X200219485Y-131819622D01*
X200241399Y-131836619D01*
X200260455Y-131856771D01*
X200331610Y-131906595D01*
X200400234Y-131959824D01*
X200425114Y-131972067D01*
X200447838Y-131987978D01*
X200527542Y-132022470D01*
X200605484Y-132060821D01*
X200632325Y-132067813D01*
X200660845Y-132080154D01*
X200707333Y-132087350D01*
X200826849Y-132118482D01*
X200950186Y-132124946D01*
X200956997Y-132126000D01*
X200970302Y-132126000D01*
X201055288Y-132130454D01*
X201084738Y-132126000D01*
X219874001Y-132126000D01*
X219874000Y-230874000D01*
X202126000Y-230874000D01*
X202126000Y-229072735D01*
X202135830Y-229081918D01*
X202371447Y-229245371D01*
X202628192Y-229373099D01*
X202903684Y-229463410D01*
X203331996Y-229516000D01*
X203452759Y-229516000D01*
X203666010Y-229500527D01*
X203946028Y-229438705D01*
X204214190Y-229337107D01*
X204464875Y-229197864D01*
X204649288Y-229057124D01*
X204675830Y-229081918D01*
X204911447Y-229245371D01*
X205168192Y-229373099D01*
X205443684Y-229463410D01*
X205871996Y-229516000D01*
X205992759Y-229516000D01*
X206206010Y-229500527D01*
X206486028Y-229438705D01*
X206754190Y-229337107D01*
X207004875Y-229197864D01*
X207189288Y-229057124D01*
X207215830Y-229081918D01*
X207451447Y-229245371D01*
X207708192Y-229373099D01*
X207983684Y-229463410D01*
X208411996Y-229516000D01*
X208532759Y-229516000D01*
X208746010Y-229500527D01*
X209026028Y-229438705D01*
X209294190Y-229337107D01*
X209544875Y-229197864D01*
X209772836Y-229023891D01*
X209973293Y-228818831D01*
X210142050Y-228586984D01*
X210275570Y-228333204D01*
X210371058Y-228062806D01*
X210426511Y-227781457D01*
X210440770Y-227495050D01*
X210413533Y-227209585D01*
X210345374Y-226931040D01*
X210237720Y-226665254D01*
X210092824Y-226417791D01*
X209913724Y-226193837D01*
X209704170Y-225998083D01*
X209468553Y-225834629D01*
X209211808Y-225706901D01*
X208936316Y-225616590D01*
X208508004Y-225564000D01*
X208387241Y-225564000D01*
X208173990Y-225579473D01*
X207893972Y-225641295D01*
X207625810Y-225742893D01*
X207375125Y-225882136D01*
X207190712Y-226022876D01*
X207164170Y-225998082D01*
X206928553Y-225834629D01*
X206671808Y-225706901D01*
X206396316Y-225616590D01*
X205968004Y-225564000D01*
X205847241Y-225564000D01*
X205633990Y-225579473D01*
X205353972Y-225641295D01*
X205085810Y-225742893D01*
X204835125Y-225882136D01*
X204650712Y-226022876D01*
X204624170Y-225998082D01*
X204388553Y-225834629D01*
X204131808Y-225706901D01*
X203856316Y-225616590D01*
X203428004Y-225564000D01*
X203307241Y-225564000D01*
X203093990Y-225579473D01*
X202813972Y-225641295D01*
X202545810Y-225742893D01*
X202295125Y-225882136D01*
X202126000Y-226011208D01*
X202126000Y-219874000D01*
X191626000Y-219874000D01*
X191626000Y-90126000D01*
X199874001Y-90126000D01*
X199874000Y-130970303D01*
G37*
X199874000Y-130970303D02*
X199869546Y-131055289D01*
X199882534Y-131141164D01*
X199891311Y-131227581D01*
X199899606Y-131254050D01*
X199903752Y-131281468D01*
X199933749Y-131362996D01*
X199959718Y-131445864D01*
X199973162Y-131470118D01*
X199982740Y-131496151D01*
X200028514Y-131569977D01*
X200070619Y-131645938D01*
X200088671Y-131666998D01*
X200103282Y-131690565D01*
X200162962Y-131753676D01*
X200219485Y-131819622D01*
X200241399Y-131836619D01*
X200260455Y-131856771D01*
X200331610Y-131906595D01*
X200400234Y-131959824D01*
X200425114Y-131972067D01*
X200447838Y-131987978D01*
X200527542Y-132022470D01*
X200605484Y-132060821D01*
X200632325Y-132067813D01*
X200660845Y-132080154D01*
X200707333Y-132087350D01*
X200826849Y-132118482D01*
X200950186Y-132124946D01*
X200956997Y-132126000D01*
X200970302Y-132126000D01*
X201055288Y-132130454D01*
X201084738Y-132126000D01*
X219874001Y-132126000D01*
X219874000Y-230874000D01*
X202126000Y-230874000D01*
X202126000Y-229072735D01*
X202135830Y-229081918D01*
X202371447Y-229245371D01*
X202628192Y-229373099D01*
X202903684Y-229463410D01*
X203331996Y-229516000D01*
X203452759Y-229516000D01*
X203666010Y-229500527D01*
X203946028Y-229438705D01*
X204214190Y-229337107D01*
X204464875Y-229197864D01*
X204649288Y-229057124D01*
X204675830Y-229081918D01*
X204911447Y-229245371D01*
X205168192Y-229373099D01*
X205443684Y-229463410D01*
X205871996Y-229516000D01*
X205992759Y-229516000D01*
X206206010Y-229500527D01*
X206486028Y-229438705D01*
X206754190Y-229337107D01*
X207004875Y-229197864D01*
X207189288Y-229057124D01*
X207215830Y-229081918D01*
X207451447Y-229245371D01*
X207708192Y-229373099D01*
X207983684Y-229463410D01*
X208411996Y-229516000D01*
X208532759Y-229516000D01*
X208746010Y-229500527D01*
X209026028Y-229438705D01*
X209294190Y-229337107D01*
X209544875Y-229197864D01*
X209772836Y-229023891D01*
X209973293Y-228818831D01*
X210142050Y-228586984D01*
X210275570Y-228333204D01*
X210371058Y-228062806D01*
X210426511Y-227781457D01*
X210440770Y-227495050D01*
X210413533Y-227209585D01*
X210345374Y-226931040D01*
X210237720Y-226665254D01*
X210092824Y-226417791D01*
X209913724Y-226193837D01*
X209704170Y-225998083D01*
X209468553Y-225834629D01*
X209211808Y-225706901D01*
X208936316Y-225616590D01*
X208508004Y-225564000D01*
X208387241Y-225564000D01*
X208173990Y-225579473D01*
X207893972Y-225641295D01*
X207625810Y-225742893D01*
X207375125Y-225882136D01*
X207190712Y-226022876D01*
X207164170Y-225998082D01*
X206928553Y-225834629D01*
X206671808Y-225706901D01*
X206396316Y-225616590D01*
X205968004Y-225564000D01*
X205847241Y-225564000D01*
X205633990Y-225579473D01*
X205353972Y-225641295D01*
X205085810Y-225742893D01*
X204835125Y-225882136D01*
X204650712Y-226022876D01*
X204624170Y-225998082D01*
X204388553Y-225834629D01*
X204131808Y-225706901D01*
X203856316Y-225616590D01*
X203428004Y-225564000D01*
X203307241Y-225564000D01*
X203093990Y-225579473D01*
X202813972Y-225641295D01*
X202545810Y-225742893D01*
X202295125Y-225882136D01*
X202126000Y-226011208D01*
X202126000Y-219874000D01*
X191626000Y-219874000D01*
X191626000Y-90126000D01*
X199874001Y-90126000D01*
X199874000Y-130970303D01*
G36*
X175874000Y-230874000D02*
G01*
X149126920Y-230874000D01*
X149200205Y-230794443D01*
X149399848Y-230517122D01*
X149564730Y-230217823D01*
X149692460Y-229900884D01*
X149781189Y-229570896D01*
X149829724Y-229231982D01*
X149834260Y-228832277D01*
X149793425Y-228492349D01*
X149712205Y-228160432D01*
X149591699Y-227840677D01*
X149433650Y-227537715D01*
X149240350Y-227255935D01*
X149092772Y-227088248D01*
X147000000Y-229181020D01*
X146818980Y-229000000D01*
X148911541Y-226907439D01*
X148759663Y-226771881D01*
X148479240Y-226576617D01*
X148177388Y-226416458D01*
X147858482Y-226293722D01*
X147527140Y-226210188D01*
X147188164Y-226167065D01*
X146846461Y-226164977D01*
X146506982Y-226203956D01*
X146174645Y-226283437D01*
X145854263Y-226402267D01*
X145550478Y-226558727D01*
X145267689Y-226750549D01*
X145126000Y-226873935D01*
X145126000Y-190029697D01*
X145130454Y-189944711D01*
X145117466Y-189858836D01*
X145108689Y-189772419D01*
X145100394Y-189745952D01*
X145096247Y-189718531D01*
X145066253Y-189637010D01*
X145040282Y-189554136D01*
X145026838Y-189529880D01*
X145017259Y-189503848D01*
X144971486Y-189430024D01*
X144929381Y-189354062D01*
X144911329Y-189333002D01*
X144896718Y-189309435D01*
X144837038Y-189246324D01*
X144780515Y-189180378D01*
X144758601Y-189163381D01*
X144739545Y-189143229D01*
X144668390Y-189093405D01*
X144599764Y-189040174D01*
X144574882Y-189027931D01*
X144552164Y-189012023D01*
X144472453Y-188977529D01*
X144394514Y-188939178D01*
X144367674Y-188932187D01*
X144339157Y-188919847D01*
X144292661Y-188912648D01*
X144173149Y-188881518D01*
X144049814Y-188875054D01*
X144043003Y-188874000D01*
X144029697Y-188874000D01*
X143944711Y-188869546D01*
X143915261Y-188874000D01*
X136641837Y-188874000D01*
X136641837Y-187128000D01*
X133858163Y-187128000D01*
X133858163Y-188874000D01*
X128141837Y-188874000D01*
X128141837Y-187128000D01*
X125358163Y-187128000D01*
X125358163Y-188874000D01*
X123126000Y-188874000D01*
X123126000Y-184448976D01*
X125358163Y-184448976D01*
X125358163Y-186872000D01*
X126622000Y-186872000D01*
X126622000Y-183818163D01*
X126878000Y-183818163D01*
X126878000Y-186872000D01*
X128141837Y-186872000D01*
X128141837Y-184448976D01*
X133858163Y-184448976D01*
X133858163Y-186872000D01*
X135122000Y-186872000D01*
X135122000Y-183818163D01*
X135378000Y-183818163D01*
X135378000Y-186872000D01*
X136641837Y-186872000D01*
X136641837Y-184443412D01*
X136561205Y-184142489D01*
X136413815Y-183966835D01*
X136220186Y-183855044D01*
X136011024Y-183818163D01*
X135378000Y-183818163D01*
X135122000Y-183818163D01*
X134483412Y-183818163D01*
X134182489Y-183898795D01*
X134006835Y-184046185D01*
X133895044Y-184239814D01*
X133858163Y-184448976D01*
X128141837Y-184448976D01*
X128141837Y-184443412D01*
X128061205Y-184142489D01*
X127913815Y-183966835D01*
X127720186Y-183855044D01*
X127511024Y-183818163D01*
X126878000Y-183818163D01*
X126622000Y-183818163D01*
X125983412Y-183818163D01*
X125682489Y-183898795D01*
X125506835Y-184046185D01*
X125395044Y-184239814D01*
X125358163Y-184448976D01*
X123126000Y-184448976D01*
X123126000Y-171839611D01*
X148974001Y-171839611D01*
X148974001Y-172160389D01*
X149040694Y-172474158D01*
X149052200Y-172500000D01*
X149040694Y-172525842D01*
X148974001Y-172839611D01*
X148974001Y-173160389D01*
X149040694Y-173474158D01*
X149171167Y-173767202D01*
X149359715Y-174026718D01*
X149598099Y-174241360D01*
X149875901Y-174401749D01*
X150180979Y-174500874D01*
X150500000Y-174534405D01*
X150819021Y-174500874D01*
X151124099Y-174401749D01*
X151401901Y-174241360D01*
X151640285Y-174026718D01*
X151655504Y-174005771D01*
X151914099Y-173921749D01*
X152191901Y-173761360D01*
X152430285Y-173546718D01*
X152618833Y-173287202D01*
X152749306Y-172994158D01*
X152815999Y-172680389D01*
X152815999Y-172359611D01*
X152749306Y-172045842D01*
X152618833Y-171752798D01*
X152430285Y-171493282D01*
X152191901Y-171278640D01*
X151914099Y-171118251D01*
X151693545Y-171046589D01*
X151640285Y-170973282D01*
X151401901Y-170758640D01*
X151124099Y-170598251D01*
X150819021Y-170499126D01*
X150500000Y-170465595D01*
X150180979Y-170499126D01*
X149875901Y-170598251D01*
X149598099Y-170758640D01*
X149359715Y-170973282D01*
X149171167Y-171232798D01*
X149040694Y-171525842D01*
X148974001Y-171839611D01*
X123126000Y-171839611D01*
X123126000Y-144592431D01*
X124588589Y-144592431D01*
X124717102Y-144709571D01*
X124995465Y-144907759D01*
X125295623Y-145071071D01*
X125613225Y-145197140D01*
X125943674Y-145284140D01*
X126282181Y-145330810D01*
X126623843Y-145336476D01*
X126963711Y-145301054D01*
X127296862Y-145225058D01*
X127618471Y-145109588D01*
X127923878Y-144956319D01*
X128208659Y-144767468D01*
X128412586Y-144593606D01*
X126500000Y-142681019D01*
X124588589Y-144592431D01*
X123126000Y-144592431D01*
X123126000Y-142638693D01*
X123664212Y-142638693D01*
X123701413Y-142978371D01*
X123779152Y-143311120D01*
X123896304Y-143632119D01*
X124051170Y-143936720D01*
X124241509Y-144220509D01*
X124406726Y-144412254D01*
X126318981Y-142500000D01*
X126681019Y-142500000D01*
X128592449Y-144411429D01*
X128700207Y-144294442D01*
X128899848Y-144017122D01*
X129064730Y-143717823D01*
X129192460Y-143400884D01*
X129281189Y-143070896D01*
X129329724Y-142731982D01*
X129334260Y-142332277D01*
X129293425Y-141992349D01*
X129212205Y-141660432D01*
X129091699Y-141340677D01*
X128933650Y-141037715D01*
X128740350Y-140755935D01*
X128592772Y-140588248D01*
X126681019Y-142500000D01*
X126318981Y-142500000D01*
X124407531Y-140588551D01*
X124281125Y-140728695D01*
X124084396Y-141008092D01*
X123922658Y-141309101D01*
X123798254Y-141627360D01*
X123712986Y-141958259D01*
X123668088Y-142297006D01*
X123664212Y-142638693D01*
X123126000Y-142638693D01*
X123126000Y-140407005D01*
X124588025Y-140407005D01*
X126500000Y-142318981D01*
X128411541Y-140407439D01*
X128259663Y-140271881D01*
X127979240Y-140076617D01*
X127677388Y-139916458D01*
X127358482Y-139793722D01*
X127027140Y-139710188D01*
X126688164Y-139667065D01*
X126346461Y-139664977D01*
X126006982Y-139703956D01*
X125674645Y-139783437D01*
X125354263Y-139902267D01*
X125050478Y-140058727D01*
X124767689Y-140250549D01*
X124588025Y-140407005D01*
X123126000Y-140407005D01*
X123126000Y-112839611D01*
X147194001Y-112839611D01*
X147194001Y-113160389D01*
X147260694Y-113474158D01*
X147391167Y-113767202D01*
X147579715Y-114026718D01*
X147818099Y-114241360D01*
X148095901Y-114401749D01*
X148322385Y-114475338D01*
X148359715Y-114526718D01*
X148598099Y-114741360D01*
X148875901Y-114901749D01*
X149180979Y-115000874D01*
X149500000Y-115034405D01*
X149819021Y-115000874D01*
X150124099Y-114901749D01*
X150401901Y-114741360D01*
X150640285Y-114526718D01*
X150828833Y-114267202D01*
X150959306Y-113974158D01*
X151025999Y-113660389D01*
X151025999Y-113339611D01*
X150959306Y-113025842D01*
X150947800Y-113000000D01*
X150959306Y-112974158D01*
X151025999Y-112660389D01*
X151025999Y-112339611D01*
X150959306Y-112025842D01*
X150828833Y-111732798D01*
X150640285Y-111473282D01*
X150401901Y-111258640D01*
X150124099Y-111098251D01*
X149819021Y-110999126D01*
X149500000Y-110965595D01*
X149180979Y-110999126D01*
X148875901Y-111098251D01*
X148598099Y-111258640D01*
X148359715Y-111473282D01*
X148322385Y-111524662D01*
X148095901Y-111598251D01*
X147818099Y-111758640D01*
X147579715Y-111973282D01*
X147391167Y-112232798D01*
X147260694Y-112525842D01*
X147194001Y-112839611D01*
X123126000Y-112839611D01*
X123126000Y-95092431D01*
X124088589Y-95092431D01*
X124217102Y-95209571D01*
X124495465Y-95407759D01*
X124795623Y-95571071D01*
X125113225Y-95697140D01*
X125443674Y-95784140D01*
X125782181Y-95830810D01*
X126123843Y-95836476D01*
X126463711Y-95801054D01*
X126796862Y-95725058D01*
X127118471Y-95609588D01*
X127423878Y-95456319D01*
X127708659Y-95267468D01*
X127912586Y-95093606D01*
X126000000Y-93181019D01*
X124088589Y-95092431D01*
X123126000Y-95092431D01*
X123126000Y-93138693D01*
X123164212Y-93138693D01*
X123201413Y-93478371D01*
X123279152Y-93811120D01*
X123396304Y-94132119D01*
X123551170Y-94436720D01*
X123741509Y-94720509D01*
X123906726Y-94912254D01*
X125818981Y-93000000D01*
X126181019Y-93000000D01*
X128092449Y-94911429D01*
X128200207Y-94794442D01*
X128399848Y-94517122D01*
X128564730Y-94217823D01*
X128692460Y-93900884D01*
X128781189Y-93570896D01*
X128829724Y-93231982D01*
X128834260Y-92832277D01*
X128793425Y-92492349D01*
X128712205Y-92160432D01*
X128591699Y-91840677D01*
X128433650Y-91537715D01*
X128240350Y-91255935D01*
X128092772Y-91088248D01*
X126181019Y-93000000D01*
X125818981Y-93000000D01*
X123907531Y-91088551D01*
X123781125Y-91228695D01*
X123584396Y-91508092D01*
X123422658Y-91809101D01*
X123298254Y-92127360D01*
X123212986Y-92458259D01*
X123168088Y-92797006D01*
X123164212Y-93138693D01*
X123126000Y-93138693D01*
X123126000Y-90907005D01*
X124088025Y-90907005D01*
X126000000Y-92818981D01*
X127911541Y-90907439D01*
X127759663Y-90771881D01*
X127479240Y-90576617D01*
X127177388Y-90416458D01*
X126858482Y-90293722D01*
X126527140Y-90210188D01*
X126188164Y-90167065D01*
X125846461Y-90164977D01*
X125506982Y-90203956D01*
X125174645Y-90283437D01*
X124854263Y-90402267D01*
X124550478Y-90558727D01*
X124267689Y-90750549D01*
X124088025Y-90907005D01*
X123126000Y-90907005D01*
X123126000Y-90126000D01*
X175874000Y-90126000D01*
X175874000Y-230874000D01*
G37*
X175874000Y-230874000D02*
X149126920Y-230874000D01*
X149200205Y-230794443D01*
X149399848Y-230517122D01*
X149564730Y-230217823D01*
X149692460Y-229900884D01*
X149781189Y-229570896D01*
X149829724Y-229231982D01*
X149834260Y-228832277D01*
X149793425Y-228492349D01*
X149712205Y-228160432D01*
X149591699Y-227840677D01*
X149433650Y-227537715D01*
X149240350Y-227255935D01*
X149092772Y-227088248D01*
X147000000Y-229181020D01*
X146818980Y-229000000D01*
X148911541Y-226907439D01*
X148759663Y-226771881D01*
X148479240Y-226576617D01*
X148177388Y-226416458D01*
X147858482Y-226293722D01*
X147527140Y-226210188D01*
X147188164Y-226167065D01*
X146846461Y-226164977D01*
X146506982Y-226203956D01*
X146174645Y-226283437D01*
X145854263Y-226402267D01*
X145550478Y-226558727D01*
X145267689Y-226750549D01*
X145126000Y-226873935D01*
X145126000Y-190029697D01*
X145130454Y-189944711D01*
X145117466Y-189858836D01*
X145108689Y-189772419D01*
X145100394Y-189745952D01*
X145096247Y-189718531D01*
X145066253Y-189637010D01*
X145040282Y-189554136D01*
X145026838Y-189529880D01*
X145017259Y-189503848D01*
X144971486Y-189430024D01*
X144929381Y-189354062D01*
X144911329Y-189333002D01*
X144896718Y-189309435D01*
X144837038Y-189246324D01*
X144780515Y-189180378D01*
X144758601Y-189163381D01*
X144739545Y-189143229D01*
X144668390Y-189093405D01*
X144599764Y-189040174D01*
X144574882Y-189027931D01*
X144552164Y-189012023D01*
X144472453Y-188977529D01*
X144394514Y-188939178D01*
X144367674Y-188932187D01*
X144339157Y-188919847D01*
X144292661Y-188912648D01*
X144173149Y-188881518D01*
X144049814Y-188875054D01*
X144043003Y-188874000D01*
X144029697Y-188874000D01*
X143944711Y-188869546D01*
X143915261Y-188874000D01*
X136641837Y-188874000D01*
X136641837Y-187128000D01*
X133858163Y-187128000D01*
X133858163Y-188874000D01*
X128141837Y-188874000D01*
X128141837Y-187128000D01*
X125358163Y-187128000D01*
X125358163Y-188874000D01*
X123126000Y-188874000D01*
X123126000Y-184448976D01*
X125358163Y-184448976D01*
X125358163Y-186872000D01*
X126622000Y-186872000D01*
X126622000Y-183818163D01*
X126878000Y-183818163D01*
X126878000Y-186872000D01*
X128141837Y-186872000D01*
X128141837Y-184448976D01*
X133858163Y-184448976D01*
X133858163Y-186872000D01*
X135122000Y-186872000D01*
X135122000Y-183818163D01*
X135378000Y-183818163D01*
X135378000Y-186872000D01*
X136641837Y-186872000D01*
X136641837Y-184443412D01*
X136561205Y-184142489D01*
X136413815Y-183966835D01*
X136220186Y-183855044D01*
X136011024Y-183818163D01*
X135378000Y-183818163D01*
X135122000Y-183818163D01*
X134483412Y-183818163D01*
X134182489Y-183898795D01*
X134006835Y-184046185D01*
X133895044Y-184239814D01*
X133858163Y-184448976D01*
X128141837Y-184448976D01*
X128141837Y-184443412D01*
X128061205Y-184142489D01*
X127913815Y-183966835D01*
X127720186Y-183855044D01*
X127511024Y-183818163D01*
X126878000Y-183818163D01*
X126622000Y-183818163D01*
X125983412Y-183818163D01*
X125682489Y-183898795D01*
X125506835Y-184046185D01*
X125395044Y-184239814D01*
X125358163Y-184448976D01*
X123126000Y-184448976D01*
X123126000Y-171839611D01*
X148974001Y-171839611D01*
X148974001Y-172160389D01*
X149040694Y-172474158D01*
X149052200Y-172500000D01*
X149040694Y-172525842D01*
X148974001Y-172839611D01*
X148974001Y-173160389D01*
X149040694Y-173474158D01*
X149171167Y-173767202D01*
X149359715Y-174026718D01*
X149598099Y-174241360D01*
X149875901Y-174401749D01*
X150180979Y-174500874D01*
X150500000Y-174534405D01*
X150819021Y-174500874D01*
X151124099Y-174401749D01*
X151401901Y-174241360D01*
X151640285Y-174026718D01*
X151655504Y-174005771D01*
X151914099Y-173921749D01*
X152191901Y-173761360D01*
X152430285Y-173546718D01*
X152618833Y-173287202D01*
X152749306Y-172994158D01*
X152815999Y-172680389D01*
X152815999Y-172359611D01*
X152749306Y-172045842D01*
X152618833Y-171752798D01*
X152430285Y-171493282D01*
X152191901Y-171278640D01*
X151914099Y-171118251D01*
X151693545Y-171046589D01*
X151640285Y-170973282D01*
X151401901Y-170758640D01*
X151124099Y-170598251D01*
X150819021Y-170499126D01*
X150500000Y-170465595D01*
X150180979Y-170499126D01*
X149875901Y-170598251D01*
X149598099Y-170758640D01*
X149359715Y-170973282D01*
X149171167Y-171232798D01*
X149040694Y-171525842D01*
X148974001Y-171839611D01*
X123126000Y-171839611D01*
X123126000Y-144592431D01*
X124588589Y-144592431D01*
X124717102Y-144709571D01*
X124995465Y-144907759D01*
X125295623Y-145071071D01*
X125613225Y-145197140D01*
X125943674Y-145284140D01*
X126282181Y-145330810D01*
X126623843Y-145336476D01*
X126963711Y-145301054D01*
X127296862Y-145225058D01*
X127618471Y-145109588D01*
X127923878Y-144956319D01*
X128208659Y-144767468D01*
X128412586Y-144593606D01*
X126500000Y-142681019D01*
X124588589Y-144592431D01*
X123126000Y-144592431D01*
X123126000Y-142638693D01*
X123664212Y-142638693D01*
X123701413Y-142978371D01*
X123779152Y-143311120D01*
X123896304Y-143632119D01*
X124051170Y-143936720D01*
X124241509Y-144220509D01*
X124406726Y-144412254D01*
X126318981Y-142500000D01*
X126681019Y-142500000D01*
X128592449Y-144411429D01*
X128700207Y-144294442D01*
X128899848Y-144017122D01*
X129064730Y-143717823D01*
X129192460Y-143400884D01*
X129281189Y-143070896D01*
X129329724Y-142731982D01*
X129334260Y-142332277D01*
X129293425Y-141992349D01*
X129212205Y-141660432D01*
X129091699Y-141340677D01*
X128933650Y-141037715D01*
X128740350Y-140755935D01*
X128592772Y-140588248D01*
X126681019Y-142500000D01*
X126318981Y-142500000D01*
X124407531Y-140588551D01*
X124281125Y-140728695D01*
X124084396Y-141008092D01*
X123922658Y-141309101D01*
X123798254Y-141627360D01*
X123712986Y-141958259D01*
X123668088Y-142297006D01*
X123664212Y-142638693D01*
X123126000Y-142638693D01*
X123126000Y-140407005D01*
X124588025Y-140407005D01*
X126500000Y-142318981D01*
X128411541Y-140407439D01*
X128259663Y-140271881D01*
X127979240Y-140076617D01*
X127677388Y-139916458D01*
X127358482Y-139793722D01*
X127027140Y-139710188D01*
X126688164Y-139667065D01*
X126346461Y-139664977D01*
X126006982Y-139703956D01*
X125674645Y-139783437D01*
X125354263Y-139902267D01*
X125050478Y-140058727D01*
X124767689Y-140250549D01*
X124588025Y-140407005D01*
X123126000Y-140407005D01*
X123126000Y-112839611D01*
X147194001Y-112839611D01*
X147194001Y-113160389D01*
X147260694Y-113474158D01*
X147391167Y-113767202D01*
X147579715Y-114026718D01*
X147818099Y-114241360D01*
X148095901Y-114401749D01*
X148322385Y-114475338D01*
X148359715Y-114526718D01*
X148598099Y-114741360D01*
X148875901Y-114901749D01*
X149180979Y-115000874D01*
X149500000Y-115034405D01*
X149819021Y-115000874D01*
X150124099Y-114901749D01*
X150401901Y-114741360D01*
X150640285Y-114526718D01*
X150828833Y-114267202D01*
X150959306Y-113974158D01*
X151025999Y-113660389D01*
X151025999Y-113339611D01*
X150959306Y-113025842D01*
X150947800Y-113000000D01*
X150959306Y-112974158D01*
X151025999Y-112660389D01*
X151025999Y-112339611D01*
X150959306Y-112025842D01*
X150828833Y-111732798D01*
X150640285Y-111473282D01*
X150401901Y-111258640D01*
X150124099Y-111098251D01*
X149819021Y-110999126D01*
X149500000Y-110965595D01*
X149180979Y-110999126D01*
X148875901Y-111098251D01*
X148598099Y-111258640D01*
X148359715Y-111473282D01*
X148322385Y-111524662D01*
X148095901Y-111598251D01*
X147818099Y-111758640D01*
X147579715Y-111973282D01*
X147391167Y-112232798D01*
X147260694Y-112525842D01*
X147194001Y-112839611D01*
X123126000Y-112839611D01*
X123126000Y-95092431D01*
X124088589Y-95092431D01*
X124217102Y-95209571D01*
X124495465Y-95407759D01*
X124795623Y-95571071D01*
X125113225Y-95697140D01*
X125443674Y-95784140D01*
X125782181Y-95830810D01*
X126123843Y-95836476D01*
X126463711Y-95801054D01*
X126796862Y-95725058D01*
X127118471Y-95609588D01*
X127423878Y-95456319D01*
X127708659Y-95267468D01*
X127912586Y-95093606D01*
X126000000Y-93181019D01*
X124088589Y-95092431D01*
X123126000Y-95092431D01*
X123126000Y-93138693D01*
X123164212Y-93138693D01*
X123201413Y-93478371D01*
X123279152Y-93811120D01*
X123396304Y-94132119D01*
X123551170Y-94436720D01*
X123741509Y-94720509D01*
X123906726Y-94912254D01*
X125818981Y-93000000D01*
X126181019Y-93000000D01*
X128092449Y-94911429D01*
X128200207Y-94794442D01*
X128399848Y-94517122D01*
X128564730Y-94217823D01*
X128692460Y-93900884D01*
X128781189Y-93570896D01*
X128829724Y-93231982D01*
X128834260Y-92832277D01*
X128793425Y-92492349D01*
X128712205Y-92160432D01*
X128591699Y-91840677D01*
X128433650Y-91537715D01*
X128240350Y-91255935D01*
X128092772Y-91088248D01*
X126181019Y-93000000D01*
X125818981Y-93000000D01*
X123907531Y-91088551D01*
X123781125Y-91228695D01*
X123584396Y-91508092D01*
X123422658Y-91809101D01*
X123298254Y-92127360D01*
X123212986Y-92458259D01*
X123168088Y-92797006D01*
X123164212Y-93138693D01*
X123126000Y-93138693D01*
X123126000Y-90907005D01*
X124088025Y-90907005D01*
X126000000Y-92818981D01*
X127911541Y-90907439D01*
X127759663Y-90771881D01*
X127479240Y-90576617D01*
X127177388Y-90416458D01*
X126858482Y-90293722D01*
X126527140Y-90210188D01*
X126188164Y-90167065D01*
X125846461Y-90164977D01*
X125506982Y-90203956D01*
X125174645Y-90283437D01*
X124854263Y-90402267D01*
X124550478Y-90558727D01*
X124267689Y-90750549D01*
X124088025Y-90907005D01*
X123126000Y-90907005D01*
X123126000Y-90126000D01*
X175874000Y-90126000D01*
X175874000Y-230874000D01*
M02*
