G04 #@! TF.GenerationSoftware,KiCad,Pcbnew,(5.99.0-221-ga18d3cc)*
G04 #@! TF.CreationDate,2019-11-20T11:00:33-07:00*
G04 #@! TF.ProjectId,gva-pha202amp,6776612d-7068-4613-9230-32616d702e6b,rev?*
G04 #@! TF.SameCoordinates,Original*
G04 #@! TF.FileFunction,Copper,L2,Inr*
G04 #@! TF.FilePolarity,Positive*
%FSLAX46Y46*%
G04 Gerber Fmt 4.6, Leading zero omitted, Abs format (unit mm)*
G04 Created by KiCad (PCBNEW (5.99.0-221-ga18d3cc)) date 2019-11-20 11:00:33*
%MOMM*%
%LPD*%
G04 APERTURE LIST*
%ADD10C,0.700000*%
%ADD11C,4.400000*%
%ADD12O,1.700000X1.700000*%
%ADD13R,1.700000X1.700000*%
%ADD14C,0.800000*%
%ADD15C,0.254000*%
G04 APERTURE END LIST*
D10*
X181516726Y-158833274D03*
X180350000Y-158350000D03*
X179183274Y-158833274D03*
X178700000Y-160000000D03*
X179183274Y-161166726D03*
X180350000Y-161650000D03*
X181516726Y-161166726D03*
X182000000Y-160000000D03*
D11*
X180350000Y-160000000D03*
D10*
X148166726Y-227833274D03*
X147000000Y-227350000D03*
X145833274Y-227833274D03*
X145350000Y-229000000D03*
X145833274Y-230166726D03*
X147000000Y-230650000D03*
X148166726Y-230166726D03*
X148650000Y-229000000D03*
D11*
X147000000Y-229000000D03*
D10*
X199166726Y-90833274D03*
X198000000Y-90350000D03*
X196833274Y-90833274D03*
X196350000Y-92000000D03*
X196833274Y-93166726D03*
X198000000Y-93650000D03*
X199166726Y-93166726D03*
X199650000Y-92000000D03*
D11*
X198000000Y-92000000D03*
D10*
X218166726Y-168833274D03*
X217000000Y-168350000D03*
X215833274Y-168833274D03*
X215350000Y-170000000D03*
X215833274Y-171166726D03*
X217000000Y-171650000D03*
X218166726Y-171166726D03*
X218650000Y-170000000D03*
D11*
X217000000Y-170000000D03*
D10*
X218166726Y-216833274D03*
X217000000Y-216350000D03*
X215833274Y-216833274D03*
X215350000Y-218000000D03*
X215833274Y-219166726D03*
X217000000Y-219650000D03*
X218166726Y-219166726D03*
X218650000Y-218000000D03*
D11*
X217000000Y-218000000D03*
D10*
X127666726Y-141333274D03*
X126500000Y-140850000D03*
X125333274Y-141333274D03*
X124850000Y-142500000D03*
X125333274Y-143666726D03*
X126500000Y-144150000D03*
X127666726Y-143666726D03*
X128150000Y-142500000D03*
D11*
X126500000Y-142500000D03*
D10*
X127166726Y-91833274D03*
X126000000Y-91350000D03*
X124833274Y-91833274D03*
X124350000Y-93000000D03*
X124833274Y-94166726D03*
X126000000Y-94650000D03*
X127166726Y-94166726D03*
X127650000Y-93000000D03*
D11*
X126000000Y-93000000D03*
D12*
X198300000Y-227540000D03*
X200840000Y-227540000D03*
X203380000Y-227540000D03*
X205920000Y-227540000D03*
X208460000Y-227540000D03*
X211000000Y-227540000D03*
D13*
X213540000Y-227540000D03*
D14*
X180500000Y-206500000D03*
X180500000Y-175500000D03*
X180500000Y-174500000D03*
X180500000Y-173500000D03*
X180500000Y-172500000D03*
X179500000Y-172500000D03*
X178500000Y-172500000D03*
X180500000Y-106500000D03*
X180500000Y-105500000D03*
X180500000Y-104500000D03*
X180500000Y-103500000D03*
X179500000Y-103500000D03*
X178500000Y-103500000D03*
X180500000Y-140500000D03*
X180500000Y-139500000D03*
X180500000Y-138500000D03*
X180500000Y-137500000D03*
X179500000Y-137500000D03*
X178500000Y-137500000D03*
X180500000Y-209500000D03*
X180500000Y-208500000D03*
X180500000Y-207500000D03*
X179500000Y-206500000D03*
X178500000Y-206500000D03*
X148720000Y-113000000D03*
X151290000Y-172520000D03*
X150500000Y-172000000D03*
X150500000Y-173000000D03*
X149500000Y-113500000D03*
X149500000Y-112500000D03*
X175800000Y-105000000D03*
X215000000Y-215000000D03*
X214000000Y-216000000D03*
X213000000Y-217000000D03*
X212000000Y-218000000D03*
X212000000Y-220000000D03*
X213000000Y-221000000D03*
X214000000Y-222000000D03*
X150000000Y-184000000D03*
X217000000Y-163000000D03*
X216000000Y-164000000D03*
X198000000Y-131000000D03*
X198000000Y-133000000D03*
X198000000Y-135000000D03*
X198000000Y-137000000D03*
X199000000Y-138000000D03*
X218000000Y-140000000D03*
X218000000Y-142000000D03*
X218000000Y-144000000D03*
X218000000Y-146000000D03*
X218000000Y-148000000D03*
X218000000Y-150000000D03*
X218000000Y-152000000D03*
X218000000Y-154000000D03*
X218000000Y-156000000D03*
X218000000Y-158000000D03*
X218000000Y-160000000D03*
X218000000Y-162000000D03*
X215000000Y-165000000D03*
X215000000Y-167000000D03*
X215000000Y-173000000D03*
X215000000Y-175000000D03*
X215000000Y-177000000D03*
X215000000Y-179000000D03*
X215000000Y-181000000D03*
X215000000Y-183000000D03*
X215000000Y-185000000D03*
X215000000Y-187000000D03*
X215000000Y-189000000D03*
X215000000Y-191000000D03*
X215000000Y-193000000D03*
X215000000Y-195000000D03*
X215000000Y-197000000D03*
X215000000Y-199000000D03*
X215000000Y-201000000D03*
X215000000Y-203000000D03*
X215000000Y-205000000D03*
X215000000Y-207000000D03*
X215000000Y-209000000D03*
X215000000Y-211000000D03*
X215000000Y-213000000D03*
X215000000Y-223000000D03*
X216000000Y-224000000D03*
X216000000Y-226000000D03*
X216000000Y-228000000D03*
X216000000Y-230000000D03*
X214000000Y-230000000D03*
X212000000Y-230000000D03*
X210000000Y-230000000D03*
X208000000Y-230000000D03*
X206000000Y-230000000D03*
X204000000Y-230000000D03*
X202000000Y-230000000D03*
X200000000Y-230000000D03*
X198000000Y-230000000D03*
X196000000Y-230000000D03*
X194000000Y-230000000D03*
X192000000Y-230000000D03*
X190000000Y-230000000D03*
X188000000Y-230000000D03*
X186000000Y-230000000D03*
X184000000Y-230000000D03*
X182000000Y-230000000D03*
X180000000Y-230000000D03*
X178000000Y-230000000D03*
X176000000Y-230000000D03*
X174000000Y-230000000D03*
X172000000Y-230000000D03*
X170000000Y-230000000D03*
X168000000Y-230000000D03*
X166000000Y-230000000D03*
X164000000Y-230000000D03*
X162000000Y-230000000D03*
X160000000Y-230000000D03*
X158000000Y-230000000D03*
X156000000Y-230000000D03*
X155000000Y-229000000D03*
X154000000Y-228000000D03*
X153000000Y-227000000D03*
X152000000Y-226000000D03*
X151000000Y-225000000D03*
X150000000Y-224000000D03*
X150000000Y-222000000D03*
X150000000Y-220000000D03*
X150000000Y-218000000D03*
X150000000Y-216000000D03*
X150000000Y-214000000D03*
X150000000Y-212000000D03*
X150000000Y-210000000D03*
X150000000Y-208000000D03*
X150000000Y-206000000D03*
X150000000Y-204000000D03*
X150000000Y-202000000D03*
X150000000Y-200000000D03*
X150000000Y-198000000D03*
X150000000Y-196000000D03*
X150000000Y-194000000D03*
X150000000Y-192000000D03*
X150000000Y-190000000D03*
X150000000Y-188000000D03*
X150000000Y-186000000D03*
X148000000Y-184000000D03*
X146000000Y-184000000D03*
X144000000Y-184000000D03*
X142000000Y-184000000D03*
X140000000Y-184000000D03*
X138000000Y-184000000D03*
X137000000Y-185000000D03*
X137000000Y-187000000D03*
X137000000Y-189000000D03*
X125000000Y-189000000D03*
X125000000Y-187000000D03*
X125000000Y-185000000D03*
X125000000Y-183000000D03*
X125000000Y-181000000D03*
X125000000Y-179000000D03*
X125000000Y-177000000D03*
X125000000Y-175000000D03*
X125000000Y-173000000D03*
X125000000Y-171000000D03*
X125000000Y-169000000D03*
X125000000Y-167000000D03*
X125000000Y-165000000D03*
X125000000Y-165000000D03*
X125000000Y-163000000D03*
X125000000Y-161000000D03*
X125000000Y-159000000D03*
X125000000Y-157000000D03*
X125000000Y-155000000D03*
X125000000Y-153000000D03*
X125000000Y-151000000D03*
X125000000Y-149000000D03*
X126000000Y-148000000D03*
X127000000Y-147000000D03*
X128000000Y-146000000D03*
X129000000Y-145000000D03*
X129000000Y-140000000D03*
X129000000Y-138000000D03*
X129000000Y-136000000D03*
X129000000Y-134000000D03*
X129000000Y-132000000D03*
X129000000Y-130000000D03*
X129000000Y-128000000D03*
X129000000Y-126000000D03*
X129000000Y-124000000D03*
X129000000Y-122000000D03*
X129000000Y-120000000D03*
X129000000Y-118000000D03*
X129000000Y-116000000D03*
X129000000Y-114000000D03*
X129000000Y-112000000D03*
X129000000Y-110000000D03*
X129000000Y-108000000D03*
X129000000Y-106000000D03*
X129000000Y-104000000D03*
X129000000Y-102000000D03*
X129000000Y-100000000D03*
X129000000Y-98000000D03*
X129000000Y-96000000D03*
X130000000Y-95000000D03*
X131000000Y-94000000D03*
X132000000Y-93000000D03*
X133000000Y-92000000D03*
X134000000Y-91000000D03*
X135000000Y-90000000D03*
X137000000Y-90000000D03*
X139000000Y-90000000D03*
X141000000Y-90000000D03*
X143000000Y-90000000D03*
X145000000Y-90000000D03*
X147000000Y-90000000D03*
X149000000Y-90000000D03*
X151000000Y-90000000D03*
X153000000Y-90000000D03*
X155000000Y-90000000D03*
X157000000Y-90000000D03*
X159000000Y-90000000D03*
X161000000Y-90000000D03*
X163000000Y-90000000D03*
X165000000Y-90000000D03*
X167000000Y-90000000D03*
X169000000Y-90000000D03*
X171000000Y-90000000D03*
X173000000Y-90000000D03*
X175000000Y-90000000D03*
X177000000Y-90000000D03*
X179000000Y-90000000D03*
X181000000Y-90000000D03*
X183000000Y-90000000D03*
X185000000Y-90000000D03*
X187000000Y-90000000D03*
X189000000Y-90000000D03*
X191000000Y-90000000D03*
X193000000Y-90000000D03*
X195000000Y-91000000D03*
X198000000Y-95000000D03*
X198000000Y-97000000D03*
X198000000Y-99000000D03*
X198000000Y-101000000D03*
X198000000Y-103000000D03*
X198000000Y-105000000D03*
X198000000Y-107000000D03*
X198000000Y-109000000D03*
X198000000Y-111000000D03*
X198000000Y-113000000D03*
X198000000Y-115000000D03*
X198000000Y-117000000D03*
X198000000Y-119000000D03*
X198000000Y-121000000D03*
X198000000Y-123000000D03*
X198000000Y-125000000D03*
X198000000Y-127000000D03*
X198000000Y-129000000D03*
X200000000Y-139000000D03*
X202000000Y-139000000D03*
X204000000Y-139000000D03*
X206000000Y-139000000D03*
X146500000Y-113000000D03*
X152500000Y-174000000D03*
X210000000Y-132500000D03*
X210000000Y-133500000D03*
X210000000Y-134500000D03*
X210000000Y-135500000D03*
X210000000Y-136500000D03*
X216000000Y-132500000D03*
X216000000Y-133500000D03*
X216000000Y-134500000D03*
X216000000Y-135500000D03*
X216000000Y-136500000D03*
X218000000Y-137500000D03*
X217000000Y-137500000D03*
X216000000Y-137500000D03*
X216000000Y-138500000D03*
X217000000Y-138500000D03*
X218000000Y-138500000D03*
X219000000Y-138500000D03*
X219000000Y-137500000D03*
X219000000Y-136500000D03*
X219000000Y-135500000D03*
X219000000Y-134500000D03*
X219000000Y-133500000D03*
X219000000Y-132500000D03*
X210000000Y-138500000D03*
X209000000Y-138500000D03*
X208000000Y-138500000D03*
X207000000Y-138500000D03*
X210000000Y-137500000D03*
X209000000Y-137500000D03*
X208000000Y-137500000D03*
X207000000Y-137500000D03*
X207000000Y-136500000D03*
X207000000Y-135500000D03*
X207000000Y-134500000D03*
X207000000Y-133500000D03*
X207000000Y-132500000D03*
X210500000Y-196500000D03*
X133000000Y-126500000D03*
X155500000Y-144000000D03*
X154500000Y-144000000D03*
X153500000Y-144000000D03*
X153500000Y-143000000D03*
X153500000Y-142000000D03*
X153500000Y-141000000D03*
X154500000Y-141000000D03*
X155500000Y-141000000D03*
X155500000Y-213000000D03*
X154500000Y-213000000D03*
X153500000Y-213000000D03*
X153500000Y-212000000D03*
X153500000Y-211000000D03*
X153500000Y-210000000D03*
X154500000Y-210000000D03*
X155500000Y-210000000D03*
X195000000Y-179000000D03*
X196000000Y-179000000D03*
X197000000Y-179000000D03*
X197000000Y-178000000D03*
X197000000Y-177000000D03*
X197000000Y-176000000D03*
X196000000Y-176000000D03*
X195000000Y-176000000D03*
X195000000Y-110000000D03*
X196000000Y-110000000D03*
X197000000Y-110000000D03*
X197000000Y-109000000D03*
X197000000Y-108000000D03*
X197000000Y-107000000D03*
X196000000Y-107000000D03*
X195000000Y-107000000D03*
X210500000Y-192500000D03*
X211500000Y-192500000D03*
X212500000Y-192500000D03*
X212500000Y-193500000D03*
X212500000Y-194500000D03*
X212500000Y-195500000D03*
X212500000Y-196500000D03*
X211500000Y-196500000D03*
X135000000Y-127500000D03*
X134000000Y-127500000D03*
X133000000Y-127500000D03*
X133000000Y-125500000D03*
X133000000Y-124500000D03*
X134000000Y-124500000D03*
X135000000Y-124500000D03*
X176000000Y-208000000D03*
X175400000Y-139100000D03*
X175500000Y-174000000D03*
X172500000Y-150000000D03*
X173500000Y-150000000D03*
X174500000Y-150000000D03*
X174000000Y-149000000D03*
X173000000Y-149000000D03*
X174500000Y-148000000D03*
X173500000Y-148000000D03*
X172500000Y-148000000D03*
X172500000Y-138000000D03*
X173500000Y-138000000D03*
X174500000Y-138000000D03*
X174000000Y-139000000D03*
X173000000Y-139000000D03*
X172500000Y-140000000D03*
X173500000Y-140000000D03*
X174500000Y-140000000D03*
X174000000Y-141000000D03*
X173000000Y-141000000D03*
X173000000Y-147000000D03*
X174000000Y-147000000D03*
X174500000Y-146000000D03*
X172500000Y-146000000D03*
X173500000Y-146000000D03*
X174500000Y-112000000D03*
X174500000Y-114000000D03*
X173500000Y-112000000D03*
X173500000Y-114000000D03*
X174000000Y-113000000D03*
X173000000Y-113000000D03*
X154000000Y-169500000D03*
X154000000Y-165500000D03*
X154000000Y-167500000D03*
X153500000Y-168500000D03*
X153500000Y-166500000D03*
X146000000Y-118000000D03*
X149000000Y-116000000D03*
X146000000Y-116000000D03*
X146000000Y-120000000D03*
X149000000Y-120000000D03*
X151000000Y-165500000D03*
X153000000Y-169500000D03*
X151000000Y-169500000D03*
X152000000Y-169500000D03*
X153000000Y-165500000D03*
X152000000Y-165500000D03*
X152500000Y-168500000D03*
X153000000Y-167500000D03*
X151500000Y-166500000D03*
X151500000Y-168500000D03*
X151000000Y-167500000D03*
X152000000Y-167500000D03*
X152500000Y-166500000D03*
X148000000Y-120000000D03*
X147000000Y-120000000D03*
X146500000Y-119000000D03*
X146500000Y-117000000D03*
X147000000Y-116000000D03*
X148000000Y-116000000D03*
X174500000Y-106000000D03*
X173500000Y-106000000D03*
X172500000Y-106000000D03*
X173000000Y-105000000D03*
X174000000Y-105000000D03*
X174500000Y-104000000D03*
X172500000Y-104000000D03*
X173500000Y-104000000D03*
X173000000Y-103000000D03*
X174000000Y-103000000D03*
X172500000Y-102000000D03*
X174500000Y-102000000D03*
X173500000Y-102000000D03*
X172500000Y-108000000D03*
X173500000Y-108000000D03*
X147000000Y-118000000D03*
X147500000Y-119000000D03*
X149000000Y-118000000D03*
X147500000Y-117000000D03*
X148500000Y-117000000D03*
X148000000Y-118000000D03*
X148500000Y-119000000D03*
X172500000Y-112000000D03*
X172500000Y-114000000D03*
X173000000Y-107000000D03*
X174000000Y-107000000D03*
X172500000Y-110000000D03*
X174500000Y-108000000D03*
X174500000Y-110000000D03*
X173000000Y-109000000D03*
X173000000Y-111000000D03*
X174000000Y-111000000D03*
X173500000Y-110000000D03*
X174000000Y-109000000D03*
X173000000Y-145000000D03*
X174500000Y-144000000D03*
X174000000Y-145000000D03*
X173500000Y-142000000D03*
X172500000Y-142000000D03*
X174500000Y-142000000D03*
X174000000Y-143000000D03*
X172500000Y-144000000D03*
X173500000Y-144000000D03*
X173000000Y-143000000D03*
X172500000Y-180000000D03*
X172500000Y-184000000D03*
X172500000Y-182000000D03*
X172500000Y-172000000D03*
X174000000Y-173000000D03*
X173000000Y-173000000D03*
X173000000Y-175000000D03*
X173500000Y-174000000D03*
X173000000Y-177000000D03*
X174000000Y-177000000D03*
X173500000Y-178000000D03*
X173000000Y-179000000D03*
X174000000Y-179000000D03*
X174500000Y-174000000D03*
X172500000Y-178000000D03*
X173500000Y-172000000D03*
X172500000Y-176000000D03*
X174500000Y-176000000D03*
X174000000Y-175000000D03*
X174500000Y-178000000D03*
X173500000Y-176000000D03*
X174500000Y-172000000D03*
X172500000Y-174000000D03*
X174000000Y-181000000D03*
X174500000Y-180000000D03*
X174000000Y-183000000D03*
X173000000Y-183000000D03*
X173000000Y-181000000D03*
X173500000Y-180000000D03*
X174500000Y-182000000D03*
X173500000Y-184000000D03*
X173500000Y-182000000D03*
X174500000Y-184000000D03*
X174000000Y-216000000D03*
X172500000Y-207000000D03*
X172500000Y-219000000D03*
X174000000Y-218000000D03*
X174500000Y-211000000D03*
X174500000Y-219000000D03*
X174000000Y-212000000D03*
X173000000Y-210000000D03*
X173000000Y-212000000D03*
X174000000Y-210000000D03*
X174500000Y-213000000D03*
X174500000Y-209000000D03*
X174000000Y-208000000D03*
X172500000Y-215000000D03*
X173500000Y-217000000D03*
X172500000Y-211000000D03*
X173500000Y-213000000D03*
X173500000Y-219000000D03*
X173000000Y-208000000D03*
X173500000Y-209000000D03*
X173000000Y-214000000D03*
X172500000Y-213000000D03*
X173500000Y-207000000D03*
X174500000Y-207000000D03*
X172500000Y-209000000D03*
X172500000Y-217000000D03*
X173500000Y-211000000D03*
X173000000Y-218000000D03*
X174500000Y-217000000D03*
X173000000Y-216000000D03*
X173500000Y-215000000D03*
X174500000Y-215000000D03*
X174000000Y-214000000D03*
D15*
G36*
X196267689Y-89750549D02*
G01*
X196088025Y-89907005D01*
X198000000Y-91818981D01*
X199911541Y-89907439D01*
X199759663Y-89771881D01*
X199561649Y-89634000D01*
X200366001Y-89634000D01*
X200366001Y-90439101D01*
X200240350Y-90255935D01*
X200092772Y-90088248D01*
X198181019Y-92000000D01*
X200092449Y-93911429D01*
X200200207Y-93794442D01*
X200366001Y-93564139D01*
X200366000Y-130991461D01*
X200365417Y-131086927D01*
X200378493Y-131132678D01*
X200385237Y-131179769D01*
X200403318Y-131219538D01*
X200415322Y-131261539D01*
X200440706Y-131301771D01*
X200460402Y-131345089D01*
X200488920Y-131378184D01*
X200512227Y-131415126D01*
X200547889Y-131446621D01*
X200578946Y-131482664D01*
X200615601Y-131506422D01*
X200648346Y-131535342D01*
X200691416Y-131555564D01*
X200731338Y-131581439D01*
X200773183Y-131593953D01*
X200813088Y-131612689D01*
X200858546Y-131619483D01*
X200905327Y-131633473D01*
X200954168Y-131633772D01*
X200955694Y-131634000D01*
X200991461Y-131634000D01*
X201086926Y-131634583D01*
X201088966Y-131634000D01*
X220366001Y-131634000D01*
X220366000Y-231366000D01*
X148560076Y-231366000D01*
X148708659Y-231267468D01*
X148912586Y-231093606D01*
X147000000Y-229181019D01*
X145088589Y-231092431D01*
X145217102Y-231209571D01*
X145436813Y-231366000D01*
X144634000Y-231366000D01*
X144634000Y-230560217D01*
X144741509Y-230720509D01*
X144906726Y-230912254D01*
X146818981Y-229000000D01*
X147181019Y-229000000D01*
X149092449Y-230911429D01*
X149200207Y-230794442D01*
X149399848Y-230517122D01*
X149564730Y-230217823D01*
X149692460Y-229900884D01*
X149781189Y-229570896D01*
X149829724Y-229231982D01*
X149834260Y-228832277D01*
X149793425Y-228492349D01*
X149712205Y-228160432D01*
X149591699Y-227840677D01*
X149433650Y-227537715D01*
X149387089Y-227469841D01*
X196812292Y-227469841D01*
X196821740Y-227721508D01*
X196873456Y-227967983D01*
X196965961Y-228202222D01*
X197096610Y-228417526D01*
X197261669Y-228607739D01*
X197456416Y-228767422D01*
X197675284Y-228892009D01*
X197914831Y-228978960D01*
X198254648Y-229024000D01*
X198363190Y-229024000D01*
X198550942Y-229008069D01*
X198794708Y-228944800D01*
X199024329Y-228841363D01*
X199233240Y-228700716D01*
X199415466Y-228526881D01*
X199565797Y-228324828D01*
X199572436Y-228311770D01*
X199636610Y-228417526D01*
X199801669Y-228607739D01*
X199996416Y-228767422D01*
X200215284Y-228892009D01*
X200454831Y-228978960D01*
X200794648Y-229024000D01*
X200903190Y-229024000D01*
X201090942Y-229008069D01*
X201334708Y-228944800D01*
X201564329Y-228841363D01*
X201773240Y-228700716D01*
X201955466Y-228526881D01*
X202105797Y-228324828D01*
X202112436Y-228311770D01*
X202176610Y-228417526D01*
X202341669Y-228607739D01*
X202536416Y-228767422D01*
X202755284Y-228892009D01*
X202994831Y-228978960D01*
X203334648Y-229024000D01*
X203443190Y-229024000D01*
X203630942Y-229008069D01*
X203874708Y-228944800D01*
X204104329Y-228841363D01*
X204313240Y-228700716D01*
X204495466Y-228526881D01*
X204645797Y-228324828D01*
X204652436Y-228311770D01*
X204716610Y-228417526D01*
X204881669Y-228607739D01*
X205076416Y-228767422D01*
X205295284Y-228892009D01*
X205534831Y-228978960D01*
X205874648Y-229024000D01*
X205983190Y-229024000D01*
X206170942Y-229008069D01*
X206414708Y-228944800D01*
X206644329Y-228841363D01*
X206853240Y-228700716D01*
X207035466Y-228526881D01*
X207185797Y-228324828D01*
X207192436Y-228311770D01*
X207256610Y-228417526D01*
X207421669Y-228607739D01*
X207616416Y-228767422D01*
X207835284Y-228892009D01*
X208074831Y-228978960D01*
X208414648Y-229024000D01*
X208523190Y-229024000D01*
X208710942Y-229008069D01*
X208954708Y-228944800D01*
X209184329Y-228841363D01*
X209393240Y-228700716D01*
X209575466Y-228526881D01*
X209725797Y-228324828D01*
X209732436Y-228311770D01*
X209796610Y-228417526D01*
X209961669Y-228607739D01*
X210156416Y-228767422D01*
X210375284Y-228892009D01*
X210614831Y-228978960D01*
X210872000Y-229013047D01*
X210872000Y-226066953D01*
X211128000Y-226066953D01*
X211128000Y-229039978D01*
X211494708Y-228944800D01*
X211724329Y-228841363D01*
X211933240Y-228700716D01*
X212087535Y-228553526D01*
X212128795Y-228707512D01*
X212276185Y-228883165D01*
X212469814Y-228994956D01*
X212678976Y-229031837D01*
X213412000Y-229031837D01*
X213412000Y-227668000D01*
X213668000Y-227668000D01*
X213668000Y-229031837D01*
X214406588Y-229031837D01*
X214707512Y-228951205D01*
X214883165Y-228803815D01*
X214994956Y-228610186D01*
X215031837Y-228401024D01*
X215031837Y-227668000D01*
X213668000Y-227668000D01*
X213412000Y-227668000D01*
X213412000Y-226048163D01*
X213668000Y-226048163D01*
X213668000Y-227412000D01*
X215031837Y-227412000D01*
X215031837Y-226673412D01*
X214951205Y-226372489D01*
X214803815Y-226196835D01*
X214610186Y-226085044D01*
X214401024Y-226048163D01*
X213668000Y-226048163D01*
X213412000Y-226048163D01*
X212673412Y-226048163D01*
X212372489Y-226128795D01*
X212196835Y-226276185D01*
X212085044Y-226469814D01*
X212076796Y-226516588D01*
X212038331Y-226472261D01*
X211843584Y-226312578D01*
X211624716Y-226187991D01*
X211385169Y-226101040D01*
X211128000Y-226066953D01*
X210872000Y-226066953D01*
X210872000Y-226040022D01*
X210505292Y-226135200D01*
X210275671Y-226238637D01*
X210066760Y-226379284D01*
X209884534Y-226553119D01*
X209734203Y-226755172D01*
X209727564Y-226768230D01*
X209663390Y-226662474D01*
X209498331Y-226472261D01*
X209303584Y-226312578D01*
X209084716Y-226187991D01*
X208845169Y-226101040D01*
X208505352Y-226056000D01*
X208396810Y-226056000D01*
X208209058Y-226071931D01*
X207965292Y-226135200D01*
X207735671Y-226238637D01*
X207526760Y-226379284D01*
X207344534Y-226553119D01*
X207194203Y-226755172D01*
X207187564Y-226768230D01*
X207123390Y-226662474D01*
X206958331Y-226472261D01*
X206763584Y-226312578D01*
X206544716Y-226187991D01*
X206305169Y-226101040D01*
X205965352Y-226056000D01*
X205856810Y-226056000D01*
X205669058Y-226071931D01*
X205425292Y-226135200D01*
X205195671Y-226238637D01*
X204986760Y-226379284D01*
X204804534Y-226553119D01*
X204654203Y-226755172D01*
X204647564Y-226768230D01*
X204583390Y-226662474D01*
X204418331Y-226472261D01*
X204223584Y-226312578D01*
X204004716Y-226187991D01*
X203765169Y-226101040D01*
X203425352Y-226056000D01*
X203316810Y-226056000D01*
X203129058Y-226071931D01*
X202885292Y-226135200D01*
X202655671Y-226238637D01*
X202446760Y-226379284D01*
X202264534Y-226553119D01*
X202114203Y-226755172D01*
X202107564Y-226768230D01*
X202043390Y-226662474D01*
X201878331Y-226472261D01*
X201683584Y-226312578D01*
X201464716Y-226187991D01*
X201225169Y-226101040D01*
X200885352Y-226056000D01*
X200776810Y-226056000D01*
X200589058Y-226071931D01*
X200345292Y-226135200D01*
X200115671Y-226238637D01*
X199906760Y-226379284D01*
X199724534Y-226553119D01*
X199574203Y-226755172D01*
X199567564Y-226768230D01*
X199503390Y-226662474D01*
X199338331Y-226472261D01*
X199143584Y-226312578D01*
X198924716Y-226187991D01*
X198685169Y-226101040D01*
X198345352Y-226056000D01*
X198236810Y-226056000D01*
X198049058Y-226071931D01*
X197805292Y-226135200D01*
X197575671Y-226238637D01*
X197366760Y-226379284D01*
X197184534Y-226553119D01*
X197034203Y-226755172D01*
X196920064Y-226979666D01*
X196845382Y-227220181D01*
X196812292Y-227469841D01*
X149387089Y-227469841D01*
X149240350Y-227255935D01*
X149092772Y-227088248D01*
X147181019Y-229000000D01*
X146818981Y-229000000D01*
X144907531Y-227088551D01*
X144781125Y-227228695D01*
X144634000Y-227437644D01*
X144634000Y-226907005D01*
X145088025Y-226907005D01*
X147000000Y-228818981D01*
X148911541Y-226907439D01*
X148759663Y-226771881D01*
X148479240Y-226576617D01*
X148177388Y-226416458D01*
X147858482Y-226293722D01*
X147527140Y-226210188D01*
X147188164Y-226167065D01*
X146846461Y-226164977D01*
X146506982Y-226203956D01*
X146174645Y-226283437D01*
X145854263Y-226402267D01*
X145550478Y-226558727D01*
X145267689Y-226750549D01*
X145088025Y-226907005D01*
X144634000Y-226907005D01*
X144634000Y-220092431D01*
X215088589Y-220092431D01*
X215217102Y-220209571D01*
X215495465Y-220407759D01*
X215795623Y-220571071D01*
X216113225Y-220697140D01*
X216443674Y-220784140D01*
X216782181Y-220830810D01*
X217123843Y-220836476D01*
X217463711Y-220801054D01*
X217796862Y-220725058D01*
X218118471Y-220609588D01*
X218423878Y-220456319D01*
X218708659Y-220267468D01*
X218912586Y-220093606D01*
X217000000Y-218181019D01*
X215088589Y-220092431D01*
X144634000Y-220092431D01*
X144634000Y-218138693D01*
X214164212Y-218138693D01*
X214201413Y-218478371D01*
X214279152Y-218811120D01*
X214396304Y-219132119D01*
X214551170Y-219436720D01*
X214741509Y-219720509D01*
X214906726Y-219912254D01*
X216818981Y-218000000D01*
X217181019Y-218000000D01*
X219092449Y-219911429D01*
X219200207Y-219794442D01*
X219399848Y-219517122D01*
X219564730Y-219217823D01*
X219692460Y-218900884D01*
X219781189Y-218570896D01*
X219829724Y-218231982D01*
X219834260Y-217832277D01*
X219793425Y-217492349D01*
X219712205Y-217160432D01*
X219591699Y-216840677D01*
X219433650Y-216537715D01*
X219240350Y-216255935D01*
X219092772Y-216088248D01*
X217181019Y-218000000D01*
X216818981Y-218000000D01*
X214907531Y-216088551D01*
X214781125Y-216228695D01*
X214584396Y-216508092D01*
X214422658Y-216809101D01*
X214298254Y-217127360D01*
X214212986Y-217458259D01*
X214168088Y-217797006D01*
X214164212Y-218138693D01*
X144634000Y-218138693D01*
X144634000Y-215907005D01*
X215088025Y-215907005D01*
X217000000Y-217818981D01*
X218911541Y-215907439D01*
X218759663Y-215771881D01*
X218479240Y-215576617D01*
X218177388Y-215416458D01*
X217858482Y-215293722D01*
X217527140Y-215210188D01*
X217188164Y-215167065D01*
X216846461Y-215164977D01*
X216506982Y-215203956D01*
X216174645Y-215283437D01*
X215854263Y-215402267D01*
X215550478Y-215558727D01*
X215267689Y-215750549D01*
X215088025Y-215907005D01*
X144634000Y-215907005D01*
X144634000Y-206363872D01*
X177466000Y-206363872D01*
X177466000Y-206636128D01*
X177536466Y-206899109D01*
X177672594Y-207134891D01*
X177865109Y-207327406D01*
X178100891Y-207463534D01*
X178363872Y-207534000D01*
X178636128Y-207534000D01*
X178899109Y-207463534D01*
X179000000Y-207405285D01*
X179100891Y-207463534D01*
X179363872Y-207534000D01*
X179466000Y-207534000D01*
X179466000Y-207636128D01*
X179536466Y-207899109D01*
X179594715Y-208000000D01*
X179536466Y-208100891D01*
X179466000Y-208363872D01*
X179466000Y-208636128D01*
X179536466Y-208899109D01*
X179594715Y-209000000D01*
X179536466Y-209100891D01*
X179466000Y-209363872D01*
X179466000Y-209636128D01*
X179536466Y-209899109D01*
X179672594Y-210134891D01*
X179865109Y-210327406D01*
X180100891Y-210463534D01*
X180363872Y-210534000D01*
X180636128Y-210534000D01*
X180899109Y-210463534D01*
X181134891Y-210327406D01*
X181327406Y-210134891D01*
X181463534Y-209899109D01*
X181534000Y-209636128D01*
X181534000Y-209363872D01*
X181463534Y-209100891D01*
X181405285Y-209000000D01*
X181463534Y-208899109D01*
X181534000Y-208636128D01*
X181534000Y-208363872D01*
X181463534Y-208100891D01*
X181405285Y-208000000D01*
X181463534Y-207899109D01*
X181534000Y-207636128D01*
X181534000Y-207363872D01*
X181463534Y-207100891D01*
X181405285Y-207000000D01*
X181463534Y-206899109D01*
X181534000Y-206636128D01*
X181534000Y-206363872D01*
X181463534Y-206100891D01*
X181327406Y-205865109D01*
X181134891Y-205672594D01*
X180899109Y-205536466D01*
X180636128Y-205466000D01*
X180363872Y-205466000D01*
X180100891Y-205536466D01*
X180000000Y-205594715D01*
X179899109Y-205536466D01*
X179636128Y-205466000D01*
X179363872Y-205466000D01*
X179100891Y-205536466D01*
X179000000Y-205594715D01*
X178899109Y-205536466D01*
X178636128Y-205466000D01*
X178363872Y-205466000D01*
X178100891Y-205536466D01*
X177865109Y-205672594D01*
X177672594Y-205865109D01*
X177536466Y-206100891D01*
X177466000Y-206363872D01*
X144634000Y-206363872D01*
X144634000Y-190008539D01*
X144634583Y-189913073D01*
X144621509Y-189867328D01*
X144614764Y-189820232D01*
X144596684Y-189780467D01*
X144584677Y-189738460D01*
X144559294Y-189698229D01*
X144539598Y-189654911D01*
X144511080Y-189621816D01*
X144487773Y-189584874D01*
X144452111Y-189553378D01*
X144421053Y-189517335D01*
X144384399Y-189493578D01*
X144351654Y-189464658D01*
X144308578Y-189444434D01*
X144268661Y-189418561D01*
X144226818Y-189406048D01*
X144186911Y-189387311D01*
X144141455Y-189380518D01*
X144094672Y-189366527D01*
X144045832Y-189366228D01*
X144044306Y-189366000D01*
X144008538Y-189366000D01*
X143913073Y-189365417D01*
X143911033Y-189366000D01*
X122634000Y-189366000D01*
X122634000Y-171863872D01*
X149466000Y-171863872D01*
X149466000Y-172136128D01*
X149536466Y-172399109D01*
X149594715Y-172500000D01*
X149536466Y-172600891D01*
X149466000Y-172863872D01*
X149466000Y-173136128D01*
X149536466Y-173399109D01*
X149672594Y-173634891D01*
X149865109Y-173827406D01*
X150100891Y-173963534D01*
X150363872Y-174034000D01*
X150636128Y-174034000D01*
X150899109Y-173963534D01*
X151134891Y-173827406D01*
X151327406Y-173634891D01*
X151374108Y-173554000D01*
X151426128Y-173554000D01*
X151689109Y-173483534D01*
X151924891Y-173347406D01*
X152117406Y-173154891D01*
X152253534Y-172919109D01*
X152324000Y-172656128D01*
X152324000Y-172383872D01*
X152318641Y-172363872D01*
X177466000Y-172363872D01*
X177466000Y-172636128D01*
X177536466Y-172899109D01*
X177672594Y-173134891D01*
X177865109Y-173327406D01*
X178100891Y-173463534D01*
X178363872Y-173534000D01*
X178636128Y-173534000D01*
X178899109Y-173463534D01*
X179000000Y-173405285D01*
X179100891Y-173463534D01*
X179363872Y-173534000D01*
X179466000Y-173534000D01*
X179466000Y-173636128D01*
X179536466Y-173899109D01*
X179594715Y-174000000D01*
X179536466Y-174100891D01*
X179466000Y-174363872D01*
X179466000Y-174636128D01*
X179536466Y-174899109D01*
X179594715Y-175000000D01*
X179536466Y-175100891D01*
X179466000Y-175363872D01*
X179466000Y-175636128D01*
X179536466Y-175899109D01*
X179672594Y-176134891D01*
X179865109Y-176327406D01*
X180100891Y-176463534D01*
X180363872Y-176534000D01*
X180636128Y-176534000D01*
X180899109Y-176463534D01*
X181134891Y-176327406D01*
X181327406Y-176134891D01*
X181463534Y-175899109D01*
X181534000Y-175636128D01*
X181534000Y-175363872D01*
X181463534Y-175100891D01*
X181405285Y-175000000D01*
X181463534Y-174899109D01*
X181534000Y-174636128D01*
X181534000Y-174363872D01*
X181463534Y-174100891D01*
X181405285Y-174000000D01*
X181463534Y-173899109D01*
X181534000Y-173636128D01*
X181534000Y-173363872D01*
X181463534Y-173100891D01*
X181405285Y-173000000D01*
X181463534Y-172899109D01*
X181534000Y-172636128D01*
X181534000Y-172363872D01*
X181463534Y-172100891D01*
X181458650Y-172092431D01*
X215088589Y-172092431D01*
X215217102Y-172209571D01*
X215495465Y-172407759D01*
X215795623Y-172571071D01*
X216113225Y-172697140D01*
X216443674Y-172784140D01*
X216782181Y-172830810D01*
X217123843Y-172836476D01*
X217463711Y-172801054D01*
X217796862Y-172725058D01*
X218118471Y-172609588D01*
X218423878Y-172456319D01*
X218708659Y-172267468D01*
X218912586Y-172093606D01*
X217000000Y-170181019D01*
X215088589Y-172092431D01*
X181458650Y-172092431D01*
X181327406Y-171865109D01*
X181134891Y-171672594D01*
X180899109Y-171536466D01*
X180636128Y-171466000D01*
X180363872Y-171466000D01*
X180100891Y-171536466D01*
X180000000Y-171594715D01*
X179899109Y-171536466D01*
X179636128Y-171466000D01*
X179363872Y-171466000D01*
X179100891Y-171536466D01*
X179000000Y-171594715D01*
X178899109Y-171536466D01*
X178636128Y-171466000D01*
X178363872Y-171466000D01*
X178100891Y-171536466D01*
X177865109Y-171672594D01*
X177672594Y-171865109D01*
X177536466Y-172100891D01*
X177466000Y-172363872D01*
X152318641Y-172363872D01*
X152253534Y-172120891D01*
X152117406Y-171885109D01*
X151924891Y-171692594D01*
X151689109Y-171556466D01*
X151426128Y-171486000D01*
X151397202Y-171486000D01*
X151327406Y-171365109D01*
X151134891Y-171172594D01*
X150899109Y-171036466D01*
X150636128Y-170966000D01*
X150363872Y-170966000D01*
X150100891Y-171036466D01*
X149865109Y-171172594D01*
X149672594Y-171365109D01*
X149536466Y-171600891D01*
X149466000Y-171863872D01*
X122634000Y-171863872D01*
X122634000Y-170138693D01*
X214164212Y-170138693D01*
X214201413Y-170478371D01*
X214279152Y-170811120D01*
X214396304Y-171132119D01*
X214551170Y-171436720D01*
X214741509Y-171720509D01*
X214906726Y-171912254D01*
X216818981Y-170000000D01*
X217181019Y-170000000D01*
X219092449Y-171911429D01*
X219200207Y-171794442D01*
X219399848Y-171517122D01*
X219564730Y-171217823D01*
X219692460Y-170900884D01*
X219781189Y-170570896D01*
X219829724Y-170231982D01*
X219834260Y-169832277D01*
X219793425Y-169492349D01*
X219712205Y-169160432D01*
X219591699Y-168840677D01*
X219433650Y-168537715D01*
X219240350Y-168255935D01*
X219092772Y-168088248D01*
X217181019Y-170000000D01*
X216818981Y-170000000D01*
X214907531Y-168088551D01*
X214781125Y-168228695D01*
X214584396Y-168508092D01*
X214422658Y-168809101D01*
X214298254Y-169127360D01*
X214212986Y-169458259D01*
X214168088Y-169797006D01*
X214164212Y-170138693D01*
X122634000Y-170138693D01*
X122634000Y-167907005D01*
X215088025Y-167907005D01*
X217000000Y-169818981D01*
X218911541Y-167907439D01*
X218759663Y-167771881D01*
X218479240Y-167576617D01*
X218177388Y-167416458D01*
X217858482Y-167293722D01*
X217527140Y-167210188D01*
X217188164Y-167167065D01*
X216846461Y-167164977D01*
X216506982Y-167203956D01*
X216174645Y-167283437D01*
X215854263Y-167402267D01*
X215550478Y-167558727D01*
X215267689Y-167750549D01*
X215088025Y-167907005D01*
X122634000Y-167907005D01*
X122634000Y-162092431D01*
X178438589Y-162092431D01*
X178567102Y-162209571D01*
X178845465Y-162407759D01*
X179145623Y-162571071D01*
X179463225Y-162697140D01*
X179793674Y-162784140D01*
X180132181Y-162830810D01*
X180473843Y-162836476D01*
X180813711Y-162801054D01*
X181146862Y-162725058D01*
X181468471Y-162609588D01*
X181773878Y-162456319D01*
X182058659Y-162267468D01*
X182262586Y-162093606D01*
X180350000Y-160181019D01*
X178438589Y-162092431D01*
X122634000Y-162092431D01*
X122634000Y-160138693D01*
X177514212Y-160138693D01*
X177551413Y-160478371D01*
X177629152Y-160811120D01*
X177746304Y-161132119D01*
X177901170Y-161436720D01*
X178091509Y-161720509D01*
X178256726Y-161912254D01*
X180168981Y-160000000D01*
X180531019Y-160000000D01*
X182442449Y-161911429D01*
X182550207Y-161794442D01*
X182749848Y-161517122D01*
X182914730Y-161217823D01*
X183042460Y-160900884D01*
X183131189Y-160570896D01*
X183179724Y-160231982D01*
X183184260Y-159832277D01*
X183143425Y-159492349D01*
X183062205Y-159160432D01*
X182941699Y-158840677D01*
X182783650Y-158537715D01*
X182590350Y-158255935D01*
X182442772Y-158088248D01*
X180531019Y-160000000D01*
X180168981Y-160000000D01*
X178257531Y-158088551D01*
X178131125Y-158228695D01*
X177934396Y-158508092D01*
X177772658Y-158809101D01*
X177648254Y-159127360D01*
X177562986Y-159458259D01*
X177518088Y-159797006D01*
X177514212Y-160138693D01*
X122634000Y-160138693D01*
X122634000Y-157907005D01*
X178438025Y-157907005D01*
X180350000Y-159818981D01*
X182261541Y-157907439D01*
X182109663Y-157771881D01*
X181829240Y-157576617D01*
X181527388Y-157416458D01*
X181208482Y-157293722D01*
X180877140Y-157210188D01*
X180538164Y-157167065D01*
X180196461Y-157164977D01*
X179856982Y-157203956D01*
X179524645Y-157283437D01*
X179204263Y-157402267D01*
X178900478Y-157558727D01*
X178617689Y-157750549D01*
X178438025Y-157907005D01*
X122634000Y-157907005D01*
X122634000Y-144592431D01*
X124588589Y-144592431D01*
X124717102Y-144709571D01*
X124995465Y-144907759D01*
X125295623Y-145071071D01*
X125613225Y-145197140D01*
X125943674Y-145284140D01*
X126282181Y-145330810D01*
X126623843Y-145336476D01*
X126963711Y-145301054D01*
X127296862Y-145225058D01*
X127618471Y-145109588D01*
X127923878Y-144956319D01*
X128208659Y-144767468D01*
X128412586Y-144593606D01*
X126500000Y-142681019D01*
X124588589Y-144592431D01*
X122634000Y-144592431D01*
X122634000Y-142638693D01*
X123664212Y-142638693D01*
X123701413Y-142978371D01*
X123779152Y-143311120D01*
X123896304Y-143632119D01*
X124051170Y-143936720D01*
X124241509Y-144220509D01*
X124406726Y-144412254D01*
X126318981Y-142500000D01*
X126681019Y-142500000D01*
X128592449Y-144411429D01*
X128700207Y-144294442D01*
X128899848Y-144017122D01*
X129064730Y-143717823D01*
X129192460Y-143400884D01*
X129281189Y-143070896D01*
X129329724Y-142731982D01*
X129334260Y-142332277D01*
X129293425Y-141992349D01*
X129212205Y-141660432D01*
X129091699Y-141340677D01*
X128933650Y-141037715D01*
X128740350Y-140755935D01*
X128592772Y-140588248D01*
X126681019Y-142500000D01*
X126318981Y-142500000D01*
X124407531Y-140588551D01*
X124281125Y-140728695D01*
X124084396Y-141008092D01*
X123922658Y-141309101D01*
X123798254Y-141627360D01*
X123712986Y-141958259D01*
X123668088Y-142297006D01*
X123664212Y-142638693D01*
X122634000Y-142638693D01*
X122634000Y-140407005D01*
X124588025Y-140407005D01*
X126500000Y-142318981D01*
X128411541Y-140407439D01*
X128259663Y-140271881D01*
X127979240Y-140076617D01*
X127677388Y-139916458D01*
X127358482Y-139793722D01*
X127027140Y-139710188D01*
X126688164Y-139667065D01*
X126346461Y-139664977D01*
X126006982Y-139703956D01*
X125674645Y-139783437D01*
X125354263Y-139902267D01*
X125050478Y-140058727D01*
X124767689Y-140250549D01*
X124588025Y-140407005D01*
X122634000Y-140407005D01*
X122634000Y-137363872D01*
X177466000Y-137363872D01*
X177466000Y-137636128D01*
X177536466Y-137899109D01*
X177672594Y-138134891D01*
X177865109Y-138327406D01*
X178100891Y-138463534D01*
X178363872Y-138534000D01*
X178636128Y-138534000D01*
X178899109Y-138463534D01*
X179000000Y-138405285D01*
X179100891Y-138463534D01*
X179363872Y-138534000D01*
X179466000Y-138534000D01*
X179466000Y-138636128D01*
X179536466Y-138899109D01*
X179594715Y-139000000D01*
X179536466Y-139100891D01*
X179466000Y-139363872D01*
X179466000Y-139636128D01*
X179536466Y-139899109D01*
X179594715Y-140000000D01*
X179536466Y-140100891D01*
X179466000Y-140363872D01*
X179466000Y-140636128D01*
X179536466Y-140899109D01*
X179672594Y-141134891D01*
X179865109Y-141327406D01*
X180100891Y-141463534D01*
X180363872Y-141534000D01*
X180636128Y-141534000D01*
X180899109Y-141463534D01*
X181134891Y-141327406D01*
X181327406Y-141134891D01*
X181463534Y-140899109D01*
X181534000Y-140636128D01*
X181534000Y-140363872D01*
X181463534Y-140100891D01*
X181405285Y-140000000D01*
X181463534Y-139899109D01*
X181534000Y-139636128D01*
X181534000Y-139363872D01*
X181463534Y-139100891D01*
X181405285Y-139000000D01*
X181463534Y-138899109D01*
X181534000Y-138636128D01*
X181534000Y-138363872D01*
X181463534Y-138100891D01*
X181405285Y-138000000D01*
X181463534Y-137899109D01*
X181534000Y-137636128D01*
X181534000Y-137363872D01*
X181463534Y-137100891D01*
X181327406Y-136865109D01*
X181134891Y-136672594D01*
X180899109Y-136536466D01*
X180636128Y-136466000D01*
X180363872Y-136466000D01*
X180100891Y-136536466D01*
X180000000Y-136594715D01*
X179899109Y-136536466D01*
X179636128Y-136466000D01*
X179363872Y-136466000D01*
X179100891Y-136536466D01*
X179000000Y-136594715D01*
X178899109Y-136536466D01*
X178636128Y-136466000D01*
X178363872Y-136466000D01*
X178100891Y-136536466D01*
X177865109Y-136672594D01*
X177672594Y-136865109D01*
X177536466Y-137100891D01*
X177466000Y-137363872D01*
X122634000Y-137363872D01*
X122634000Y-112863872D01*
X147686000Y-112863872D01*
X147686000Y-113136128D01*
X147756466Y-113399109D01*
X147892594Y-113634891D01*
X148085109Y-113827406D01*
X148320891Y-113963534D01*
X148583872Y-114034000D01*
X148614345Y-114034000D01*
X148672594Y-114134891D01*
X148865109Y-114327406D01*
X149100891Y-114463534D01*
X149363872Y-114534000D01*
X149636128Y-114534000D01*
X149899109Y-114463534D01*
X150134891Y-114327406D01*
X150327406Y-114134891D01*
X150463534Y-113899109D01*
X150534000Y-113636128D01*
X150534000Y-113363872D01*
X150463534Y-113100891D01*
X150405285Y-113000000D01*
X150463534Y-112899109D01*
X150534000Y-112636128D01*
X150534000Y-112363872D01*
X150463534Y-112100891D01*
X150327406Y-111865109D01*
X150134891Y-111672594D01*
X149899109Y-111536466D01*
X149636128Y-111466000D01*
X149363872Y-111466000D01*
X149100891Y-111536466D01*
X148865109Y-111672594D01*
X148672594Y-111865109D01*
X148614345Y-111966000D01*
X148583872Y-111966000D01*
X148320891Y-112036466D01*
X148085109Y-112172594D01*
X147892594Y-112365109D01*
X147756466Y-112600891D01*
X147686000Y-112863872D01*
X122634000Y-112863872D01*
X122634000Y-103363872D01*
X177466000Y-103363872D01*
X177466000Y-103636128D01*
X177536466Y-103899109D01*
X177672594Y-104134891D01*
X177865109Y-104327406D01*
X178100891Y-104463534D01*
X178363872Y-104534000D01*
X178636128Y-104534000D01*
X178899109Y-104463534D01*
X179000000Y-104405285D01*
X179100891Y-104463534D01*
X179363872Y-104534000D01*
X179466000Y-104534000D01*
X179466000Y-104636128D01*
X179536466Y-104899109D01*
X179594715Y-105000000D01*
X179536466Y-105100891D01*
X179466000Y-105363872D01*
X179466000Y-105636128D01*
X179536466Y-105899109D01*
X179594715Y-106000000D01*
X179536466Y-106100891D01*
X179466000Y-106363872D01*
X179466000Y-106636128D01*
X179536466Y-106899109D01*
X179672594Y-107134891D01*
X179865109Y-107327406D01*
X180100891Y-107463534D01*
X180363872Y-107534000D01*
X180636128Y-107534000D01*
X180899109Y-107463534D01*
X181134891Y-107327406D01*
X181327406Y-107134891D01*
X181463534Y-106899109D01*
X181534000Y-106636128D01*
X181534000Y-106363872D01*
X181463534Y-106100891D01*
X181405285Y-106000000D01*
X181463534Y-105899109D01*
X181534000Y-105636128D01*
X181534000Y-105363872D01*
X181463534Y-105100891D01*
X181405285Y-105000000D01*
X181463534Y-104899109D01*
X181534000Y-104636128D01*
X181534000Y-104363872D01*
X181463534Y-104100891D01*
X181405285Y-104000000D01*
X181463534Y-103899109D01*
X181534000Y-103636128D01*
X181534000Y-103363872D01*
X181463534Y-103100891D01*
X181327406Y-102865109D01*
X181134891Y-102672594D01*
X180899109Y-102536466D01*
X180636128Y-102466000D01*
X180363872Y-102466000D01*
X180100891Y-102536466D01*
X180000000Y-102594715D01*
X179899109Y-102536466D01*
X179636128Y-102466000D01*
X179363872Y-102466000D01*
X179100891Y-102536466D01*
X179000000Y-102594715D01*
X178899109Y-102536466D01*
X178636128Y-102466000D01*
X178363872Y-102466000D01*
X178100891Y-102536466D01*
X177865109Y-102672594D01*
X177672594Y-102865109D01*
X177536466Y-103100891D01*
X177466000Y-103363872D01*
X122634000Y-103363872D01*
X122634000Y-95092431D01*
X124088589Y-95092431D01*
X124217102Y-95209571D01*
X124495465Y-95407759D01*
X124795623Y-95571071D01*
X125113225Y-95697140D01*
X125443674Y-95784140D01*
X125782181Y-95830810D01*
X126123843Y-95836476D01*
X126463711Y-95801054D01*
X126796862Y-95725058D01*
X127118471Y-95609588D01*
X127423878Y-95456319D01*
X127708659Y-95267468D01*
X127912586Y-95093606D01*
X126000000Y-93181019D01*
X124088589Y-95092431D01*
X122634000Y-95092431D01*
X122634000Y-93138693D01*
X123164212Y-93138693D01*
X123201413Y-93478371D01*
X123279152Y-93811120D01*
X123396304Y-94132119D01*
X123551170Y-94436720D01*
X123741509Y-94720509D01*
X123906726Y-94912254D01*
X125818981Y-93000000D01*
X126181019Y-93000000D01*
X128092449Y-94911429D01*
X128200207Y-94794442D01*
X128399848Y-94517122D01*
X128564730Y-94217823D01*
X128615264Y-94092431D01*
X196088589Y-94092431D01*
X196217102Y-94209571D01*
X196495465Y-94407759D01*
X196795623Y-94571071D01*
X197113225Y-94697140D01*
X197443674Y-94784140D01*
X197782181Y-94830810D01*
X198123843Y-94836476D01*
X198463711Y-94801054D01*
X198796862Y-94725058D01*
X199118471Y-94609588D01*
X199423878Y-94456319D01*
X199708659Y-94267468D01*
X199912586Y-94093606D01*
X198000000Y-92181019D01*
X196088589Y-94092431D01*
X128615264Y-94092431D01*
X128692460Y-93900884D01*
X128781189Y-93570896D01*
X128829724Y-93231982D01*
X128834260Y-92832277D01*
X128793425Y-92492349D01*
X128712205Y-92160432D01*
X128704013Y-92138693D01*
X195164212Y-92138693D01*
X195201413Y-92478371D01*
X195279152Y-92811120D01*
X195396304Y-93132119D01*
X195551170Y-93436720D01*
X195741509Y-93720509D01*
X195906726Y-93912254D01*
X197818981Y-92000000D01*
X195907531Y-90088551D01*
X195781125Y-90228695D01*
X195584396Y-90508092D01*
X195422658Y-90809101D01*
X195298254Y-91127360D01*
X195212986Y-91458259D01*
X195168088Y-91797006D01*
X195164212Y-92138693D01*
X128704013Y-92138693D01*
X128591699Y-91840677D01*
X128433650Y-91537715D01*
X128240350Y-91255935D01*
X128092772Y-91088248D01*
X126181019Y-93000000D01*
X125818981Y-93000000D01*
X123907531Y-91088551D01*
X123781125Y-91228695D01*
X123584396Y-91508092D01*
X123422658Y-91809101D01*
X123298254Y-92127360D01*
X123212986Y-92458259D01*
X123168088Y-92797006D01*
X123164212Y-93138693D01*
X122634000Y-93138693D01*
X122634000Y-90907005D01*
X124088025Y-90907005D01*
X126000000Y-92818981D01*
X127911541Y-90907439D01*
X127759663Y-90771881D01*
X127479240Y-90576617D01*
X127177388Y-90416458D01*
X126858482Y-90293722D01*
X126527140Y-90210188D01*
X126188164Y-90167065D01*
X125846461Y-90164977D01*
X125506982Y-90203956D01*
X125174645Y-90283437D01*
X124854263Y-90402267D01*
X124550478Y-90558727D01*
X124267689Y-90750549D01*
X124088025Y-90907005D01*
X122634000Y-90907005D01*
X122634000Y-89634000D01*
X196439509Y-89634000D01*
X196267689Y-89750549D01*
G37*
X196267689Y-89750549D02*
X196088025Y-89907005D01*
X198000000Y-91818981D01*
X199911541Y-89907439D01*
X199759663Y-89771881D01*
X199561649Y-89634000D01*
X200366001Y-89634000D01*
X200366001Y-90439101D01*
X200240350Y-90255935D01*
X200092772Y-90088248D01*
X198181019Y-92000000D01*
X200092449Y-93911429D01*
X200200207Y-93794442D01*
X200366001Y-93564139D01*
X200366000Y-130991461D01*
X200365417Y-131086927D01*
X200378493Y-131132678D01*
X200385237Y-131179769D01*
X200403318Y-131219538D01*
X200415322Y-131261539D01*
X200440706Y-131301771D01*
X200460402Y-131345089D01*
X200488920Y-131378184D01*
X200512227Y-131415126D01*
X200547889Y-131446621D01*
X200578946Y-131482664D01*
X200615601Y-131506422D01*
X200648346Y-131535342D01*
X200691416Y-131555564D01*
X200731338Y-131581439D01*
X200773183Y-131593953D01*
X200813088Y-131612689D01*
X200858546Y-131619483D01*
X200905327Y-131633473D01*
X200954168Y-131633772D01*
X200955694Y-131634000D01*
X200991461Y-131634000D01*
X201086926Y-131634583D01*
X201088966Y-131634000D01*
X220366001Y-131634000D01*
X220366000Y-231366000D01*
X148560076Y-231366000D01*
X148708659Y-231267468D01*
X148912586Y-231093606D01*
X147000000Y-229181019D01*
X145088589Y-231092431D01*
X145217102Y-231209571D01*
X145436813Y-231366000D01*
X144634000Y-231366000D01*
X144634000Y-230560217D01*
X144741509Y-230720509D01*
X144906726Y-230912254D01*
X146818981Y-229000000D01*
X147181019Y-229000000D01*
X149092449Y-230911429D01*
X149200207Y-230794442D01*
X149399848Y-230517122D01*
X149564730Y-230217823D01*
X149692460Y-229900884D01*
X149781189Y-229570896D01*
X149829724Y-229231982D01*
X149834260Y-228832277D01*
X149793425Y-228492349D01*
X149712205Y-228160432D01*
X149591699Y-227840677D01*
X149433650Y-227537715D01*
X149387089Y-227469841D01*
X196812292Y-227469841D01*
X196821740Y-227721508D01*
X196873456Y-227967983D01*
X196965961Y-228202222D01*
X197096610Y-228417526D01*
X197261669Y-228607739D01*
X197456416Y-228767422D01*
X197675284Y-228892009D01*
X197914831Y-228978960D01*
X198254648Y-229024000D01*
X198363190Y-229024000D01*
X198550942Y-229008069D01*
X198794708Y-228944800D01*
X199024329Y-228841363D01*
X199233240Y-228700716D01*
X199415466Y-228526881D01*
X199565797Y-228324828D01*
X199572436Y-228311770D01*
X199636610Y-228417526D01*
X199801669Y-228607739D01*
X199996416Y-228767422D01*
X200215284Y-228892009D01*
X200454831Y-228978960D01*
X200794648Y-229024000D01*
X200903190Y-229024000D01*
X201090942Y-229008069D01*
X201334708Y-228944800D01*
X201564329Y-228841363D01*
X201773240Y-228700716D01*
X201955466Y-228526881D01*
X202105797Y-228324828D01*
X202112436Y-228311770D01*
X202176610Y-228417526D01*
X202341669Y-228607739D01*
X202536416Y-228767422D01*
X202755284Y-228892009D01*
X202994831Y-228978960D01*
X203334648Y-229024000D01*
X203443190Y-229024000D01*
X203630942Y-229008069D01*
X203874708Y-228944800D01*
X204104329Y-228841363D01*
X204313240Y-228700716D01*
X204495466Y-228526881D01*
X204645797Y-228324828D01*
X204652436Y-228311770D01*
X204716610Y-228417526D01*
X204881669Y-228607739D01*
X205076416Y-228767422D01*
X205295284Y-228892009D01*
X205534831Y-228978960D01*
X205874648Y-229024000D01*
X205983190Y-229024000D01*
X206170942Y-229008069D01*
X206414708Y-228944800D01*
X206644329Y-228841363D01*
X206853240Y-228700716D01*
X207035466Y-228526881D01*
X207185797Y-228324828D01*
X207192436Y-228311770D01*
X207256610Y-228417526D01*
X207421669Y-228607739D01*
X207616416Y-228767422D01*
X207835284Y-228892009D01*
X208074831Y-228978960D01*
X208414648Y-229024000D01*
X208523190Y-229024000D01*
X208710942Y-229008069D01*
X208954708Y-228944800D01*
X209184329Y-228841363D01*
X209393240Y-228700716D01*
X209575466Y-228526881D01*
X209725797Y-228324828D01*
X209732436Y-228311770D01*
X209796610Y-228417526D01*
X209961669Y-228607739D01*
X210156416Y-228767422D01*
X210375284Y-228892009D01*
X210614831Y-228978960D01*
X210872000Y-229013047D01*
X210872000Y-226066953D01*
X211128000Y-226066953D01*
X211128000Y-229039978D01*
X211494708Y-228944800D01*
X211724329Y-228841363D01*
X211933240Y-228700716D01*
X212087535Y-228553526D01*
X212128795Y-228707512D01*
X212276185Y-228883165D01*
X212469814Y-228994956D01*
X212678976Y-229031837D01*
X213412000Y-229031837D01*
X213412000Y-227668000D01*
X213668000Y-227668000D01*
X213668000Y-229031837D01*
X214406588Y-229031837D01*
X214707512Y-228951205D01*
X214883165Y-228803815D01*
X214994956Y-228610186D01*
X215031837Y-228401024D01*
X215031837Y-227668000D01*
X213668000Y-227668000D01*
X213412000Y-227668000D01*
X213412000Y-226048163D01*
X213668000Y-226048163D01*
X213668000Y-227412000D01*
X215031837Y-227412000D01*
X215031837Y-226673412D01*
X214951205Y-226372489D01*
X214803815Y-226196835D01*
X214610186Y-226085044D01*
X214401024Y-226048163D01*
X213668000Y-226048163D01*
X213412000Y-226048163D01*
X212673412Y-226048163D01*
X212372489Y-226128795D01*
X212196835Y-226276185D01*
X212085044Y-226469814D01*
X212076796Y-226516588D01*
X212038331Y-226472261D01*
X211843584Y-226312578D01*
X211624716Y-226187991D01*
X211385169Y-226101040D01*
X211128000Y-226066953D01*
X210872000Y-226066953D01*
X210872000Y-226040022D01*
X210505292Y-226135200D01*
X210275671Y-226238637D01*
X210066760Y-226379284D01*
X209884534Y-226553119D01*
X209734203Y-226755172D01*
X209727564Y-226768230D01*
X209663390Y-226662474D01*
X209498331Y-226472261D01*
X209303584Y-226312578D01*
X209084716Y-226187991D01*
X208845169Y-226101040D01*
X208505352Y-226056000D01*
X208396810Y-226056000D01*
X208209058Y-226071931D01*
X207965292Y-226135200D01*
X207735671Y-226238637D01*
X207526760Y-226379284D01*
X207344534Y-226553119D01*
X207194203Y-226755172D01*
X207187564Y-226768230D01*
X207123390Y-226662474D01*
X206958331Y-226472261D01*
X206763584Y-226312578D01*
X206544716Y-226187991D01*
X206305169Y-226101040D01*
X205965352Y-226056000D01*
X205856810Y-226056000D01*
X205669058Y-226071931D01*
X205425292Y-226135200D01*
X205195671Y-226238637D01*
X204986760Y-226379284D01*
X204804534Y-226553119D01*
X204654203Y-226755172D01*
X204647564Y-226768230D01*
X204583390Y-226662474D01*
X204418331Y-226472261D01*
X204223584Y-226312578D01*
X204004716Y-226187991D01*
X203765169Y-226101040D01*
X203425352Y-226056000D01*
X203316810Y-226056000D01*
X203129058Y-226071931D01*
X202885292Y-226135200D01*
X202655671Y-226238637D01*
X202446760Y-226379284D01*
X202264534Y-226553119D01*
X202114203Y-226755172D01*
X202107564Y-226768230D01*
X202043390Y-226662474D01*
X201878331Y-226472261D01*
X201683584Y-226312578D01*
X201464716Y-226187991D01*
X201225169Y-226101040D01*
X200885352Y-226056000D01*
X200776810Y-226056000D01*
X200589058Y-226071931D01*
X200345292Y-226135200D01*
X200115671Y-226238637D01*
X199906760Y-226379284D01*
X199724534Y-226553119D01*
X199574203Y-226755172D01*
X199567564Y-226768230D01*
X199503390Y-226662474D01*
X199338331Y-226472261D01*
X199143584Y-226312578D01*
X198924716Y-226187991D01*
X198685169Y-226101040D01*
X198345352Y-226056000D01*
X198236810Y-226056000D01*
X198049058Y-226071931D01*
X197805292Y-226135200D01*
X197575671Y-226238637D01*
X197366760Y-226379284D01*
X197184534Y-226553119D01*
X197034203Y-226755172D01*
X196920064Y-226979666D01*
X196845382Y-227220181D01*
X196812292Y-227469841D01*
X149387089Y-227469841D01*
X149240350Y-227255935D01*
X149092772Y-227088248D01*
X147181019Y-229000000D01*
X146818981Y-229000000D01*
X144907531Y-227088551D01*
X144781125Y-227228695D01*
X144634000Y-227437644D01*
X144634000Y-226907005D01*
X145088025Y-226907005D01*
X147000000Y-228818981D01*
X148911541Y-226907439D01*
X148759663Y-226771881D01*
X148479240Y-226576617D01*
X148177388Y-226416458D01*
X147858482Y-226293722D01*
X147527140Y-226210188D01*
X147188164Y-226167065D01*
X146846461Y-226164977D01*
X146506982Y-226203956D01*
X146174645Y-226283437D01*
X145854263Y-226402267D01*
X145550478Y-226558727D01*
X145267689Y-226750549D01*
X145088025Y-226907005D01*
X144634000Y-226907005D01*
X144634000Y-220092431D01*
X215088589Y-220092431D01*
X215217102Y-220209571D01*
X215495465Y-220407759D01*
X215795623Y-220571071D01*
X216113225Y-220697140D01*
X216443674Y-220784140D01*
X216782181Y-220830810D01*
X217123843Y-220836476D01*
X217463711Y-220801054D01*
X217796862Y-220725058D01*
X218118471Y-220609588D01*
X218423878Y-220456319D01*
X218708659Y-220267468D01*
X218912586Y-220093606D01*
X217000000Y-218181019D01*
X215088589Y-220092431D01*
X144634000Y-220092431D01*
X144634000Y-218138693D01*
X214164212Y-218138693D01*
X214201413Y-218478371D01*
X214279152Y-218811120D01*
X214396304Y-219132119D01*
X214551170Y-219436720D01*
X214741509Y-219720509D01*
X214906726Y-219912254D01*
X216818981Y-218000000D01*
X217181019Y-218000000D01*
X219092449Y-219911429D01*
X219200207Y-219794442D01*
X219399848Y-219517122D01*
X219564730Y-219217823D01*
X219692460Y-218900884D01*
X219781189Y-218570896D01*
X219829724Y-218231982D01*
X219834260Y-217832277D01*
X219793425Y-217492349D01*
X219712205Y-217160432D01*
X219591699Y-216840677D01*
X219433650Y-216537715D01*
X219240350Y-216255935D01*
X219092772Y-216088248D01*
X217181019Y-218000000D01*
X216818981Y-218000000D01*
X214907531Y-216088551D01*
X214781125Y-216228695D01*
X214584396Y-216508092D01*
X214422658Y-216809101D01*
X214298254Y-217127360D01*
X214212986Y-217458259D01*
X214168088Y-217797006D01*
X214164212Y-218138693D01*
X144634000Y-218138693D01*
X144634000Y-215907005D01*
X215088025Y-215907005D01*
X217000000Y-217818981D01*
X218911541Y-215907439D01*
X218759663Y-215771881D01*
X218479240Y-215576617D01*
X218177388Y-215416458D01*
X217858482Y-215293722D01*
X217527140Y-215210188D01*
X217188164Y-215167065D01*
X216846461Y-215164977D01*
X216506982Y-215203956D01*
X216174645Y-215283437D01*
X215854263Y-215402267D01*
X215550478Y-215558727D01*
X215267689Y-215750549D01*
X215088025Y-215907005D01*
X144634000Y-215907005D01*
X144634000Y-206363872D01*
X177466000Y-206363872D01*
X177466000Y-206636128D01*
X177536466Y-206899109D01*
X177672594Y-207134891D01*
X177865109Y-207327406D01*
X178100891Y-207463534D01*
X178363872Y-207534000D01*
X178636128Y-207534000D01*
X178899109Y-207463534D01*
X179000000Y-207405285D01*
X179100891Y-207463534D01*
X179363872Y-207534000D01*
X179466000Y-207534000D01*
X179466000Y-207636128D01*
X179536466Y-207899109D01*
X179594715Y-208000000D01*
X179536466Y-208100891D01*
X179466000Y-208363872D01*
X179466000Y-208636128D01*
X179536466Y-208899109D01*
X179594715Y-209000000D01*
X179536466Y-209100891D01*
X179466000Y-209363872D01*
X179466000Y-209636128D01*
X179536466Y-209899109D01*
X179672594Y-210134891D01*
X179865109Y-210327406D01*
X180100891Y-210463534D01*
X180363872Y-210534000D01*
X180636128Y-210534000D01*
X180899109Y-210463534D01*
X181134891Y-210327406D01*
X181327406Y-210134891D01*
X181463534Y-209899109D01*
X181534000Y-209636128D01*
X181534000Y-209363872D01*
X181463534Y-209100891D01*
X181405285Y-209000000D01*
X181463534Y-208899109D01*
X181534000Y-208636128D01*
X181534000Y-208363872D01*
X181463534Y-208100891D01*
X181405285Y-208000000D01*
X181463534Y-207899109D01*
X181534000Y-207636128D01*
X181534000Y-207363872D01*
X181463534Y-207100891D01*
X181405285Y-207000000D01*
X181463534Y-206899109D01*
X181534000Y-206636128D01*
X181534000Y-206363872D01*
X181463534Y-206100891D01*
X181327406Y-205865109D01*
X181134891Y-205672594D01*
X180899109Y-205536466D01*
X180636128Y-205466000D01*
X180363872Y-205466000D01*
X180100891Y-205536466D01*
X180000000Y-205594715D01*
X179899109Y-205536466D01*
X179636128Y-205466000D01*
X179363872Y-205466000D01*
X179100891Y-205536466D01*
X179000000Y-205594715D01*
X178899109Y-205536466D01*
X178636128Y-205466000D01*
X178363872Y-205466000D01*
X178100891Y-205536466D01*
X177865109Y-205672594D01*
X177672594Y-205865109D01*
X177536466Y-206100891D01*
X177466000Y-206363872D01*
X144634000Y-206363872D01*
X144634000Y-190008539D01*
X144634583Y-189913073D01*
X144621509Y-189867328D01*
X144614764Y-189820232D01*
X144596684Y-189780467D01*
X144584677Y-189738460D01*
X144559294Y-189698229D01*
X144539598Y-189654911D01*
X144511080Y-189621816D01*
X144487773Y-189584874D01*
X144452111Y-189553378D01*
X144421053Y-189517335D01*
X144384399Y-189493578D01*
X144351654Y-189464658D01*
X144308578Y-189444434D01*
X144268661Y-189418561D01*
X144226818Y-189406048D01*
X144186911Y-189387311D01*
X144141455Y-189380518D01*
X144094672Y-189366527D01*
X144045832Y-189366228D01*
X144044306Y-189366000D01*
X144008538Y-189366000D01*
X143913073Y-189365417D01*
X143911033Y-189366000D01*
X122634000Y-189366000D01*
X122634000Y-171863872D01*
X149466000Y-171863872D01*
X149466000Y-172136128D01*
X149536466Y-172399109D01*
X149594715Y-172500000D01*
X149536466Y-172600891D01*
X149466000Y-172863872D01*
X149466000Y-173136128D01*
X149536466Y-173399109D01*
X149672594Y-173634891D01*
X149865109Y-173827406D01*
X150100891Y-173963534D01*
X150363872Y-174034000D01*
X150636128Y-174034000D01*
X150899109Y-173963534D01*
X151134891Y-173827406D01*
X151327406Y-173634891D01*
X151374108Y-173554000D01*
X151426128Y-173554000D01*
X151689109Y-173483534D01*
X151924891Y-173347406D01*
X152117406Y-173154891D01*
X152253534Y-172919109D01*
X152324000Y-172656128D01*
X152324000Y-172383872D01*
X152318641Y-172363872D01*
X177466000Y-172363872D01*
X177466000Y-172636128D01*
X177536466Y-172899109D01*
X177672594Y-173134891D01*
X177865109Y-173327406D01*
X178100891Y-173463534D01*
X178363872Y-173534000D01*
X178636128Y-173534000D01*
X178899109Y-173463534D01*
X179000000Y-173405285D01*
X179100891Y-173463534D01*
X179363872Y-173534000D01*
X179466000Y-173534000D01*
X179466000Y-173636128D01*
X179536466Y-173899109D01*
X179594715Y-174000000D01*
X179536466Y-174100891D01*
X179466000Y-174363872D01*
X179466000Y-174636128D01*
X179536466Y-174899109D01*
X179594715Y-175000000D01*
X179536466Y-175100891D01*
X179466000Y-175363872D01*
X179466000Y-175636128D01*
X179536466Y-175899109D01*
X179672594Y-176134891D01*
X179865109Y-176327406D01*
X180100891Y-176463534D01*
X180363872Y-176534000D01*
X180636128Y-176534000D01*
X180899109Y-176463534D01*
X181134891Y-176327406D01*
X181327406Y-176134891D01*
X181463534Y-175899109D01*
X181534000Y-175636128D01*
X181534000Y-175363872D01*
X181463534Y-175100891D01*
X181405285Y-175000000D01*
X181463534Y-174899109D01*
X181534000Y-174636128D01*
X181534000Y-174363872D01*
X181463534Y-174100891D01*
X181405285Y-174000000D01*
X181463534Y-173899109D01*
X181534000Y-173636128D01*
X181534000Y-173363872D01*
X181463534Y-173100891D01*
X181405285Y-173000000D01*
X181463534Y-172899109D01*
X181534000Y-172636128D01*
X181534000Y-172363872D01*
X181463534Y-172100891D01*
X181458650Y-172092431D01*
X215088589Y-172092431D01*
X215217102Y-172209571D01*
X215495465Y-172407759D01*
X215795623Y-172571071D01*
X216113225Y-172697140D01*
X216443674Y-172784140D01*
X216782181Y-172830810D01*
X217123843Y-172836476D01*
X217463711Y-172801054D01*
X217796862Y-172725058D01*
X218118471Y-172609588D01*
X218423878Y-172456319D01*
X218708659Y-172267468D01*
X218912586Y-172093606D01*
X217000000Y-170181019D01*
X215088589Y-172092431D01*
X181458650Y-172092431D01*
X181327406Y-171865109D01*
X181134891Y-171672594D01*
X180899109Y-171536466D01*
X180636128Y-171466000D01*
X180363872Y-171466000D01*
X180100891Y-171536466D01*
X180000000Y-171594715D01*
X179899109Y-171536466D01*
X179636128Y-171466000D01*
X179363872Y-171466000D01*
X179100891Y-171536466D01*
X179000000Y-171594715D01*
X178899109Y-171536466D01*
X178636128Y-171466000D01*
X178363872Y-171466000D01*
X178100891Y-171536466D01*
X177865109Y-171672594D01*
X177672594Y-171865109D01*
X177536466Y-172100891D01*
X177466000Y-172363872D01*
X152318641Y-172363872D01*
X152253534Y-172120891D01*
X152117406Y-171885109D01*
X151924891Y-171692594D01*
X151689109Y-171556466D01*
X151426128Y-171486000D01*
X151397202Y-171486000D01*
X151327406Y-171365109D01*
X151134891Y-171172594D01*
X150899109Y-171036466D01*
X150636128Y-170966000D01*
X150363872Y-170966000D01*
X150100891Y-171036466D01*
X149865109Y-171172594D01*
X149672594Y-171365109D01*
X149536466Y-171600891D01*
X149466000Y-171863872D01*
X122634000Y-171863872D01*
X122634000Y-170138693D01*
X214164212Y-170138693D01*
X214201413Y-170478371D01*
X214279152Y-170811120D01*
X214396304Y-171132119D01*
X214551170Y-171436720D01*
X214741509Y-171720509D01*
X214906726Y-171912254D01*
X216818981Y-170000000D01*
X217181019Y-170000000D01*
X219092449Y-171911429D01*
X219200207Y-171794442D01*
X219399848Y-171517122D01*
X219564730Y-171217823D01*
X219692460Y-170900884D01*
X219781189Y-170570896D01*
X219829724Y-170231982D01*
X219834260Y-169832277D01*
X219793425Y-169492349D01*
X219712205Y-169160432D01*
X219591699Y-168840677D01*
X219433650Y-168537715D01*
X219240350Y-168255935D01*
X219092772Y-168088248D01*
X217181019Y-170000000D01*
X216818981Y-170000000D01*
X214907531Y-168088551D01*
X214781125Y-168228695D01*
X214584396Y-168508092D01*
X214422658Y-168809101D01*
X214298254Y-169127360D01*
X214212986Y-169458259D01*
X214168088Y-169797006D01*
X214164212Y-170138693D01*
X122634000Y-170138693D01*
X122634000Y-167907005D01*
X215088025Y-167907005D01*
X217000000Y-169818981D01*
X218911541Y-167907439D01*
X218759663Y-167771881D01*
X218479240Y-167576617D01*
X218177388Y-167416458D01*
X217858482Y-167293722D01*
X217527140Y-167210188D01*
X217188164Y-167167065D01*
X216846461Y-167164977D01*
X216506982Y-167203956D01*
X216174645Y-167283437D01*
X215854263Y-167402267D01*
X215550478Y-167558727D01*
X215267689Y-167750549D01*
X215088025Y-167907005D01*
X122634000Y-167907005D01*
X122634000Y-162092431D01*
X178438589Y-162092431D01*
X178567102Y-162209571D01*
X178845465Y-162407759D01*
X179145623Y-162571071D01*
X179463225Y-162697140D01*
X179793674Y-162784140D01*
X180132181Y-162830810D01*
X180473843Y-162836476D01*
X180813711Y-162801054D01*
X181146862Y-162725058D01*
X181468471Y-162609588D01*
X181773878Y-162456319D01*
X182058659Y-162267468D01*
X182262586Y-162093606D01*
X180350000Y-160181019D01*
X178438589Y-162092431D01*
X122634000Y-162092431D01*
X122634000Y-160138693D01*
X177514212Y-160138693D01*
X177551413Y-160478371D01*
X177629152Y-160811120D01*
X177746304Y-161132119D01*
X177901170Y-161436720D01*
X178091509Y-161720509D01*
X178256726Y-161912254D01*
X180168981Y-160000000D01*
X180531019Y-160000000D01*
X182442449Y-161911429D01*
X182550207Y-161794442D01*
X182749848Y-161517122D01*
X182914730Y-161217823D01*
X183042460Y-160900884D01*
X183131189Y-160570896D01*
X183179724Y-160231982D01*
X183184260Y-159832277D01*
X183143425Y-159492349D01*
X183062205Y-159160432D01*
X182941699Y-158840677D01*
X182783650Y-158537715D01*
X182590350Y-158255935D01*
X182442772Y-158088248D01*
X180531019Y-160000000D01*
X180168981Y-160000000D01*
X178257531Y-158088551D01*
X178131125Y-158228695D01*
X177934396Y-158508092D01*
X177772658Y-158809101D01*
X177648254Y-159127360D01*
X177562986Y-159458259D01*
X177518088Y-159797006D01*
X177514212Y-160138693D01*
X122634000Y-160138693D01*
X122634000Y-157907005D01*
X178438025Y-157907005D01*
X180350000Y-159818981D01*
X182261541Y-157907439D01*
X182109663Y-157771881D01*
X181829240Y-157576617D01*
X181527388Y-157416458D01*
X181208482Y-157293722D01*
X180877140Y-157210188D01*
X180538164Y-157167065D01*
X180196461Y-157164977D01*
X179856982Y-157203956D01*
X179524645Y-157283437D01*
X179204263Y-157402267D01*
X178900478Y-157558727D01*
X178617689Y-157750549D01*
X178438025Y-157907005D01*
X122634000Y-157907005D01*
X122634000Y-144592431D01*
X124588589Y-144592431D01*
X124717102Y-144709571D01*
X124995465Y-144907759D01*
X125295623Y-145071071D01*
X125613225Y-145197140D01*
X125943674Y-145284140D01*
X126282181Y-145330810D01*
X126623843Y-145336476D01*
X126963711Y-145301054D01*
X127296862Y-145225058D01*
X127618471Y-145109588D01*
X127923878Y-144956319D01*
X128208659Y-144767468D01*
X128412586Y-144593606D01*
X126500000Y-142681019D01*
X124588589Y-144592431D01*
X122634000Y-144592431D01*
X122634000Y-142638693D01*
X123664212Y-142638693D01*
X123701413Y-142978371D01*
X123779152Y-143311120D01*
X123896304Y-143632119D01*
X124051170Y-143936720D01*
X124241509Y-144220509D01*
X124406726Y-144412254D01*
X126318981Y-142500000D01*
X126681019Y-142500000D01*
X128592449Y-144411429D01*
X128700207Y-144294442D01*
X128899848Y-144017122D01*
X129064730Y-143717823D01*
X129192460Y-143400884D01*
X129281189Y-143070896D01*
X129329724Y-142731982D01*
X129334260Y-142332277D01*
X129293425Y-141992349D01*
X129212205Y-141660432D01*
X129091699Y-141340677D01*
X128933650Y-141037715D01*
X128740350Y-140755935D01*
X128592772Y-140588248D01*
X126681019Y-142500000D01*
X126318981Y-142500000D01*
X124407531Y-140588551D01*
X124281125Y-140728695D01*
X124084396Y-141008092D01*
X123922658Y-141309101D01*
X123798254Y-141627360D01*
X123712986Y-141958259D01*
X123668088Y-142297006D01*
X123664212Y-142638693D01*
X122634000Y-142638693D01*
X122634000Y-140407005D01*
X124588025Y-140407005D01*
X126500000Y-142318981D01*
X128411541Y-140407439D01*
X128259663Y-140271881D01*
X127979240Y-140076617D01*
X127677388Y-139916458D01*
X127358482Y-139793722D01*
X127027140Y-139710188D01*
X126688164Y-139667065D01*
X126346461Y-139664977D01*
X126006982Y-139703956D01*
X125674645Y-139783437D01*
X125354263Y-139902267D01*
X125050478Y-140058727D01*
X124767689Y-140250549D01*
X124588025Y-140407005D01*
X122634000Y-140407005D01*
X122634000Y-137363872D01*
X177466000Y-137363872D01*
X177466000Y-137636128D01*
X177536466Y-137899109D01*
X177672594Y-138134891D01*
X177865109Y-138327406D01*
X178100891Y-138463534D01*
X178363872Y-138534000D01*
X178636128Y-138534000D01*
X178899109Y-138463534D01*
X179000000Y-138405285D01*
X179100891Y-138463534D01*
X179363872Y-138534000D01*
X179466000Y-138534000D01*
X179466000Y-138636128D01*
X179536466Y-138899109D01*
X179594715Y-139000000D01*
X179536466Y-139100891D01*
X179466000Y-139363872D01*
X179466000Y-139636128D01*
X179536466Y-139899109D01*
X179594715Y-140000000D01*
X179536466Y-140100891D01*
X179466000Y-140363872D01*
X179466000Y-140636128D01*
X179536466Y-140899109D01*
X179672594Y-141134891D01*
X179865109Y-141327406D01*
X180100891Y-141463534D01*
X180363872Y-141534000D01*
X180636128Y-141534000D01*
X180899109Y-141463534D01*
X181134891Y-141327406D01*
X181327406Y-141134891D01*
X181463534Y-140899109D01*
X181534000Y-140636128D01*
X181534000Y-140363872D01*
X181463534Y-140100891D01*
X181405285Y-140000000D01*
X181463534Y-139899109D01*
X181534000Y-139636128D01*
X181534000Y-139363872D01*
X181463534Y-139100891D01*
X181405285Y-139000000D01*
X181463534Y-138899109D01*
X181534000Y-138636128D01*
X181534000Y-138363872D01*
X181463534Y-138100891D01*
X181405285Y-138000000D01*
X181463534Y-137899109D01*
X181534000Y-137636128D01*
X181534000Y-137363872D01*
X181463534Y-137100891D01*
X181327406Y-136865109D01*
X181134891Y-136672594D01*
X180899109Y-136536466D01*
X180636128Y-136466000D01*
X180363872Y-136466000D01*
X180100891Y-136536466D01*
X180000000Y-136594715D01*
X179899109Y-136536466D01*
X179636128Y-136466000D01*
X179363872Y-136466000D01*
X179100891Y-136536466D01*
X179000000Y-136594715D01*
X178899109Y-136536466D01*
X178636128Y-136466000D01*
X178363872Y-136466000D01*
X178100891Y-136536466D01*
X177865109Y-136672594D01*
X177672594Y-136865109D01*
X177536466Y-137100891D01*
X177466000Y-137363872D01*
X122634000Y-137363872D01*
X122634000Y-112863872D01*
X147686000Y-112863872D01*
X147686000Y-113136128D01*
X147756466Y-113399109D01*
X147892594Y-113634891D01*
X148085109Y-113827406D01*
X148320891Y-113963534D01*
X148583872Y-114034000D01*
X148614345Y-114034000D01*
X148672594Y-114134891D01*
X148865109Y-114327406D01*
X149100891Y-114463534D01*
X149363872Y-114534000D01*
X149636128Y-114534000D01*
X149899109Y-114463534D01*
X150134891Y-114327406D01*
X150327406Y-114134891D01*
X150463534Y-113899109D01*
X150534000Y-113636128D01*
X150534000Y-113363872D01*
X150463534Y-113100891D01*
X150405285Y-113000000D01*
X150463534Y-112899109D01*
X150534000Y-112636128D01*
X150534000Y-112363872D01*
X150463534Y-112100891D01*
X150327406Y-111865109D01*
X150134891Y-111672594D01*
X149899109Y-111536466D01*
X149636128Y-111466000D01*
X149363872Y-111466000D01*
X149100891Y-111536466D01*
X148865109Y-111672594D01*
X148672594Y-111865109D01*
X148614345Y-111966000D01*
X148583872Y-111966000D01*
X148320891Y-112036466D01*
X148085109Y-112172594D01*
X147892594Y-112365109D01*
X147756466Y-112600891D01*
X147686000Y-112863872D01*
X122634000Y-112863872D01*
X122634000Y-103363872D01*
X177466000Y-103363872D01*
X177466000Y-103636128D01*
X177536466Y-103899109D01*
X177672594Y-104134891D01*
X177865109Y-104327406D01*
X178100891Y-104463534D01*
X178363872Y-104534000D01*
X178636128Y-104534000D01*
X178899109Y-104463534D01*
X179000000Y-104405285D01*
X179100891Y-104463534D01*
X179363872Y-104534000D01*
X179466000Y-104534000D01*
X179466000Y-104636128D01*
X179536466Y-104899109D01*
X179594715Y-105000000D01*
X179536466Y-105100891D01*
X179466000Y-105363872D01*
X179466000Y-105636128D01*
X179536466Y-105899109D01*
X179594715Y-106000000D01*
X179536466Y-106100891D01*
X179466000Y-106363872D01*
X179466000Y-106636128D01*
X179536466Y-106899109D01*
X179672594Y-107134891D01*
X179865109Y-107327406D01*
X180100891Y-107463534D01*
X180363872Y-107534000D01*
X180636128Y-107534000D01*
X180899109Y-107463534D01*
X181134891Y-107327406D01*
X181327406Y-107134891D01*
X181463534Y-106899109D01*
X181534000Y-106636128D01*
X181534000Y-106363872D01*
X181463534Y-106100891D01*
X181405285Y-106000000D01*
X181463534Y-105899109D01*
X181534000Y-105636128D01*
X181534000Y-105363872D01*
X181463534Y-105100891D01*
X181405285Y-105000000D01*
X181463534Y-104899109D01*
X181534000Y-104636128D01*
X181534000Y-104363872D01*
X181463534Y-104100891D01*
X181405285Y-104000000D01*
X181463534Y-103899109D01*
X181534000Y-103636128D01*
X181534000Y-103363872D01*
X181463534Y-103100891D01*
X181327406Y-102865109D01*
X181134891Y-102672594D01*
X180899109Y-102536466D01*
X180636128Y-102466000D01*
X180363872Y-102466000D01*
X180100891Y-102536466D01*
X180000000Y-102594715D01*
X179899109Y-102536466D01*
X179636128Y-102466000D01*
X179363872Y-102466000D01*
X179100891Y-102536466D01*
X179000000Y-102594715D01*
X178899109Y-102536466D01*
X178636128Y-102466000D01*
X178363872Y-102466000D01*
X178100891Y-102536466D01*
X177865109Y-102672594D01*
X177672594Y-102865109D01*
X177536466Y-103100891D01*
X177466000Y-103363872D01*
X122634000Y-103363872D01*
X122634000Y-95092431D01*
X124088589Y-95092431D01*
X124217102Y-95209571D01*
X124495465Y-95407759D01*
X124795623Y-95571071D01*
X125113225Y-95697140D01*
X125443674Y-95784140D01*
X125782181Y-95830810D01*
X126123843Y-95836476D01*
X126463711Y-95801054D01*
X126796862Y-95725058D01*
X127118471Y-95609588D01*
X127423878Y-95456319D01*
X127708659Y-95267468D01*
X127912586Y-95093606D01*
X126000000Y-93181019D01*
X124088589Y-95092431D01*
X122634000Y-95092431D01*
X122634000Y-93138693D01*
X123164212Y-93138693D01*
X123201413Y-93478371D01*
X123279152Y-93811120D01*
X123396304Y-94132119D01*
X123551170Y-94436720D01*
X123741509Y-94720509D01*
X123906726Y-94912254D01*
X125818981Y-93000000D01*
X126181019Y-93000000D01*
X128092449Y-94911429D01*
X128200207Y-94794442D01*
X128399848Y-94517122D01*
X128564730Y-94217823D01*
X128615264Y-94092431D01*
X196088589Y-94092431D01*
X196217102Y-94209571D01*
X196495465Y-94407759D01*
X196795623Y-94571071D01*
X197113225Y-94697140D01*
X197443674Y-94784140D01*
X197782181Y-94830810D01*
X198123843Y-94836476D01*
X198463711Y-94801054D01*
X198796862Y-94725058D01*
X199118471Y-94609588D01*
X199423878Y-94456319D01*
X199708659Y-94267468D01*
X199912586Y-94093606D01*
X198000000Y-92181019D01*
X196088589Y-94092431D01*
X128615264Y-94092431D01*
X128692460Y-93900884D01*
X128781189Y-93570896D01*
X128829724Y-93231982D01*
X128834260Y-92832277D01*
X128793425Y-92492349D01*
X128712205Y-92160432D01*
X128704013Y-92138693D01*
X195164212Y-92138693D01*
X195201413Y-92478371D01*
X195279152Y-92811120D01*
X195396304Y-93132119D01*
X195551170Y-93436720D01*
X195741509Y-93720509D01*
X195906726Y-93912254D01*
X197818981Y-92000000D01*
X195907531Y-90088551D01*
X195781125Y-90228695D01*
X195584396Y-90508092D01*
X195422658Y-90809101D01*
X195298254Y-91127360D01*
X195212986Y-91458259D01*
X195168088Y-91797006D01*
X195164212Y-92138693D01*
X128704013Y-92138693D01*
X128591699Y-91840677D01*
X128433650Y-91537715D01*
X128240350Y-91255935D01*
X128092772Y-91088248D01*
X126181019Y-93000000D01*
X125818981Y-93000000D01*
X123907531Y-91088551D01*
X123781125Y-91228695D01*
X123584396Y-91508092D01*
X123422658Y-91809101D01*
X123298254Y-92127360D01*
X123212986Y-92458259D01*
X123168088Y-92797006D01*
X123164212Y-93138693D01*
X122634000Y-93138693D01*
X122634000Y-90907005D01*
X124088025Y-90907005D01*
X126000000Y-92818981D01*
X127911541Y-90907439D01*
X127759663Y-90771881D01*
X127479240Y-90576617D01*
X127177388Y-90416458D01*
X126858482Y-90293722D01*
X126527140Y-90210188D01*
X126188164Y-90167065D01*
X125846461Y-90164977D01*
X125506982Y-90203956D01*
X125174645Y-90283437D01*
X124854263Y-90402267D01*
X124550478Y-90558727D01*
X124267689Y-90750549D01*
X124088025Y-90907005D01*
X122634000Y-90907005D01*
X122634000Y-89634000D01*
X196439509Y-89634000D01*
X196267689Y-89750549D01*
M02*
