M48
; DRILL file {KiCad (5.99.0-221-ga18d3cc)} date Wed 20 Nov 2019 11:00:36 AM MST
; FORMAT={-:-/ absolute / inch / decimal}
; #@! TF.CreationDate,2019-11-20T11:00:36-07:00
; #@! TF.GenerationSoftware,Kicad,Pcbnew,(5.99.0-221-ga18d3cc)
; #@! TF.FileFunction,Plated,1,4,PTH
FMAT,2
INCH
T1C0.0157
T2C0.0394
T3C0.0866
%
G90
G05
T1
X4.9213Y-5.8661
X4.9213Y-5.9449
X4.9213Y-6.0236
X4.9213Y-6.1024
X4.9213Y-6.1811
X4.9213Y-6.2598
X4.9213Y-6.3386
X4.9213Y-6.4173
X4.9213Y-6.4961
X4.9213Y-6.4961
X4.9213Y-6.5748
X4.9213Y-6.6535
X4.9213Y-6.7323
X4.9213Y-6.811
X4.9213Y-6.8898
X4.9213Y-6.9685
X4.9213Y-7.0472
X4.9213Y-7.126
X4.9213Y-7.2047
X4.9213Y-7.2835
X4.9213Y-7.3622
X4.9213Y-7.4409
X4.9606Y-5.8268
X5.0Y-5.7874
X5.0394Y-5.748
X5.0787Y-3.7795
X5.0787Y-3.8583
X5.0787Y-3.937
X5.0787Y-4.0157
X5.0787Y-4.0945
X5.0787Y-4.1732
X5.0787Y-4.252
X5.0787Y-4.3307
X5.0787Y-4.4094
X5.0787Y-4.4882
X5.0787Y-4.5669
X5.0787Y-4.6457
X5.0787Y-4.7244
X5.0787Y-4.8031
X5.0787Y-4.8819
X5.0787Y-4.9606
X5.0787Y-5.0394
X5.0787Y-5.1181
X5.0787Y-5.1969
X5.0787Y-5.2756
X5.0787Y-5.3543
X5.0787Y-5.4331
X5.0787Y-5.5118
X5.0787Y-5.7087
X5.1181Y-3.7402
X5.1575Y-3.7008
X5.1969Y-3.6614
X5.2362Y-3.622
X5.2362Y-4.9016
X5.2362Y-4.9409
X5.2362Y-4.9803
X5.2362Y-5.0197
X5.2756Y-3.5827
X5.2756Y-4.9016
X5.2756Y-5.0197
X5.315Y-3.5433
X5.315Y-4.9016
X5.315Y-5.0197
X5.3937Y-3.5433
X5.3937Y-7.2835
X5.3937Y-7.3622
X5.3937Y-7.4409
X5.4331Y-7.2441
X5.4724Y-3.5433
X5.5118Y-7.2441
X5.5512Y-3.5433
X5.5906Y-7.2441
X5.6299Y-3.5433
X5.6693Y-7.2441
X5.7087Y-3.5433
X5.748Y-4.5669
X5.748Y-4.6457
X5.748Y-4.7244
X5.748Y-7.2441
X5.7677Y-4.4488
X5.7677Y-4.6063
X5.7677Y-4.685
X5.7874Y-3.5433
X5.7874Y-4.5669
X5.7874Y-4.6457
X5.7874Y-4.7244
X5.8071Y-4.6063
X5.8071Y-4.685
X5.8268Y-4.5669
X5.8268Y-4.6457
X5.8268Y-4.7244
X5.8268Y-7.2441
X5.8465Y-4.6063
X5.8465Y-4.685
X5.8551Y-4.4488
X5.8661Y-3.5433
X5.8661Y-4.5669
X5.8661Y-4.6457
X5.8661Y-4.7244
X5.8858Y-4.4291
X5.8858Y-4.4685
X5.9055Y-7.2441
X5.9055Y-7.3228
X5.9055Y-7.4016
X5.9055Y-7.4803
X5.9055Y-7.5591
X5.9055Y-7.6378
X5.9055Y-7.7165
X5.9055Y-7.7953
X5.9055Y-7.874
X5.9055Y-7.9528
X5.9055Y-8.0315
X5.9055Y-8.1102
X5.9055Y-8.189
X5.9055Y-8.2677
X5.9055Y-8.3465
X5.9055Y-8.4252
X5.9055Y-8.5039
X5.9055Y-8.5827
X5.9055Y-8.6614
X5.9055Y-8.7402
X5.9055Y-8.8189
X5.9252Y-6.7717
X5.9252Y-6.811
X5.9449Y-3.5433
X5.9449Y-6.5157
X5.9449Y-6.5945
X5.9449Y-6.6732
X5.9449Y-8.8583
X5.9563Y-6.7921
X5.9646Y-6.5551
X5.9646Y-6.6339
X5.9843Y-6.5157
X5.9843Y-6.5945
X5.9843Y-6.6732
X5.9843Y-8.8976
X6.0039Y-6.5551
X6.0039Y-6.6339
X6.0039Y-6.8504
X6.0236Y-3.5433
X6.0236Y-6.5157
X6.0236Y-6.5945
X6.0236Y-6.6732
X6.0236Y-8.937
X6.0433Y-5.5512
X6.0433Y-5.5906
X6.0433Y-5.6299
X6.0433Y-5.6693
X6.0433Y-6.5551
X6.0433Y-6.6339
X6.0433Y-8.2677
X6.0433Y-8.3071
X6.0433Y-8.3465
X6.0433Y-8.3858
X6.063Y-6.5157
X6.063Y-6.5945
X6.063Y-6.6732
X6.063Y-8.9764
X6.0827Y-5.5512
X6.0827Y-5.6693
X6.0827Y-8.2677
X6.0827Y-8.3858
X6.1024Y-3.5433
X6.1024Y-9.0157
X6.122Y-5.5512
X6.122Y-5.6693
X6.122Y-8.2677
X6.122Y-8.3858
X6.1417Y-9.0551
X6.1811Y-3.5433
X6.2205Y-9.0551
X6.2598Y-3.5433
X6.2992Y-9.0551
X6.3386Y-3.5433
X6.378Y-9.0551
X6.4173Y-3.5433
X6.4567Y-9.0551
X6.4961Y-3.5433
X6.5354Y-9.0551
X6.5748Y-3.5433
X6.6142Y-9.0551
X6.6535Y-3.5433
X6.6929Y-9.0551
X6.7323Y-3.5433
X6.7717Y-9.0551
X6.7913Y-4.0157
X6.7913Y-4.0945
X6.7913Y-4.1732
X6.7913Y-4.252
X6.7913Y-4.3307
X6.7913Y-4.4094
X6.7913Y-4.4882
X6.7913Y-5.4331
X6.7913Y-5.5118
X6.7913Y-5.5906
X6.7913Y-5.6693
X6.7913Y-5.748
X6.7913Y-5.8268
X6.7913Y-5.9055
X6.7913Y-6.7717
X6.7913Y-6.8504
X6.7913Y-6.9291
X6.7913Y-7.0079
X6.7913Y-7.0866
X6.7913Y-7.1654
X6.7913Y-7.2441
X6.7913Y-8.1496
X6.7913Y-8.2283
X6.7913Y-8.3071
X6.7913Y-8.3858
X6.7913Y-8.4646
X6.7913Y-8.5433
X6.7913Y-8.622
X6.811Y-3.5433
X6.811Y-4.0551
X6.811Y-4.1339
X6.811Y-4.2126
X6.811Y-4.2913
X6.811Y-4.3701
X6.811Y-4.4488
X6.811Y-5.4724
X6.811Y-5.5512
X6.811Y-5.6299
X6.811Y-5.7087
X6.811Y-5.7874
X6.811Y-5.8661
X6.811Y-6.811
X6.811Y-6.8898
X6.811Y-6.9685
X6.811Y-7.0472
X6.811Y-7.126
X6.811Y-7.2047
X6.811Y-8.189
X6.811Y-8.2677
X6.811Y-8.3465
X6.811Y-8.4252
X6.811Y-8.5039
X6.811Y-8.5827
X6.8307Y-4.0157
X6.8307Y-4.0945
X6.8307Y-4.1732
X6.8307Y-4.252
X6.8307Y-4.3307
X6.8307Y-4.4094
X6.8307Y-4.4882
X6.8307Y-5.4331
X6.8307Y-5.5118
X6.8307Y-5.5906
X6.8307Y-5.6693
X6.8307Y-5.748
X6.8307Y-5.8268
X6.8307Y-5.9055
X6.8307Y-6.7717
X6.8307Y-6.8504
X6.8307Y-6.9291
X6.8307Y-7.0079
X6.8307Y-7.0866
X6.8307Y-7.1654
X6.8307Y-7.2441
X6.8307Y-8.1496
X6.8307Y-8.2283
X6.8307Y-8.3071
X6.8307Y-8.3858
X6.8307Y-8.4646
X6.8307Y-8.5433
X6.8307Y-8.622
X6.8504Y-4.0551
X6.8504Y-4.1339
X6.8504Y-4.2126
X6.8504Y-4.2913
X6.8504Y-4.3701
X6.8504Y-4.4488
X6.8504Y-5.4724
X6.8504Y-5.5512
X6.8504Y-5.6299
X6.8504Y-5.7087
X6.8504Y-5.7874
X6.8504Y-5.8661
X6.8504Y-6.811
X6.8504Y-6.8898
X6.8504Y-6.9685
X6.8504Y-7.0472
X6.8504Y-7.126
X6.8504Y-7.2047
X6.8504Y-8.189
X6.8504Y-8.2677
X6.8504Y-8.3465
X6.8504Y-8.4252
X6.8504Y-8.5039
X6.8504Y-8.5827
X6.8504Y-9.0551
X6.8701Y-4.0157
X6.8701Y-4.0945
X6.8701Y-4.1732
X6.8701Y-4.252
X6.8701Y-4.3307
X6.8701Y-4.4094
X6.8701Y-4.4882
X6.8701Y-5.4331
X6.8701Y-5.5118
X6.8701Y-5.5906
X6.8701Y-5.6693
X6.8701Y-5.748
X6.8701Y-5.8268
X6.8701Y-5.9055
X6.8701Y-6.7717
X6.8701Y-6.8504
X6.8701Y-6.9291
X6.8701Y-7.0079
X6.8701Y-7.0866
X6.8701Y-7.1654
X6.8701Y-7.2441
X6.8701Y-8.1496
X6.8701Y-8.2283
X6.8701Y-8.3071
X6.8701Y-8.3858
X6.8701Y-8.4646
X6.8701Y-8.5433
X6.8701Y-8.622
X6.8898Y-3.5433
X6.9055Y-5.4764
X6.9094Y-6.8504
X6.9213Y-4.1339
X6.9291Y-8.189
X6.9291Y-9.0551
X6.9685Y-3.5433
X7.0079Y-9.0551
X7.0276Y-4.0748
X7.0276Y-5.4134
X7.0276Y-6.7913
X7.0276Y-8.1299
X7.0472Y-3.5433
X7.0669Y-4.0748
X7.0669Y-5.4134
X7.0669Y-6.7913
X7.0669Y-8.1299
X7.0866Y-9.0551
X7.1063Y-4.0748
X7.1063Y-4.1142
X7.1063Y-4.1535
X7.1063Y-4.1929
X7.1063Y-5.4134
X7.1063Y-5.4528
X7.1063Y-5.4921
X7.1063Y-5.5315
X7.1063Y-6.7913
X7.1063Y-6.8307
X7.1063Y-6.8701
X7.1063Y-6.9094
X7.1063Y-8.1299
X7.1063Y-8.1693
X7.1063Y-8.2087
X7.1063Y-8.248
X7.126Y-3.5433
X7.1654Y-9.0551
X7.2047Y-3.5433
X7.2441Y-9.0551
X7.2835Y-3.5433
X7.3228Y-9.0551
X7.3622Y-3.5433
X7.4016Y-9.0551
X7.4409Y-3.5433
X7.4803Y-9.0551
X7.5197Y-3.5433
X7.5591Y-9.0551
X7.5984Y-3.5433
X7.6378Y-9.0551
X7.6772Y-3.5827
X7.6772Y-4.2126
X7.6772Y-4.3307
X7.6772Y-6.9291
X7.6772Y-7.0472
X7.7165Y-4.2126
X7.7165Y-4.3307
X7.7165Y-6.9291
X7.7165Y-7.0472
X7.7165Y-9.0551
X7.7559Y-4.2126
X7.7559Y-4.252
X7.7559Y-4.2913
X7.7559Y-4.3307
X7.7559Y-6.9291
X7.7559Y-6.9685
X7.7559Y-7.0079
X7.7559Y-7.0472
X7.7953Y-3.7402
X7.7953Y-3.8189
X7.7953Y-3.8976
X7.7953Y-3.9764
X7.7953Y-4.0551
X7.7953Y-4.1339
X7.7953Y-4.2126
X7.7953Y-4.2913
X7.7953Y-4.3701
X7.7953Y-4.4488
X7.7953Y-4.5276
X7.7953Y-4.6063
X7.7953Y-4.685
X7.7953Y-4.7638
X7.7953Y-4.8425
X7.7953Y-4.9213
X7.7953Y-5.0
X7.7953Y-5.0787
X7.7953Y-5.1575
X7.7953Y-5.2362
X7.7953Y-5.315
X7.7953Y-5.3937
X7.7953Y-9.0551
X7.8346Y-5.4331
X7.874Y-5.4724
X7.874Y-9.0551
X7.9528Y-5.4724
X7.9528Y-9.0551
X8.0315Y-5.4724
X8.0315Y-9.0551
X8.1102Y-5.4724
X8.1102Y-9.0551
X8.1496Y-5.2165
X8.1496Y-5.2559
X8.1496Y-5.2953
X8.1496Y-5.3346
X8.1496Y-5.374
X8.1496Y-5.4134
X8.1496Y-5.4528
X8.189Y-5.4134
X8.189Y-5.4528
X8.189Y-9.0551
X8.2283Y-5.4134
X8.2283Y-5.4528
X8.2677Y-5.2165
X8.2677Y-5.2559
X8.2677Y-5.2953
X8.2677Y-5.3346
X8.2677Y-5.374
X8.2677Y-5.4134
X8.2677Y-5.4528
X8.2677Y-9.0551
X8.2874Y-7.5787
X8.2874Y-7.7362
X8.3268Y-7.5787
X8.3268Y-7.7362
X8.3465Y-8.5827
X8.3465Y-8.6614
X8.3465Y-9.0551
X8.3661Y-7.5787
X8.3661Y-7.6181
X8.3661Y-7.6575
X8.3661Y-7.6969
X8.3661Y-7.7362
X8.3858Y-8.5433
X8.3858Y-8.7008
X8.4252Y-8.5039
X8.4252Y-8.7402
X8.4252Y-9.0551
X8.4646Y-6.4961
X8.4646Y-6.5748
X8.4646Y-6.811
X8.4646Y-6.8898
X8.4646Y-6.9685
X8.4646Y-7.0472
X8.4646Y-7.126
X8.4646Y-7.2047
X8.4646Y-7.2835
X8.4646Y-7.3622
X8.4646Y-7.4409
X8.4646Y-7.5197
X8.4646Y-7.5984
X8.4646Y-7.6772
X8.4646Y-7.7559
X8.4646Y-7.8346
X8.4646Y-7.9134
X8.4646Y-7.9921
X8.4646Y-8.0709
X8.4646Y-8.1496
X8.4646Y-8.2283
X8.4646Y-8.3071
X8.4646Y-8.3858
X8.4646Y-8.4646
X8.4646Y-8.7795
X8.5039Y-5.2165
X8.5039Y-5.2559
X8.5039Y-5.2953
X8.5039Y-5.3346
X8.5039Y-5.374
X8.5039Y-5.4134
X8.5039Y-5.4528
X8.5039Y-6.4567
X8.5039Y-8.8189
X8.5039Y-8.8976
X8.5039Y-8.9764
X8.5039Y-9.0551
X8.5433Y-5.4134
X8.5433Y-5.4528
X8.5433Y-6.4173
X8.5827Y-5.4134
X8.5827Y-5.4528
X8.5827Y-5.5118
X8.5827Y-5.5906
X8.5827Y-5.6693
X8.5827Y-5.748
X8.5827Y-5.8268
X8.5827Y-5.9055
X8.5827Y-5.9843
X8.5827Y-6.063
X8.5827Y-6.1417
X8.5827Y-6.2205
X8.5827Y-6.2992
X8.5827Y-6.378
X8.622Y-5.2165
X8.622Y-5.2559
X8.622Y-5.2953
X8.622Y-5.3346
X8.622Y-5.374
X8.622Y-5.4134
X8.622Y-5.4528
X7.0354Y-6.2992
X7.0545Y-6.2533
X7.0545Y-6.3451
X7.1004Y-6.2343
X7.1004Y-6.3642
X7.1463Y-6.2533
X7.1463Y-6.3451
X7.1654Y-6.2992
X8.4783Y-8.5827
X8.4974Y-8.5367
X8.4974Y-8.6286
X8.5433Y-8.5177
X8.5433Y-8.6476
X8.5892Y-8.5367
X8.5892Y-8.6286
X8.6083Y-8.5827
X4.8957Y-3.6614
X4.9147Y-3.6155
X4.9147Y-3.7074
X4.9606Y-3.5965
X4.9606Y-3.7264
X5.0066Y-3.6155
X5.0066Y-3.7074
X5.0256Y-3.6614
X5.7224Y-9.0157
X5.7415Y-8.9698
X5.7415Y-9.0617
X5.7874Y-8.9508
X5.7874Y-9.0807
X5.8333Y-8.9698
X5.8333Y-9.0617
X5.8524Y-9.0157
X8.4783Y-6.6929
X8.4974Y-6.647
X8.4974Y-6.7388
X8.5433Y-6.628
X8.5433Y-6.7579
X8.5892Y-6.647
X8.5892Y-6.7388
X8.6083Y-6.6929
X4.9154Y-5.6102
X4.9344Y-5.5643
X4.9344Y-5.6562
X4.9803Y-5.5453
X4.9803Y-5.6752
X5.0262Y-5.5643
X5.0262Y-5.6562
X5.0453Y-5.6102
X7.7303Y-3.622
X7.7493Y-3.5761
X7.7493Y-3.668
X7.7953Y-3.5571
X7.7953Y-3.687
X7.8412Y-3.5761
X7.8412Y-3.668
X7.8602Y-3.622
T2
X7.8071Y-8.9583
X7.9071Y-8.9583
X8.0071Y-8.9583
X8.1071Y-8.9583
X8.2071Y-8.9583
X8.3071Y-8.9583
X8.4071Y-8.9583
T3
X7.7953Y-3.622
X7.1004Y-6.2992
X8.5433Y-8.5827
X4.9606Y-3.6614
X5.7874Y-9.0157
X8.5433Y-6.6929
X4.9803Y-5.6102
T0
M30
